<svg xmlns="http://www.w3.org/2000/svg" viewBox="0 0 330.78 54"><defs><style>.cls-1{fill:#e6b93b;}.cls-2{fill:#fff;}.cls-3{fill:#ff4a46;}.cls-4{fill:#e6e6e6;}.cls-5{fill:#534741;}.cls-6{fill:#999;}</style></defs><title>step</title><g id="圖層_2" data-name="圖層 2"><path class="cls-1" d="M309.53,50.17H16.83A16.83,16.83,0,0,1,0,33.34H0A16.83,16.83,0,0,1,16.83,16.51H309.53a16.83,16.83,0,0,1,16.83,16.83h0A16.83,16.83,0,0,1,309.53,50.17Z"/><path class="cls-2" d="M1.23,39.65,24.37,16.51H21.54l-21,21A16.68,16.68,0,0,0,1.23,39.65Z"/><path class="cls-2" d="M.64,28.78,12.26,17.16A16.74,16.74,0,0,0,6.57,20L3.51,23.09A16.74,16.74,0,0,0,.64,28.78Z"/><path class="cls-2" d="M6.14,46.34,36,16.51H33.13L4.68,45A16.93,16.93,0,0,0,6.14,46.34Z"/><path class="cls-2" d="M14.13,49.93,47.55,16.51H44.72l-32.9,32.9A16.74,16.74,0,0,0,14.13,49.93Z"/><polygon class="cls-2" points="25.49 50.17 59.15 16.52 56.32 16.52 22.66 50.17 25.49 50.17"/><polygon class="cls-2" points="37.09 50.17 70.74 16.52 67.91 16.52 34.26 50.17 37.09 50.17"/><polygon class="cls-2" points="48.68 50.17 82.33 16.52 79.5 16.52 45.85 50.17 48.68 50.17"/><polygon class="cls-2" points="60.27 50.17 93.93 16.52 91.1 16.52 57.45 50.17 60.27 50.17"/><polygon class="cls-2" points="71.87 50.17 105.52 16.52 102.69 16.52 69.04 50.17 71.87 50.17"/><polygon class="cls-2" points="83.46 50.17 117.11 16.52 114.28 16.52 80.63 50.17 83.46 50.17"/><polygon class="cls-2" points="95.05 50.17 128.71 16.52 125.88 16.52 92.22 50.17 95.05 50.17"/><polygon class="cls-2" points="106.65 50.17 140.3 16.52 137.47 16.52 103.82 50.17 106.65 50.17"/><polygon class="cls-2" points="118.24 50.17 151.89 16.52 149.06 16.52 115.41 50.17 118.24 50.17"/><polygon class="cls-2" points="129.83 50.17 163.49 16.52 160.66 16.52 127 50.17 129.83 50.17"/><polygon class="cls-2" points="141.43 50.17 175.08 16.52 172.25 16.52 138.6 50.17 141.43 50.17"/><polygon class="cls-2" points="153.02 50.17 186.67 16.52 183.84 16.52 150.19 50.17 153.02 50.17"/><polygon class="cls-2" points="164.61 50.17 198.27 16.52 195.44 16.52 161.78 50.17 164.61 50.17"/><polygon class="cls-2" points="176.21 50.17 209.86 16.52 207.03 16.52 173.38 50.17 176.21 50.17"/><polygon class="cls-2" points="187.8 50.17 221.45 16.52 218.62 16.52 184.97 50.17 187.8 50.17"/><polygon class="cls-2" points="199.39 50.17 233.05 16.52 230.22 16.52 196.56 50.17 199.39 50.17"/><polygon class="cls-2" points="210.99 50.17 244.64 16.52 241.81 16.52 208.16 50.17 210.99 50.17"/><polygon class="cls-2" points="222.58 50.17 256.23 16.52 253.4 16.52 219.75 50.17 222.58 50.17"/><polygon class="cls-2" points="234.17 50.17 267.83 16.52 265 16.52 231.35 50.17 234.17 50.17"/><polygon class="cls-2" points="245.77 50.17 279.42 16.52 276.59 16.52 242.94 50.17 245.77 50.17"/><polygon class="cls-2" points="257.36 50.17 291.01 16.52 288.19 16.52 254.53 50.17 257.36 50.17"/><polygon class="cls-2" points="268.95 50.17 302.61 16.52 299.78 16.52 266.13 50.17 268.95 50.17"/><path class="cls-2" d="M280.55,50.17,313.67,17a16.68,16.68,0,0,0-2.39-.44L277.72,50.17Z"/><path class="cls-2" d="M292.14,50.17l29-29a16.84,16.84,0,0,0-1.54-1.29L289.31,50.17Z"/><path class="cls-2" d="M305.94,50.17,326,30.07a16.65,16.65,0,0,0-.61-2.22L303.11,50.17Z"/><rect class="cls-3" x="97.56" y="10.68" width="30" height="30"/><rect class="cls-3" x="67.56" y="10.68" width="30" height="30"/><rect class="cls-3" x="37.56" y="10.68" width="30" height="30"/><path class="cls-3" d="M22.56,10.68a15,15,0,0,0,0,30h15v-30Z"/><rect class="cls-3" x="217.56" y="10.68" width="30" height="30"/><rect class="cls-3" x="127.56" y="10.68" width="30" height="30"/><rect class="cls-3" x="187.56" y="10.68" width="30" height="30"/><polygon class="cls-2" points="277.56 10.68 247.56 10.68 247.56 40.68 277.56 40.68 277.56 40.68 277.56 10.68"/><polygon class="cls-2" points="287.66 10.68 277.58 10.68 277.58 40.68 287.66 40.68 287.66 40.68 287.66 10.68"/><rect class="cls-3" x="157.56" y="10.68" width="30" height="30"/><path class="cls-2" d="M54.19,26a1.65,1.65,0,0,0,1.65-1.65V20.22h-7v1.64h5.25v2.45H48.8v7h7V29.67H50.55V26Z"/><path class="cls-2" d="M79.35,20.22v1.61H84.6v2.48H80.43V26H84.6V29.7H79.35v1.61h5.38a1.64,1.64,0,0,0,1.63-1.65V20.22Z"/><path class="cls-2" d="M114.14,20.22v4.09h-3.78V20.22H108.6v4.11A1.65,1.65,0,0,0,110.24,26h3.89v5.33h1.75V20.22Z"/><path class="cls-2" d="M144.86,21.87V20.22h-7V26h5.25v3.69h-5.25v1.64h5.41a1.65,1.65,0,0,0,1.59-1.65V24.32H139.6V21.87Z"/><path class="cls-2" d="M170.85,24.32V21.87h5V20.22H169.1V31.31h5.43a1.65,1.65,0,0,0,1.61-1.65V24.32ZM174.39,26v3.69h-3.53V26Z"/><path class="cls-2" d="M204.88,20.22H199.5v1.64h5.27v9.44h1.75V21.85A1.64,1.64,0,0,0,204.88,20.22Z"/><path class="cls-2" d="M228.5,20.22V31.31h5.42a1.65,1.65,0,0,0,1.61-1.65V20.22Zm1.75,4.09V21.87h3.52v2.45ZM233.77,26v3.69h-3.52V26Z"/><path class="cls-3" d="M258.75,20.22V26H264v3.69h-5.25v1.64h5.42a1.65,1.65,0,0,0,1.61-1.65V20.22Zm1.75,4.09V21.87H264v2.45Z"/><polygon class="cls-2" points="19.9 20.22 19.9 21.87 22.26 21.87 22.26 31.31 24.01 31.31 24.01 20.22 19.9 20.22"/><path class="cls-3" d="M283.5,42.68H22.56a17,17,0,0,1,0-34H283.5a17,17,0,0,1,0,34Zm-260.94-30a13,13,0,0,0,0,26H283.5a13,13,0,0,0,0-26Z"/><circle class="cls-2" cx="303.78" cy="27" r="25"/><path class="cls-3" d="M303.78,54a27,27,0,1,1,27-27A27,27,0,0,1,303.78,54Zm0-50a23,23,0,1,0,23,23A23,23,0,0,0,303.78,4Z"/><polygon class="cls-4" points="311.56 41.43 286.75 31.19 286.75 26.84 311.63 37.11 311.56 41.43"/><path class="cls-5" d="M311.56,41.8l-.14,0-24.8-10.23a.37.37,0,0,1-.23-.34V26.84a.37.37,0,0,1,.51-.34l24.88,10.27a.37.37,0,0,1,.23.35l-.08,4.31a.37.37,0,0,1-.37.36ZM287.12,30.95l24.08,9.93.06-3.52-24.14-10Z"/><path class="cls-5" d="M308.69,39l-19.46-8.09a.38.38,0,0,1-.23-.35V29.7a.38.38,0,0,1,.52-.35L309,37.45a.38.38,0,0,1,.23.35l0,.88A.38.38,0,0,1,308.69,39Z"/><polygon class="cls-4" points="320.75 23.41 311.63 37.14 311.63 41.49 320.45 27.75 320.75 23.41"/><path class="cls-5" d="M311.63,41.86h-.1a.37.37,0,0,1-.27-.35V37.14a.37.37,0,0,1,.06-.2l9.12-13.73a.37.37,0,0,1,.68.23l-.3,4.34a.37.37,0,0,1-.06.17l-8.82,13.74A.37.37,0,0,1,311.63,41.86Zm.37-4.61v3l8.09-12.6.2-2.86Z"/><polygon class="cls-6" points="295.16 26.22 307.1 31.33 312.35 24.14 301.08 19.32 295.16 26.22"/><path class="cls-5" d="M307.1,31.7a.37.37,0,0,1-.15,0L295,26.56a.37.37,0,0,1-.13-.58l5.92-6.9a.37.37,0,0,1,.43-.1l11.26,4.82a.37.37,0,0,1,.15.56l-5.25,7.19A.37.37,0,0,1,307.1,31.7Zm-11.33-5.62L307,30.87l4.8-6.58-10.59-4.53Z"/><polygon class="cls-4" points="312.35 24.14 307.1 31.33 313.66 34.14 318.54 26.79 312.35 24.14"/><path class="cls-5" d="M313.66,34.51a.37.37,0,0,1-.15,0L307,31.67a.37.37,0,0,1-.15-.56L312,23.92a.37.37,0,0,1,.44-.12l6.19,2.65a.37.37,0,0,1,.16.54L314,34.34A.37.37,0,0,1,313.66,34.51Zm-6-3.33,5.85,2.51L318,27l-5.51-2.36Z"/><polygon class="cls-4" points="301.08 19.32 295.43 16.9 289.46 23.78 295.16 26.22 301.08 19.32"/><path class="cls-5" d="M295.16,26.59a.37.37,0,0,1-.15,0l-5.7-2.44a.37.37,0,0,1-.13-.58l6-6.89a.37.37,0,0,1,.42-.1L301.23,19a.37.37,0,0,1,.13.58l-5.92,6.9A.37.37,0,0,1,295.16,26.59Zm-5.09-2.95,5,2.13,5.42-6.32-4.94-2.12Z"/><polygon class="cls-4" points="314.73 20.87 303.67 16.31 297.98 13.96 295.43 16.9 301.08 19.32 312.35 24.14 318.54 26.79 320.8 23.38 314.73 20.87"/><path class="cls-5" d="M318.54,27.15a.37.37,0,0,1-.15,0l-23.11-9.89a.37.37,0,0,1-.13-.58l2.55-2.94a.37.37,0,0,1,.42-.1l16.75,6.92h0L320.94,23a.37.37,0,0,1,.17.54L318.84,27A.37.37,0,0,1,318.54,27.15ZM296,16.76l22.36,9.57,1.84-2.78L298.08,14.4Z"/><polygon class="cls-4" points="295.16 26.22 289.46 23.78 286.76 26.91 292.53 29.29 304.87 34.38 311.64 37.18 313.66 34.14 307.1 31.33 295.16 26.22"/><path class="cls-5" d="M311.64,37.55l-.14,0L286.62,27.25a.37.37,0,0,1-.14-.58l2.71-3.12a.37.37,0,0,1,.42-.1l5.7,2.44h0l18.5,7.92a.37.37,0,0,1,.16.54l-2,3A.37.37,0,0,1,311.64,37.55ZM287.37,26.76l24.13,10,1.61-2.42L289.57,24.23Z"/><path class="cls-5" d="M295.11,21.89c.28-1,1.73-1.38,3.24-.94a4.29,4.29,0,0,1,1,.42l1.58-1.84a7.43,7.43,0,0,0-2.1-.89c-3-.76-5.94.42-6.5,2.64-.46,1.82.81,3.78,2.95,4.84l1.61-1.87C295.62,23.74,294.86,22.75,295.11,21.89Z"/><path class="cls-5" d="M295.24,26.5a.37.37,0,0,1-.16,0c-2.38-1.18-3.64-3.3-3.14-5.26.61-2.41,3.73-3.72,6.95-2.9a7.77,7.77,0,0,1,2.21.93.37.37,0,0,1,.08.55l-1.58,1.84a.37.37,0,0,1-.47.08,3.9,3.9,0,0,0-.89-.38c-1.29-.38-2.56-.06-2.78.69h0c-.19.65.47,1.47,1.53,1.92a.37.37,0,0,1,.14.58l-1.61,1.87A.37.37,0,0,1,295.24,26.5Zm1.71-7.71c-2.12,0-3.89,1-4.3,2.59s.64,3.26,2.5,4.29l1.1-1.29a2.43,2.43,0,0,1-1.5-2.59h0c.34-1.17,2-1.7,3.7-1.19a4.7,4.7,0,0,1,.78.31l1.09-1.27a7.12,7.12,0,0,0-1.63-.63A7.2,7.2,0,0,0,296.95,18.78Z"/><path class="cls-2" d="M295.11,21.89c-.25.85.51,1.84,1.74,2.36l2.47-2.88a4.29,4.29,0,0,0-1-.42C296.84,20.51,295.39,20.93,295.11,21.89Z"/><path class="cls-5" d="M296.85,24.63a.36.36,0,0,1-.14,0c-1.43-.6-2.25-1.79-1.95-2.81h0c.34-1.17,2-1.7,3.7-1.19a4.65,4.65,0,0,1,1.05.45.37.37,0,0,1,.09.56l-2.47,2.88A.37.37,0,0,1,296.85,24.63ZM295.46,22c-.17.6.37,1.34,1.29,1.81l2-2.32a4.05,4.05,0,0,0-.49-.18c-1.29-.38-2.56-.06-2.78.69Z"/><path class="cls-5" d="M312.2,24.34l-1.43,2c1.47.75,2.29,2,1.85,2.91s-2.1,1.06-3.66.32l-.39-.21-1.43,2a9.13,9.13,0,0,0,.85.42c3.17,1.36,6.51.73,7.47-1.4C316.33,28.34,314.89,25.79,312.2,24.34Z"/><path class="cls-5" d="M311.31,32.78a8.88,8.88,0,0,1-3.47-.74,9.46,9.46,0,0,1-.89-.44.37.37,0,0,1-.12-.54l1.43-2a.37.37,0,0,1,.48-.1l.37.19c1.36.64,2.82.57,3.18-.15s-.42-1.77-1.69-2.42a.37.37,0,0,1-.13-.55l1.43-2a.37.37,0,0,1,.47-.11c2.89,1.56,4.36,4.33,3.41,6.43C315.12,32,313.37,32.78,311.31,32.78Zm-3.63-1.63.45.21c3,1.28,6.11.73,7-1.22.75-1.68-.45-3.93-2.81-5.32l-1,1.36c1.43.88,2.13,2.2,1.64,3.19s-2.38,1.32-4.15.49l-.13-.06Z"/><path class="cls-2" d="M309,29.53c1.57.74,3.21.6,3.66-.32s-.39-2.16-1.85-2.91l-2.21,3Z"/><path class="cls-5" d="M310.92,30.37a5.05,5.05,0,0,1-2.12-.51h0l-.42-.22a.37.37,0,0,1-.11-.54l2.21-3a.37.37,0,0,1,.47-.11c1.68.86,2.55,2.33,2,3.4A2.14,2.14,0,0,1,310.92,30.37Zm-1.8-1.18c1.36.64,2.82.57,3.18-.15s-.31-1.61-1.42-2.27l-1.76,2.42Z"/><path class="cls-2" d="M301.5,27.14l-.65-.33.58-.81.65.33Zm2-5,2.38,1.21a.54.54,0,0,1,.3.49,1.11,1.11,0,0,1-.24.7l-.77,1.08a1.41,1.41,0,0,1-.63.5.77.77,0,0,1-.66,0l-1.2-.61s0,0-.06,0l-.3.41-.65-.33.3-.41a1.4,1.4,0,0,1,.63-.5.78.78,0,0,1,.66,0l1.2.61s0,0,.06,0l.77-1.08s0,0,0-.06L303,22.92Z"/></g></svg>