<?xml version="1.0" encoding="utf-8"?>
<!-- Generator: Adobe Illustrator 21.0.2, SVG Export Plug-In . SVG Version: 6.00 Build 0)  -->
<svg version="1.1" id="圖層_1" xmlns="http://www.w3.org/2000/svg" xmlns:xlink="http://www.w3.org/1999/xlink" x="0px" y="0px"
	 viewBox="0 0 295 140" style="enable-background:new 0 0 295 140;" xml:space="preserve">
<style type="text/css">
	.st0{fill:#E6B93B;}
	.st1{fill:#FFFFFF;}
	.st2{fill:#FF4A46;}
	.st3{fill:#534741;}
	.st4{fill:#FBD23B;}
</style>
<g>
	<g>
		<g>
			<g>
				<path class="st0" d="M218,140H47.8C21.5,140,0,118.5,0,92.3l0,0c0-26.2,21.5-47.7,47.8-47.7H218c26.3,0,47.8,21.5,47.8,47.7l0,0
					C265.8,118.5,244.3,140,218,140z"/>
			</g>
		</g>
	</g>
	<g>
		<path class="st1" d="M27.8,49L4.4,72.3c-0.7,1.5-1.3,3.1-1.9,4.7l29.9-29.9C30.9,47.7,29.3,48.3,27.8,49z"/>
	</g>
	<g>
		<path class="st1" d="M45.1,44.7c-0.5,0-1,0.1-1.5,0.1L0.2,88.1c-0.1,1-0.1,2-0.2,3l45.8-45.7L45.1,44.7z"/>
	</g>
	<g>
		<path class="st1" d="M56.6,44.6h-1.2L0.5,99.3c0.1,0.8,0.3,1.6,0.4,2.4l56.4-56.3L56.6,44.6z"/>
	</g>
	<g>
		<path class="st1" d="M68.1,44.6h-1.2l-64,63.9c0.2,0.7,0.5,1.4,0.8,2L69,45.4L68.1,44.6z"/>
	</g>
	<g>
		<path class="st1" d="M79.7,44.6h-1.2L6.6,116.3c0.3,0.6,0.7,1.2,1.1,1.7l72.9-72.7L79.7,44.6z"/>
	</g>
	<g>
		<path class="st1" d="M91.3,44.6H90l-78.7,78.5c0.4,0.5,0.9,1,1.3,1.5L92,45.4L91.3,44.6z"/>
	</g>
	<g>
		<path class="st1" d="M102.8,44.6h-1.2l-84.4,84.2c0.5,0.4,1,0.8,1.6,1.3l84.9-84.7L102.8,44.6z"/>
	</g>
	<g>
		<path class="st1" d="M114.4,44.6h-1.2l-89.2,89c0.6,0.3,1.2,0.7,1.8,1l89.4-89.2L114.4,44.6z"/>
	</g>
	<g>
		<path class="st1" d="M125.9,44.6h-1.2l-92.9,92.6c0.7,0.2,1.4,0.5,2.1,0.7l92.8-92.5L125.9,44.6z"/>
	</g>
	<g>
		<path class="st1" d="M137.5,44.6h-1.2l-94.9,94.6l0.4,0.4c0.6,0.1,1.2,0.1,1.8,0.2l94.7-94.4L137.5,44.6z"/>
	</g>
	<g>
		<polygon class="st1" points="149.1,44.6 147.8,44.6 53,139.2 53.8,140 55,140 149.8,45.4 		"/>
	</g>
	<g>
		<polygon class="st1" points="160.6,44.6 159.4,44.6 64.5,139.2 65.3,140 66.6,140 161.4,45.4 		"/>
	</g>
	<g>
		<polygon class="st1" points="172.2,44.6 170.9,44.6 76.1,139.2 76.9,140 78.1,140 173,45.4 		"/>
	</g>
	<g>
		<polygon class="st1" points="183.7,44.6 182.5,44.6 87.6,139.2 88.4,140 89.7,140 184.5,45.4 		"/>
	</g>
	<g>
		<polygon class="st1" points="195.3,44.6 194.1,44.6 99.2,139.2 100,140 101.2,140 196.1,45.4 		"/>
	</g>
	<g>
		<polygon class="st1" points="206.9,44.6 205.6,44.6 110.8,139.2 111.6,140 112.8,140 207.6,45.4 		"/>
	</g>
	<g>
		<path class="st1" d="M218.4,44.6c-0.2,0-0.3,0-0.5,0h-0.8l-94.9,94.6l0.8,0.8h1.2l94.9-94.6L218.4,44.6z"/>
	</g>
	<g>
		<path class="st1" d="M227.7,45.6l-93.8,93.6l0.8,0.8h1.2L230,46.1C229.3,46,228.5,45.8,227.7,45.6z"/>
	</g>
	<g>
		<path class="st1" d="M236.5,48.4l-91.1,90.8l0.8,0.8h1.2l91-90.8C237.8,48.9,237.2,48.6,236.5,48.4z"/>
	</g>
	<g>
		<path class="st1" d="M244,52.4l-87,86.8l0.8,0.8h1.2l86.7-86.5C245.2,53.1,244.6,52.8,244,52.4z"/>
	</g>
	<g>
		<path class="st1" d="M250.5,57.5l-82,81.7l0.8,0.8h1.2L252,58.8C251.5,58.4,251,57.9,250.5,57.5z"/>
	</g>
	<g>
		<path class="st1" d="M256,63.5l-75.9,75.7l0.8,0.8h1.2l75-74.9C256.8,64.6,256.4,64,256,63.5z"/>
	</g>
	<g>
		<path class="st1" d="M260.5,70.6l-68.8,68.6l0.8,0.8h1.2l67.7-67.5C261.1,71.8,260.8,71.2,260.5,70.6z"/>
	</g>
	<g>
		<path class="st1" d="M263.8,78.8l-60.6,60.4l0.8,0.8h1.2l59.1-59C264.2,80.3,264,79.5,263.8,78.8z"/>
	</g>
	<g>
		<path class="st1" d="M265.6,88.5l-50.8,50.7l0.8,0.8h1.2l48.9-48.8C265.7,90.3,265.7,89.4,265.6,88.5z"/>
	</g>
	<g>
		<path class="st1" d="M226.4,139.2c1.2-0.2,2.4-0.5,3.5-0.8l34.3-34.2c0.3-1.2,0.6-2.4,0.8-3.6L226.4,139.2L226.4,139.2z"/>
	</g>
</g>
<g>
	<g>
		<path class="st2" d="M245,128.2H55.7c-26.1,0-47.5-21.3-47.5-47.4l0,0c0-26.1,21.4-47.4,47.5-47.4H245c26.1,0,47.5,21.3,47.5,47.4
			l0,0C292.5,106.9,271.1,128.2,245,128.2z"/>
		<path class="st3" d="M245,130.7H55.7c-27.6,0-50-22.4-50-49.9s22.4-49.9,50-49.9H245c27.6,0,50,22.4,50,49.9
			S272.6,130.7,245,130.7z M55.7,36c-24.8,0-45,20.1-45,44.9s20.2,44.9,45,44.9H245c24.8,0,45-20.1,45-44.9
			c0-24.7-20.2-44.9-45-44.9H55.7z"/>
	</g>
</g>
<g>
	<g>
		<g>
			<g>
				<ellipse class="st4" cx="70.2" cy="43.1" rx="3.3" ry="3.3"/>
			</g>
			<g>
				<path class="st3" d="M70.2,47.3c-2.3,0-4.2-1.9-4.2-4.2s1.9-4.2,4.2-4.2c2.3,0,4.2,1.9,4.2,4.2C74.5,45.5,72.6,47.3,70.2,47.3z
					 M70.2,40.8c-1.3,0-2.4,1.1-2.4,2.4c0,1.3,1.1,2.4,2.4,2.4s2.4-1.1,2.4-2.4C72.6,41.8,71.5,40.8,70.2,40.8z"/>
			</g>
		</g>
	</g>
	<g>
		<g>
			<g>
				<ellipse class="st4" cx="230.4" cy="43.1" rx="3.3" ry="3.3"/>
			</g>
			<g>
				<path class="st3" d="M230.4,47.3c-2.3,0-4.2-1.9-4.2-4.2s1.9-4.2,4.2-4.2s4.2,1.9,4.2,4.2C234.7,45.5,232.8,47.3,230.4,47.3z
					 M230.4,40.8c-1.3,0-2.4,1.1-2.4,2.4c0,1.3,1.1,2.4,2.4,2.4c1.3,0,2.4-1.1,2.4-2.4C232.8,41.8,231.7,40.8,230.4,40.8z"/>
			</g>
		</g>
	</g>
</g>
<g>
	<g>
		<g>
			<g>
				<path class="st3" d="M227.8,4.9c0.1-0.3,0.4-0.6,0.7-0.7s0.6-0.2,0.9-0.2c0.9-0.1,1.8,0,2.5-0.6c0.4-0.4,0.7-0.9,0.8-1.5
					s0-1.2,0-1.8c-0.6,0.5-1.3,0.7-2.1,0.7c-0.3,0-0.7-0.1-1-0.1c-0.9,0.1-1.6,0.8-1.9,1.6C227.4,3.2,227.5,4.1,227.8,4.9"/>
			</g>
		</g>
		<g>
			<g>
				<g>
					<path class="st3" d="M228,5c0.6-1.4,3-0.5,4.1-1.4c1-0.8,0.9-2.2,0.8-3.4c0-0.1-0.1-0.2-0.3-0.2c-0.5,0.4-1,0.6-1.7,0.6
						c-0.4,0-0.9-0.1-1.3-0.1c-0.5,0.1-1,0.3-1.4,0.7c-1,1-0.9,2.5-0.6,3.7c0.1,0.2,0.4,0.1,0.3-0.1c-0.5-1.6-0.2-3.9,1.9-3.9
						c1.1,0,1.9,0,2.8-0.6c-0.1-0.1-0.2-0.1-0.3-0.2c0.1,0.8,0.2,1.7-0.2,2.5c-0.5,1-1.5,1.1-2.5,1.1c-0.8,0.1-1.8,0.2-2.2,1
						C227.6,5.1,227.9,5.2,228,5z"/>
				</g>
			</g>
		</g>
	</g>
	<g>
		<g>
			<g>
				<path class="st3" d="M227.8,10.1c0.1-0.3,0.4-0.6,0.7-0.7c0.3-0.1,0.6-0.2,0.9-0.2c0.9-0.1,1.8,0,2.5-0.6
					c0.4-0.4,0.7-0.9,0.8-1.5s0-1.2,0-1.8c-0.6,0.5-1.3,0.7-2.1,0.7c-0.3,0-0.7-0.1-1-0.1c-0.9,0.1-1.6,0.8-1.9,1.6
					C227.4,8.3,227.5,9.2,227.8,10.1"/>
			</g>
		</g>
		<g>
			<g>
				<g>
					<path class="st3" d="M228,10.1c0.6-1.4,3-0.5,4.1-1.4c1-0.8,0.9-2.2,0.8-3.4c0-0.1-0.1-0.2-0.3-0.2c-0.5,0.4-1,0.6-1.7,0.6
						c-0.4,0-0.9-0.1-1.3-0.1c-0.5,0.1-1,0.3-1.4,0.7c-1,1-0.9,2.5-0.6,3.7c0.1,0.2,0.4,0.1,0.3-0.1c-0.5-1.6-0.2-3.9,1.9-3.9
						c1.1,0,1.9,0,2.8-0.6c-0.1-0.1-0.2-0.1-0.3-0.2c0.1,0.8,0.2,1.7-0.2,2.5c-0.5,1-1.5,1.1-2.5,1.2c-0.8,0.1-1.8,0.2-2.2,1
						C227.6,10.2,227.9,10.4,228,10.1z"/>
				</g>
			</g>
		</g>
	</g>
	<g>
		<g>
			<g>
				<path class="st3" d="M227.8,15.2c0.1-0.3,0.4-0.6,0.7-0.7c0.3-0.1,0.6-0.2,0.9-0.2c0.9-0.1,1.8,0,2.5-0.6
					c0.4-0.4,0.7-0.9,0.8-1.5s0-1.2,0-1.8c-0.6,0.5-1.3,0.7-2.1,0.7c-0.3,0-0.7-0.1-1-0.1c-0.9,0.1-1.6,0.8-1.9,1.6
					C227.4,13.4,227.5,14.4,227.8,15.2"/>
			</g>
		</g>
		<g>
			<g>
				<g>
					<path class="st3" d="M228,15.3c0.6-1.4,3-0.5,4.1-1.4c1-0.8,0.9-2.2,0.8-3.4c0-0.1-0.1-0.2-0.3-0.2c-0.5,0.4-1,0.6-1.7,0.6
						c-0.4,0-0.9-0.1-1.3-0.1c-0.5,0.1-1,0.3-1.4,0.7c-1,1-0.9,2.5-0.6,3.7c0.1,0.2,0.4,0.1,0.3-0.1c-0.5-1.6-0.2-3.9,1.9-3.9
						c1.1,0,1.9,0,2.8-0.6c-0.1-0.1-0.2-0.1-0.3-0.2c0.1,0.8,0.2,1.7-0.2,2.5c-0.5,1-1.5,1.1-2.5,1.1c-0.8,0.1-1.8,0.2-2.2,1
						C227.6,15.3,227.9,15.5,228,15.3z"/>
				</g>
			</g>
		</g>
	</g>
	<g>
		<g>
			<g>
				<path class="st3" d="M227.8,20.3c0.1-0.3,0.4-0.6,0.7-0.7s0.6-0.2,0.9-0.2c0.9-0.1,1.8,0,2.5-0.6c0.4-0.4,0.7-0.9,0.8-1.5
					s0-1.2,0-1.7c-0.6,0.5-1.3,0.7-2.1,0.7c-0.3,0-0.7-0.1-1-0.1c-0.9,0.1-1.6,0.8-1.9,1.6C227.4,18.6,227.5,19.5,227.8,20.3"/>
			</g>
		</g>
		<g>
			<g>
				<g>
					<path class="st3" d="M228,20.4c0.6-1.4,3-0.5,4.1-1.4c1-0.8,0.9-2.2,0.8-3.4c0-0.1-0.1-0.2-0.3-0.2c-0.5,0.4-1,0.6-1.7,0.6
						c-0.4,0-0.9-0.1-1.3-0.1c-0.5,0.1-1,0.3-1.4,0.7c-1,1-0.9,2.5-0.6,3.7c0.1,0.2,0.4,0.1,0.3-0.1c-0.5-1.6-0.2-3.9,1.9-3.9
						c1.1,0,1.9,0,2.8-0.6c-0.1-0.1-0.2-0.1-0.3-0.2c0.1,0.8,0.2,1.7-0.2,2.5c-0.5,1-1.5,1.1-2.5,1.2c-0.8,0.1-1.8,0.2-2.2,1
						C227.6,20.4,227.9,20.6,228,20.4z"/>
				</g>
			</g>
		</g>
	</g>
	<g>
		<g>
			<g>
				<path class="st3" d="M227.8,25.4c0.1-0.3,0.4-0.6,0.7-0.7s0.6-0.2,0.9-0.2c0.9-0.1,1.8,0,2.5-0.6c0.4-0.4,0.7-0.9,0.8-1.5
					s0-1.2,0-1.8c-0.6,0.5-1.3,0.7-2.1,0.7c-0.3,0-0.7-0.1-1-0.1c-0.9,0.1-1.6,0.8-1.9,1.6C227.4,23.7,227.5,24.6,227.8,25.4"/>
			</g>
		</g>
		<g>
			<g>
				<g>
					<path class="st3" d="M228,25.5c0.6-1.4,3-0.5,4.1-1.4c1-0.8,0.9-2.2,0.8-3.4c0-0.1-0.1-0.2-0.3-0.2c-0.5,0.4-1,0.6-1.7,0.6
						c-0.4,0-0.9-0.1-1.3-0.1c-0.5,0.1-1,0.3-1.4,0.7c-1,1-0.9,2.5-0.6,3.7c0.1,0.2,0.4,0.1,0.3-0.1c-0.5-1.6-0.2-3.9,1.9-3.9
						c1.1,0,1.9,0,2.8-0.6c-0.1-0.1-0.2-0.1-0.3-0.2c0.1,0.8,0.2,1.7-0.2,2.5c-0.5,1-1.5,1.1-2.5,1.1c-0.8,0.1-1.8,0.2-2.2,1
						C227.6,25.5,227.9,25.7,228,25.5z"/>
				</g>
			</g>
		</g>
	</g>
</g>
<g>
	<g>
		<g>
			<g>
				<path class="st3" d="M67.9,4.9c0.1-0.3,0.4-0.6,0.7-0.7C68.9,4.1,69.2,4,69.5,4c0.8,0,1.8,0,2.5-0.5c0.4-0.4,0.7-0.9,0.8-1.5
					c0.1-0.6,0-1.2,0-1.8c-0.6,0.5-1.3,0.7-2.1,0.7c-0.3,0-0.7-0.1-1-0.1c-0.9,0.1-1.6,0.8-1.9,1.6S67.6,4.1,67.9,4.9"/>
			</g>
		</g>
		<g>
			<g>
				<g>
					<path class="st3" d="M68,5c0.6-1.4,3-0.5,4.1-1.4c1-0.8,0.9-2.2,0.8-3.4c0-0.1-0.1-0.2-0.3-0.2c-0.5,0.4-1,0.6-1.7,0.6
						c-0.4,0-0.9-0.1-1.3-0.1c-0.5,0.1-1,0.3-1.4,0.7c-1,1-0.9,2.5-0.6,3.7C67.7,5.1,68,5,67.9,4.8C67.6,3.3,67.9,1,70,1
						c1.1,0,1.9,0,2.8-0.6c-0.1-0.1-0.2-0.1-0.3-0.2c0.1,0.8,0.2,1.7-0.2,2.5c-0.5,1-1.5,1.1-2.5,1.1C69,3.9,68,4,67.6,4.8
						C67.6,5.1,67.9,5.2,68,5z"/>
				</g>
			</g>
		</g>
	</g>
	<g>
		<g>
			<g>
				<path class="st3" d="M67.9,10.1c0.1-0.3,0.4-0.6,0.7-0.7c0.3-0.1,0.6-0.2,0.9-0.2c0.9-0.1,1.8,0,2.5-0.6
					c0.4-0.4,0.7-0.9,0.8-1.5c0.1-0.6,0-1.2,0-1.8C72.2,5.8,71.4,6,70.7,6c-0.3,0-0.7-0.1-1-0.1c-0.9,0.1-1.6,0.8-1.9,1.6
					C67.5,8.3,67.6,9.2,67.9,10.1"/>
			</g>
		</g>
		<g>
			<g>
				<g>
					<path class="st3" d="M68,10.1c0.6-1.4,3-0.5,4.1-1.4c1-0.8,0.9-2.2,0.8-3.4c0-0.1-0.1-0.2-0.3-0.2c-0.5,0.4-1,0.6-1.7,0.6
						c-0.4,0-0.9-0.1-1.3-0.1c-0.5,0.1-1,0.3-1.4,0.7c-1,1-0.9,2.5-0.6,3.7c0.1,0.2,0.4,0.1,0.3-0.1C67.4,8.3,67.7,6,69.8,6
						c1.1,0,1.9,0,2.8-0.6c-0.1-0.1-0.2-0.1-0.3-0.2c0.1,0.8,0.2,1.7-0.2,2.5c-0.5,1-1.5,1.1-2.5,1.2c-0.8,0.1-1.8,0.2-2.2,1
						C67.6,10.2,67.9,10.4,68,10.1z"/>
				</g>
			</g>
		</g>
	</g>
	<g>
		<g>
			<g>
				<path class="st3" d="M67.9,15.2c0.1-0.3,0.4-0.6,0.7-0.7c0.3-0.1,0.6-0.2,0.9-0.2c0.9-0.1,1.8,0,2.5-0.6
					c0.4-0.4,0.7-0.9,0.8-1.5c0.1-0.6,0-1.2,0-1.8c-0.6,0.5-1.3,0.7-2.1,0.7c-0.3,0-0.7-0.1-1-0.1c-0.9,0.1-1.6,0.8-1.9,1.6
					S67.6,14.4,67.9,15.2"/>
			</g>
		</g>
		<g>
			<g>
				<g>
					<path class="st3" d="M68,15.3c0.6-1.4,3-0.5,4.1-1.4c1-0.8,0.9-2.2,0.8-3.4c0-0.1-0.1-0.2-0.3-0.2c-0.5,0.4-1,0.6-1.7,0.6
						c-0.4,0-0.9-0.1-1.3-0.1c-0.5,0.1-1,0.3-1.4,0.7c-1,1-0.9,2.5-0.6,3.7c0.1,0.2,0.4,0.1,0.3-0.1c-0.5-1.6-0.2-3.9,1.9-3.9
						c1.1,0,1.9,0,2.8-0.6c-0.1-0.1-0.2-0.1-0.3-0.2c0.1,0.8,0.2,1.7-0.2,2.5c-0.5,1-1.5,1.1-2.5,1.1c-0.8,0.1-1.8,0.2-2.2,1
						C67.6,15.3,67.9,15.5,68,15.3z"/>
				</g>
			</g>
		</g>
	</g>
	<g>
		<g>
			<g>
				<path class="st3" d="M67.9,20.3c0.1-0.3,0.4-0.6,0.7-0.7c0.3-0.1,0.6-0.2,0.9-0.2c0.9-0.1,1.8,0,2.5-0.6
					c0.4-0.4,0.7-0.9,0.8-1.5c0.1-0.6,0-1.2,0-1.7c-0.6,0.5-1.3,0.7-2.1,0.7c-0.3,0-0.7-0.1-1-0.1c-0.9,0.1-1.6,0.8-1.9,1.6
					C67.5,18.6,67.6,19.5,67.9,20.3"/>
			</g>
		</g>
		<g>
			<g>
				<g>
					<path class="st3" d="M68,20.4c0.6-1.4,3-0.5,4.1-1.4c1-0.8,0.9-2.2,0.8-3.4c0-0.1-0.1-0.2-0.3-0.2c-0.5,0.4-1,0.6-1.7,0.6
						c-0.4,0-0.9-0.1-1.3-0.1c-0.5,0.1-1,0.3-1.4,0.7c-1,1-0.9,2.5-0.6,3.7c0.1,0.2,0.4,0.1,0.3-0.1c-0.5-1.6-0.2-3.9,1.9-3.9
						c1.1,0,1.9,0,2.8-0.6c-0.1-0.1-0.2-0.1-0.3-0.2c0.1,0.8,0.2,1.7-0.2,2.5c-0.5,1-1.5,1.1-2.5,1.2c-0.8,0.1-1.8,0.2-2.2,1
						C67.6,20.4,67.9,20.6,68,20.4z"/>
				</g>
			</g>
		</g>
	</g>
	<g>
		<g>
			<g>
				<path class="st3" d="M67.9,25.4c0.1-0.3,0.4-0.6,0.7-0.7c0.3-0.1,0.6-0.2,0.9-0.2c0.9-0.1,1.8,0,2.5-0.6
					c0.4-0.4,0.7-0.9,0.8-1.5c0.1-0.6,0-1.2,0-1.8c-0.6,0.5-1.3,0.7-2.1,0.7c-0.3,0-0.7-0.1-1-0.1c-0.9,0.1-1.6,0.8-1.9,1.6
					C67.5,23.7,67.6,24.6,67.9,25.4"/>
			</g>
		</g>
		<g>
			<g>
				<g>
					<path class="st3" d="M68,25.5c0.6-1.4,3-0.5,4.1-1.4c1-0.8,0.9-2.2,0.8-3.4c0-0.1-0.1-0.2-0.3-0.2c-0.5,0.4-1,0.6-1.7,0.6
						c-0.4,0-0.9-0.1-1.3-0.1c-0.5,0.1-1,0.3-1.4,0.7c-1,1-0.9,2.5-0.6,3.7c0.1,0.2,0.4,0.1,0.3-0.1c-0.5-1.6-0.2-3.9,1.9-3.9
						c1.1,0,1.9,0,2.8-0.6c-0.1-0.1-0.2-0.1-0.3-0.2c0.1,0.8,0.2,1.7-0.2,2.5c-0.5,1-1.5,1.1-2.5,1.1c-0.8,0.1-1.8,0.2-2.2,1
						C67.6,25.5,67.9,25.7,68,25.5z"/>
				</g>
			</g>
		</g>
	</g>
</g>
<g>
	<g>
		<g>
			<rect x="228" y="28.1" class="st3" width="4.9" height="14.6"/>
		</g>
	</g>
	<g>
		<g>
			<rect x="67.8" y="28.1" class="st3" width="4.9" height="14.6"/>
		</g>
	</g>
</g>
<g>
	<path class="st4" d="M29.4,57.2v-1.8h8.1v1.8h-3v8.1h-2.2v-8.1H29.4z"/>
	<path class="st4" d="M40.8,55.4v3.8h4v-3.8H47v9.9h-2.2V61h-4v4.3h-2.2v-9.9H40.8z"/>
	<path class="st4" d="M51.1,55.4v9.9h-2.2v-9.9H51.1z"/>
	<path class="st4" d="M55.2,55.4l4.1,6.6h0v-6.6h2v9.9h-2.2l-4.1-6.6h0v6.6h-2v-9.9H55.2z"/>
	<path class="st4" d="M65.4,55.4v4.1l3.9-4.1H72l-3.9,3.9l4.2,6h-2.7l-3-4.4l-1.2,1.3v3.2h-2.2v-9.9H65.4z"/>
	<path class="st4" d="M84.3,65.3l-1.7-6.7h0L81,65.3h-2.2l-2.6-9.9h2.2l1.6,6.7h0l1.7-6.7h2l1.7,6.8h0l1.6-6.8h2.1l-2.7,9.9H84.3z"
		/>
	<path class="st4" d="M92.3,55.4v9.9h-2.2v-9.9H92.3z"/>
	<path class="st4" d="M95.9,62.9c0.1,0.2,0.3,0.4,0.5,0.6c0.2,0.1,0.4,0.2,0.7,0.3s0.5,0.1,0.8,0.1c0.2,0,0.4,0,0.6,0
		c0.2,0,0.4-0.1,0.6-0.2s0.4-0.2,0.5-0.4c0.1-0.2,0.2-0.4,0.2-0.6c0-0.3-0.1-0.5-0.3-0.7s-0.4-0.3-0.7-0.4s-0.6-0.2-0.9-0.3
		s-0.7-0.2-1.1-0.3c-0.4-0.1-0.7-0.2-1.1-0.3s-0.7-0.3-0.9-0.5c-0.3-0.2-0.5-0.5-0.7-0.8c-0.2-0.3-0.3-0.7-0.3-1.2
		c0-0.5,0.1-0.9,0.3-1.3s0.5-0.7,0.9-0.9s0.7-0.4,1.2-0.6c0.4-0.1,0.9-0.2,1.3-0.2c0.5,0,1,0.1,1.5,0.2c0.5,0.1,0.9,0.3,1.3,0.6
		c0.4,0.3,0.7,0.6,0.9,1s0.3,0.9,0.3,1.5h-2.1c0-0.3-0.1-0.5-0.2-0.7c-0.1-0.2-0.2-0.3-0.4-0.5c-0.2-0.1-0.4-0.2-0.6-0.2
		c-0.2,0-0.5-0.1-0.7-0.1c-0.2,0-0.4,0-0.5,0.1c-0.2,0-0.3,0.1-0.5,0.2c-0.1,0.1-0.3,0.2-0.4,0.3C96.1,57.6,96,57.8,96,58
		c0,0.2,0,0.4,0.1,0.5c0.1,0.1,0.2,0.2,0.4,0.3c0.2,0.1,0.5,0.2,0.9,0.3s0.9,0.2,1.5,0.4c0.2,0,0.4,0.1,0.8,0.2
		c0.3,0.1,0.7,0.3,1,0.5c0.3,0.2,0.6,0.5,0.8,0.9c0.2,0.4,0.4,0.8,0.4,1.4c0,0.5-0.1,0.9-0.3,1.3c-0.2,0.4-0.4,0.7-0.8,1
		c-0.3,0.3-0.8,0.5-1.3,0.7s-1.1,0.2-1.8,0.2c-0.5,0-1.1-0.1-1.6-0.2c-0.5-0.1-1-0.3-1.4-0.6c-0.4-0.3-0.7-0.7-0.9-1.1
		s-0.3-1-0.3-1.6h2.1C95.7,62.4,95.8,62.6,95.9,62.9z"/>
	<path class="st4" d="M110.6,55.4v1.8h-5.2v2.1h4.8v1.7h-4.8v2.4h5.3v1.8h-7.5v-9.9H110.6z"/>
	<path class="st4" d="M120.7,55.4c0.5,0,0.9,0,1.3,0.1c0.4,0.1,0.7,0.2,1,0.4c0.3,0.2,0.5,0.4,0.6,0.8c0.2,0.3,0.2,0.7,0.2,1.2
		c0,0.5-0.1,0.9-0.3,1.2c-0.2,0.3-0.6,0.6-1,0.8c0.6,0.2,1.1,0.5,1.4,0.9s0.4,1,0.4,1.6c0,0.5-0.1,0.9-0.3,1.3
		c-0.2,0.4-0.5,0.7-0.8,0.9c-0.3,0.2-0.7,0.4-1.1,0.5c-0.4,0.1-0.9,0.2-1.3,0.2H116v-9.9H120.7z M120.4,59.4c0.4,0,0.7-0.1,1-0.3
		s0.4-0.5,0.4-0.9c0-0.2,0-0.4-0.1-0.6s-0.2-0.3-0.3-0.3s-0.3-0.1-0.5-0.2c-0.2,0-0.4,0-0.6,0h-2v2.3H120.4z M120.5,63.6
		c0.2,0,0.4,0,0.6-0.1c0.2,0,0.4-0.1,0.5-0.2s0.3-0.2,0.4-0.4c0.1-0.2,0.1-0.4,0.1-0.6c0-0.5-0.1-0.9-0.4-1.1
		c-0.3-0.2-0.7-0.3-1.1-0.3h-2.4v2.7H120.5z"/>
	<path class="st4" d="M133.2,55.4v1.8h-5.2v2.1h4.8v1.7h-4.8v2.4h5.3v1.8h-7.5v-9.9H133.2z"/>
	<path class="st4" d="M141.7,55.4v1.8h-4.8v2.3h4.1v1.7h-4.1v4.1h-2.2v-9.9H141.7z"/>
	<path class="st4" d="M142.8,58.3c0.2-0.6,0.5-1.2,1-1.7c0.4-0.5,0.9-0.8,1.5-1.1c0.6-0.3,1.3-0.4,2-0.4c0.8,0,1.4,0.1,2,0.4
		s1.1,0.6,1.5,1.1c0.4,0.5,0.7,1,1,1.7c0.2,0.6,0.3,1.3,0.3,2.1c0,0.7-0.1,1.4-0.3,2c-0.2,0.6-0.5,1.2-1,1.6
		c-0.4,0.5-0.9,0.8-1.5,1.1c-0.6,0.3-1.3,0.4-2,0.4c-0.8,0-1.4-0.1-2-0.4c-0.6-0.3-1.1-0.6-1.5-1.1c-0.4-0.5-0.7-1-1-1.6
		s-0.3-1.3-0.3-2C142.5,59.7,142.6,59,142.8,58.3z M144.8,61.6c0.1,0.4,0.3,0.7,0.5,1.1c0.2,0.3,0.5,0.6,0.8,0.8
		c0.3,0.2,0.8,0.3,1.2,0.3c0.5,0,0.9-0.1,1.2-0.3c0.3-0.2,0.6-0.4,0.8-0.8c0.2-0.3,0.4-0.7,0.5-1.1c0.1-0.4,0.1-0.8,0.1-1.2
		c0-0.4,0-0.9-0.1-1.3c-0.1-0.4-0.3-0.8-0.5-1.1c-0.2-0.3-0.5-0.6-0.8-0.8c-0.3-0.2-0.8-0.3-1.2-0.3c-0.5,0-0.9,0.1-1.2,0.3
		c-0.3,0.2-0.6,0.4-0.8,0.8s-0.4,0.7-0.5,1.1c-0.1,0.4-0.1,0.8-0.1,1.3C144.7,60.8,144.7,61.2,144.8,61.6z"/>
	<path class="st4" d="M159,55.4c0.4,0,0.8,0.1,1.2,0.2c0.4,0.1,0.7,0.3,0.9,0.6s0.4,0.5,0.6,0.9c0.1,0.3,0.2,0.7,0.2,1.1
		c0,0.6-0.1,1.1-0.4,1.5c-0.2,0.4-0.6,0.7-1.2,1v0c0.3,0.1,0.5,0.2,0.7,0.3c0.2,0.2,0.3,0.3,0.4,0.5c0.1,0.2,0.2,0.4,0.2,0.7
		s0.1,0.5,0.1,0.7c0,0.2,0,0.3,0,0.6c0,0.2,0,0.4,0,0.7c0,0.2,0.1,0.4,0.1,0.6s0.1,0.4,0.2,0.5H160c-0.1-0.3-0.2-0.7-0.2-1.1
		c0-0.4-0.1-0.8-0.1-1.2c-0.1-0.5-0.2-0.9-0.5-1.1c-0.2-0.2-0.6-0.4-1.2-0.4h-2.2v3.9h-2.2v-9.9H159z M158.3,59.9
		c0.5,0,0.9-0.1,1.1-0.3c0.2-0.2,0.4-0.6,0.4-1.1c0-0.5-0.1-0.8-0.4-1s-0.6-0.3-1.1-0.3h-2.4v2.8H158.3z"/>
	<path class="st4" d="M171.1,55.4v1.8h-5.2v2.1h4.8v1.7h-4.8v2.4h5.3v1.8h-7.5v-9.9H171.1z"/>
	<path class="st4" d="M175.4,55.4h2.4l2.3,3.9l2.3-3.9h2.4l-3.7,6.1v3.8h-2.2v-3.8L175.4,55.4z"/>
	<path class="st4" d="M185.6,58.3c0.2-0.6,0.5-1.2,1-1.7c0.4-0.5,0.9-0.8,1.5-1.1s1.3-0.4,2-0.4c0.8,0,1.4,0.1,2,0.4
		s1.1,0.6,1.5,1.1c0.4,0.5,0.7,1,1,1.7c0.2,0.6,0.3,1.3,0.3,2.1c0,0.7-0.1,1.4-0.3,2c-0.2,0.6-0.5,1.2-1,1.6
		c-0.4,0.5-0.9,0.8-1.5,1.1c-0.6,0.3-1.3,0.4-2,0.4c-0.8,0-1.4-0.1-2-0.4c-0.6-0.3-1.1-0.6-1.5-1.1c-0.4-0.5-0.7-1-1-1.6
		c-0.2-0.6-0.3-1.3-0.3-2C185.3,59.7,185.4,59,185.6,58.3z M187.6,61.6c0.1,0.4,0.3,0.7,0.5,1.1c0.2,0.3,0.5,0.6,0.8,0.8
		c0.3,0.2,0.8,0.3,1.2,0.3s0.9-0.1,1.2-0.3c0.3-0.2,0.6-0.4,0.8-0.8c0.2-0.3,0.4-0.7,0.5-1.1s0.1-0.8,0.1-1.2c0-0.4,0-0.9-0.1-1.3
		c-0.1-0.4-0.3-0.8-0.5-1.1c-0.2-0.3-0.5-0.6-0.8-0.8c-0.3-0.2-0.8-0.3-1.2-0.3s-0.9,0.1-1.2,0.3c-0.3,0.2-0.6,0.4-0.8,0.8
		c-0.2,0.3-0.4,0.7-0.5,1.1c-0.1,0.4-0.1,0.8-0.1,1.3C187.5,60.8,187.5,61.2,187.6,61.6z"/>
	<path class="st4" d="M203.8,64.5c-0.7,0.7-1.8,1-3.1,1c-1.3,0-2.4-0.3-3.1-1c-0.7-0.6-1.1-1.6-1.1-3v-6.1h2.2v6.1
		c0,0.3,0,0.5,0.1,0.8c0,0.3,0.1,0.5,0.3,0.7c0.1,0.2,0.4,0.4,0.6,0.5s0.6,0.2,1.1,0.2c0.8,0,1.3-0.2,1.6-0.5
		c0.3-0.3,0.4-0.9,0.4-1.6v-6.1h2.2v6.1C204.9,62.9,204.5,63.9,203.8,64.5z"/>
	<path class="st4" d="M216.9,58.1c-0.1-0.2-0.3-0.4-0.5-0.5c-0.2-0.2-0.4-0.3-0.7-0.4c-0.2-0.1-0.5-0.1-0.8-0.1
		c-0.5,0-0.9,0.1-1.2,0.3c-0.3,0.2-0.6,0.4-0.8,0.8c-0.2,0.3-0.4,0.7-0.5,1.1c-0.1,0.4-0.1,0.8-0.1,1.3c0,0.4,0,0.8,0.1,1.2
		s0.3,0.7,0.5,1.1c0.2,0.3,0.5,0.6,0.8,0.8c0.3,0.2,0.8,0.3,1.2,0.3c0.7,0,1.2-0.2,1.6-0.6c0.4-0.4,0.6-0.9,0.7-1.6h2.1
		c-0.1,0.6-0.2,1.2-0.4,1.7c-0.2,0.5-0.5,0.9-0.9,1.3c-0.4,0.4-0.8,0.6-1.3,0.8c-0.5,0.2-1.1,0.3-1.7,0.3c-0.8,0-1.4-0.1-2-0.4
		c-0.6-0.3-1.1-0.6-1.5-1.1c-0.4-0.5-0.7-1-1-1.6c-0.2-0.6-0.3-1.3-0.3-2c0-0.7,0.1-1.4,0.3-2.1c0.2-0.6,0.5-1.2,1-1.7
		c0.4-0.5,0.9-0.8,1.5-1.1s1.3-0.4,2-0.4c0.5,0,1.1,0.1,1.5,0.2s0.9,0.4,1.3,0.7c0.4,0.3,0.7,0.7,0.9,1.1c0.2,0.4,0.4,1,0.5,1.5
		h-2.1C217.2,58.5,217.1,58.3,216.9,58.1z"/>
	<path class="st4" d="M223,55.4v3.8h4v-3.8h2.2v9.9H227V61h-4v4.3h-2.2v-9.9H223z"/>
	<path class="st4" d="M231,58.3c0.2-0.6,0.5-1.2,1-1.7c0.4-0.5,0.9-0.8,1.5-1.1s1.3-0.4,2-0.4c0.8,0,1.4,0.1,2,0.4s1.1,0.6,1.5,1.1
		c0.4,0.5,0.7,1,1,1.7c0.2,0.6,0.3,1.3,0.3,2.1c0,0.7-0.1,1.4-0.3,2c-0.2,0.6-0.5,1.2-1,1.6c-0.4,0.5-0.9,0.8-1.5,1.1
		c-0.6,0.3-1.3,0.4-2,0.4c-0.8,0-1.4-0.1-2-0.4c-0.6-0.3-1.1-0.6-1.5-1.1c-0.4-0.5-0.7-1-1-1.6c-0.2-0.6-0.3-1.3-0.3-2
		C230.7,59.7,230.8,59,231,58.3z M233,61.6c0.1,0.4,0.3,0.7,0.5,1.1c0.2,0.3,0.5,0.6,0.8,0.8c0.3,0.2,0.8,0.3,1.2,0.3
		s0.9-0.1,1.2-0.3c0.3-0.2,0.6-0.4,0.8-0.8c0.2-0.3,0.4-0.7,0.5-1.1s0.1-0.8,0.1-1.2c0-0.4,0-0.9-0.1-1.3c-0.1-0.4-0.3-0.8-0.5-1.1
		c-0.2-0.3-0.5-0.6-0.8-0.8c-0.3-0.2-0.8-0.3-1.2-0.3s-0.9,0.1-1.2,0.3c-0.3,0.2-0.6,0.4-0.8,0.8c-0.2,0.3-0.4,0.7-0.5,1.1
		c-0.1,0.4-0.1,0.8-0.1,1.3C232.9,60.8,232.9,61.2,233,61.6z"/>
	<path class="st4" d="M241.8,58.3c0.2-0.6,0.5-1.2,1-1.7c0.4-0.5,0.9-0.8,1.5-1.1s1.3-0.4,2-0.4c0.8,0,1.4,0.1,2,0.4
		s1.1,0.6,1.5,1.1c0.4,0.5,0.7,1,1,1.7c0.2,0.6,0.3,1.3,0.3,2.1c0,0.7-0.1,1.4-0.3,2c-0.2,0.6-0.5,1.2-1,1.6
		c-0.4,0.5-0.9,0.8-1.5,1.1c-0.6,0.3-1.3,0.4-2,0.4c-0.8,0-1.4-0.1-2-0.4c-0.6-0.3-1.1-0.6-1.5-1.1c-0.4-0.5-0.7-1-1-1.6
		c-0.2-0.6-0.3-1.3-0.3-2C241.4,59.7,241.6,59,241.8,58.3z M243.8,61.6c0.1,0.4,0.3,0.7,0.5,1.1c0.2,0.3,0.5,0.6,0.8,0.8
		c0.3,0.2,0.8,0.3,1.2,0.3s0.9-0.1,1.2-0.3c0.3-0.2,0.6-0.4,0.8-0.8c0.2-0.3,0.4-0.7,0.5-1.1s0.1-0.8,0.1-1.2c0-0.4,0-0.9-0.1-1.3
		c-0.1-0.4-0.3-0.8-0.5-1.1c-0.2-0.3-0.5-0.6-0.8-0.8c-0.3-0.2-0.8-0.3-1.2-0.3s-0.9,0.1-1.2,0.3c-0.3,0.2-0.6,0.4-0.8,0.8
		c-0.2,0.3-0.4,0.7-0.5,1.1c-0.1,0.4-0.1,0.8-0.1,1.3C243.6,60.8,243.7,61.2,243.8,61.6z"/>
	<path class="st4" d="M254.3,62.9c0.1,0.2,0.3,0.4,0.5,0.6s0.4,0.2,0.7,0.3c0.3,0.1,0.5,0.1,0.8,0.1c0.2,0,0.4,0,0.6,0
		c0.2,0,0.4-0.1,0.6-0.2s0.4-0.2,0.5-0.4c0.1-0.2,0.2-0.4,0.2-0.6c0-0.3-0.1-0.5-0.3-0.7s-0.4-0.3-0.7-0.4s-0.6-0.2-0.9-0.3
		s-0.7-0.2-1.1-0.3c-0.4-0.1-0.7-0.2-1.1-0.3s-0.7-0.3-0.9-0.5c-0.3-0.2-0.5-0.5-0.7-0.8c-0.2-0.3-0.3-0.7-0.3-1.2
		c0-0.5,0.1-0.9,0.3-1.3s0.5-0.7,0.9-0.9c0.3-0.2,0.7-0.4,1.2-0.6c0.4-0.1,0.9-0.2,1.3-0.2c0.5,0,1,0.1,1.5,0.2
		c0.5,0.1,0.9,0.3,1.3,0.6s0.7,0.6,0.9,1s0.3,0.9,0.3,1.5h-2.1c0-0.3-0.1-0.5-0.2-0.7c-0.1-0.2-0.2-0.3-0.4-0.5
		c-0.2-0.1-0.4-0.2-0.6-0.2c-0.2,0-0.5-0.1-0.7-0.1c-0.2,0-0.4,0-0.5,0.1c-0.2,0-0.3,0.1-0.5,0.2c-0.1,0.1-0.3,0.2-0.4,0.3
		c-0.1,0.1-0.1,0.3-0.1,0.5c0,0.2,0,0.4,0.1,0.5c0.1,0.1,0.2,0.2,0.4,0.3c0.2,0.1,0.5,0.2,0.9,0.3s0.9,0.2,1.5,0.4
		c0.2,0,0.4,0.1,0.8,0.2c0.3,0.1,0.7,0.3,1,0.5c0.3,0.2,0.6,0.5,0.8,0.9s0.4,0.8,0.4,1.4c0,0.5-0.1,0.9-0.3,1.3
		c-0.2,0.4-0.4,0.7-0.8,1c-0.3,0.3-0.8,0.5-1.3,0.7c-0.5,0.2-1.1,0.2-1.8,0.2c-0.5,0-1.1-0.1-1.6-0.2c-0.5-0.1-1-0.3-1.4-0.6
		c-0.4-0.3-0.7-0.7-0.9-1.1s-0.3-1-0.3-1.6h2.1C254.1,62.4,254.2,62.6,254.3,62.9z"/>
	<path class="st4" d="M269,55.4v1.8h-5.2v2.1h4.8v1.7h-4.8v2.4h5.3v1.8h-7.5v-9.9H269z"/>
</g>
<g>
	<path class="st1" d="M72.6,96.6h3.7l1.5,9.7h-3.7l-0.4-2.8l-13.3,1.2l5.7-10.9l-5.5-5.1l6.5-12.1h4.2L65.3,88l2.7,2.5l2.8-5.5h4.1
		l-8,15.5l6.3-0.6L72.6,96.6z M77.8,77.4h17l-0.7,30.5h-3.7L91.1,81H77.8V77.4z"/>
	<path class="st1" d="M112.4,76.8v3.7l-6.2-1.6v-3.7L112.4,76.8z M112.4,86.6v3.7l-6.2-1.7v-3.8L112.4,86.6z M106.7,109.9l2.6-12.9
		h3.8l-2.6,12.9H106.7z M142,87.9l-3.7,8l2.8,13.9h-3.4l-1.8-8.8l-3.4,7.5h-3.7l6-13l-2.8-13.9h-12.1v9l-1.7,19.3h-3.4l1.7-19.6
		V78.2h15.3v-4.1h3.4v4.1h6.6v3.4h-6.5l1.8,8.8l1.2-2.5H142z M120.2,95.9l0.3-5h2.9l-0.3,5H120.2z M127.3,101.9l-1.2-1.8l-2.3,5.3
		h-3.2l3.9-8.9v-7.9h2.9v8l3.4,5.1H127.3z M121,87.3v-3.1h9.8v3.1H121z M128.2,95.4l1.1-4.5h3l-1.1,4.5H128.2z M140.3,77.5h-3.5
		l-0.8-2.9h3.5L140.3,77.5z"/>
	<path class="st1" d="M167.5,105.1h19.4v3.6h-21l-5.6-6.1l-3.9,5.9H152l7.7-11.8l4.3,4.7l12.5-16.5h-20.8v-3.6H168v-6.5h3.7v6.5
		h12.3l-17.4,22.8L167.5,105.1z"/>
	<path class="st1" d="M208.3,78.9l-1.3,3.7h8.9l-3.8,14.2l-7.3,13.4h-4.2l7.9-14.5l-5.2-1.8l-1.2,3.7h-3.9l6.3-18.7h-5.7v-3.6h34.2
		v3.6H208.3z M211.1,86.3h-5.3l-1.4,4.1l5.1,1.8L211.1,86.3z M220.6,106h13v3.7H217V81h3.7V91l9.6-5.1v4.2l-9.6,5V106z"/>
</g>
</svg>
