<?xml version="1.0" encoding="utf-8"?>
<!-- Generator: Adobe Illustrator 21.0.2, SVG Export Plug-In . SVG Version: 6.00 Build 0)  -->
<svg version="1.1" id="圖層_1" xmlns="http://www.w3.org/2000/svg" xmlns:xlink="http://www.w3.org/1999/xlink" x="0px" y="0px"
	 viewBox="0 0 295 140" style="enable-background:new 0 0 295 140;" xml:space="preserve">
<style type="text/css">
	.st0{fill:#E6B93B;}
	.st1{fill:#FFFFFF;}
	.st2{fill:#FF4A46;}
	.st3{fill:#534741;}
	.st4{fill:#FBD23B;}
</style>
<g>
	<g>
		<g>
			<g>
				<path class="st0" d="M218,140H47.8C21.5,140,0,118.5,0,92.3l0,0c0-26.2,21.5-47.7,47.8-47.7H218c26.3,0,47.8,21.5,47.8,47.7l0,0
					C265.8,118.5,244.3,140,218,140z"/>
			</g>
		</g>
	</g>
	<g>
		<path class="st1" d="M27.8,49L4.4,72.3c-0.7,1.5-1.3,3.1-1.9,4.7l29.9-29.9C30.9,47.7,29.3,48.3,27.8,49z"/>
	</g>
	<g>
		<path class="st1" d="M45.1,44.7c-0.5,0-1,0.1-1.5,0.1L0.2,88.1c-0.1,1-0.1,2-0.2,3l45.8-45.7L45.1,44.7z"/>
	</g>
	<g>
		<path class="st1" d="M56.6,44.6h-1.2L0.5,99.3c0.1,0.8,0.3,1.6,0.4,2.4l56.4-56.3L56.6,44.6z"/>
	</g>
	<g>
		<path class="st1" d="M68.1,44.6h-1.2l-64,63.9c0.2,0.7,0.5,1.4,0.8,2l65.3-65.1L68.1,44.6z"/>
	</g>
	<g>
		<path class="st1" d="M79.7,44.6h-1.2L6.6,116.3c0.3,0.6,0.7,1.2,1.1,1.7l72.9-72.7L79.7,44.6z"/>
	</g>
	<g>
		<path class="st1" d="M91.3,44.6H90l-78.7,78.5c0.4,0.5,0.9,1,1.3,1.5L92,45.4L91.3,44.6z"/>
	</g>
	<g>
		<path class="st1" d="M102.8,44.6h-1.2l-84.4,84.2c0.5,0.4,1,0.8,1.6,1.3l84.9-84.7L102.8,44.6z"/>
	</g>
	<g>
		<path class="st1" d="M114.4,44.6h-1.2l-89.2,89c0.6,0.3,1.2,0.7,1.8,1l89.4-89.2L114.4,44.6z"/>
	</g>
	<g>
		<path class="st1" d="M125.9,44.6h-1.2l-92.9,92.6c0.7,0.2,1.4,0.5,2.1,0.7l92.8-92.5L125.9,44.6z"/>
	</g>
	<g>
		<path class="st1" d="M137.5,44.6h-1.2l-94.9,94.6l0.4,0.4c0.6,0.1,1.2,0.1,1.8,0.2l94.7-94.4L137.5,44.6z"/>
	</g>
	<g>
		<polygon class="st1" points="149.1,44.6 147.8,44.6 53,139.2 53.8,140 55,140 149.8,45.4 		"/>
	</g>
	<g>
		<polygon class="st1" points="160.6,44.6 159.4,44.6 64.5,139.2 65.3,140 66.6,140 161.4,45.4 		"/>
	</g>
	<g>
		<polygon class="st1" points="172.2,44.6 170.9,44.6 76.1,139.2 76.9,140 78.1,140 173,45.4 		"/>
	</g>
	<g>
		<polygon class="st1" points="183.7,44.6 182.5,44.6 87.6,139.2 88.4,140 89.7,140 184.5,45.4 		"/>
	</g>
	<g>
		<polygon class="st1" points="195.3,44.6 194.1,44.6 99.2,139.2 100,140 101.2,140 196.1,45.4 		"/>
	</g>
	<g>
		<polygon class="st1" points="206.9,44.6 205.6,44.6 110.8,139.2 111.6,140 112.8,140 207.6,45.4 		"/>
	</g>
	<g>
		<path class="st1" d="M218.4,44.6c-0.2,0-0.3,0-0.5,0h-0.8l-94.9,94.6l0.8,0.8h1.2l94.9-94.6L218.4,44.6z"/>
	</g>
	<g>
		<path class="st1" d="M227.7,45.6l-93.8,93.6l0.8,0.8h1.2L230,46.1C229.3,46,228.5,45.8,227.7,45.6z"/>
	</g>
	<g>
		<path class="st1" d="M236.5,48.4l-91.1,90.8l0.8,0.8h1.2l91-90.8C237.8,48.9,237.2,48.6,236.5,48.4z"/>
	</g>
	<g>
		<path class="st1" d="M244,52.4l-87,86.8l0.8,0.8h1.2l86.7-86.5C245.2,53.1,244.6,52.8,244,52.4z"/>
	</g>
	<g>
		<path class="st1" d="M250.5,57.5l-82,81.7l0.8,0.8h1.2L252,58.8C251.5,58.4,251,57.9,250.5,57.5z"/>
	</g>
	<g>
		<path class="st1" d="M256,63.5l-75.9,75.7l0.8,0.8h1.2l75-74.9C256.8,64.6,256.4,64,256,63.5z"/>
	</g>
	<g>
		<path class="st1" d="M260.5,70.6l-68.8,68.6l0.8,0.8h1.2l67.7-67.5C261.1,71.8,260.8,71.2,260.5,70.6z"/>
	</g>
	<g>
		<path class="st1" d="M263.8,78.8l-60.6,60.4l0.8,0.8h1.2l59.1-59C264.2,80.3,264,79.5,263.8,78.8z"/>
	</g>
	<g>
		<path class="st1" d="M265.6,88.5l-50.8,50.7l0.8,0.8h1.2l48.9-48.8C265.7,90.3,265.7,89.4,265.6,88.5z"/>
	</g>
	<g>
		<path class="st1" d="M226.4,139.2c1.2-0.2,2.4-0.5,3.5-0.8l34.3-34.2c0.3-1.2,0.6-2.4,0.8-3.6L226.4,139.2L226.4,139.2z"/>
	</g>
</g>
<g>
	<g>
		<path class="st2" d="M245,128.2H55.7c-26.1,0-47.5-21.3-47.5-47.4v0c0-26.1,21.4-47.4,47.5-47.4H245c26.1,0,47.5,21.3,47.5,47.4v0
			C292.5,106.9,271.1,128.2,245,128.2z"/>
		<path class="st3" d="M245,130.7H55.7c-27.6,0-50-22.4-50-49.9c0-27.5,22.4-49.9,50-49.9H245c27.6,0,50,22.4,50,49.9
			C295,108.3,272.6,130.7,245,130.7z M55.7,36c-24.8,0-45,20.1-45,44.9s20.2,44.9,45,44.9H245c24.8,0,45-20.1,45-44.9
			c0-24.7-20.2-44.9-45-44.9H55.7z"/>
	</g>
</g>
<g>
	<g>
		<g>
			<g>
				<ellipse class="st4" cx="70.2" cy="43.1" rx="3.3" ry="3.3"/>
			</g>
			<g>
				<path class="st3" d="M70.2,47.3c-2.3,0-4.2-1.9-4.2-4.2c0-2.3,1.9-4.2,4.2-4.2c2.3,0,4.2,1.9,4.2,4.2
					C74.5,45.5,72.6,47.3,70.2,47.3z M70.2,40.8c-1.3,0-2.4,1.1-2.4,2.4c0,1.3,1.1,2.4,2.4,2.4c1.3,0,2.4-1.1,2.4-2.4
					C72.6,41.8,71.5,40.8,70.2,40.8z"/>
			</g>
		</g>
	</g>
	<g>
		<g>
			<g>
				<ellipse class="st4" cx="230.4" cy="43.1" rx="3.3" ry="3.3"/>
			</g>
			<g>
				<path class="st3" d="M230.4,47.3c-2.3,0-4.2-1.9-4.2-4.2c0-2.3,1.9-4.2,4.2-4.2c2.3,0,4.2,1.9,4.2,4.2
					C234.7,45.5,232.8,47.3,230.4,47.3z M230.4,40.8c-1.3,0-2.4,1.1-2.4,2.4c0,1.3,1.1,2.4,2.4,2.4c1.3,0,2.4-1.1,2.4-2.4
					C232.8,41.8,231.7,40.8,230.4,40.8z"/>
			</g>
		</g>
	</g>
</g>
<g>
	<g>
		<g>
			<g>
				<path class="st3" d="M227.8,4.9c0.1-0.3,0.4-0.6,0.7-0.7c0.3-0.1,0.6-0.2,0.9-0.2c0.9-0.1,1.8,0,2.5-0.6
					c0.4-0.4,0.7-0.9,0.8-1.5c0.1-0.6,0-1.2,0-1.8c-0.6,0.5-1.3,0.7-2.1,0.7c-0.3,0-0.7-0.1-1-0.1c-0.9,0.1-1.6,0.8-1.9,1.6
					C227.4,3.2,227.5,4.1,227.8,4.9"/>
			</g>
		</g>
		<g>
			<g>
				<g>
					<path class="st3" d="M228,5c0.6-1.4,3-0.5,4.1-1.4c1-0.8,0.9-2.2,0.8-3.4c0-0.1-0.1-0.2-0.3-0.2c-0.5,0.4-1,0.6-1.7,0.6
						c-0.4,0-0.9-0.1-1.3-0.1c-0.5,0.1-1,0.3-1.4,0.7c-1,1-0.9,2.5-0.6,3.7c0.1,0.2,0.4,0.1,0.3-0.1c-0.5-1.6-0.2-3.9,1.9-3.9
						c1.1,0,1.9,0,2.8-0.6c-0.1-0.1-0.2-0.1-0.3-0.2c0.1,0.8,0.2,1.7-0.2,2.5c-0.5,1-1.5,1.1-2.5,1.1c-0.8,0.1-1.8,0.2-2.2,1
						C227.6,5.1,227.9,5.2,228,5z"/>
				</g>
			</g>
		</g>
	</g>
	<g>
		<g>
			<g>
				<path class="st3" d="M227.8,10.1c0.1-0.3,0.4-0.6,0.7-0.7c0.3-0.1,0.6-0.2,0.9-0.2c0.9-0.1,1.8,0,2.5-0.6
					c0.4-0.4,0.7-0.9,0.8-1.5c0.1-0.6,0-1.2,0-1.8c-0.6,0.5-1.3,0.7-2.1,0.7c-0.3,0-0.7-0.1-1-0.1c-0.9,0.1-1.6,0.8-1.9,1.6
					C227.4,8.3,227.5,9.2,227.8,10.1"/>
			</g>
		</g>
		<g>
			<g>
				<g>
					<path class="st3" d="M228,10.1c0.6-1.4,3-0.5,4.1-1.4c1-0.8,0.9-2.2,0.8-3.4c0-0.1-0.1-0.2-0.3-0.2c-0.5,0.4-1,0.6-1.7,0.6
						c-0.4,0-0.9-0.1-1.3-0.1c-0.5,0.1-1,0.3-1.4,0.7c-1,1-0.9,2.5-0.6,3.7c0.1,0.2,0.4,0.1,0.3-0.1c-0.5-1.6-0.2-3.9,1.9-3.9
						c1.1,0,1.9,0,2.8-0.6c-0.1-0.1-0.2-0.1-0.3-0.2c0.1,0.8,0.2,1.7-0.2,2.5c-0.5,1-1.5,1.1-2.5,1.2c-0.8,0.1-1.8,0.2-2.2,1
						C227.6,10.2,227.9,10.4,228,10.1z"/>
				</g>
			</g>
		</g>
	</g>
	<g>
		<g>
			<g>
				<path class="st3" d="M227.8,15.2c0.1-0.3,0.4-0.6,0.7-0.7c0.3-0.1,0.6-0.2,0.9-0.2c0.9-0.1,1.8,0,2.5-0.6
					c0.4-0.4,0.7-0.9,0.8-1.5c0.1-0.6,0-1.2,0-1.8c-0.6,0.5-1.3,0.7-2.1,0.7c-0.3,0-0.7-0.1-1-0.1c-0.9,0.1-1.6,0.8-1.9,1.6
					C227.4,13.4,227.5,14.4,227.8,15.2"/>
			</g>
		</g>
		<g>
			<g>
				<g>
					<path class="st3" d="M228,15.3c0.6-1.4,3-0.5,4.1-1.4c1-0.8,0.9-2.2,0.8-3.4c0-0.1-0.1-0.2-0.3-0.2c-0.5,0.4-1,0.6-1.7,0.6
						c-0.4,0-0.9-0.1-1.3-0.1c-0.5,0.1-1,0.3-1.4,0.7c-1,1-0.9,2.5-0.6,3.7c0.1,0.2,0.4,0.1,0.3-0.1c-0.5-1.6-0.2-3.9,1.9-3.9
						c1.1,0,1.9,0,2.8-0.6c-0.1-0.1-0.2-0.1-0.3-0.2c0.1,0.8,0.2,1.7-0.2,2.5c-0.5,1-1.5,1.1-2.5,1.1c-0.8,0.1-1.8,0.2-2.2,1
						C227.6,15.3,227.9,15.5,228,15.3z"/>
				</g>
			</g>
		</g>
	</g>
	<g>
		<g>
			<g>
				<path class="st3" d="M227.8,20.3c0.1-0.3,0.4-0.6,0.7-0.7c0.3-0.1,0.6-0.2,0.9-0.2c0.9-0.1,1.8,0,2.5-0.6
					c0.4-0.4,0.7-0.9,0.8-1.5c0.1-0.6,0-1.2,0-1.7c-0.6,0.5-1.3,0.7-2.1,0.7c-0.3,0-0.7-0.1-1-0.1c-0.9,0.1-1.6,0.8-1.9,1.6
					C227.4,18.6,227.5,19.5,227.8,20.3"/>
			</g>
		</g>
		<g>
			<g>
				<g>
					<path class="st3" d="M228,20.4c0.6-1.4,3-0.5,4.1-1.4c1-0.8,0.9-2.2,0.8-3.4c0-0.1-0.1-0.2-0.3-0.2c-0.5,0.4-1,0.6-1.7,0.6
						c-0.4,0-0.9-0.1-1.3-0.1c-0.5,0.1-1,0.3-1.4,0.7c-1,1-0.9,2.5-0.6,3.7c0.1,0.2,0.4,0.1,0.3-0.1c-0.5-1.6-0.2-3.9,1.9-3.9
						c1.1,0,1.9,0,2.8-0.6c-0.1-0.1-0.2-0.1-0.3-0.2c0.1,0.8,0.2,1.7-0.2,2.5c-0.5,1-1.5,1.1-2.5,1.2c-0.8,0.1-1.8,0.2-2.2,1
						C227.6,20.4,227.9,20.6,228,20.4z"/>
				</g>
			</g>
		</g>
	</g>
	<g>
		<g>
			<g>
				<path class="st3" d="M227.8,25.4c0.1-0.3,0.4-0.6,0.7-0.7c0.3-0.1,0.6-0.2,0.9-0.2c0.9-0.1,1.8,0,2.5-0.6
					c0.4-0.4,0.7-0.9,0.8-1.5c0.1-0.6,0-1.2,0-1.8c-0.6,0.5-1.3,0.7-2.1,0.7c-0.3,0-0.7-0.1-1-0.1c-0.9,0.1-1.6,0.8-1.9,1.6
					C227.4,23.7,227.5,24.6,227.8,25.4"/>
			</g>
		</g>
		<g>
			<g>
				<g>
					<path class="st3" d="M228,25.5c0.6-1.4,3-0.5,4.1-1.4c1-0.8,0.9-2.2,0.8-3.4c0-0.1-0.1-0.2-0.3-0.2c-0.5,0.4-1,0.6-1.7,0.6
						c-0.4,0-0.9-0.1-1.3-0.1c-0.5,0.1-1,0.3-1.4,0.7c-1,1-0.9,2.5-0.6,3.7c0.1,0.2,0.4,0.1,0.3-0.1c-0.5-1.6-0.2-3.9,1.9-3.9
						c1.1,0,1.9,0,2.8-0.6c-0.1-0.1-0.2-0.1-0.3-0.2c0.1,0.8,0.2,1.7-0.2,2.5c-0.5,1-1.5,1.1-2.5,1.1c-0.8,0.1-1.8,0.2-2.2,1
						C227.6,25.5,227.9,25.7,228,25.5z"/>
				</g>
			</g>
		</g>
	</g>
</g>
<g>
	<g>
		<g>
			<g>
				<path class="st3" d="M67.9,4.9c0.1-0.3,0.4-0.6,0.7-0.7c0.3-0.1,0.6-0.2,0.9-0.2C70.3,4,71.3,4,72,3.5c0.4-0.4,0.7-0.9,0.8-1.5
					c0.1-0.6,0-1.2,0-1.8c-0.6,0.5-1.3,0.7-2.1,0.7c-0.3,0-0.7-0.1-1-0.1c-0.9,0.1-1.6,0.8-1.9,1.6C67.5,3.2,67.6,4.1,67.9,4.9"/>
			</g>
		</g>
		<g>
			<g>
				<g>
					<path class="st3" d="M68,5c0.6-1.4,3-0.5,4.1-1.4c1-0.8,0.9-2.2,0.8-3.4c0-0.1-0.1-0.2-0.3-0.2c-0.5,0.4-1,0.6-1.7,0.6
						c-0.4,0-0.9-0.1-1.3-0.1c-0.5,0.1-1,0.3-1.4,0.7c-1,1-0.9,2.5-0.6,3.7c0.1,0.2,0.4,0.1,0.3-0.1C67.6,3.3,67.9,1,70,1
						c1.1,0,1.9,0,2.8-0.6c-0.1-0.1-0.2-0.1-0.3-0.2c0.1,0.8,0.2,1.7-0.2,2.5c-0.5,1-1.5,1.1-2.5,1.1c-0.8,0.1-1.8,0.2-2.2,1
						C67.6,5.1,67.9,5.2,68,5z"/>
				</g>
			</g>
		</g>
	</g>
	<g>
		<g>
			<g>
				<path class="st3" d="M67.9,10.1c0.1-0.3,0.4-0.6,0.7-0.7c0.3-0.1,0.6-0.2,0.9-0.2c0.9-0.1,1.8,0,2.5-0.6
					c0.4-0.4,0.7-0.9,0.8-1.5c0.1-0.6,0-1.2,0-1.8C72.2,5.8,71.4,6,70.7,6c-0.3,0-0.7-0.1-1-0.1c-0.9,0.1-1.6,0.8-1.9,1.6
					C67.5,8.3,67.6,9.2,67.9,10.1"/>
			</g>
		</g>
		<g>
			<g>
				<g>
					<path class="st3" d="M68,10.1c0.6-1.4,3-0.5,4.1-1.4c1-0.8,0.9-2.2,0.8-3.4c0-0.1-0.1-0.2-0.3-0.2c-0.5,0.4-1,0.6-1.7,0.6
						c-0.4,0-0.9-0.1-1.3-0.1c-0.5,0.1-1,0.3-1.4,0.7c-1,1-0.9,2.5-0.6,3.7c0.1,0.2,0.4,0.1,0.3-0.1c-0.5-1.6-0.2-3.9,1.9-3.9
						c1.1,0,1.9,0,2.8-0.6c-0.1-0.1-0.2-0.1-0.3-0.2c0.1,0.8,0.2,1.7-0.2,2.5c-0.5,1-1.5,1.1-2.5,1.2c-0.8,0.1-1.8,0.2-2.2,1
						C67.6,10.2,67.9,10.4,68,10.1z"/>
				</g>
			</g>
		</g>
	</g>
	<g>
		<g>
			<g>
				<path class="st3" d="M67.9,15.2c0.1-0.3,0.4-0.6,0.7-0.7c0.3-0.1,0.6-0.2,0.9-0.2c0.9-0.1,1.8,0,2.5-0.6
					c0.4-0.4,0.7-0.9,0.8-1.5c0.1-0.6,0-1.2,0-1.8c-0.6,0.5-1.3,0.7-2.1,0.7c-0.3,0-0.7-0.1-1-0.1c-0.9,0.1-1.6,0.8-1.9,1.6
					C67.5,13.4,67.6,14.4,67.9,15.2"/>
			</g>
		</g>
		<g>
			<g>
				<g>
					<path class="st3" d="M68,15.3c0.6-1.4,3-0.5,4.1-1.4c1-0.8,0.9-2.2,0.8-3.4c0-0.1-0.1-0.2-0.3-0.2c-0.5,0.4-1,0.6-1.7,0.6
						c-0.4,0-0.9-0.1-1.3-0.1c-0.5,0.1-1,0.3-1.4,0.7c-1,1-0.9,2.5-0.6,3.7c0.1,0.2,0.4,0.1,0.3-0.1c-0.5-1.6-0.2-3.9,1.9-3.9
						c1.1,0,1.9,0,2.8-0.6c-0.1-0.1-0.2-0.1-0.3-0.2c0.1,0.8,0.2,1.7-0.2,2.5c-0.5,1-1.5,1.1-2.5,1.1c-0.8,0.1-1.8,0.2-2.2,1
						C67.6,15.3,67.9,15.5,68,15.3z"/>
				</g>
			</g>
		</g>
	</g>
	<g>
		<g>
			<g>
				<path class="st3" d="M67.9,20.3c0.1-0.3,0.4-0.6,0.7-0.7c0.3-0.1,0.6-0.2,0.9-0.2c0.9-0.1,1.8,0,2.5-0.6
					c0.4-0.4,0.7-0.9,0.8-1.5c0.1-0.6,0-1.2,0-1.7c-0.6,0.5-1.3,0.7-2.1,0.7c-0.3,0-0.7-0.1-1-0.1c-0.9,0.1-1.6,0.8-1.9,1.6
					C67.5,18.6,67.6,19.5,67.9,20.3"/>
			</g>
		</g>
		<g>
			<g>
				<g>
					<path class="st3" d="M68,20.4c0.6-1.4,3-0.5,4.1-1.4c1-0.8,0.9-2.2,0.8-3.4c0-0.1-0.1-0.2-0.3-0.2c-0.5,0.4-1,0.6-1.7,0.6
						c-0.4,0-0.9-0.1-1.3-0.1c-0.5,0.1-1,0.3-1.4,0.7c-1,1-0.9,2.5-0.6,3.7c0.1,0.2,0.4,0.1,0.3-0.1c-0.5-1.6-0.2-3.9,1.9-3.9
						c1.1,0,1.9,0,2.8-0.6c-0.1-0.1-0.2-0.1-0.3-0.2c0.1,0.8,0.2,1.7-0.2,2.5c-0.5,1-1.5,1.1-2.5,1.2c-0.8,0.1-1.8,0.2-2.2,1
						C67.6,20.4,67.9,20.6,68,20.4z"/>
				</g>
			</g>
		</g>
	</g>
	<g>
		<g>
			<g>
				<path class="st3" d="M67.9,25.4c0.1-0.3,0.4-0.6,0.7-0.7c0.3-0.1,0.6-0.2,0.9-0.2c0.9-0.1,1.8,0,2.5-0.6
					c0.4-0.4,0.7-0.9,0.8-1.5c0.1-0.6,0-1.2,0-1.8c-0.6,0.5-1.3,0.7-2.1,0.7c-0.3,0-0.7-0.1-1-0.1c-0.9,0.1-1.6,0.8-1.9,1.6
					C67.5,23.7,67.6,24.6,67.9,25.4"/>
			</g>
		</g>
		<g>
			<g>
				<g>
					<path class="st3" d="M68,25.5c0.6-1.4,3-0.5,4.1-1.4c1-0.8,0.9-2.2,0.8-3.4c0-0.1-0.1-0.2-0.3-0.2c-0.5,0.4-1,0.6-1.7,0.6
						c-0.4,0-0.9-0.1-1.3-0.1c-0.5,0.1-1,0.3-1.4,0.7c-1,1-0.9,2.5-0.6,3.7c0.1,0.2,0.4,0.1,0.3-0.1c-0.5-1.6-0.2-3.9,1.9-3.9
						c1.1,0,1.9,0,2.8-0.6c-0.1-0.1-0.2-0.1-0.3-0.2c0.1,0.8,0.2,1.7-0.2,2.5c-0.5,1-1.5,1.1-2.5,1.1c-0.8,0.1-1.8,0.2-2.2,1
						C67.6,25.5,67.9,25.7,68,25.5z"/>
				</g>
			</g>
		</g>
	</g>
</g>
<g>
	<g>
		<g>
			<rect x="228" y="28.1" class="st3" width="4.9" height="14.6"/>
		</g>
	</g>
	<g>
		<g>
			<rect x="67.8" y="28.1" class="st3" width="4.9" height="14.6"/>
		</g>
	</g>
</g>
<g>
	<g>
		<path class="st4" d="M67,56.6c0.3,0.4,0.5,1,0.5,1.6c0,0.6-0.2,1.1-0.5,1.5c-0.2,0.2-0.5,0.4-0.9,0.6c0.6,0.2,1,0.5,1.3,0.9
			c0.3,0.4,0.4,0.9,0.4,1.5c0,0.6-0.2,1.2-0.5,1.6c-0.2,0.3-0.5,0.6-0.8,0.8c-0.4,0.3-0.8,0.4-1.3,0.5c-0.5,0.1-1,0.1-1.6,0.1h-5
			V55.5h5.4C65.4,55.6,66.4,55.9,67,56.6z M60.9,57.3v2.3h2.7c0.5,0,0.9-0.1,1.2-0.3c0.3-0.2,0.5-0.5,0.5-0.9c0-0.5-0.2-0.8-0.6-1
			c-0.3-0.1-0.8-0.2-1.3-0.2H60.9z M60.9,61.3v2.8h2.7c0.5,0,0.9-0.1,1.1-0.2c0.5-0.2,0.7-0.7,0.7-1.3c0-0.5-0.2-0.9-0.7-1.1
			c-0.3-0.1-0.6-0.2-1.1-0.2H60.9z"/>
		<path class="st4" d="M69.9,55.5h2.4v6.3c0,0.7,0.1,1.2,0.3,1.6c0.3,0.6,0.9,0.9,1.8,0.9c0.9,0,1.6-0.3,1.8-0.9
			c0.2-0.3,0.3-0.8,0.3-1.6v-6.3h2.4v6.3c0,1.1-0.2,2-0.6,2.6c-0.7,1.1-2,1.7-3.9,1.7s-3.2-0.6-3.9-1.7c-0.4-0.6-0.6-1.5-0.6-2.6
			V55.5z"/>
		<path class="st4" d="M89.2,55.5v1.8h-3.3v8.5h-2.3v-8.5h-3.4v-1.8H89.2z"/>
		<path class="st4" d="M98.6,55.5v1.8h-3.3v8.5h-2.3v-8.5h-3.4v-1.8H98.6z"/>
		<path class="st4" d="M108.3,57.4h-5.9v2.2h5.4v1.8h-5.4V64h6.2v1.9h-8.5V55.5h8.2V57.4z"/>
		<path class="st4" d="M117.5,55.8c0.4,0.2,0.8,0.4,1,0.7c0.2,0.3,0.4,0.6,0.6,0.9s0.2,0.7,0.2,1.1c0,0.5-0.1,1-0.4,1.4
			c-0.3,0.5-0.7,0.8-1.3,1c0.5,0.2,0.9,0.5,1.1,0.8c0.2,0.4,0.3,0.9,0.3,1.6v0.7c0,0.5,0,0.8,0.1,1c0.1,0.3,0.2,0.5,0.4,0.6v0.3
			h-2.6c-0.1-0.2-0.1-0.4-0.2-0.6c-0.1-0.3-0.1-0.6-0.1-0.9l0-1c0-0.7-0.1-1.1-0.4-1.3c-0.2-0.2-0.7-0.3-1.3-0.3h-2.3v4h-2.3V55.5
			h5.3C116.5,55.6,117.1,55.7,117.5,55.8z M112.7,57.3v2.8h2.5c0.5,0,0.9-0.1,1.1-0.2c0.4-0.2,0.7-0.6,0.7-1.2c0-0.6-0.2-1-0.6-1.3
			c-0.2-0.1-0.6-0.2-1.1-0.2H112.7z"/>
		<path class="st4" d="M125.9,55.6h8v1.8h-5.6v2.4h4.9v1.8h-4.9v4.3h-2.3V55.6z"/>
		<path class="st4" d="M137.5,65.9h-2.3V55.5h2.3V65.9z"/>
		<path class="st4" d="M139.6,55.5h2.4l4.4,7.2v-7.2h2.2v10.3h-2.3l-4.5-7.3v7.3h-2.2V55.5z"/>
		<path class="st4" d="M158.3,58.8c-0.2-0.7-0.6-1.2-1.3-1.5c-0.4-0.2-0.8-0.2-1.3-0.2c-0.9,0-1.6,0.3-2.2,0.9
			c-0.6,0.6-0.9,1.6-0.9,2.8c0,1.3,0.3,2.2,0.9,2.7s1.3,0.8,2.1,0.8c0.8,0,1.4-0.2,1.9-0.6c0.5-0.4,0.8-1,0.9-1.6H156v-1.7h4.6v5.5
			h-1.5l-0.2-1.3c-0.4,0.5-0.9,0.8-1.2,1c-0.6,0.3-1.4,0.5-2.3,0.5c-1.5,0-2.7-0.5-3.6-1.4c-1-1-1.5-2.3-1.5-3.9c0-1.7,0.5-3,1.5-4
			c1-1,2.3-1.5,3.9-1.5c1.4,0,2.6,0.3,3.4,1c0.9,0.7,1.4,1.5,1.5,2.5H158.3z"/>
		<path class="st4" d="M171.1,57.4h-5.9v2.2h5.4v1.8h-5.4V64h6.2v1.9H163V55.5h8.2V57.4z"/>
		<path class="st4" d="M180.4,55.8c0.4,0.2,0.8,0.4,1,0.7c0.2,0.3,0.4,0.6,0.6,0.9s0.2,0.7,0.2,1.1c0,0.5-0.1,1-0.4,1.4
			c-0.3,0.5-0.7,0.8-1.3,1c0.5,0.2,0.9,0.5,1.1,0.8c0.2,0.4,0.3,0.9,0.3,1.6v0.7c0,0.5,0,0.8,0.1,1c0.1,0.3,0.2,0.5,0.4,0.6v0.3
			h-2.6c-0.1-0.2-0.1-0.4-0.2-0.6c-0.1-0.3-0.1-0.6-0.1-0.9l0-1c0-0.7-0.1-1.1-0.4-1.3c-0.2-0.2-0.7-0.3-1.3-0.3h-2.3v4h-2.3V55.5
			h5.3C179.4,55.6,180,55.7,180.4,55.8z M175.6,57.3v2.8h2.5c0.5,0,0.9-0.1,1.1-0.2c0.4-0.2,0.7-0.6,0.7-1.2c0-0.6-0.2-1-0.6-1.3
			c-0.2-0.1-0.6-0.2-1.1-0.2H175.6z"/>
		<path class="st4" d="M188.8,55.5h2.3v4.3l4.3-4.3h3l-4.6,4.2l4.8,6.1h-3l-3.4-4.5l-1.1,1.1v3.5h-2.3V55.5z"/>
		<path class="st4" d="M202.1,65.9h-2.3V55.5h2.3V65.9z"/>
		<path class="st4" d="M204.3,55.5h2.3V64h5.6v1.9h-7.9V55.5z"/>
		<path class="st4" d="M213.7,55.5h2.3V64h5.6v1.9h-7.9V55.5z"/>
		<path class="st4" d="M224.9,62.7c0.1,0.5,0.2,0.8,0.4,1.1c0.4,0.4,1,0.6,2,0.6c0.6,0,1-0.1,1.4-0.2c0.7-0.2,1-0.6,1-1.2
			c0-0.3-0.2-0.6-0.5-0.8c-0.3-0.2-0.8-0.3-1.5-0.5l-1.2-0.2c-1.2-0.2-2-0.5-2.4-0.8c-0.8-0.5-1.1-1.2-1.1-2.2
			c0-0.9,0.4-1.7,1.1-2.3c0.7-0.6,1.8-0.9,3.2-0.9c1.2,0,2.2,0.3,3,0.9c0.8,0.6,1.3,1.4,1.3,2.5h-2.2c0-0.6-0.3-1.1-0.9-1.3
			c-0.4-0.2-0.8-0.3-1.4-0.3c-0.6,0-1.1,0.1-1.5,0.3c-0.4,0.2-0.6,0.5-0.6,0.9c0,0.4,0.2,0.6,0.5,0.8c0.2,0.1,0.7,0.3,1.5,0.4l2,0.4
			c0.9,0.2,1.5,0.4,1.9,0.8c0.7,0.5,1,1.2,1,2.1c0,0.9-0.4,1.7-1.2,2.3s-1.9,0.9-3.3,0.9c-1.5,0-2.6-0.3-3.5-0.9
			c-0.8-0.6-1.3-1.5-1.3-2.5H224.9z"/>
		<path class="st4" d="M234.1,55.6h2.4v2.6l-0.6,4.8h-1.1l-0.6-4.8V55.6z M234.1,63.8h2.3v2h-2.3V63.8z"/>
	</g>
</g>
<g>
	<path class="st1" d="M93.4,95.8v3.9H78.3v10.8h-6.8v-3.9h3v-7H58.3v-3.9h16.1v-6H60.6v-3.9h13.9v-6.3l-11.4,1v-4l25.9-2v3.9
		l-10.7,0.7v6.6h12.8v3.9H78.3v6H93.4z"/>
	<path class="st1" d="M110.8,76.9v3.8l-6.3-1.6v-3.8L110.8,76.9z M110.8,87.1v3.8l-6.3-1.7v-3.8L110.8,87.1z M105.1,110.6l2.6-13.2
		h3.8l-2.6,13.2H105.1z M136.6,84.7h4v6.8h-3.4v-3.4h-20.4v3.4h-3.4v-6.8h4V74.5h19.1V84.7z M118.4,111V90.2h17.4V111h-3.3v-5.7
		h-10.7v5.7H118.4z M120.8,77.8v7h4.9v-5.3h7.7v-1.7H120.8z M132.4,93.5h-10.7v2.6h10.7V93.5z M121.7,102h10.7v-2.6h-10.7V102z
		 M133.4,84.7v-2.6h-4.9v2.6H133.4z"/>
	<path class="st1" d="M166.8,105.7h19.7v3.7h-21.4l-5.7-6.2l-4,6H151l7.8-12l4.4,4.8L176,85.1h-21.1v-3.7h12.4v-6.6h3.7v6.6h12.5
		l-17.6,23.2L166.8,105.7z"/>
	<path class="st1" d="M208.2,79.1l-1.3,3.8h9l-3.9,14.4l-7.4,13.6h-4.3l8-14.7l-5.3-1.9l-1.3,3.8h-4l6.4-19h-5.8v-3.7h34.7v3.7
		H208.2z M211.1,86.6h-5.4l-1.4,4.2l5.2,1.9L211.1,86.6z M220.8,106.6H234v3.7h-17V81.2h3.7v10.2l9.7-5.1v4.2l-9.7,5.1V106.6z"/>
</g>
</svg>
