<?xml version="1.0" encoding="UTF-8"?>
<svg width="299px" height="117px" viewBox="0 0 299 117" version="1.1" xmlns="http://www.w3.org/2000/svg" xmlns:xlink="http://www.w3.org/1999/xlink">
    <!-- Generator: Sketch 43.2 (39069) - http://www.bohemiancoding.com/sketch -->
    <title>Group 2</title>
    <desc>Created with Sketch.</desc>
    <defs>
        <polyline id="path-1" points="0 0.76 290.549 0.76 290.549 85 0 85"></polyline>
        <path d="M42.159,0.3 C18.993,0.3 0.039,19.254 0.039,42.42 L0.039,42.42 C0.039,65.586 18.993,84.54 42.159,84.54 L42.159,84.54 L248.468,84.54 C271.634,84.54 290.588,65.586 290.588,42.42 L290.588,42.42 C290.588,19.254 271.634,0.3 248.468,0.3 L248.468,0.3 L42.159,0.3 Z" id="path-3"></path>
        <path d="M42.159,0.3 C18.993,0.3 0.039,19.254 0.039,42.42 L0.039,42.42 C0.039,65.586 18.993,84.54 42.159,84.54 L42.159,84.54 L248.468,84.54 C271.634,84.54 290.588,65.586 290.588,42.42 L290.588,42.42 C290.588,19.254 271.634,0.3 248.468,0.3 L248.468,0.3 L42.159,0.3 Z" id="path-5"></path>
        <path d="M42.159,0.3 C18.993,0.3 0.039,19.254 0.039,42.42 L0.039,42.42 C0.039,65.586 18.993,84.54 42.159,84.54 L42.159,84.54 L248.468,84.54 C271.634,84.54 290.588,65.586 290.588,42.42 L290.588,42.42 C290.588,19.254 271.634,0.3 248.468,0.3 L248.468,0.3 L42.159,0.3 Z" id="path-7"></path>
        <path d="M42.159,0.3 C18.993,0.3 0.039,19.254 0.039,42.42 L0.039,42.42 C0.039,65.586 18.993,84.54 42.159,84.54 L42.159,84.54 L248.468,84.54 C271.634,84.54 290.588,65.586 290.588,42.42 L290.588,42.42 C290.588,19.254 271.634,0.3 248.468,0.3 L248.468,0.3 L42.159,0.3 Z" id="path-9"></path>
        <path d="M42.159,0.3 C18.993,0.3 0.039,19.254 0.039,42.42 L0.039,42.42 C0.039,65.586 18.993,84.54 42.159,84.54 L42.159,84.54 L248.468,84.54 C271.634,84.54 290.588,65.586 290.588,42.42 L290.588,42.42 C290.588,19.254 271.634,0.3 248.468,0.3 L248.468,0.3 L42.159,0.3 Z" id="path-11"></path>
        <path d="M42.159,0.3 C18.993,0.3 0.039,19.254 0.039,42.42 L0.039,42.42 C0.039,65.586 18.993,84.54 42.159,84.54 L42.159,84.54 L248.468,84.54 C271.634,84.54 290.588,65.586 290.588,42.42 L290.588,42.42 C290.588,19.254 271.634,0.3 248.468,0.3 L248.468,0.3 L42.159,0.3 Z" id="path-13"></path>
        <path d="M42.159,0.3 C18.993,0.3 0.039,19.254 0.039,42.42 L0.039,42.42 C0.039,65.586 18.993,84.54 42.159,84.54 L42.159,84.54 L248.468,84.54 C271.634,84.54 290.588,65.586 290.588,42.42 L290.588,42.42 C290.588,19.254 271.634,0.3 248.468,0.3 L248.468,0.3 L42.159,0.3 Z" id="path-15"></path>
        <path d="M42.159,0.3 C18.993,0.3 0.039,19.254 0.039,42.42 L0.039,42.42 C0.039,65.586 18.993,84.54 42.159,84.54 L42.159,84.54 L248.468,84.54 C271.634,84.54 290.588,65.586 290.588,42.42 L290.588,42.42 C290.588,19.254 271.634,0.3 248.468,0.3 L248.468,0.3 L42.159,0.3 Z" id="path-17"></path>
        <path d="M42.159,0.3 C18.993,0.3 0.039,19.254 0.039,42.42 L0.039,42.42 C0.039,65.586 18.993,84.54 42.159,84.54 L42.159,84.54 L248.468,84.54 C271.634,84.54 290.588,65.586 290.588,42.42 L290.588,42.42 C290.588,19.254 271.634,0.3 248.468,0.3 L248.468,0.3 L42.159,0.3 Z" id="path-19"></path>
        <path d="M42.159,0.3 C18.993,0.3 0.039,19.254 0.039,42.42 L0.039,42.42 C0.039,65.586 18.993,84.54 42.159,84.54 L42.159,84.54 L248.468,84.54 C271.634,84.54 290.588,65.586 290.588,42.42 L290.588,42.42 C290.588,19.254 271.634,0.3 248.468,0.3 L248.468,0.3 L42.159,0.3 Z" id="path-21"></path>
        <path d="M42.159,0.3 C18.993,0.3 0.039,19.254 0.039,42.42 L0.039,42.42 C0.039,65.586 18.993,84.54 42.159,84.54 L42.159,84.54 L248.468,84.54 C271.634,84.54 290.588,65.586 290.588,42.42 L290.588,42.42 C290.588,19.254 271.634,0.3 248.468,0.3 L248.468,0.3 L42.159,0.3 Z" id="path-23"></path>
        <path d="M42.159,0.3 C18.993,0.3 0.039,19.254 0.039,42.42 L0.039,42.42 C0.039,65.586 18.993,84.54 42.159,84.54 L42.159,84.54 L248.468,84.54 C271.634,84.54 290.588,65.586 290.588,42.42 L290.588,42.42 C290.588,19.254 271.634,0.3 248.468,0.3 L248.468,0.3 L42.159,0.3 Z" id="path-25"></path>
        <path d="M42.159,0.3 C18.993,0.3 0.039,19.254 0.039,42.42 L0.039,42.42 C0.039,65.586 18.993,84.54 42.159,84.54 L42.159,84.54 L248.468,84.54 C271.634,84.54 290.588,65.586 290.588,42.42 L290.588,42.42 C290.588,19.254 271.634,0.3 248.468,0.3 L248.468,0.3 L42.159,0.3 Z" id="path-27"></path>
        <path d="M42.159,0.3 C18.993,0.3 0.039,19.254 0.039,42.42 L0.039,42.42 C0.039,65.586 18.993,84.54 42.159,84.54 L42.159,84.54 L248.468,84.54 C271.634,84.54 290.588,65.586 290.588,42.42 L290.588,42.42 C290.588,19.254 271.634,0.3 248.468,0.3 L248.468,0.3 L42.159,0.3 Z" id="path-29"></path>
        <path d="M42.159,0.3 C18.993,0.3 0.039,19.254 0.039,42.42 L0.039,42.42 C0.039,65.586 18.993,84.54 42.159,84.54 L42.159,84.54 L248.468,84.54 C271.634,84.54 290.588,65.586 290.588,42.42 L290.588,42.42 C290.588,19.254 271.634,0.3 248.468,0.3 L248.468,0.3 L42.159,0.3 Z" id="path-31"></path>
        <path d="M42.159,0.3 C18.993,0.3 0.039,19.254 0.039,42.42 L0.039,42.42 C0.039,65.586 18.993,84.54 42.159,84.54 L42.159,84.54 L248.468,84.54 C271.634,84.54 290.588,65.586 290.588,42.42 L290.588,42.42 C290.588,19.254 271.634,0.3 248.468,0.3 L248.468,0.3 L42.159,0.3 Z" id="path-33"></path>
        <path d="M42.159,0.3 C18.993,0.3 0.039,19.254 0.039,42.42 L0.039,42.42 C0.039,65.586 18.993,84.54 42.159,84.54 L42.159,84.54 L248.468,84.54 C271.634,84.54 290.588,65.586 290.588,42.42 L290.588,42.42 C290.588,19.254 271.634,0.3 248.468,0.3 L248.468,0.3 L42.159,0.3 Z" id="path-35"></path>
        <path d="M42.159,0.3 C18.993,0.3 0.039,19.254 0.039,42.42 L0.039,42.42 C0.039,65.586 18.993,84.54 42.159,84.54 L42.159,84.54 L248.468,84.54 C271.634,84.54 290.588,65.586 290.588,42.42 L290.588,42.42 C290.588,19.254 271.634,0.3 248.468,0.3 L248.468,0.3 L42.159,0.3 Z" id="path-37"></path>
        <path d="M42.159,0.3 C18.993,0.3 0.039,19.254 0.039,42.42 L0.039,42.42 C0.039,65.586 18.993,84.54 42.159,84.54 L42.159,84.54 L248.468,84.54 C271.634,84.54 290.588,65.586 290.588,42.42 L290.588,42.42 C290.588,19.254 271.634,0.3 248.468,0.3 L248.468,0.3 L42.159,0.3 Z" id="path-39"></path>
        <path d="M42.159,0.3 C18.993,0.3 0.039,19.254 0.039,42.42 L0.039,42.42 C0.039,65.586 18.993,84.54 42.159,84.54 L42.159,84.54 L248.468,84.54 C271.634,84.54 290.588,65.586 290.588,42.42 L290.588,42.42 C290.588,19.254 271.634,0.3 248.468,0.3 L248.468,0.3 L42.159,0.3 Z" id="path-41"></path>
        <path d="M42.159,0.3 C18.993,0.3 0.039,19.254 0.039,42.42 L0.039,42.42 C0.039,65.586 18.993,84.54 42.159,84.54 L42.159,84.54 L248.468,84.54 C271.634,84.54 290.588,65.586 290.588,42.42 L290.588,42.42 C290.588,19.254 271.634,0.3 248.468,0.3 L248.468,0.3 L42.159,0.3 Z" id="path-43"></path>
        <path d="M42.159,0.3 C18.993,0.3 0.039,19.254 0.039,42.42 L0.039,42.42 C0.039,65.586 18.993,84.54 42.159,84.54 L42.159,84.54 L248.468,84.54 C271.634,84.54 290.588,65.586 290.588,42.42 L290.588,42.42 C290.588,19.254 271.634,0.3 248.468,0.3 L248.468,0.3 L42.159,0.3 Z" id="path-45"></path>
        <path d="M42.159,0.3 C18.993,0.3 0.039,19.254 0.039,42.42 L0.039,42.42 C0.039,65.586 18.993,84.54 42.159,84.54 L42.159,84.54 L248.468,84.54 C271.634,84.54 290.588,65.586 290.588,42.42 L290.588,42.42 C290.588,19.254 271.634,0.3 248.468,0.3 L248.468,0.3 L42.159,0.3 Z" id="path-47"></path>
        <path d="M42.159,0.3 C18.993,0.3 0.039,19.254 0.039,42.42 L0.039,42.42 C0.039,65.586 18.993,84.54 42.159,84.54 L42.159,84.54 L248.468,84.54 C271.634,84.54 290.588,65.586 290.588,42.42 L290.588,42.42 C290.588,19.254 271.634,0.3 248.468,0.3 L248.468,0.3 L42.159,0.3 Z" id="path-49"></path>
        <path d="M42.159,0.3 C18.993,0.3 0.039,19.254 0.039,42.42 L0.039,42.42 C0.039,65.586 18.993,84.54 42.159,84.54 L42.159,84.54 L248.468,84.54 C271.634,84.54 290.588,65.586 290.588,42.42 L290.588,42.42 C290.588,19.254 271.634,0.3 248.468,0.3 L248.468,0.3 L42.159,0.3 Z" id="path-51"></path>
        <path d="M42.159,0.3 C18.993,0.3 0.039,19.254 0.039,42.42 L0.039,42.42 C0.039,65.586 18.993,84.54 42.159,84.54 L42.159,84.54 L248.468,84.54 C271.634,84.54 290.588,65.586 290.588,42.42 L290.588,42.42 C290.588,19.254 271.634,0.3 248.468,0.3 L248.468,0.3 L42.159,0.3 Z" id="path-53"></path>
        <path d="M42.159,0.3 C18.993,0.3 0.039,19.254 0.039,42.42 L0.039,42.42 C0.039,65.586 18.993,84.54 42.159,84.54 L42.159,84.54 L248.468,84.54 C271.634,84.54 290.588,65.586 290.588,42.42 L290.588,42.42 C290.588,19.254 271.634,0.3 248.468,0.3 L248.468,0.3 L42.159,0.3 Z" id="path-55"></path>
        <path d="M42.159,0.3 C18.993,0.3 0.039,19.254 0.039,42.42 L0.039,42.42 C0.039,65.586 18.993,84.54 42.159,84.54 L42.159,84.54 L248.468,84.54 C271.634,84.54 290.588,65.586 290.588,42.42 L290.588,42.42 C290.588,19.254 271.634,0.3 248.468,0.3 L248.468,0.3 L42.159,0.3 Z" id="path-57"></path>
    </defs>
    <g id="webite-&amp;-mobile-size-" stroke="none" stroke-width="1" fill="none" fill-rule="evenodd">
        <g id="iPhone-6-01-homepage" transform="translate(-42.000000, -113.000000)">
            <g id="Group-2" transform="translate(42.000000, 113.000000)">
                <g id="Group-10" transform="translate(0.000000, 32.000000)">
                    <g id="Page-1" style="mix-blend-mode: multiply;">
                        <mask id="mask-2" fill="white">
                            <use xlink:href="#path-1"></use>
                        </mask>
                        <g id="Clip-2"></g>
                        <path d="M248.4287,85 L42.1197,85 C18.9537,85 -0.0003,66.046 -0.0003,42.88 C-0.0003,19.714 18.9537,0.76 42.1197,0.76 L248.4287,0.76 C271.5947,0.76 290.5487,19.714 290.5487,42.88 C290.5487,66.046 271.5947,85 248.4287,85" id="Fill-1" fill="#E6E6E6" mask="url(#mask-2)"></path>
                    </g>
                    <g id="Group-85">
                        <g id="Group-3">
                            <mask id="mask-4" fill="white">
                                <use xlink:href="#path-3"></use>
                            </mask>
                            <g id="Clip-2"></g>
                            <polygon id="Fill-1" fill="#FFFFFF" mask="url(#mask-4)" points="-47.127 91 -48.541 89.586 47.205 -6.16 48.619 -4.746"></polygon>
                        </g>
                        <g id="Group-6">
                            <mask id="mask-6" fill="white">
                                <use xlink:href="#path-5"></use>
                            </mask>
                            <g id="Clip-5"></g>
                            <polygon id="Fill-4" fill="#FFFFFF" mask="url(#mask-6)" points="-58.5859 91 -59.9999 89.586 35.7471 -6.16 37.1611 -4.746"></polygon>
                        </g>
                        <g id="Group-9">
                            <mask id="mask-8" fill="white">
                                <use xlink:href="#path-7"></use>
                            </mask>
                            <g id="Clip-8"></g>
                            <polygon id="Fill-7" fill="#FFFFFF" mask="url(#mask-8)" points="-35.5342 91 -36.9482 89.586 58.7988 -6.16 60.2128 -4.746"></polygon>
                        </g>
                        <g id="Group-12">
                            <mask id="mask-10" fill="white">
                                <use xlink:href="#path-9"></use>
                            </mask>
                            <g id="Clip-11"></g>
                            <polygon id="Fill-10" fill="#FFFFFF" mask="url(#mask-10)" points="-23.9404 91 -25.3544 89.586 70.3916 -6.16 71.8056 -4.746"></polygon>
                        </g>
                        <g id="Group-15">
                            <mask id="mask-12" fill="white">
                                <use xlink:href="#path-11"></use>
                            </mask>
                            <g id="Clip-14"></g>
                            <polygon id="Fill-13" fill="#FFFFFF" mask="url(#mask-12)" points="-12.3467 91 -13.7607 89.586 81.9853 -6.16 83.3993 -4.746"></polygon>
                        </g>
                        <g id="Group-18">
                            <mask id="mask-14" fill="white">
                                <use xlink:href="#path-13"></use>
                            </mask>
                            <g id="Clip-17"></g>
                            <polygon id="Fill-16" fill="#FFFFFF" mask="url(#mask-14)" points="-0.7539 91 -2.1679 89.586 93.5791 -6.16 94.9931 -4.746"></polygon>
                        </g>
                        <g id="Group-21">
                            <mask id="mask-16" fill="white">
                                <use xlink:href="#path-15"></use>
                            </mask>
                            <g id="Clip-20"></g>
                            <polygon id="Fill-19" fill="#FFFFFF" mask="url(#mask-16)" points="10.8398 91 9.4258 89.586 105.1718 -6.16 106.5858 -4.746"></polygon>
                        </g>
                        <g id="Group-24">
                            <mask id="mask-18" fill="white">
                                <use xlink:href="#path-17"></use>
                            </mask>
                            <g id="Clip-23"></g>
                            <polygon id="Fill-22" fill="#FFFFFF" mask="url(#mask-18)" points="22.4326 91 21.0186 89.586 116.7656 -6.16 118.1796 -4.746"></polygon>
                        </g>
                        <g id="Group-27">
                            <mask id="mask-20" fill="white">
                                <use xlink:href="#path-19"></use>
                            </mask>
                            <g id="Clip-26"></g>
                            <polygon id="Fill-25" fill="#FFFFFF" mask="url(#mask-20)" points="34.0264 91 32.6124 89.586 128.3584 -6.16 129.7724 -4.746"></polygon>
                        </g>
                        <g id="Group-30">
                            <mask id="mask-22" fill="white">
                                <use xlink:href="#path-21"></use>
                            </mask>
                            <g id="Clip-29"></g>
                            <polygon id="Fill-28" fill="#FFFFFF" mask="url(#mask-22)" points="45.6201 91 44.2061 89.586 139.9521 -6.16 141.3661 -4.746"></polygon>
                        </g>
                        <g id="Group-33">
                            <mask id="mask-24" fill="white">
                                <use xlink:href="#path-23"></use>
                            </mask>
                            <g id="Clip-32"></g>
                            <polygon id="Fill-31" fill="#FFFFFF" mask="url(#mask-24)" points="57.2129 91 55.7989 89.586 151.5459 -6.16 152.9599 -4.746"></polygon>
                        </g>
                        <g id="Group-36">
                            <mask id="mask-26" fill="white">
                                <use xlink:href="#path-25"></use>
                            </mask>
                            <g id="Clip-35"></g>
                            <polygon id="Fill-34" fill="#FFFFFF" mask="url(#mask-26)" points="68.8066 91 67.3926 89.586 163.1386 -6.16 164.5526 -4.746"></polygon>
                        </g>
                        <g id="Group-39">
                            <mask id="mask-28" fill="white">
                                <use xlink:href="#path-27"></use>
                            </mask>
                            <g id="Clip-38"></g>
                            <polygon id="Fill-37" fill="#FFFFFF" mask="url(#mask-28)" points="80.3994 91 78.9854 89.586 174.7324 -6.16 176.1464 -4.746"></polygon>
                        </g>
                        <g id="Group-42">
                            <mask id="mask-30" fill="white">
                                <use xlink:href="#path-29"></use>
                            </mask>
                            <g id="Clip-41"></g>
                            <polygon id="Fill-40" fill="#FFFFFF" mask="url(#mask-30)" points="91.9932 91 90.5792 89.586 186.3252 -6.16 187.7392 -4.746"></polygon>
                        </g>
                        <g id="Group-45">
                            <mask id="mask-32" fill="white">
                                <use xlink:href="#path-31"></use>
                            </mask>
                            <g id="Clip-44"></g>
                            <polygon id="Fill-43" fill="#FFFFFF" mask="url(#mask-32)" points="103.5869 91 102.1729 89.586 197.9189 -6.16 199.3329 -4.746"></polygon>
                        </g>
                        <g id="Group-48">
                            <mask id="mask-34" fill="white">
                                <use xlink:href="#path-33"></use>
                            </mask>
                            <g id="Clip-47"></g>
                            <polygon id="Fill-46" fill="#FFFFFF" mask="url(#mask-34)" points="115.1797 91 113.7657 89.586 209.5127 -6.16 210.9267 -4.746"></polygon>
                        </g>
                        <g id="Group-51">
                            <mask id="mask-36" fill="white">
                                <use xlink:href="#path-35"></use>
                            </mask>
                            <g id="Clip-50"></g>
                            <polygon id="Fill-49" fill="#FFFFFF" mask="url(#mask-36)" points="126.7734 91 125.3594 89.586 221.1054 -6.16 222.5194 -4.746"></polygon>
                        </g>
                        <g id="Group-54">
                            <mask id="mask-38" fill="white">
                                <use xlink:href="#path-37"></use>
                            </mask>
                            <g id="Clip-53"></g>
                            <polygon id="Fill-52" fill="#FFFFFF" mask="url(#mask-38)" points="138.3672 91 136.9532 89.586 232.6992 -6.16 234.1132 -4.746"></polygon>
                        </g>
                        <g id="Group-57">
                            <mask id="mask-40" fill="white">
                                <use xlink:href="#path-39"></use>
                            </mask>
                            <g id="Clip-56"></g>
                            <polygon id="Fill-55" fill="#FFFFFF" mask="url(#mask-40)" points="149.96 91 148.546 89.586 244.292 -6.16 245.706 -4.746"></polygon>
                        </g>
                        <g id="Group-60">
                            <mask id="mask-42" fill="white">
                                <use xlink:href="#path-41"></use>
                            </mask>
                            <g id="Clip-59"></g>
                            <polygon id="Fill-58" fill="#FFFFFF" mask="url(#mask-42)" points="161.5537 91 160.1397 89.586 255.8857 -6.16 257.2997 -4.746"></polygon>
                        </g>
                        <g id="Group-63">
                            <mask id="mask-44" fill="white">
                                <use xlink:href="#path-43"></use>
                            </mask>
                            <g id="Clip-62"></g>
                            <polygon id="Fill-61" fill="#FFFFFF" mask="url(#mask-44)" points="173.1465 91 171.7325 89.586 267.4795 -6.16 268.8935 -4.746"></polygon>
                        </g>
                        <g id="Group-66">
                            <mask id="mask-46" fill="white">
                                <use xlink:href="#path-45"></use>
                            </mask>
                            <g id="Clip-65"></g>
                            <polygon id="Fill-64" fill="#FFFFFF" mask="url(#mask-46)" points="184.7402 91 183.3262 89.586 279.0722 -6.16 280.4862 -4.746"></polygon>
                        </g>
                        <g id="Group-69">
                            <mask id="mask-48" fill="white">
                                <use xlink:href="#path-47"></use>
                            </mask>
                            <g id="Clip-68"></g>
                            <polygon id="Fill-67" fill="#FFFFFF" mask="url(#mask-48)" points="196.334 91 194.92 89.586 290.666 -6.16 292.08 -4.746"></polygon>
                        </g>
                        <g id="Group-72">
                            <mask id="mask-50" fill="white">
                                <use xlink:href="#path-49"></use>
                            </mask>
                            <g id="Clip-71"></g>
                            <polygon id="Fill-70" fill="#FFFFFF" mask="url(#mask-50)" points="207.9268 91 206.5128 89.586 302.2588 -6.16 303.6728 -4.746"></polygon>
                        </g>
                        <g id="Group-75">
                            <mask id="mask-52" fill="white">
                                <use xlink:href="#path-51"></use>
                            </mask>
                            <g id="Clip-74"></g>
                            <polygon id="Fill-73" fill="#FFFFFF" mask="url(#mask-52)" points="219.5205 91 218.1065 89.586 313.8525 -6.16 315.2665 -4.746"></polygon>
                        </g>
                        <g id="Group-78">
                            <mask id="mask-54" fill="white">
                                <use xlink:href="#path-53"></use>
                            </mask>
                            <g id="Clip-77"></g>
                            <polygon id="Fill-76" fill="#FFFFFF" mask="url(#mask-54)" points="231.1133 91 229.6993 89.586 325.4463 -6.16 326.8603 -4.746"></polygon>
                        </g>
                        <g id="Group-81">
                            <mask id="mask-56" fill="white">
                                <use xlink:href="#path-55"></use>
                            </mask>
                            <g id="Clip-80"></g>
                            <polygon id="Fill-79" fill="#FFFFFF" mask="url(#mask-56)" points="242.707 91 241.293 89.586 337.039 -6.16 338.453 -4.746"></polygon>
                        </g>
                        <g id="Group-84">
                            <mask id="mask-58" fill="white">
                                <use xlink:href="#path-57"></use>
                            </mask>
                            <g id="Clip-83"></g>
                            <polygon id="Fill-82" fill="#FFFFFF" mask="url(#mask-58)" points="254.3008 91 252.8868 89.586 348.6328 -6.16 350.0468 -4.746"></polygon>
                        </g>
                    </g>
                </g>
                <g id="Group-7" transform="translate(6.000000, 0.000000)">
                    <path d="M249.7656,107.4658 L43.4556,107.4658 C20.2906,107.4658 1.3366,88.5118 1.3366,65.3458 C1.3366,42.1798 20.2906,23.2258 43.4556,23.2258 L249.7656,23.2258 C272.9316,23.2258 291.8856,42.1798 291.8856,65.3458 C291.8856,88.5118 272.9316,107.4658 249.7656,107.4658" id="Fill-86" fill="#FF4A46"></path>
                    <path d="M43.4561,23.7256 C20.5071,23.7256 1.8371,42.3966 1.8371,65.3456 C1.8371,88.2946 20.5071,106.9656 43.4561,106.9656 L249.7661,106.9656 C272.7151,106.9656 291.3861,88.2946 291.3861,65.3456 C291.3861,42.3966 272.7151,23.7256 249.7661,23.7256 L43.4561,23.7256 Z M249.7661,107.9656 L43.4561,107.9656 C19.9561,107.9656 0.8371,88.8466 0.8371,65.3456 C0.8371,41.8446 19.9561,22.7256 43.4561,22.7256 L249.7661,22.7256 C273.2671,22.7256 292.3861,41.8446 292.3861,65.3456 C292.3861,88.8466 273.2671,107.9656 249.7661,107.9656 L249.7661,107.9656 Z" id="Fill-88" fill="#FF4A46"></path>
                    <path d="M69.9404,50.2773 L65.9654,50.2773 L64.2904,47.3913 L68.2644,47.3913 L69.9404,50.2773 Z M64.9604,68.3713 L63.5714,65.4853 L67.4504,65.4853 L68.7914,68.3713 L64.9604,68.3713 Z M67.7854,76.2453 L73.0524,76.2453 L68.6474,79.9133 L73.1004,86.0253 L68.6954,86.0253 L65.9184,82.1133 L61.2734,86.0253 L55.9584,86.0253 L63.9074,79.3753 L60.3634,74.4843 L54.7134,75.0223 L54.7134,71.5493 L59.0224,71.1593 L57.9214,67.2463 L61.5604,67.2463 L62.5664,70.8173 L73.1484,69.8873 L73.1484,73.3603 L64.4814,74.1423 L66.6844,77.1733 L67.7854,76.2453 Z M54.3774,63.9703 L63.1404,57.9063 L60.9384,55.3633 L53.9474,56.0953 L53.9474,52.6243 L59.6454,52.0383 L58.4004,48.0763 L62.1354,48.0763 L63.2364,51.5963 L73.2924,50.5703 L73.2924,54.0433 L65.2484,54.8743 L66.1094,55.9503 L66.7804,55.4613 L72.7174,55.4613 L68.2644,58.4933 L73.8664,65.1433 L69.1734,65.1433 L65.2954,60.4983 L60.3154,63.9703 L54.3774,63.9703 Z M47.1964,76.8323 L47.9144,72.0393 L51.1694,72.0393 L50.4524,76.8323 L47.1964,76.8323 Z M40.2054,72.0393 L41.0184,78.2013 L37.6204,78.2013 L36.8524,72.0393 L40.2054,72.0393 Z M45.6634,69.6433 L45.6634,79.4233 L50.5004,78.3963 L50.5004,82.3583 L36.4224,85.3893 L36.4224,81.3803 L42.3114,80.1573 L42.3114,69.6433 L36.9014,69.6433 L36.9014,66.1713 L42.3114,66.1713 L42.3114,62.6983 L38.4814,62.6983 L38.4814,59.1293 L49.4944,59.1293 L49.4944,62.6983 L45.6634,62.6983 L45.6634,66.1713 L50.6914,66.1713 L50.6914,69.6433 L45.6634,69.6433 Z M35.2254,58.0043 L43.8914,47.8313 L52.7024,57.2693 L47.6744,57.2693 L44.0364,53.4073 L40.0134,58.0043 L35.2254,58.0043 Z" id="Fill-90" fill="#FFFFFF"></path>
                    <path d="M36.3086,57.5039 L39.7876,57.5039 L43.6606,53.0779 C43.7526,52.9719 43.8856,52.9099 44.0276,52.9069 C44.1806,52.8739 44.3026,52.9619 44.4006,53.0649 L47.8906,56.7699 L51.5516,56.7699 L43.9086,48.5819 L36.3086,57.5039 Z M40.0136,58.5039 L35.2256,58.5039 C35.0306,58.5039 34.8536,58.3909 34.7716,58.2139 C34.6896,58.0359 34.7186,57.8279 34.8446,57.6799 L43.5106,47.5069 C43.6036,47.3989 43.7376,47.3339 43.8796,47.3309 C44.0376,47.3239 44.1606,47.3859 44.2566,47.4899 L53.0676,56.9289 C53.2036,57.0739 53.2406,57.2859 53.1616,57.4689 C53.0806,57.6509 52.9016,57.7699 52.7026,57.7699 L47.6746,57.7699 C47.5376,57.7699 47.4056,57.7129 47.3106,57.6119 L44.0496,54.1509 L40.3896,58.3329 C40.2946,58.4409 40.1586,58.5039 40.0136,58.5039 L40.0136,58.5039 Z M66.2536,49.7769 L69.0726,49.7769 L67.9766,47.8919 L65.1586,47.8919 L66.2536,49.7769 Z M69.4086,64.6439 L72.7906,64.6439 L67.8816,58.8159 C67.7906,58.7069 67.7496,58.5659 67.7696,58.4249 C67.7876,58.2849 67.8666,58.1589 67.9836,58.0799 L71.0946,55.9609 L66.9436,55.9609 L66.4046,56.3549 C66.1896,56.5129 65.8876,56.4719 65.7186,56.2629 L64.8576,55.1869 C64.7436,55.0439 64.7156,54.8499 64.7876,54.6809 C64.8576,54.5119 65.0146,54.3959 65.1966,54.3769 L72.7916,53.5919 L72.7916,51.1239 L63.2876,52.0939 C63.0406,52.1219 62.8296,51.9719 62.7586,51.7459 L61.7686,48.5759 L59.0816,48.5759 L60.1216,51.8879 C60.1676,52.0309 60.1456,52.1879 60.0636,52.3129 C59.9806,52.4389 59.8456,52.5209 59.6966,52.5349 L54.4476,53.0749 L54.4476,55.5409 L60.8866,54.8659 C61.0376,54.8429 61.2086,54.9109 61.3166,55.0359 L63.5186,57.5789 C63.6116,57.6869 63.6546,57.8279 63.6366,57.9689 C63.6196,58.1099 63.5416,58.2359 63.4246,58.3169 L55.9786,63.4709 L60.1586,63.4709 L65.0096,60.0879 C65.2226,59.9409 65.5136,59.9789 65.6796,60.1779 L69.4086,64.6439 Z M73.8666,65.6439 L69.1736,65.6439 C69.0256,65.6439 68.8846,65.5779 68.7896,65.4639 L65.2056,61.1699 L60.6016,64.3809 C60.5176,64.4399 60.4176,64.4709 60.3156,64.4709 L54.3776,64.4709 C54.1596,64.4709 53.9656,64.3279 53.9006,64.1199 C53.8356,63.9109 53.9126,63.6839 54.0936,63.5599 L62.3976,57.8129 L60.7316,55.8879 L53.9986,56.5929 C53.8686,56.6079 53.7186,56.5629 53.6126,56.4669 C53.5076,56.3719 53.4476,56.2369 53.4476,56.0959 L53.4476,52.6239 C53.4476,52.3679 53.6416,52.1529 53.8966,52.1269 L58.9846,51.6039 L57.9236,48.2269 C57.8756,48.0739 57.9036,47.9079 57.9966,47.7799 C58.0916,47.6519 58.2416,47.5759 58.4006,47.5759 L62.1356,47.5759 C62.3546,47.5759 62.5476,47.7189 62.6136,47.9269 L63.5916,51.0579 L66.3396,50.7769 L65.9656,50.7769 C65.7876,50.7769 65.6226,50.6829 65.5336,50.5279 L63.8576,47.6429 C63.7676,47.4879 63.7676,47.2969 63.8566,47.1429 C63.9466,46.9869 64.1116,46.8919 64.2896,46.8919 L68.2646,46.8919 C68.4426,46.8919 68.6076,46.9859 68.6976,47.1409 L70.3726,50.0259 C70.4326,50.1289 70.4526,50.2459 70.4336,50.3589 L73.2416,50.0729 C73.3786,50.0569 73.5226,50.1059 73.6266,50.1989 C73.7326,50.2939 73.7916,50.4289 73.7916,50.5699 L73.7916,54.0429 C73.7916,54.2989 73.5986,54.5139 73.3436,54.5399 L69.2726,54.9609 L72.7176,54.9609 C72.9376,54.9609 73.1306,55.1049 73.1956,55.3139 C73.2596,55.5239 73.1806,55.7509 72.9986,55.8739 L69.0036,58.5949 L74.2486,64.8209 C74.3736,64.9699 74.4016,65.1779 74.3196,65.3549 C74.2376,65.5309 74.0606,65.6439 73.8666,65.6439 L73.8666,65.6439 Z M65.2746,67.8709 L68.0076,67.8709 L67.1306,65.9849 L64.3676,65.9849 L65.2746,67.8709 Z M68.7906,68.8709 L64.9596,68.8709 C64.7676,68.8709 64.5926,68.7609 64.5096,68.5879 L63.1206,65.7019 C63.0456,65.5469 63.0566,65.3649 63.1486,65.2199 C63.2396,65.0729 63.3996,64.9849 63.5716,64.9849 L67.4506,64.9849 C67.6446,64.9849 67.8216,65.0989 67.9036,65.2749 L69.2446,68.1599 C69.3166,68.3159 69.3046,68.4959 69.2126,68.6399 C69.1216,68.7839 68.9616,68.8709 68.7906,68.8709 L68.7906,68.8709 Z M47.7766,76.3319 L50.0216,76.3319 L50.5896,72.5389 L48.3446,72.5389 L47.7766,76.3319 Z M50.4526,77.3319 L47.1966,77.3319 C47.0506,77.3319 46.9126,77.2689 46.8176,77.1579 C46.7226,77.0479 46.6806,76.9019 46.7026,76.7579 L47.4196,71.9649 C47.4556,71.7199 47.6666,71.5389 47.9136,71.5389 L51.1696,71.5389 C51.3156,71.5389 51.4546,71.6029 51.5486,71.7129 C51.6436,71.8229 51.6856,71.9689 51.6636,72.1129 L50.9466,76.9059 C50.9106,77.1509 50.6996,77.3319 50.4526,77.3319 L50.4526,77.3319 Z M38.0616,77.7009 L40.4486,77.7009 L39.7666,72.5389 L37.4186,72.5389 L38.0616,77.7009 Z M41.0186,78.7009 L37.6206,78.7009 C37.3686,78.7009 37.1556,78.5139 37.1236,78.2629 L36.3566,72.1009 C36.3386,71.9589 36.3826,71.8159 36.4776,71.7079 C36.5726,71.6009 36.7086,71.5389 36.8526,71.5389 L40.2046,71.5389 C40.4556,71.5389 40.6676,71.7249 40.7016,71.9739 L41.5146,78.1359 C41.5336,78.2779 41.4896,78.4229 41.3946,78.5309 C41.2996,78.6389 41.1626,78.7009 41.0186,78.7009 L41.0186,78.7009 Z M36.9226,81.7869 L36.9226,84.7709 L49.9996,81.9549 L49.9996,79.0139 L45.7666,79.9129 C45.6206,79.9429 45.4656,79.9069 45.3486,79.8129 C45.2316,79.7179 45.1626,79.5739 45.1626,79.4239 L45.1626,69.6439 C45.1626,69.3669 45.3866,69.1439 45.6626,69.1439 L50.1916,69.1439 L50.1916,66.6709 L45.6626,66.6709 C45.3866,66.6709 45.1626,66.4469 45.1626,66.1709 L45.1626,62.6979 C45.1626,62.4219 45.3866,62.1979 45.6626,62.1979 L48.9946,62.1979 L48.9946,59.6289 L38.9816,59.6289 L38.9816,62.1979 L42.3116,62.1979 C42.5876,62.1979 42.8116,62.4219 42.8116,62.6979 L42.8116,66.1709 C42.8116,66.4469 42.5876,66.6709 42.3116,66.6709 L37.4016,66.6709 L37.4016,69.1439 L42.3116,69.1439 C42.5876,69.1439 42.8116,69.3669 42.8116,69.6439 L42.8116,80.1569 C42.8116,80.3949 42.6456,80.5989 42.4126,80.6469 L36.9226,81.7869 Z M36.4226,85.8899 C36.3096,85.8899 36.1986,85.8519 36.1086,85.7779 C35.9916,85.6839 35.9226,85.5409 35.9226,85.3899 L35.9226,81.3799 C35.9226,81.1429 36.0886,80.9389 36.3216,80.8909 L41.8116,79.7499 L41.8116,70.1439 L36.9016,70.1439 C36.6246,70.1439 36.4016,69.9199 36.4016,69.6439 L36.4016,66.1709 C36.4016,65.8949 36.6246,65.6709 36.9016,65.6709 L41.8116,65.6709 L41.8116,63.1979 L38.4816,63.1979 C38.2046,63.1979 37.9816,62.9749 37.9816,62.6979 L37.9816,59.1289 C37.9816,58.8529 38.2046,58.6289 38.4816,58.6289 L49.4946,58.6289 C49.7706,58.6289 49.9946,58.8529 49.9946,59.1289 L49.9946,62.6979 C49.9946,62.9749 49.7706,63.1979 49.4946,63.1979 L46.1626,63.1979 L46.1626,65.6709 L50.6916,65.6709 C50.9676,65.6709 51.1916,65.8949 51.1916,66.1709 L51.1916,69.6439 C51.1916,69.9199 50.9676,70.1439 50.6916,70.1439 L46.1626,70.1439 L46.1626,78.8069 L50.3966,77.9069 C50.5446,77.8789 50.6986,77.9139 50.8146,78.0079 C50.9316,78.1029 50.9996,78.2459 50.9996,78.3969 L50.9996,82.3579 C50.9996,82.5939 50.8356,82.7979 50.6056,82.8479 L36.5286,85.8789 C36.4936,85.8859 36.4576,85.8899 36.4226,85.8899 L36.4226,85.8899 Z M68.9536,85.5249 L72.1186,85.5249 L68.2436,80.2069 C68.0876,79.9939 68.1246,79.6969 68.3276,79.5289 L71.6706,76.7449 L67.9676,76.7449 L67.0066,77.5559 C66.9006,77.6459 66.7696,77.6899 66.6236,77.6699 C66.4866,77.6529 66.3616,77.5799 66.2806,77.4679 L64.0776,74.4369 C63.9706,74.2909 63.9526,74.0999 64.0266,73.9359 C64.1006,73.7729 64.2566,73.6609 64.4366,73.6449 L72.6486,72.9029 L72.6486,70.4339 L62.6106,71.3159 C62.3836,71.3379 62.1516,71.1849 62.0846,70.9529 L61.1816,67.7459 L58.5816,67.7459 L59.5036,71.0239 C59.5436,71.1669 59.5186,71.3199 59.4346,71.4419 C59.3496,71.5659 59.2156,71.6439 59.0676,71.6569 L55.2136,72.0069 L55.2136,74.4729 L60.3156,73.9859 C60.4966,73.9689 60.6636,74.0479 60.7686,74.1909 L64.3126,79.0819 C64.4656,79.2939 64.4296,79.5899 64.2286,79.7589 L57.3346,85.5249 L61.0906,85.5249 L65.5956,81.7309 C65.7036,81.6399 65.8416,81.5939 65.9816,81.6169 C66.1206,81.6349 66.2456,81.7099 66.3256,81.8239 L68.9536,85.5249 Z M73.1006,86.5249 L68.6956,86.5249 C68.5336,86.5249 68.3816,86.4469 68.2876,86.3149 L65.8246,82.8459 L61.5956,86.4079 C61.5056,86.4829 61.3916,86.5249 61.2736,86.5249 L55.9576,86.5249 C55.7476,86.5249 55.5596,86.3939 55.4886,86.1959 C55.4156,85.9979 55.4756,85.7769 55.6366,85.6419 L63.2286,79.2909 L60.1256,75.0089 L54.7616,75.5209 C54.6136,75.5269 54.4816,75.4859 54.3776,75.3929 C54.2736,75.2979 54.2136,75.1629 54.2136,75.0229 L54.2136,71.5499 C54.2136,71.2909 54.4116,71.0749 54.6686,71.0519 L58.3776,70.7159 L57.4406,67.3819 C57.3986,67.2309 57.4286,67.0689 57.5236,66.9439 C57.6186,66.8189 57.7656,66.7459 57.9216,66.7459 L61.5606,66.7459 C61.7846,66.7459 61.9816,66.8949 62.0416,67.1099 L62.9356,70.2829 L73.1046,69.3899 C73.2476,69.3799 73.3816,69.4249 73.4866,69.5189 C73.5896,69.6129 73.6486,69.7469 73.6486,69.8879 L73.6486,73.3599 C73.6486,73.6189 73.4516,73.8349 73.1936,73.8579 L65.4046,74.5619 L66.7736,76.4449 L67.4626,75.8629 C67.5526,75.7869 67.6666,75.7449 67.7856,75.7449 L73.0526,75.7449 C73.2636,75.7449 73.4516,75.8769 73.5226,76.0749 C73.5946,76.2739 73.5346,76.4949 73.3726,76.6289 L69.3276,79.9969 L73.5046,85.7319 C73.6156,85.8829 73.6316,86.0839 73.5456,86.2519 C73.4606,86.4199 73.2886,86.5249 73.1006,86.5249 L73.1006,86.5249 Z" id="Fill-92" fill="#FFFFFF"></path>
                    <path d="M89.1396,80.5977 L114.7086,80.5977 L114.7086,84.4607 L85.3576,84.4607 L85.3576,67.9807 L99.0036,67.9807 L99.0036,62.7467 L87.9906,62.7467 L87.9906,58.7857 L102.7856,58.7857 L102.7856,71.8437 L89.1396,71.8437 L89.1396,80.5977 Z M88.4686,55.5587 L85.4996,64.6057 L81.4306,64.6057 L87.0336,47.5867 L91.0066,47.5867 L89.6656,51.6957 L114.0866,51.6957 L112.8896,73.6047 L109.0586,73.6047 L110.0646,55.5587 L88.4686,55.5587 Z" id="Fill-94" fill="#FFFFFF"></path>
                    <path d="M109.5869,73.1045 L112.4159,73.1045 L113.5589,52.1955 L89.6659,52.1955 C89.5059,52.1955 89.3559,52.1185 89.2619,51.9895 C89.1669,51.8595 89.1409,51.6925 89.1909,51.5405 L90.3169,48.0865 L87.3949,48.0865 L82.1219,64.1055 L85.1379,64.1055 L87.9939,55.4025 C88.0619,55.1975 88.2529,55.0585 88.4689,55.0585 L110.0649,55.0585 C110.2019,55.0585 110.3329,55.1155 110.4279,55.2145 C110.5229,55.3145 110.5709,55.4495 110.5639,55.5855 L109.5869,73.1045 Z M85.8579,83.9605 L114.2089,83.9605 L114.2089,81.0975 L89.1399,81.0975 C88.8629,81.0975 88.6399,80.8745 88.6399,80.5975 L88.6399,71.8435 C88.6399,71.5675 88.8629,71.3435 89.1399,71.3435 L102.2859,71.3435 L102.2859,59.2865 L88.4899,59.2865 L88.4899,62.2475 L99.0039,62.2475 C99.2799,62.2475 99.5039,62.4705 99.5039,62.7475 L99.5039,67.9805 C99.5039,68.2565 99.2799,68.4805 99.0039,68.4805 L85.8579,68.4805 L85.8579,83.9605 Z M114.7089,84.9605 L85.3579,84.9605 C85.0809,84.9605 84.8579,84.7375 84.8579,84.4605 L84.8579,67.9805 C84.8579,67.7045 85.0809,67.4805 85.3579,67.4805 L98.5039,67.4805 L98.5039,63.2475 L87.9899,63.2475 C87.7139,63.2475 87.4899,63.0235 87.4899,62.7475 L87.4899,60.1445 L85.9749,64.7615 C85.9069,64.9665 85.7159,65.1055 85.4999,65.1055 L81.4309,65.1055 C81.2709,65.1055 81.1189,65.0285 81.0249,64.8985 C80.9319,64.7685 80.9049,64.6015 80.9559,64.4495 L86.5589,47.4305 C86.6259,47.2255 86.8169,47.0865 87.0329,47.0865 L91.0069,47.0865 C91.1669,47.0865 91.3169,47.1645 91.4109,47.2925 C91.5059,47.4225 91.5319,47.5895 91.4829,47.7425 L90.3559,51.1955 L114.0869,51.1955 C114.2249,51.1955 114.3559,51.2515 114.4499,51.3515 C114.5439,51.4515 114.5939,51.5855 114.5859,51.7225 L113.3889,73.6315 C113.3739,73.8965 113.1549,74.1045 112.8899,74.1045 L109.0589,74.1045 C108.9209,74.1045 108.7899,74.0475 108.6949,73.9485 C108.6009,73.8485 108.5519,73.7135 108.5599,73.5775 L109.5359,56.0585 L88.8309,56.0585 L88.0999,58.2865 L102.7859,58.2865 C103.0629,58.2865 103.2859,58.5095 103.2859,58.7865 L103.2859,71.8435 C103.2859,72.1205 103.0629,72.3435 102.7859,72.3435 L89.6399,72.3435 L89.6399,80.0975 L114.7089,80.0975 C114.9849,80.0975 115.2089,80.3215 115.2089,80.5975 L115.2089,84.4605 C115.2089,84.7375 114.9849,84.9605 114.7089,84.9605 L114.7089,84.9605 Z" id="Fill-96" fill="#FFFFFF"></path>
                    <path d="M159.3828,54.1396 L155.2168,54.1396 L153.2058,49.3966 L157.3228,49.3966 L159.3828,54.1396 Z M160.0048,60.4496 L151.1478,60.4496 L150.7158,62.7466 L153.2538,62.7466 L153.2538,80.9396 L159.1918,80.9396 L159.1918,84.5586 L149.7588,84.5586 L149.7108,68.0296 L146.1668,85.1456 L142.5288,85.1456 L147.5078,60.4496 L141.7618,60.4496 L141.7618,56.7326 L148.1298,56.7326 L148.1298,48.6626 L151.6738,48.6626 L151.6738,56.7326 L160.0048,56.7326 L160.0048,60.4496 Z M135.8718,73.0666 L139.7508,73.0666 L140.9958,79.7656 L137.1168,79.7656 L135.8718,73.0666 Z M136.1598,61.1336 L128.1148,61.1336 L128.1148,65.3886 L136.1598,65.3886 L136.1598,61.1336 Z M139.5118,57.6126 L139.5118,68.8116 L134.0048,68.8116 L134.0048,85.8296 L130.2228,85.8296 L130.2228,68.8116 L124.7638,68.8116 L124.7638,57.6126 L139.5118,57.6126 Z M123.2318,82.6026 L124.8598,72.9186 L128.7378,72.9186 L127.1098,82.6026 L123.2318,82.6026 Z M141.7618,51.4516 L141.7618,55.2646 L122.5138,55.2646 L122.5138,51.4516 L130.2228,51.4516 L130.2228,48.4176 L134.0048,48.4176 L134.0048,51.4516 L141.7618,51.4516 Z" id="Fill-98" fill="#FFFFFF"></path>
                    <path d="M155.5479,53.6396 L158.6199,53.6396 L156.9949,49.8966 L153.9609,49.8966 L155.5479,53.6396 Z M159.3829,54.6396 L155.2169,54.6396 C155.0159,54.6396 154.8349,54.5196 154.7569,54.3346 L152.7459,49.5916 C152.6809,49.4376 152.6959,49.2606 152.7889,49.1196 C152.8819,48.9806 153.0379,48.8966 153.2059,48.8966 L157.3229,48.8966 C157.5229,48.8966 157.7019,49.0146 157.7819,49.1976 L159.8419,53.9406 C159.9079,54.0946 159.8939,54.2736 159.8009,54.4136 C159.7079,54.5546 159.5519,54.6396 159.3829,54.6396 L159.3829,54.6396 Z M123.0139,54.7646 L141.2619,54.7646 L141.2619,51.9516 L134.0049,51.9516 C133.7289,51.9516 133.5049,51.7276 133.5049,51.4516 L133.5049,48.9176 L130.7229,48.9176 L130.7229,51.4516 C130.7229,51.7276 130.4989,51.9516 130.2229,51.9516 L123.0139,51.9516 L123.0139,54.7646 Z M141.7619,55.7646 L122.5139,55.7646 C122.2369,55.7646 122.0139,55.5406 122.0139,55.2646 L122.0139,51.4516 C122.0139,51.1746 122.2369,50.9516 122.5139,50.9516 L129.7229,50.9516 L129.7229,48.4176 C129.7229,48.1416 129.9459,47.9176 130.2229,47.9176 L134.0049,47.9176 C134.2809,47.9176 134.5049,48.1416 134.5049,48.4176 L134.5049,50.9516 L141.7619,50.9516 C142.0379,50.9516 142.2619,51.1746 142.2619,51.4516 L142.2619,55.2646 C142.2619,55.5406 142.0379,55.7646 141.7619,55.7646 L141.7619,55.7646 Z M128.6149,64.8886 L135.6599,64.8886 L135.6599,61.6336 L128.6149,61.6336 L128.6149,64.8886 Z M136.1599,65.8886 L128.1149,65.8886 C127.8389,65.8886 127.6149,65.6646 127.6149,65.3886 L127.6149,61.1336 C127.6149,60.8576 127.8389,60.6336 128.1149,60.6336 L136.1599,60.6336 C136.4369,60.6336 136.6599,60.8576 136.6599,61.1336 L136.6599,65.3886 C136.6599,65.6646 136.4369,65.8886 136.1599,65.8886 L136.1599,65.8886 Z M137.5329,79.2656 L140.3949,79.2656 L139.3349,73.5666 L136.4739,73.5666 L137.5329,79.2656 Z M140.9959,80.2656 L137.1169,80.2656 C136.8759,80.2656 136.6699,80.0936 136.6259,79.8576 L135.3809,73.1586 C135.3539,73.0116 135.3929,72.8616 135.4869,72.7466 C135.5829,72.6326 135.7239,72.5666 135.8719,72.5666 L139.7509,72.5666 C139.9919,72.5666 140.1979,72.7386 140.2419,72.9746 L141.4869,79.6736 C141.5149,79.8206 141.4759,79.9706 141.3809,80.0846 C141.2849,80.1996 141.1449,80.2656 140.9959,80.2656 L140.9959,80.2656 Z M123.8219,82.1026 L126.6869,82.1026 L128.1479,73.4186 L125.2819,73.4186 L123.8219,82.1026 Z M127.1099,83.1026 L123.2319,83.1026 C123.0839,83.1026 122.9439,83.0376 122.8499,82.9256 C122.7549,82.8136 122.7139,82.6646 122.7379,82.5196 L124.3659,72.8356 C124.4069,72.5956 124.6149,72.4186 124.8599,72.4186 L128.7379,72.4186 C128.8859,72.4186 129.0259,72.4836 129.1199,72.5956 C129.2149,72.7076 129.2559,72.8566 129.2319,73.0016 L127.6029,82.6856 C127.5619,82.9256 127.3539,83.1026 127.1099,83.1026 L127.1099,83.1026 Z M143.1399,84.6456 L145.7599,84.6456 L149.2219,67.9276 C149.2729,67.6776 149.5099,67.5056 149.7609,67.5326 C150.0159,67.5576 150.2099,67.7716 150.2109,68.0286 L150.2579,84.0586 L158.6919,84.0586 L158.6919,81.4396 L153.2539,81.4396 C152.9779,81.4396 152.7539,81.2156 152.7539,80.9396 L152.7539,63.2466 L150.7159,63.2466 C150.5679,63.2466 150.4259,63.1806 150.3309,63.0666 C150.2359,62.9526 150.1969,62.8006 150.2249,62.6546 L150.6559,60.3566 C150.6999,60.1196 150.9069,59.9496 151.1479,59.9496 L159.5049,59.9496 L159.5049,57.2326 L151.6739,57.2326 C151.3979,57.2326 151.1739,57.0086 151.1739,56.7326 L151.1739,49.1626 L148.6299,49.1626 L148.6299,56.7326 C148.6299,57.0086 148.4059,57.2326 148.1299,57.2326 L142.2619,57.2326 L142.2619,59.9496 L147.5079,59.9496 C147.6579,59.9496 147.7999,60.0166 147.8949,60.1326 C147.9889,60.2486 148.0269,60.4016 147.9979,60.5476 L143.1399,84.6456 Z M146.1669,85.6456 L142.5279,85.6456 C142.3779,85.6456 142.2359,85.5776 142.1419,85.4616 C142.0469,85.3456 142.0089,85.1936 142.0379,85.0466 L146.8969,60.9496 L141.7619,60.9496 C141.4849,60.9496 141.2619,60.7256 141.2619,60.4496 L141.2619,56.7326 C141.2619,56.4556 141.4849,56.2326 141.7619,56.2326 L147.6299,56.2326 L147.6299,48.6626 C147.6299,48.3866 147.8539,48.1626 148.1299,48.1626 L151.6739,48.1626 C151.9499,48.1626 152.1739,48.3866 152.1739,48.6626 L152.1739,56.2326 L160.0049,56.2326 C160.2809,56.2326 160.5049,56.4556 160.5049,56.7326 L160.5049,60.4496 C160.5049,60.7256 160.2809,60.9496 160.0049,60.9496 L151.5629,60.9496 L151.3189,62.2466 L153.2539,62.2466 C153.5299,62.2466 153.7539,62.4706 153.7539,62.7466 L153.7539,80.4396 L159.1919,80.4396 C159.4679,80.4396 159.6919,80.6626 159.6919,80.9396 L159.6919,84.5586 C159.6919,84.8346 159.4679,85.0586 159.1919,85.0586 L149.7589,85.0586 C149.4839,85.0586 149.2599,84.8356 149.2589,84.5596 L149.2249,72.8426 L146.6559,85.2466 C146.6089,85.4796 146.4039,85.6456 146.1669,85.6456 L146.1669,85.6456 Z M130.7229,85.3296 L133.5049,85.3296 L133.5049,68.8116 C133.5049,68.5356 133.7289,68.3116 134.0049,68.3116 L139.0119,68.3116 L139.0119,58.1126 L125.2639,58.1126 L125.2639,68.3116 L130.2229,68.3116 C130.4989,68.3116 130.7229,68.5356 130.7229,68.8116 L130.7229,85.3296 Z M134.0049,86.3296 L130.2229,86.3296 C129.9459,86.3296 129.7229,86.1066 129.7229,85.8296 L129.7229,69.3116 L124.7639,69.3116 C124.4869,69.3116 124.2639,69.0876 124.2639,68.8116 L124.2639,57.6126 C124.2639,57.3356 124.4869,57.1126 124.7639,57.1126 L139.5119,57.1126 C139.7879,57.1126 140.0119,57.3356 140.0119,57.6126 L140.0119,68.8116 C140.0119,69.0876 139.7879,69.3116 139.5119,69.3116 L134.5049,69.3116 L134.5049,85.8296 C134.5049,86.1066 134.2809,86.3296 134.0049,86.3296 L134.0049,86.3296 Z" id="Fill-100" fill="#FFFFFF"></path>
                    <path d="M189.6914,81.8203 L203.2894,81.8203 L203.2894,85.7323 L185.8604,85.7323 L185.8604,55.2163 L189.6914,55.2163 L189.6914,65.9263 L199.6984,60.5473 L199.6984,64.9973 L189.6914,70.3273 L189.6914,81.8203 Z M179.7314,60.8883 L174.1764,60.8883 L172.6924,65.2903 L178.0554,67.2463 L179.7314,60.8883 Z M176.7624,53.0153 L175.4214,56.9763 L184.7114,56.9763 L180.7374,72.0883 L173.1714,86.3193 L168.7664,86.3193 L177.0024,70.9143 L171.5444,68.9583 L170.2514,72.9193 L166.1804,72.9193 L172.7404,53.0153 L166.7544,53.0153 L166.7544,49.1523 L202.3794,49.1523 L202.3794,53.0153 L176.7624,53.0153 Z" id="Fill-102" fill="#FFFFFF"></path>
                    <path d="M173.3223,64.9873 L177.7123,66.5893 L179.0833,61.3883 L174.5363,61.3883 L173.3223,64.9873 Z M178.0553,67.7463 C177.9983,67.7463 177.9393,67.7363 177.8843,67.7163 L172.5213,65.7593 C172.2653,65.6673 172.1323,65.3873 172.2183,65.1303 L173.7033,60.7283 C173.7713,60.5253 173.9623,60.3883 174.1763,60.3883 L179.7313,60.3883 C179.8863,60.3883 180.0333,60.4613 180.1283,60.5833 C180.2213,60.7063 180.2553,60.8663 180.2153,61.0153 L178.5393,67.3743 C178.5033,67.5093 178.4123,67.6243 178.2873,67.6893 C178.2153,67.7263 178.1353,67.7463 178.0553,67.7463 L178.0553,67.7463 Z M186.3603,85.2323 L202.7893,85.2323 L202.7893,82.3203 L189.6913,82.3203 C189.4153,82.3203 189.1913,82.0963 189.1913,81.8203 L189.1913,70.3273 C189.1913,70.1423 189.2933,69.9723 189.4563,69.8853 L199.1983,64.6973 L199.1983,61.3833 L189.9273,66.3673 C189.7743,66.4513 189.5863,66.4473 189.4343,66.3553 C189.2843,66.2653 189.1913,66.1023 189.1913,65.9263 L189.1913,55.7163 L186.3603,55.7163 L186.3603,85.2323 Z M203.2893,86.2323 L185.8603,86.2323 C185.5843,86.2323 185.3603,86.0083 185.3603,85.7323 L185.3603,55.2163 C185.3603,54.9393 185.5843,54.7163 185.8603,54.7163 L189.6913,54.7163 C189.9683,54.7163 190.1913,54.9393 190.1913,55.2163 L190.1913,65.0903 L199.4623,60.1063 C199.6153,60.0223 199.8033,60.0263 199.9553,60.1183 C200.1053,60.2083 200.1983,60.3713 200.1983,60.5473 L200.1983,64.9973 C200.1983,65.1813 200.0963,65.3513 199.9333,65.4383 L190.1913,70.6273 L190.1913,81.3203 L203.2893,81.3203 C203.5653,81.3203 203.7893,81.5443 203.7893,81.8203 L203.7893,85.7323 C203.7893,86.0083 203.5653,86.2323 203.2893,86.2323 L203.2893,86.2323 Z M169.6003,85.8193 L172.8713,85.8193 L180.2683,71.9043 L184.0623,57.4763 L175.4223,57.4763 C175.2603,57.4763 175.1093,57.3983 175.0153,57.2673 C174.9223,57.1363 174.8963,56.9683 174.9483,56.8163 L176.2893,52.8553 C176.3573,52.6523 176.5483,52.5153 176.7623,52.5153 L201.8803,52.5153 L201.8803,49.6523 L167.2553,49.6523 L167.2553,52.5153 L172.7403,52.5153 C172.9003,52.5153 173.0513,52.5923 173.1453,52.7223 C173.2393,52.8523 173.2653,53.0193 173.2153,53.1723 L166.8723,72.4193 L169.8883,72.4193 L171.0683,68.8023 C171.1103,68.6753 171.2033,68.5683 171.3243,68.5083 C171.4463,68.4503 171.5853,68.4413 171.7133,68.4873 L177.1713,70.4433 C177.3073,70.4923 177.4163,70.5983 177.4683,70.7343 C177.5203,70.8703 177.5113,71.0213 177.4433,71.1493 L169.6003,85.8193 Z M173.1723,86.8193 L168.7663,86.8193 C168.5913,86.8193 168.4273,86.7273 168.3383,86.5763 C168.2473,86.4253 168.2433,86.2383 168.3253,86.0843 L176.2883,71.1893 L171.8593,69.6023 L170.7263,73.0743 C170.6593,73.2793 170.4683,73.4193 170.2513,73.4193 L166.1803,73.4193 C166.0203,73.4193 165.8693,73.3413 165.7753,73.2123 C165.6813,73.0823 165.6553,72.9153 165.7063,72.7623 L172.0493,53.5153 L166.7553,53.5153 C166.4783,53.5153 166.2553,53.2923 166.2553,53.0153 L166.2553,49.1523 C166.2553,48.8763 166.4783,48.6523 166.7553,48.6523 L202.3803,48.6523 C202.6563,48.6523 202.8803,48.8763 202.8803,49.1523 L202.8803,53.0153 C202.8803,53.2923 202.6563,53.5153 202.3803,53.5153 L177.1213,53.5153 L176.1193,56.4763 L184.7113,56.4763 C184.8663,56.4763 185.0123,56.5493 185.1063,56.6713 C185.2013,56.7943 185.2343,56.9543 185.1943,57.1033 L181.2203,72.2153 C181.2113,72.2523 181.1973,72.2883 181.1783,72.3223 L173.6133,86.5533 C173.5263,86.7173 173.3563,86.8193 173.1723,86.8193 L173.1723,86.8193 Z" id="Fill-104" fill="#FFFFFF"></path>
                    <polygon id="Fill-106" fill="#FFFFFF" points="240.1572 49.25 229.4792 64.605 229.4792 85.537 221.4352 85.537 221.4352 81.38 225.4582 81.38 225.4582 56.634 229.4792 56.634 229.4792 57.466 232.3522 53.357 214.5892 53.357 214.5892 49.25"></polygon>
                    <path d="M221.9355,85.0371 L228.9795,85.0371 L228.9795,64.6051 C228.9795,64.5031 229.0105,64.4031 229.0695,64.3201 L239.2005,49.7501 L215.0885,49.7501 L215.0885,52.8571 L232.3525,52.8571 C232.5395,52.8571 232.7095,52.9611 232.7955,53.1261 C232.8815,53.2921 232.8695,53.4911 232.7625,53.6431 L229.8895,57.7521 C229.7635,57.9321 229.5395,58.0101 229.3295,57.9421 C229.1215,57.8771 228.9795,57.6841 228.9795,57.4661 L228.9795,57.1341 L225.9575,57.1341 L225.9575,81.3801 C225.9575,81.6561 225.7345,81.8801 225.4575,81.8801 L221.9355,81.8801 L221.9355,85.0371 Z M229.4795,86.0371 L221.4355,86.0371 C221.1595,86.0371 220.9355,85.8131 220.9355,85.5371 L220.9355,81.3801 C220.9355,81.1031 221.1595,80.8801 221.4355,80.8801 L224.9575,80.8801 L224.9575,56.6341 C224.9575,56.3571 225.1815,56.1341 225.4575,56.1341 L229.4795,56.1341 C229.5785,56.1341 229.6695,56.1621 229.7475,56.2111 L231.3925,53.8571 L214.5885,53.8571 C214.3125,53.8571 214.0885,53.6341 214.0885,53.3571 L214.0885,49.2501 C214.0885,48.9741 214.3125,48.7501 214.5885,48.7501 L240.1575,48.7501 C240.3435,48.7501 240.5135,48.8531 240.6005,49.0181 C240.6865,49.1831 240.6735,49.3831 240.5675,49.5351 L229.9795,64.7631 L229.9795,85.5371 C229.9795,85.8131 229.7555,86.0371 229.4795,86.0371 L229.4795,86.0371 Z" id="Fill-108" fill="#FFFFFF"></path>
                    <path d="M253.581,86.368 L249.367,86.368 L249.367,79.717 L253.581,79.717 L253.581,86.368 Z M253.581,76.196 L249.367,76.196 L249.367,47.44 L253.581,47.44 L253.581,76.196 Z" id="Fill-110" fill="#FFFFFF" transform="translate(251.474000, 66.904000) rotate(-340.000000) translate(-251.474000, -66.904000) "></path>
                    <path d="M265.218012,86.4748136 L261.004012,86.4748136 L261.004012,79.8238136 L265.218012,79.8238136 L265.218012,86.4748136 Z M265.218012,76.3028136 L261.004012,76.3028136 L261.004012,47.5468136 L265.218012,47.5468136 L265.218012,76.3028136 Z" id="Fill-110-Copy" fill="#FFFFFF" transform="translate(263.111012, 67.010814) rotate(-340.000000) translate(-263.111012, -67.010814) "></path>
                    <path d="M51.7217,20.875 C51.7217,31.203 43.3497,39.575 33.0227,39.575 C22.6957,39.575 14.3237,31.203 14.3237,20.875 C14.3237,10.548 22.6957,2.176 33.0227,2.176 C43.3497,2.176 51.7217,10.548 51.7217,20.875" id="Fill-113" fill="#FFFFFF"></path>
                    <path d="M33.0225,3.6758 C23.5385,3.6758 15.8225,11.3918 15.8225,20.8758 C15.8225,30.3598 23.5385,38.0748 33.0225,38.0748 C42.5055,38.0748 50.2215,30.3598 50.2215,20.8758 C50.2215,11.3918 42.5055,3.6758 33.0225,3.6758 M33.0225,41.0748 C21.8835,41.0748 12.8225,32.0138 12.8225,20.8758 C12.8225,9.7378 21.8835,0.6758 33.0225,0.6758 C44.1605,0.6758 53.2215,9.7378 53.2215,20.8758 C53.2215,32.0138 44.1605,41.0748 33.0225,41.0748" id="Fill-114" fill="#FF4A46"></path>
                    <path d="M88.9404,18.2676 C90.3804,28.4946 83.2584,37.9526 73.0324,39.3926 C62.8054,40.8326 53.3474,33.7096 51.9074,23.4836 C50.4664,13.2566 57.5884,3.7986 67.8154,2.3586 C78.0424,0.9176 87.5004,8.0406 88.9404,18.2676" id="Fill-115" fill="#FFFFFF"></path>
                    <path d="M70.459,3.6729 C69.651,3.6729 68.839,3.7299 68.024,3.8439 C58.634,5.1659 52.069,13.8829 53.393,23.2749 C54.033,27.8229 56.407,31.8509 60.077,34.6149 C63.747,37.3779 68.272,38.5459 72.823,37.9069 C77.372,37.2669 81.399,34.8929 84.163,31.2229 C86.927,27.5529 88.096,23.0269 87.455,18.4769 C86.814,13.9279 84.44,9.9009 80.771,7.1359 C77.757,4.8669 74.166,3.6729 70.459,3.6729 M70.382,41.0789 C66.028,41.0789 61.812,39.6769 58.272,37.0119 C53.963,33.7659 51.175,29.0349 50.422,23.6929 C49.669,18.3499 51.042,13.0339 54.288,8.7239 C57.533,4.4139 62.264,1.6259 67.606,0.8729 C72.946,0.1159 78.266,1.4929 82.575,4.7389 C86.885,7.9849 89.673,12.7159 90.426,18.0589 C91.179,23.4019 89.806,28.7169 86.56,33.0269 C83.314,37.3369 78.584,40.1249 73.241,40.8779 C72.286,41.0129 71.33,41.0789 70.382,41.0789" id="Fill-116" fill="#FF4A46"></path>
                    <path d="M43.6387,12.6484 L41.3297,12.6484 L40.4177,10.5104 L42.8127,10.5104 L43.6387,12.6484 Z M42.7267,28.0404 L44.2377,31.5174 L41.7577,31.5174 L40.2187,28.0404 L42.7267,28.0404 Z M34.8877,28.0404 L37.2537,28.0404 L38.1947,31.5174 L35.8857,31.5174 L34.8877,28.0404 Z M35.2017,25.2474 L32.9507,25.2474 L36.6267,16.1824 L33.4627,16.1824 L33.4627,14.1014 L37.2537,14.1014 L37.2537,10.1974 L39.3347,10.1974 L39.3347,14.1014 L43.1257,14.1014 L43.1257,16.1824 L39.9617,16.1824 L43.8957,25.2474 L41.7007,25.2474 L38.3367,17.5794 L35.2017,25.2474 Z M29.6157,28.0404 L31.9237,28.0404 L32.3797,31.5174 L30.0717,31.5174 L29.6157,28.0404 Z M30.8977,12.5904 L28.0477,12.5904 L27.7627,13.1324 L30.1857,14.4154 L30.8977,12.5904 Z M26.7367,14.9574 L25.9667,16.0684 L28.7877,17.7214 L29.3587,16.3814 L26.7367,14.9574 Z M23.0877,31.5174 L24.4847,28.0404 L26.9637,28.0404 L25.5387,31.5174 L23.0877,31.5174 Z M23.1727,24.6484 L27.6767,19.5174 L24.9407,17.9204 L24.7127,18.2064 L22.3467,18.2064 L26.9077,10.5104 L34.0617,10.5104 L30.2987,19.5174 L25.9387,24.6484 L23.1727,24.6484 Z" id="Fill-117" fill="#534741"></path>
                    <path d="M43.6387,12.6484 L41.3297,12.6484 L40.4177,10.5104 L42.8127,10.5104 L43.6387,12.6484 L43.6387,12.6484 Z M42.7267,28.0404 L44.2377,31.5174 L41.7577,31.5174 L40.2187,28.0404 L42.7267,28.0404 L42.7267,28.0404 Z M34.8877,28.0404 L37.2537,28.0404 L38.1947,31.5174 L35.8857,31.5174 L34.8877,28.0404 L34.8877,28.0404 Z M35.2017,25.2474 L32.9507,25.2474 L36.6267,16.1824 L33.4627,16.1824 L33.4627,14.1014 L37.2537,14.1014 L37.2537,10.1974 L39.3347,10.1974 L39.3347,14.1014 L43.1257,14.1014 L43.1257,16.1824 L39.9617,16.1824 L43.8957,25.2474 L41.7007,25.2474 L38.3367,17.5794 L35.2017,25.2474 L35.2017,25.2474 Z M29.6157,28.0404 L31.9237,28.0404 L32.3797,31.5174 L30.0717,31.5174 L29.6157,28.0404 L29.6157,28.0404 Z M30.8977,12.5904 L28.0477,12.5904 L27.7627,13.1324 L30.1857,14.4154 L30.8977,12.5904 L30.8977,12.5904 Z M26.7367,14.9574 L25.9667,16.0684 L28.7877,17.7214 L29.3587,16.3814 L26.7367,14.9574 L26.7367,14.9574 Z M23.0877,31.5174 L24.4847,28.0404 L26.9637,28.0404 L25.5387,31.5174 L23.0877,31.5174 L23.0877,31.5174 Z M23.1727,24.6484 L27.6767,19.5174 L24.9407,17.9204 L24.7127,18.2064 L22.3467,18.2064 L26.9077,10.5104 L34.0617,10.5104 L30.2987,19.5174 L25.9387,24.6484 L23.1727,24.6484 L23.1727,24.6484 Z" id="Stroke-118" stroke="#534741" stroke-width="0.5" stroke-linecap="round" stroke-linejoin="round"></path>
                    <path d="M74.6387,26.3301 L76.4067,23.6501 L72.2437,23.6501 L74.6387,26.3301 Z M68.7677,20.0881 L71.4177,16.4681 L68.3967,14.0451 L71.7027,9.2571 L74.2407,9.2571 L71.2187,13.5891 L72.6437,14.7291 L74.5247,12.2771 L76.9767,12.2771 L72.8147,17.9781 L78.1447,17.8081 L77.3187,15.5841 L79.7127,15.5841 L81.6507,20.5721 L79.2567,20.5721 L78.9427,19.7451 L68.7677,20.0881 Z M82.0777,31.7171 L78.2587,31.7171 L74.5817,29.2091 L71.4177,31.7171 L68.1977,31.7171 L73.0427,27.7831 L70.9057,25.2471 L70.3067,26.0451 L67.6267,26.0451 L71.2187,21.7121 L80.1117,21.7121 L76.1497,27.6411 L82.0777,31.7171 Z M64.0347,15.6981 L66.5157,15.6981 L64.8057,18.5191 L64.8057,32.0021 L62.6387,32.0021 L62.6387,22.0261 L61.8127,23.0801 L59.3327,23.0801 L64.0347,15.6981 Z M65.7177,9.7981 L61.6987,16.2111 L59.2187,16.2111 L63.2087,9.7981 L65.7177,9.7981 Z" id="Fill-119" fill="#534741"></path>
                    <path d="M74.6387,26.3301 L76.4067,23.6501 L72.2437,23.6501 L74.6387,26.3301 L74.6387,26.3301 Z M68.7677,20.0881 L71.4177,16.4681 L68.3967,14.0451 L71.7027,9.2571 L74.2407,9.2571 L71.2187,13.5891 L72.6437,14.7291 L74.5247,12.2771 L76.9767,12.2771 L72.8147,17.9781 L78.1447,17.8081 L77.3187,15.5841 L79.7127,15.5841 L81.6507,20.5721 L79.2567,20.5721 L78.9427,19.7451 L68.7677,20.0881 L68.7677,20.0881 Z M82.0777,31.7171 L78.2587,31.7171 L74.5817,29.2091 L71.4177,31.7171 L68.1977,31.7171 L73.0427,27.7831 L70.9057,25.2471 L70.3067,26.0451 L67.6267,26.0451 L71.2187,21.7121 L80.1117,21.7121 L76.1497,27.6411 L82.0777,31.7171 L82.0777,31.7171 Z M64.0347,15.6981 L66.5157,15.6981 L64.8057,18.5191 L64.8057,32.0021 L62.6387,32.0021 L62.6387,22.0261 L61.8127,23.0801 L59.3327,23.0801 L64.0347,15.6981 L64.0347,15.6981 Z M65.7177,9.7981 L61.6987,16.2111 L59.2187,16.2111 L63.2087,9.7981 L65.7177,9.7981 L65.7177,9.7981 Z" id="Stroke-120" stroke="#534741" stroke-width="0.5" stroke-linecap="round" stroke-linejoin="round"></path>
                    <path d="M111.001,27.499 C111.881,33.747 107.529,39.526 101.28,40.406 C95.031,41.287 89.253,36.935 88.372,30.686 C87.492,24.437 91.845,18.658 98.093,17.778 C104.342,16.898 110.121,21.25 111.001,27.499" id="Fill-121" fill="#FFFFFF"></path>
                    <path d="M99.707,19.165 C99.241,19.165 98.771,19.197 98.302,19.264 C92.883,20.027 89.095,25.058 89.857,30.478 C90.622,35.896 95.643,39.678 101.071,38.922 C106.49,38.158 110.278,33.128 109.516,27.708 C109.145,25.083 107.776,22.759 105.658,21.164 C103.919,19.854 101.847,19.165 99.707,19.165 M99.679,42.019 C93.344,42.019 87.796,37.345 86.887,30.895 C85.893,23.838 90.826,17.287 97.884,16.293 C101.304,15.811 104.706,16.69 107.463,18.767 C110.221,20.844 112.005,23.871 112.486,27.29 C113.48,34.347 108.547,40.897 101.489,41.893 C100.882,41.978 100.276,42.019 99.679,42.019" id="Fill-122" fill="#FF4A46"></path>
                    <polygon id="Fill-123" fill="#534741" points="100.085 30.8301 98.574 32.7401 95.667 32.7401 97.918 30.1171 97.918 29.1481 96.236 29.1481 96.236 26.3261 100.085 26.3261"></polygon>
                    <polygon id="Stroke-124" stroke="#534741" stroke-width="0.5" stroke-linecap="round" stroke-linejoin="round" points="100.085 30.8301 98.574 32.7401 95.667 32.7401 97.918 30.1171 97.918 29.1481 96.236 29.1481 96.236 26.3261 100.085 26.3261"></polygon>
                </g>
            </g>
        </g>
    </g>
</svg>