<?xml version="1.0" encoding="utf-8"?>
<!-- Generator: Adobe Illustrator 21.0.2, SVG Export Plug-In . SVG Version: 6.00 Build 0)  -->
<svg version="1.1" id="圖層_1" xmlns="http://www.w3.org/2000/svg" xmlns:xlink="http://www.w3.org/1999/xlink" x="0px" y="0px"
	 viewBox="0 0 295 140" style="enable-background:new 0 0 295 140;" xml:space="preserve">
<style type="text/css">
	.st0{fill:#E6B93B;}
	.st1{fill:#FFFFFF;}
	.st2{fill:#FF4A46;}
	.st3{fill:#534741;}
	.st4{fill:#FBD23B;}
</style>
<g>
	<g>
		<g>
			<g>
				<path class="st0" d="M218,140H47.8C21.5,140,0,118.5,0,92.3l0,0c0-26.2,21.5-47.7,47.8-47.7H218c26.3,0,47.8,21.5,47.8,47.7l0,0
					C265.8,118.5,244.3,140,218,140z"/>
			</g>
		</g>
	</g>
	<g>
		<path class="st1" d="M27.8,49L4.4,72.3c-0.7,1.5-1.3,3.1-1.9,4.7l29.9-29.9C30.9,47.7,29.3,48.3,27.8,49z"/>
	</g>
	<g>
		<path class="st1" d="M45.1,44.7c-0.5,0-1,0.1-1.5,0.1L0.2,88.1c-0.1,1-0.1,2-0.2,3l45.8-45.7L45.1,44.7z"/>
	</g>
	<g>
		<path class="st1" d="M56.6,44.6h-1.2L0.5,99.3c0.1,0.8,0.3,1.6,0.4,2.4l56.4-56.3L56.6,44.6z"/>
	</g>
	<g>
		<path class="st1" d="M68.1,44.6h-1.2l-64,63.9c0.2,0.7,0.5,1.4,0.8,2l65.3-65.1L68.1,44.6z"/>
	</g>
	<g>
		<path class="st1" d="M79.7,44.6h-1.2L6.6,116.3c0.3,0.6,0.7,1.2,1.1,1.7l72.9-72.7L79.7,44.6z"/>
	</g>
	<g>
		<path class="st1" d="M91.3,44.6H90l-78.7,78.5c0.4,0.5,0.9,1,1.3,1.5L92,45.4L91.3,44.6z"/>
	</g>
	<g>
		<path class="st1" d="M102.8,44.6h-1.2l-84.4,84.2c0.5,0.4,1,0.8,1.6,1.3l84.9-84.7L102.8,44.6z"/>
	</g>
	<g>
		<path class="st1" d="M114.4,44.6h-1.2l-89.2,89c0.6,0.3,1.2,0.7,1.8,1l89.4-89.2L114.4,44.6z"/>
	</g>
	<g>
		<path class="st1" d="M125.9,44.6h-1.2l-92.9,92.6c0.7,0.2,1.4,0.5,2.1,0.7l92.8-92.5L125.9,44.6z"/>
	</g>
	<g>
		<path class="st1" d="M137.5,44.6h-1.2l-94.9,94.6l0.4,0.4c0.6,0.1,1.2,0.1,1.8,0.2l94.7-94.4L137.5,44.6z"/>
	</g>
	<g>
		<polygon class="st1" points="149.1,44.6 147.8,44.6 53,139.2 53.8,140 55,140 149.8,45.4 		"/>
	</g>
	<g>
		<polygon class="st1" points="160.6,44.6 159.4,44.6 64.5,139.2 65.3,140 66.6,140 161.4,45.4 		"/>
	</g>
	<g>
		<polygon class="st1" points="172.2,44.6 170.9,44.6 76.1,139.2 76.9,140 78.1,140 173,45.4 		"/>
	</g>
	<g>
		<polygon class="st1" points="183.7,44.6 182.5,44.6 87.6,139.2 88.4,140 89.7,140 184.5,45.4 		"/>
	</g>
	<g>
		<polygon class="st1" points="195.3,44.6 194.1,44.6 99.2,139.2 100,140 101.2,140 196.1,45.4 		"/>
	</g>
	<g>
		<polygon class="st1" points="206.9,44.6 205.6,44.6 110.8,139.2 111.6,140 112.8,140 207.6,45.4 		"/>
	</g>
	<g>
		<path class="st1" d="M218.4,44.6c-0.2,0-0.3,0-0.5,0h-0.8l-94.9,94.6l0.8,0.8h1.2l94.9-94.6L218.4,44.6z"/>
	</g>
	<g>
		<path class="st1" d="M227.7,45.6l-93.8,93.6l0.8,0.8h1.2L230,46.1C229.3,46,228.5,45.8,227.7,45.6z"/>
	</g>
	<g>
		<path class="st1" d="M236.5,48.4l-91.1,90.8l0.8,0.8h1.2l91-90.8C237.8,48.9,237.2,48.6,236.5,48.4z"/>
	</g>
	<g>
		<path class="st1" d="M244,52.4l-87,86.8l0.8,0.8h1.2l86.7-86.5C245.2,53.1,244.6,52.8,244,52.4z"/>
	</g>
	<g>
		<path class="st1" d="M250.5,57.5l-82,81.7l0.8,0.8h1.2L252,58.8C251.5,58.4,251,57.9,250.5,57.5z"/>
	</g>
	<g>
		<path class="st1" d="M256,63.5l-75.9,75.7l0.8,0.8h1.2l75-74.9C256.8,64.6,256.4,64,256,63.5z"/>
	</g>
	<g>
		<path class="st1" d="M260.5,70.6l-68.8,68.6l0.8,0.8h1.2l67.7-67.5C261.1,71.8,260.8,71.2,260.5,70.6z"/>
	</g>
	<g>
		<path class="st1" d="M263.8,78.8l-60.6,60.4l0.8,0.8h1.2l59.1-59C264.2,80.3,264,79.5,263.8,78.8z"/>
	</g>
	<g>
		<path class="st1" d="M265.6,88.5l-50.8,50.7l0.8,0.8h1.2l48.9-48.8C265.7,90.3,265.7,89.4,265.6,88.5z"/>
	</g>
	<g>
		<path class="st1" d="M226.4,139.2c1.2-0.2,2.4-0.5,3.5-0.8l34.3-34.2c0.3-1.2,0.6-2.4,0.8-3.6L226.4,139.2L226.4,139.2z"/>
	</g>
</g>
<g>
	<g>
		<path class="st2" d="M245,128.2H55.7c-26.1,0-47.5-21.3-47.5-47.4v0c0-26.1,21.4-47.4,47.5-47.4H245c26.1,0,47.5,21.3,47.5,47.4v0
			C292.5,106.9,271.1,128.2,245,128.2z"/>
		<path class="st3" d="M245,130.7H55.7c-27.6,0-50-22.4-50-49.9c0-27.5,22.4-49.9,50-49.9H245c27.6,0,50,22.4,50,49.9
			C295,108.3,272.6,130.7,245,130.7z M55.7,36c-24.8,0-45,20.1-45,44.9s20.2,44.9,45,44.9H245c24.8,0,45-20.1,45-44.9
			c0-24.7-20.2-44.9-45-44.9H55.7z"/>
	</g>
</g>
<g>
	<g>
		<g>
			<g>
				<ellipse class="st4" cx="70.2" cy="43.1" rx="3.3" ry="3.3"/>
			</g>
			<g>
				<path class="st3" d="M70.2,47.3c-2.3,0-4.2-1.9-4.2-4.2c0-2.3,1.9-4.2,4.2-4.2c2.3,0,4.2,1.9,4.2,4.2
					C74.5,45.5,72.6,47.3,70.2,47.3z M70.2,40.8c-1.3,0-2.4,1.1-2.4,2.4c0,1.3,1.1,2.4,2.4,2.4c1.3,0,2.4-1.1,2.4-2.4
					C72.6,41.8,71.5,40.8,70.2,40.8z"/>
			</g>
		</g>
	</g>
	<g>
		<g>
			<g>
				<ellipse class="st4" cx="230.4" cy="43.1" rx="3.3" ry="3.3"/>
			</g>
			<g>
				<path class="st3" d="M230.4,47.3c-2.3,0-4.2-1.9-4.2-4.2c0-2.3,1.9-4.2,4.2-4.2c2.3,0,4.2,1.9,4.2,4.2
					C234.7,45.5,232.8,47.3,230.4,47.3z M230.4,40.8c-1.3,0-2.4,1.1-2.4,2.4c0,1.3,1.1,2.4,2.4,2.4c1.3,0,2.4-1.1,2.4-2.4
					C232.8,41.8,231.7,40.8,230.4,40.8z"/>
			</g>
		</g>
	</g>
</g>
<g>
	<g>
		<g>
			<g>
				<path class="st3" d="M227.8,4.9c0.1-0.3,0.4-0.6,0.7-0.7c0.3-0.1,0.6-0.2,0.9-0.2c0.9-0.1,1.8,0,2.5-0.6
					c0.4-0.4,0.7-0.9,0.8-1.5c0.1-0.6,0-1.2,0-1.8c-0.6,0.5-1.3,0.7-2.1,0.7c-0.3,0-0.7-0.1-1-0.1c-0.9,0.1-1.6,0.8-1.9,1.6
					C227.4,3.2,227.5,4.1,227.8,4.9"/>
			</g>
		</g>
		<g>
			<g>
				<g>
					<path class="st3" d="M228,5c0.6-1.4,3-0.5,4.1-1.4c1-0.8,0.9-2.2,0.8-3.4c0-0.1-0.1-0.2-0.3-0.2c-0.5,0.4-1,0.6-1.7,0.6
						c-0.4,0-0.9-0.1-1.3-0.1c-0.5,0.1-1,0.3-1.4,0.7c-1,1-0.9,2.5-0.6,3.7c0.1,0.2,0.4,0.1,0.3-0.1c-0.5-1.6-0.2-3.9,1.9-3.9
						c1.1,0,1.9,0,2.8-0.6c-0.1-0.1-0.2-0.1-0.3-0.2c0.1,0.8,0.2,1.7-0.2,2.5c-0.5,1-1.5,1.1-2.5,1.1c-0.8,0.1-1.8,0.2-2.2,1
						C227.6,5.1,227.9,5.2,228,5z"/>
				</g>
			</g>
		</g>
	</g>
	<g>
		<g>
			<g>
				<path class="st3" d="M227.8,10.1c0.1-0.3,0.4-0.6,0.7-0.7c0.3-0.1,0.6-0.2,0.9-0.2c0.9-0.1,1.8,0,2.5-0.6
					c0.4-0.4,0.7-0.9,0.8-1.5c0.1-0.6,0-1.2,0-1.8c-0.6,0.5-1.3,0.7-2.1,0.7c-0.3,0-0.7-0.1-1-0.1c-0.9,0.1-1.6,0.8-1.9,1.6
					C227.4,8.3,227.5,9.2,227.8,10.1"/>
			</g>
		</g>
		<g>
			<g>
				<g>
					<path class="st3" d="M228,10.1c0.6-1.4,3-0.5,4.1-1.4c1-0.8,0.9-2.2,0.8-3.4c0-0.1-0.1-0.2-0.3-0.2c-0.5,0.4-1,0.6-1.7,0.6
						c-0.4,0-0.9-0.1-1.3-0.1c-0.5,0.1-1,0.3-1.4,0.7c-1,1-0.9,2.5-0.6,3.7c0.1,0.2,0.4,0.1,0.3-0.1c-0.5-1.6-0.2-3.9,1.9-3.9
						c1.1,0,1.9,0,2.8-0.6c-0.1-0.1-0.2-0.1-0.3-0.2c0.1,0.8,0.2,1.7-0.2,2.5c-0.5,1-1.5,1.1-2.5,1.2c-0.8,0.1-1.8,0.2-2.2,1
						C227.6,10.2,227.9,10.4,228,10.1z"/>
				</g>
			</g>
		</g>
	</g>
	<g>
		<g>
			<g>
				<path class="st3" d="M227.8,15.2c0.1-0.3,0.4-0.6,0.7-0.7c0.3-0.1,0.6-0.2,0.9-0.2c0.9-0.1,1.8,0,2.5-0.6
					c0.4-0.4,0.7-0.9,0.8-1.5c0.1-0.6,0-1.2,0-1.8c-0.6,0.5-1.3,0.7-2.1,0.7c-0.3,0-0.7-0.1-1-0.1c-0.9,0.1-1.6,0.8-1.9,1.6
					C227.4,13.4,227.5,14.4,227.8,15.2"/>
			</g>
		</g>
		<g>
			<g>
				<g>
					<path class="st3" d="M228,15.3c0.6-1.4,3-0.5,4.1-1.4c1-0.8,0.9-2.2,0.8-3.4c0-0.1-0.1-0.2-0.3-0.2c-0.5,0.4-1,0.6-1.7,0.6
						c-0.4,0-0.9-0.1-1.3-0.1c-0.5,0.1-1,0.3-1.4,0.7c-1,1-0.9,2.5-0.6,3.7c0.1,0.2,0.4,0.1,0.3-0.1c-0.5-1.6-0.2-3.9,1.9-3.9
						c1.1,0,1.9,0,2.8-0.6c-0.1-0.1-0.2-0.1-0.3-0.2c0.1,0.8,0.2,1.7-0.2,2.5c-0.5,1-1.5,1.1-2.5,1.1c-0.8,0.1-1.8,0.2-2.2,1
						C227.6,15.3,227.9,15.5,228,15.3z"/>
				</g>
			</g>
		</g>
	</g>
	<g>
		<g>
			<g>
				<path class="st3" d="M227.8,20.3c0.1-0.3,0.4-0.6,0.7-0.7c0.3-0.1,0.6-0.2,0.9-0.2c0.9-0.1,1.8,0,2.5-0.6
					c0.4-0.4,0.7-0.9,0.8-1.5c0.1-0.6,0-1.2,0-1.7c-0.6,0.5-1.3,0.7-2.1,0.7c-0.3,0-0.7-0.1-1-0.1c-0.9,0.1-1.6,0.8-1.9,1.6
					C227.4,18.6,227.5,19.5,227.8,20.3"/>
			</g>
		</g>
		<g>
			<g>
				<g>
					<path class="st3" d="M228,20.4c0.6-1.4,3-0.5,4.1-1.4c1-0.8,0.9-2.2,0.8-3.4c0-0.1-0.1-0.2-0.3-0.2c-0.5,0.4-1,0.6-1.7,0.6
						c-0.4,0-0.9-0.1-1.3-0.1c-0.5,0.1-1,0.3-1.4,0.7c-1,1-0.9,2.5-0.6,3.7c0.1,0.2,0.4,0.1,0.3-0.1c-0.5-1.6-0.2-3.9,1.9-3.9
						c1.1,0,1.9,0,2.8-0.6c-0.1-0.1-0.2-0.1-0.3-0.2c0.1,0.8,0.2,1.7-0.2,2.5c-0.5,1-1.5,1.1-2.5,1.2c-0.8,0.1-1.8,0.2-2.2,1
						C227.6,20.4,227.9,20.6,228,20.4z"/>
				</g>
			</g>
		</g>
	</g>
	<g>
		<g>
			<g>
				<path class="st3" d="M227.8,25.4c0.1-0.3,0.4-0.6,0.7-0.7c0.3-0.1,0.6-0.2,0.9-0.2c0.9-0.1,1.8,0,2.5-0.6
					c0.4-0.4,0.7-0.9,0.8-1.5c0.1-0.6,0-1.2,0-1.8c-0.6,0.5-1.3,0.7-2.1,0.7c-0.3,0-0.7-0.1-1-0.1c-0.9,0.1-1.6,0.8-1.9,1.6
					C227.4,23.7,227.5,24.6,227.8,25.4"/>
			</g>
		</g>
		<g>
			<g>
				<g>
					<path class="st3" d="M228,25.5c0.6-1.4,3-0.5,4.1-1.4c1-0.8,0.9-2.2,0.8-3.4c0-0.1-0.1-0.2-0.3-0.2c-0.5,0.4-1,0.6-1.7,0.6
						c-0.4,0-0.9-0.1-1.3-0.1c-0.5,0.1-1,0.3-1.4,0.7c-1,1-0.9,2.5-0.6,3.7c0.1,0.2,0.4,0.1,0.3-0.1c-0.5-1.6-0.2-3.9,1.9-3.9
						c1.1,0,1.9,0,2.8-0.6c-0.1-0.1-0.2-0.1-0.3-0.2c0.1,0.8,0.2,1.7-0.2,2.5c-0.5,1-1.5,1.1-2.5,1.1c-0.8,0.1-1.8,0.2-2.2,1
						C227.6,25.5,227.9,25.7,228,25.5z"/>
				</g>
			</g>
		</g>
	</g>
</g>
<g>
	<g>
		<g>
			<g>
				<path class="st3" d="M67.9,4.9c0.1-0.3,0.4-0.6,0.7-0.7c0.3-0.1,0.6-0.2,0.9-0.2C70.3,4,71.3,4,72,3.5c0.4-0.4,0.7-0.9,0.8-1.5
					c0.1-0.6,0-1.2,0-1.8c-0.6,0.5-1.3,0.7-2.1,0.7c-0.3,0-0.7-0.1-1-0.1c-0.9,0.1-1.6,0.8-1.9,1.6C67.5,3.2,67.6,4.1,67.9,4.9"/>
			</g>
		</g>
		<g>
			<g>
				<g>
					<path class="st3" d="M68,5c0.6-1.4,3-0.5,4.1-1.4c1-0.8,0.9-2.2,0.8-3.4c0-0.1-0.1-0.2-0.3-0.2c-0.5,0.4-1,0.6-1.7,0.6
						c-0.4,0-0.9-0.1-1.3-0.1c-0.5,0.1-1,0.3-1.4,0.7c-1,1-0.9,2.5-0.6,3.7c0.1,0.2,0.4,0.1,0.3-0.1C67.6,3.3,67.9,1,70,1
						c1.1,0,1.9,0,2.8-0.6c-0.1-0.1-0.2-0.1-0.3-0.2c0.1,0.8,0.2,1.7-0.2,2.5c-0.5,1-1.5,1.1-2.5,1.1c-0.8,0.1-1.8,0.2-2.2,1
						C67.6,5.1,67.9,5.2,68,5z"/>
				</g>
			</g>
		</g>
	</g>
	<g>
		<g>
			<g>
				<path class="st3" d="M67.9,10.1c0.1-0.3,0.4-0.6,0.7-0.7c0.3-0.1,0.6-0.2,0.9-0.2c0.9-0.1,1.8,0,2.5-0.6
					c0.4-0.4,0.7-0.9,0.8-1.5c0.1-0.6,0-1.2,0-1.8C72.2,5.8,71.4,6,70.7,6c-0.3,0-0.7-0.1-1-0.1c-0.9,0.1-1.6,0.8-1.9,1.6
					C67.5,8.3,67.6,9.2,67.9,10.1"/>
			</g>
		</g>
		<g>
			<g>
				<g>
					<path class="st3" d="M68,10.1c0.6-1.4,3-0.5,4.1-1.4c1-0.8,0.9-2.2,0.8-3.4c0-0.1-0.1-0.2-0.3-0.2c-0.5,0.4-1,0.6-1.7,0.6
						c-0.4,0-0.9-0.1-1.3-0.1c-0.5,0.1-1,0.3-1.4,0.7c-1,1-0.9,2.5-0.6,3.7c0.1,0.2,0.4,0.1,0.3-0.1c-0.5-1.6-0.2-3.9,1.9-3.9
						c1.1,0,1.9,0,2.8-0.6c-0.1-0.1-0.2-0.1-0.3-0.2c0.1,0.8,0.2,1.7-0.2,2.5c-0.5,1-1.5,1.1-2.5,1.2c-0.8,0.1-1.8,0.2-2.2,1
						C67.6,10.2,67.9,10.4,68,10.1z"/>
				</g>
			</g>
		</g>
	</g>
	<g>
		<g>
			<g>
				<path class="st3" d="M67.9,15.2c0.1-0.3,0.4-0.6,0.7-0.7c0.3-0.1,0.6-0.2,0.9-0.2c0.9-0.1,1.8,0,2.5-0.6
					c0.4-0.4,0.7-0.9,0.8-1.5c0.1-0.6,0-1.2,0-1.8c-0.6,0.5-1.3,0.7-2.1,0.7c-0.3,0-0.7-0.1-1-0.1c-0.9,0.1-1.6,0.8-1.9,1.6
					C67.5,13.4,67.6,14.4,67.9,15.2"/>
			</g>
		</g>
		<g>
			<g>
				<g>
					<path class="st3" d="M68,15.3c0.6-1.4,3-0.5,4.1-1.4c1-0.8,0.9-2.2,0.8-3.4c0-0.1-0.1-0.2-0.3-0.2c-0.5,0.4-1,0.6-1.7,0.6
						c-0.4,0-0.9-0.1-1.3-0.1c-0.5,0.1-1,0.3-1.4,0.7c-1,1-0.9,2.5-0.6,3.7c0.1,0.2,0.4,0.1,0.3-0.1c-0.5-1.6-0.2-3.9,1.9-3.9
						c1.1,0,1.9,0,2.8-0.6c-0.1-0.1-0.2-0.1-0.3-0.2c0.1,0.8,0.2,1.7-0.2,2.5c-0.5,1-1.5,1.1-2.5,1.1c-0.8,0.1-1.8,0.2-2.2,1
						C67.6,15.3,67.9,15.5,68,15.3z"/>
				</g>
			</g>
		</g>
	</g>
	<g>
		<g>
			<g>
				<path class="st3" d="M67.9,20.3c0.1-0.3,0.4-0.6,0.7-0.7c0.3-0.1,0.6-0.2,0.9-0.2c0.9-0.1,1.8,0,2.5-0.6
					c0.4-0.4,0.7-0.9,0.8-1.5c0.1-0.6,0-1.2,0-1.7c-0.6,0.5-1.3,0.7-2.1,0.7c-0.3,0-0.7-0.1-1-0.1c-0.9,0.1-1.6,0.8-1.9,1.6
					C67.5,18.6,67.6,19.5,67.9,20.3"/>
			</g>
		</g>
		<g>
			<g>
				<g>
					<path class="st3" d="M68,20.4c0.6-1.4,3-0.5,4.1-1.4c1-0.8,0.9-2.2,0.8-3.4c0-0.1-0.1-0.2-0.3-0.2c-0.5,0.4-1,0.6-1.7,0.6
						c-0.4,0-0.9-0.1-1.3-0.1c-0.5,0.1-1,0.3-1.4,0.7c-1,1-0.9,2.5-0.6,3.7c0.1,0.2,0.4,0.1,0.3-0.1c-0.5-1.6-0.2-3.9,1.9-3.9
						c1.1,0,1.9,0,2.8-0.6c-0.1-0.1-0.2-0.1-0.3-0.2c0.1,0.8,0.2,1.7-0.2,2.5c-0.5,1-1.5,1.1-2.5,1.2c-0.8,0.1-1.8,0.2-2.2,1
						C67.6,20.4,67.9,20.6,68,20.4z"/>
				</g>
			</g>
		</g>
	</g>
	<g>
		<g>
			<g>
				<path class="st3" d="M67.9,25.4c0.1-0.3,0.4-0.6,0.7-0.7c0.3-0.1,0.6-0.2,0.9-0.2c0.9-0.1,1.8,0,2.5-0.6
					c0.4-0.4,0.7-0.9,0.8-1.5c0.1-0.6,0-1.2,0-1.8c-0.6,0.5-1.3,0.7-2.1,0.7c-0.3,0-0.7-0.1-1-0.1c-0.9,0.1-1.6,0.8-1.9,1.6
					C67.5,23.7,67.6,24.6,67.9,25.4"/>
			</g>
		</g>
		<g>
			<g>
				<g>
					<path class="st3" d="M68,25.5c0.6-1.4,3-0.5,4.1-1.4c1-0.8,0.9-2.2,0.8-3.4c0-0.1-0.1-0.2-0.3-0.2c-0.5,0.4-1,0.6-1.7,0.6
						c-0.4,0-0.9-0.1-1.3-0.1c-0.5,0.1-1,0.3-1.4,0.7c-1,1-0.9,2.5-0.6,3.7c0.1,0.2,0.4,0.1,0.3-0.1c-0.5-1.6-0.2-3.9,1.9-3.9
						c1.1,0,1.9,0,2.8-0.6c-0.1-0.1-0.2-0.1-0.3-0.2c0.1,0.8,0.2,1.7-0.2,2.5c-0.5,1-1.5,1.1-2.5,1.1c-0.8,0.1-1.8,0.2-2.2,1
						C67.6,25.5,67.9,25.7,68,25.5z"/>
				</g>
			</g>
		</g>
	</g>
</g>
<g>
	<g>
		<g>
			<rect x="228" y="28.1" class="st3" width="4.9" height="14.6"/>
		</g>
	</g>
	<g>
		<g>
			<rect x="67.8" y="28.1" class="st3" width="4.9" height="14.6"/>
		</g>
	</g>
</g>
<g>
	<path class="st4" d="M47.3,53.4c0.8,0,1.5,0.1,2.1,0.4s1.2,0.6,1.7,1.1c0.5,0.5,0.9,1.1,1.1,1.8c0.3,0.7,0.4,1.6,0.4,2.6
		c0,0.9-0.1,1.7-0.3,2.4c-0.2,0.7-0.6,1.4-1,1.9c-0.5,0.5-1,1-1.7,1.3c-0.7,0.3-1.5,0.5-2.4,0.5h-5.2V53.4H47.3z M47.1,63.1
		c0.4,0,0.7-0.1,1.1-0.2c0.4-0.1,0.7-0.3,1-0.6s0.5-0.7,0.7-1.1c0.2-0.5,0.3-1,0.3-1.7c0-0.6-0.1-1.1-0.2-1.6
		c-0.1-0.5-0.3-0.9-0.6-1.2s-0.6-0.6-1.1-0.8c-0.4-0.2-1-0.3-1.6-0.3h-1.9v7.5H47.1z"/>
	<path class="st4" d="M54.4,56.9c0.3-0.8,0.7-1.4,1.2-2c0.5-0.6,1.1-1,1.8-1.3s1.6-0.5,2.5-0.5c0.9,0,1.8,0.2,2.5,0.5
		c0.7,0.3,1.3,0.8,1.8,1.3c0.5,0.6,0.9,1.2,1.2,2s0.4,1.6,0.4,2.5c0,0.9-0.1,1.7-0.4,2.4s-0.7,1.4-1.2,2c-0.5,0.6-1.1,1-1.8,1.3
		c-0.7,0.3-1.5,0.5-2.5,0.5c-0.9,0-1.7-0.2-2.5-0.5s-1.3-0.8-1.8-1.3c-0.5-0.6-0.9-1.2-1.2-2S54,60.3,54,59.4
		C54,58.5,54.1,57.7,54.4,56.9z M56.8,60.9c0.1,0.5,0.3,0.9,0.6,1.3c0.3,0.4,0.6,0.7,1,0.9c0.4,0.2,0.9,0.3,1.5,0.3
		c0.6,0,1.1-0.1,1.5-0.3c0.4-0.2,0.7-0.5,1-0.9c0.3-0.4,0.4-0.8,0.6-1.3c0.1-0.5,0.2-1,0.2-1.5c0-0.5-0.1-1-0.2-1.5
		c-0.1-0.5-0.3-0.9-0.6-1.3c-0.3-0.4-0.6-0.7-1-0.9c-0.4-0.2-0.9-0.3-1.5-0.3c-0.6,0-1.1,0.1-1.5,0.3c-0.4,0.2-0.7,0.5-1,0.9
		c-0.3,0.4-0.4,0.8-0.6,1.3c-0.1,0.5-0.2,1-0.2,1.5C56.6,59.9,56.7,60.4,56.8,60.9z"/>
	<path class="st4" d="M70.1,53.4l5,8h0v-8h2.5v11.9H75l-5-8h0v8h-2.5V53.4H70.1z"/>
	<path class="st4" d="M82,53.4v5.4h-1.8v-5.4H82z"/>
	<path class="st4" d="M83.6,55.6v-2.2h9.8v2.2h-3.6v9.7h-2.6v-9.7H83.6z"/>
	<path class="st4" d="M105.1,53.4c0.6,0,1.1,0.1,1.6,0.2c0.5,0.1,0.9,0.3,1.2,0.5s0.6,0.5,0.8,0.9c0.2,0.4,0.3,0.8,0.3,1.4
		c0,0.6-0.1,1.1-0.4,1.5c-0.3,0.4-0.7,0.7-1.2,1c0.7,0.2,1.3,0.6,1.6,1.1s0.5,1.2,0.5,1.9c0,0.6-0.1,1.1-0.4,1.6s-0.5,0.8-0.9,1.1
		c-0.4,0.3-0.8,0.5-1.4,0.6s-1,0.2-1.6,0.2h-5.8V53.4H105.1z M104.7,58.2c0.5,0,0.9-0.1,1.2-0.3c0.3-0.2,0.5-0.6,0.5-1.1
		c0-0.3-0.1-0.5-0.2-0.7c-0.1-0.2-0.2-0.3-0.4-0.4c-0.2-0.1-0.4-0.2-0.6-0.2s-0.4-0.1-0.7-0.1h-2.5v2.8H104.7z M104.9,63.3
		c0.3,0,0.5,0,0.7-0.1c0.2,0,0.4-0.1,0.6-0.2c0.2-0.1,0.3-0.3,0.4-0.5c0.1-0.2,0.2-0.5,0.2-0.8c0-0.6-0.2-1.1-0.5-1.3
		c-0.3-0.3-0.8-0.4-1.4-0.4h-2.9v3.3H104.9z"/>
	<path class="st4" d="M120,64.4c-0.9,0.8-2.2,1.2-3.7,1.2c-1.6,0-2.9-0.4-3.8-1.2c-0.9-0.8-1.3-2-1.3-3.6v-7.4h2.6v7.4
		c0,0.3,0,0.6,0.1,1c0.1,0.3,0.2,0.6,0.4,0.8c0.2,0.2,0.4,0.4,0.7,0.6c0.3,0.2,0.7,0.2,1.3,0.2c0.9,0,1.6-0.2,1.9-0.6s0.5-1.1,0.5-2
		v-7.4h2.6v7.4C121.4,62.4,120.9,63.6,120,64.4z"/>
	<path class="st4" d="M122.3,53.4h2.9l2.8,4.7l2.8-4.7h2.9l-4.4,7.4v4.6h-2.6v-4.6L122.3,53.4z"/>
	<path class="st4" d="M138.5,55.6v-2.2h9.8v2.2h-3.6v9.7h-2.6v-9.7H138.5z"/>
	<path class="st4" d="M152.3,53.4V58h4.8v-4.6h2.6v11.9h-2.6v-5.2h-4.8v5.2h-2.6V53.4H152.3z"/>
	<path class="st4" d="M171,53.4v2.2h-6.3v2.6h5.8v2h-5.8v2.9h6.4v2.2H162V53.4H171z"/>
	<path class="st4" d="M175.5,53.4v11.9h-2.6V53.4H175.5z"/>
	<path class="st4" d="M184.2,53.4c0.5,0,1,0.1,1.4,0.3s0.8,0.4,1.1,0.7c0.3,0.3,0.5,0.6,0.7,1c0.2,0.4,0.2,0.8,0.2,1.3
		c0,0.7-0.1,1.3-0.4,1.8c-0.3,0.5-0.8,0.9-1.4,1.2v0c0.3,0.1,0.6,0.2,0.8,0.4s0.4,0.4,0.5,0.7s0.2,0.5,0.3,0.8
		c0.1,0.3,0.1,0.6,0.1,0.9c0,0.2,0,0.4,0,0.7c0,0.3,0,0.5,0.1,0.8c0,0.3,0.1,0.5,0.1,0.8s0.2,0.4,0.3,0.6h-2.6
		c-0.1-0.4-0.2-0.8-0.3-1.4s-0.1-1-0.2-1.5c-0.1-0.6-0.3-1.1-0.6-1.4s-0.8-0.4-1.4-0.4h-2.6v4.7h-2.6V53.4H184.2z M183.3,58.8
		c0.6,0,1.1-0.1,1.4-0.4s0.5-0.7,0.5-1.3c0-0.6-0.2-1-0.5-1.3c-0.3-0.3-0.8-0.4-1.4-0.4h-2.9v3.4H183.3z"/>
	<path class="st4" d="M203.3,65.3l-2-8.1h0l-2,8.1h-2.7l-3.2-11.9h2.6l1.9,8.1h0l2.1-8.1h2.5l2,8.2h0l2-8.2h2.6l-3.2,11.9H203.3z"/>
	<path class="st4" d="M210.2,56.9c0.3-0.8,0.7-1.4,1.2-2c0.5-0.6,1.1-1,1.8-1.3s1.6-0.5,2.5-0.5c0.9,0,1.8,0.2,2.5,0.5
		s1.3,0.8,1.8,1.3s0.9,1.2,1.2,2s0.4,1.6,0.4,2.5c0,0.9-0.1,1.7-0.4,2.4s-0.7,1.4-1.2,2c-0.5,0.6-1.1,1-1.8,1.3s-1.5,0.5-2.5,0.5
		c-0.9,0-1.7-0.2-2.5-0.5s-1.3-0.8-1.8-1.3c-0.5-0.6-0.9-1.2-1.2-2s-0.4-1.6-0.4-2.4C209.8,58.5,209.9,57.7,210.2,56.9z M212.6,60.9
		c0.1,0.5,0.3,0.9,0.6,1.3c0.3,0.4,0.6,0.7,1,0.9c0.4,0.2,0.9,0.3,1.5,0.3s1.1-0.1,1.5-0.3c0.4-0.2,0.7-0.5,1-0.9
		c0.3-0.4,0.4-0.8,0.6-1.3c0.1-0.5,0.2-1,0.2-1.5c0-0.5-0.1-1-0.2-1.5c-0.1-0.5-0.3-0.9-0.6-1.3c-0.3-0.4-0.6-0.7-1-0.9
		c-0.4-0.2-0.9-0.3-1.5-0.3s-1.1,0.1-1.5,0.3c-0.4,0.2-0.7,0.5-1,0.9c-0.3,0.4-0.4,0.8-0.6,1.3c-0.1,0.5-0.2,1-0.2,1.5
		C212.4,59.9,212.5,60.4,212.6,60.9z"/>
	<path class="st4" d="M229.8,53.4c0.5,0,1,0.1,1.4,0.3s0.8,0.4,1.1,0.7c0.3,0.3,0.5,0.6,0.7,1c0.2,0.4,0.2,0.8,0.2,1.3
		c0,0.7-0.1,1.3-0.4,1.8c-0.3,0.5-0.8,0.9-1.4,1.2v0c0.3,0.1,0.6,0.2,0.8,0.4s0.4,0.4,0.5,0.7s0.2,0.5,0.3,0.8
		c0.1,0.3,0.1,0.6,0.1,0.9c0,0.2,0,0.4,0,0.7c0,0.3,0,0.5,0.1,0.8c0,0.3,0.1,0.5,0.1,0.8s0.2,0.4,0.3,0.6H231
		c-0.1-0.4-0.2-0.8-0.3-1.4s-0.1-1-0.2-1.5c-0.1-0.6-0.3-1.1-0.6-1.4s-0.8-0.4-1.4-0.4H226v4.7h-2.6V53.4H229.8z M228.8,58.8
		c0.6,0,1.1-0.1,1.4-0.4s0.5-0.7,0.5-1.3c0-0.6-0.2-1-0.5-1.3c-0.3-0.3-0.8-0.4-1.4-0.4H226v3.4H228.8z"/>
	<path class="st4" d="M240.6,53.4c0.8,0,1.5,0.1,2.1,0.4c0.7,0.2,1.2,0.6,1.7,1.1c0.5,0.5,0.9,1.1,1.1,1.8c0.3,0.7,0.4,1.6,0.4,2.6
		c0,0.9-0.1,1.7-0.3,2.4c-0.2,0.7-0.6,1.4-1,1.9c-0.5,0.5-1,1-1.7,1.3s-1.5,0.5-2.4,0.5h-5.2V53.4H240.6z M240.4,63.1
		c0.4,0,0.7-0.1,1.1-0.2c0.4-0.1,0.7-0.3,1-0.6s0.5-0.7,0.7-1.1s0.3-1,0.3-1.7c0-0.6-0.1-1.1-0.2-1.6c-0.1-0.5-0.3-0.9-0.6-1.2
		s-0.6-0.6-1.1-0.8c-0.4-0.2-1-0.3-1.6-0.3H238v7.5H240.4z"/>
	<path class="st4" d="M249.8,62.4c0.1,0.3,0.3,0.5,0.6,0.7c0.2,0.2,0.5,0.3,0.8,0.4c0.3,0.1,0.7,0.1,1,0.1c0.2,0,0.5,0,0.8-0.1
		s0.5-0.1,0.8-0.2s0.4-0.3,0.6-0.5c0.2-0.2,0.2-0.4,0.2-0.7c0-0.3-0.1-0.6-0.3-0.8c-0.2-0.2-0.5-0.4-0.8-0.5
		c-0.3-0.1-0.7-0.3-1.1-0.4s-0.9-0.2-1.3-0.3c-0.4-0.1-0.9-0.2-1.3-0.4c-0.4-0.2-0.8-0.4-1.1-0.6c-0.3-0.3-0.6-0.6-0.8-1
		s-0.3-0.9-0.3-1.4c0-0.6,0.1-1.1,0.4-1.6c0.3-0.5,0.6-0.8,1-1.1s0.9-0.5,1.4-0.7s1.1-0.2,1.6-0.2c0.6,0,1.2,0.1,1.8,0.2
		c0.6,0.1,1.1,0.4,1.5,0.7s0.8,0.7,1.1,1.2c0.3,0.5,0.4,1.1,0.4,1.8h-2.5c0-0.4-0.1-0.7-0.2-0.9c-0.1-0.2-0.3-0.4-0.5-0.6
		s-0.5-0.2-0.7-0.3c-0.3-0.1-0.6-0.1-0.9-0.1c-0.2,0-0.4,0-0.6,0.1c-0.2,0-0.4,0.1-0.6,0.2s-0.3,0.3-0.4,0.4
		c-0.1,0.2-0.2,0.4-0.2,0.6c0,0.2,0,0.4,0.1,0.6c0.1,0.1,0.3,0.3,0.5,0.4c0.3,0.1,0.6,0.2,1.1,0.4c0.5,0.1,1.1,0.3,1.8,0.5
		c0.2,0,0.5,0.1,0.9,0.2s0.8,0.3,1.2,0.6c0.4,0.3,0.7,0.6,1,1c0.3,0.4,0.4,1,0.4,1.6c0,0.5-0.1,1.1-0.3,1.5
		c-0.2,0.5-0.5,0.9-0.9,1.2c-0.4,0.3-0.9,0.6-1.6,0.8c-0.6,0.2-1.3,0.3-2.1,0.3c-0.7,0-1.3-0.1-1.9-0.2c-0.6-0.2-1.2-0.4-1.6-0.8
		c-0.5-0.3-0.9-0.8-1.1-1.3s-0.4-1.2-0.4-1.9h2.5C249.6,61.8,249.7,62.1,249.8,62.4z"/>
</g>
<g>
	<path class="st1" d="M59.7,110.6l1-35.7h10.1v35.3h-3.4V97.4h-3.9l-0.4,13.3L59.7,110.6z M63.5,93.9h3.8v-6.6h-3.7L63.5,93.9z
		 M67.3,78.2h-3.4l-0.1,5.6h3.5V78.2z M80.1,86.8h-3.8l-2.7-6.5l2.6-6.4h3.8l-2.6,6.4L80.1,86.8z M84,91.2h12.1v18.4H73.7V91.2h6.9
		l1.3-3h3.4L84,91.2z M93,106.6V94.1H76.7v12.5H93z M81.9,105.2h-4.4l5.7-4.7l-3.7-3.5h4.2l1.6,1.5l2.1-2.6H91l-3.7,4.6l4.2,3.9
		h-4.2l-2-1.8L81.9,105.2z M87.8,86.8h-3.9l-2.7-6.5l2.6-6.4h3.8L85,80.3L87.8,86.8z M95.6,86.8h-3.9L89,80.3l2.6-6.4h3.8l-2.6,6.4
		L95.6,86.8z"/>
	<path class="st1" d="M111.6,85.2l-0.4,4h10.7l-1.7,20.7h-7v-3.4h4l1.2-14.1h-10.8l1.1-10.6h9.2v-4.2h-8.6v-3.3h12v10.9H111.6z
		 M107.7,105.1v-3.2l7.7-2.2v3.2L107.7,105.1z M108,93.9l6.2,1.4v3.2L108,97V93.9z M128.9,89.2h12.6l-1.6,20.7h-6.6v-3.4h3.6l1-14.1
		h-12.6l1.1-10.6h10.1v-4.2h-9.6v-3.3h12.9v10.9h-10.5L128.9,89.2z M132.9,95.5v3.2l-6-1.4v-3.1L132.9,95.5z M135.4,99.5v3.2
		l-7.7,2.2v-3.1L135.4,99.5z"/>
	<path class="st1" d="M167.3,104.9h19.3v3.6h-20.9l-5.6-6.1l-3.9,5.8h-4.3l7.7-11.7l4.3,4.7l12.5-16.4h-20.6v-3.6h12.1v-6.4h3.7v6.4
		h12.2l-17.3,22.7L167.3,104.9z"/>
	<path class="st1" d="M207.9,78.9l-1.3,3.7h8.9l-3.8,14.1l-7.2,13.3h-4.2l7.9-14.4l-5.2-1.8l-1.2,3.7h-3.9l6.3-18.6h-5.7v-3.6h34
		v3.6H207.9z M210.7,86.2h-5.3l-1.4,4.1l5.1,1.8L210.7,86.2z M220.2,105.8h13v3.7h-16.6V80.9h3.7v10l9.5-5v4.2l-9.5,5V105.8z"/>
</g>
</svg>
