<svg xmlns="http://www.w3.org/2000/svg" viewBox="0 0 310 290"><defs><style>.cls-1{isolation:isolate;}.cls-13,.cls-2{fill:#fff;}.cls-3{fill:#534741;}.cls-4{fill:#ffeb00;}.cls-5{fill:#ccbc00;}.cls-6{fill:#162585;}.cls-7{fill:#e6e6e6;}.cls-8{fill:#ff4a46;}.cls-9{mix-blend-mode:multiply;}.cls-10{fill:#ccc;}.cls-11{fill:#b3b3b3;}.cls-12{fill:#1a1a1a;}.cls-13{stroke:#162585;stroke-miterlimit:10;stroke-width:0.5px;}.cls-14{fill:#fff3d5;}.cls-15{fill:#cc3b38;}</style></defs><title>princess-snowhite</title><g class="cls-1"><g id="圖層_1" data-name="圖層 1"><path class="cls-2" d="M267,102.26h-86c-19.81,0-36-15.75-36-35h0c0-19.25,16.21-35,36-35h86c19.81,0,36,15.75,36,35h0C303.06,86.51,286.85,102.26,267,102.26Z"/><circle class="cls-2" cx="275.23" cy="121.07" r="5.05"/><path class="cls-3" d="M167.86,55.75a10.24,10.24,0,0,0,.3-1.22H163.1v4.75a18.87,18.87,0,0,1-1.58,8l-1.15-1a17.41,17.41,0,0,0,1.2-6.93V53h13.22v1.49h-5.12c-.1.42-.19.83-.32,1.22h4.34v6.37h-3.6v3.65a1.32,1.32,0,0,1-1.5,1.46H167l-.34-1.49a11.32,11.32,0,0,0,1.42.1c.34,0,.51-.14.51-.43V62.13h-4V55.75Zm-.9,7.51a15.13,15.13,0,0,1-2.51,3.57l-1.26-.9a12.87,12.87,0,0,0,2.45-3.31Zm5.25-5V57.13h-6.15v1.14Zm0,1.3h-6.15v1.18h6.15ZM175,66l-1.26.86a26.31,26.31,0,0,0-2.42-3.5l1.22-.77A29.11,29.11,0,0,1,175,66Z"/><path class="cls-3" d="M183,55.58h-5.75V54.12H183V52.55h1.54v1.57h5.76v1.46h-5.76v4.27a16.73,16.73,0,0,0,6.61,5.27l-.83,1.42a18.59,18.59,0,0,1-5.78-4.5v5.19H183V62.08a18.39,18.39,0,0,1-5.75,4.53l-.8-1.38a17,17,0,0,0,6.55-5.3Zm-5.09,5.91L177,60.33A7.82,7.82,0,0,0,179.65,56l1.41.24a12.8,12.8,0,0,1-.77,2.18,12.67,12.67,0,0,1,2,1.31l-.8,1.26a12.25,12.25,0,0,0-1.87-1.39A8.63,8.63,0,0,1,177.95,61.49Zm8.4-.46-.93-1.18A7.24,7.24,0,0,0,187.6,56l1.42.24a11.49,11.49,0,0,1-.67,2,14.64,14.64,0,0,1,2.3,1.58l-.86,1.3a13,13,0,0,0-2.1-1.68A7.7,7.7,0,0,1,186.35,61Z"/><path class="cls-3" d="M200.82,59.05a2.11,2.11,0,0,1,.4,1.31,3.37,3.37,0,0,1-.72,2.15,3.59,3.59,0,0,1-1.92,1.23v-1a2.35,2.35,0,0,0,1.09-.75,2,2,0,0,0,.4-1.12,1.19,1.19,0,0,1-.38.06,1.14,1.14,0,0,1-.83-.35,1.16,1.16,0,0,1-.34-.85,1.12,1.12,0,0,1,.35-.86,1.24,1.24,0,0,1,.91-.34A1.27,1.27,0,0,1,200.82,59.05Z"/><path class="cls-3" d="M209.53,58.24l-1-1.17a15.15,15.15,0,0,0,4.83-4.64l1.54.34c-.22.35-.46.69-.7,1h5.35v1.15a16.36,16.36,0,0,1-1.7,1.86h3.67v5.14h-3.62v2.91c0,.48.19.72.59.72H221a.51.51,0,0,0,.48-.3,6,6,0,0,0,.24-2l1.44.46a6.2,6.2,0,0,1-.61,2.87,1.66,1.66,0,0,1-1.26.43h-3.19c-1.1,0-1.65-.62-1.65-1.87V61.93h-.56a6.26,6.26,0,0,1-.34.82c-.83,1.82-2.8,3.36-5.94,4.58l-1-1.18c2.75-1,4.55-2.29,5.41-3.78.06-.16.14-.3.21-.43h-3.81V57.63C210.14,57.84,209.84,58,209.53,58.24Zm8.08-3.07h-4.48a19.78,19.78,0,0,1-1.67,1.63H216A19.63,19.63,0,0,0,217.62,55.16Zm-2.59,3H211.9v2.3h2.8A14,14,0,0,0,215,58.2Zm5.07,0h-3.55a14.3,14.3,0,0,1-.27,2.3h3.83Z"/><path class="cls-3" d="M234.21,56.65h4.19a3.67,3.67,0,0,1-.37,2,2.3,2.3,0,0,1-1.66.45c-.3,0-.61,0-.9,0l-.24-.86c.35,0,.67,0,1,0a1.37,1.37,0,0,0,.82-.14.71.71,0,0,0,.13-.45h-2.95v1.46h-1.42V57.69h-2.5a3.33,3.33,0,0,1-.86.91,6.67,6.67,0,0,1-2,.88h9.78v5.73h-2.82a43.5,43.5,0,0,1,4.74,1l-.46,1.15a36.09,36.09,0,0,0-5.7-1.38l.42-.78h-3.55l.54.74a19.91,19.91,0,0,1-5.17,1.41l-.64-1.1a24.43,24.43,0,0,0,4.72-1h-2.66V59.68l-1.09.21-.62-1a9.75,9.75,0,0,0,3.47-1l.26-.19h-3.2L226,55h3.38v-.69h-3.79V53.15h3.79v-.62h1.41v.62h2v-.62h1.42v.62h3.57V56h-3.57Zm-7.32,0h2.37a4,4,0,0,0,.08-.43V56h-2.26Zm8.84,4.42v-.61H228v.61Zm0,1.52V62H228v.58Zm0,.93H228v.64h7.73Zm-5-7.3,0,.43h2.08V56h-2Zm0-1.26h2v-.69h-2Zm3.46,0h2.3v-.69h-2.3Z"/><path class="cls-3" d="M246.42,66.29H245v-.83h-2.53v1.3H241V55.15h1.52a14.78,14.78,0,0,0,.64-2.67l1.52.21a13,13,0,0,1-.7,2.46h2.46ZM245,59.53V56.59h-2.53v2.95ZM245,64V60.89h-2.53V64Zm9.48,1.33c-.16,1.15-.93,1.73-2.29,1.73-.32,0-.9,0-1.7-.08l-.37-1.39c.7,0,1.31.06,1.82.06a1,1,0,0,0,1.1-1c.1-.8.14-3.49.18-8.05h-4a14.37,14.37,0,0,1-1.57,2.64l-.91-1.2a14,14,0,0,0,2.18-5.62l1.5.19a18.65,18.65,0,0,1-.64,2.51h4.95Q254.67,63.45,254.43,65.38Zm-2.71-2.95-1.2.85a30.11,30.11,0,0,0-2.46-3.52L249.3,59A26.79,26.79,0,0,1,251.73,62.43Z"/><path class="cls-3" d="M263.07,53.77V52.44h1.47v1.33h6.27v1.44h-6.27v1.12h5.11v6.19H265.9a11.91,11.91,0,0,0,5.25,2.88l-.69,1.41a12.35,12.35,0,0,1-5.89-4.29h0v4.83h-1.47V62.53h0c-1,1.68-2.91,3.14-5.68,4.35l-.85-1.36a13.14,13.14,0,0,0,5.23-3h-3.81V56.33h5.14V55.21H256.8V53.77Zm0,3.87h-3.67v1.2h3.67Zm-3.67,3.57h3.67V60h-3.67Zm8.77-3.57h-3.63v1.2h3.63Zm-3.63,3.57h3.63V60h-3.63Z"/><path class="cls-3" d="M287,53.08v1.49h-4.72v2.06h3.87V67.18h-1.52v-.62H275v.62H273.5V56.63h3.78V54.57h-4.66V53.08Zm-2.37,12.05V62.85h-2.14a1.53,1.53,0,0,1-1.71-1.76v-3h-2v.14a6.46,6.46,0,0,1-2.62,5.62l-1.14-1v2.29Zm-7.35-6.91v-.14H275v4.69A5.13,5.13,0,0,0,277.28,58.22Zm1.5-1.59h2V54.57h-2Zm3.49,4.1c0,.48.21.74.66.74h1.7V58.08h-2.35Z"/><path class="cls-3" d="M196,87.15l-.35-1.47c.83,0,1.62.08,2.35.08.4,0,.61-.24.61-.72V76.78h-.29a18.47,18.47,0,0,1-7.87,8.13l-.8-1.3a16.79,16.79,0,0,0,7.14-6.83H190V75.32h8.66v-2.8h1.52v2.8h3.89v1.46h-3.89v8.64c0,1.15-.54,1.73-1.6,1.73Z"/><path class="cls-3" d="M206,81.07V79.69h14.26v1.38h-6.2v1.49h4.48V83.9h-4.48v1.71c.74.06,1.6.1,2.56.1,1.41,0,2.61,0,3.57-.06l-.42,1.42c-1.12,0-2.15,0-3,0a17.31,17.31,0,0,1-5.44-.61,5,5,0,0,1-2.1-1.92,9.21,9.21,0,0,1-2.31,2.75l-1-1.25a8.44,8.44,0,0,0,2.95-4.55l1.44.24c-.16.58-.34,1.1-.53,1.62a4.3,4.3,0,0,0,2.15,1.89c.19.06.4.11.64.18V81.07ZM218.16,73v5.78h-9.94V73Zm-1.5,2.29v-1h-6.93v1Zm0,1.2h-6.93v1h6.93Z"/><path class="cls-3" d="M236.27,78.62V79.9h-7.09v7.41h-1.49V86c-1.28.21-3.09.4-5.43.56l-.19-1.28,1.36-.06V79.9h-1.38V78.62Zm-1.87-.7h-1.49V74.15h-7.43V78H224V73h10.39Zm-6.71,2.9V79.9h-2.82v.91Zm0,2.07v-1h-2.82v1Zm0,1.89V84h-2.82v1.12C225.94,85,226.89,84.89,227.69,84.77Zm4.72-8.05v1H226v-1Zm0-1.74v1H226V75Zm-2.56,6.95V80.65h5.59v1.18a7.5,7.5,0,0,1-1.49,3,12.07,12.07,0,0,0,2.4,1.3l-.77,1.26a13,13,0,0,1-2.61-1.6,11.12,11.12,0,0,1-2.79,1.58l-.78-1.18a10.1,10.1,0,0,0,2.54-1.39,7.17,7.17,0,0,1-1.57-2.85Zm4.19,0h-2.37a5.34,5.34,0,0,0,1.22,2A6.22,6.22,0,0,0,234,81.92Z"/><path class="cls-3" d="M244.39,77.23v-.66H239.8V73.42h4.59v-.91h1.49v.91h4.64v3.15h-4.64v.66h6.18v1.18H238.23V77.23ZM250.25,79v6.24H247.5a34.7,34.7,0,0,1,4.55,1l-.48,1.14a32.32,32.32,0,0,0-5.07-1.25l.46-.9h-3.71l.59.78a19.26,19.26,0,0,1-4.93,1.34l-.64-1.1a20.72,20.72,0,0,0,4.39-1h-2.5V79Zm-5.86-4.47h-3.17v.94h3.17Zm4.42,6.27v-.72h-7.2v.72Zm0,1.63v-.7h-7.2v.7Zm0,.94h-7.2v.74h7.2Zm.29-8.85h-3.22v.94h3.22Z"/><path class="cls-3" d="M256.65,83.66a1.06,1.06,0,0,1,.34.82,1.12,1.12,0,0,1-.34.83,1.27,1.27,0,0,1-.85.32,1.11,1.11,0,0,1-.82-.34,1.07,1.07,0,0,1-.35-.82,1,1,0,0,1,.35-.82,1.09,1.09,0,0,1,.82-.32A1.15,1.15,0,0,1,256.65,83.66Zm.16-9.46-.37,8.2h-1.26l-.37-8.2Z"/><path class="cls-2" d="M30.9,157.87C27.48,158.57,0,187,0,187l47.54,20.35L99.2,179.22l22,6.79,35.41-26.77-56.4-18.05Z"/><path class="cls-2" d="M160.09,180.65c-5.87.39-76.59,24.77-76.59,24.77L41.67,251.2l41.84,26.56,117.3,11.14L310,270.5l-5.5-46.79Z"/><path class="cls-4" d="M144.72,179.17c18.44-37.41,64.52-53.37,80.58-33.14,11.87-4.8,24.48-2.44,36.63,5.11,10.87,6.76,16,18.41,15.67,31.21-9.58-5.91-30.64,29.33-45.88,43.89-2.23,2.13-3.05.85-4.26-.23-7-6.34-57.77-36.57-64.48-37.81s-13.59-3.79-17.8-9.15"/><path class="cls-5" d="M199.44,137.51s17.57,4.89,10.18,21.89c0,0,4.4-7.47,15.68-13.17C225.3,146.24,221.37,135.4,199.44,137.51Z"/><path class="cls-5" d="M261.93,151.15A49.31,49.31,0,0,0,243.76,144c7.24,6,21,19.79,11.57,32.75-7.7,10.6-24.71,27.43-37,42.77a93,93,0,0,1,9.14,6.49c1.21,1.09,2.57,2.82,4.26.23,13.49-20.68,36.29-49.8,45.88-43.89C277.89,169.55,272.81,157.9,261.93,151.15Z"/><path class="cls-6" d="M266.5,153.2a48.46,48.46,0,0,0-17.19-9,37.69,37.69,0,0,0-18.73-.89,33.56,33.56,0,0,0-5,1.5c-9.85-11.62-27.59-9.68-40.35-4.68-17.91,7-32.92,21.34-41.43,38.52a1.08,1.08,0,0,0,1,1.55c3.68,4.34,9,6.8,14.41,8.23,1.47.39,3,.55,4.45,1a23.43,23.43,0,0,1,2.29.93c5.88,2.64,11.51,5.87,17.11,9q11.09,6.26,21.95,12.93c6,3.65,11.95,7.35,17.7,11.35a48,48,0,0,1,4.82,3.78c1.94,1.74,3.81.54,5.41-1s3-3.06,4.42-4.65c6.63-7.4,12.56-15.39,18.91-23a93,93,0,0,1,12-12.68c2.24-1.84,6-4.55,8.74-2.89a1,1,0,0,0,1.55-.89C278.84,171.36,275,160.45,266.5,153.2ZM263.19,188c-6.83,6.77-12.63,14.58-18.66,22.05-3,3.76-6.09,7.5-9.33,11.08-1.45,1.59-2.92,3.18-4.51,4.63-.91.83-1.38.53-2.16-.2-.33-.32-.68-.62-1-.91a143.44,143.44,0,0,0-14.08-9.54c-13.46-8.5-27.2-16.77-41.36-24.06a52.72,52.72,0,0,0-8.11-3.69c-.79-.25-1.61-.35-2.42-.52a41.53,41.53,0,0,1-5.82-1.71,22.65,22.65,0,0,1-9.53-6.53c8.75-17,24-31,42.08-37.4,11.81-4.14,27.64-5.29,36.32,5.54a1,1,0,0,0,1,.27,34.32,34.32,0,0,1,19-1.85,47.9,47.9,0,0,1,18.56,8c9,6.32,13.26,16.94,13.44,27.66C271.67,179.56,266.21,185,263.19,188Z"/><path class="cls-7" d="M115.12,199.5c1-.94,2.58-.67,4.44-1.77,10.42-6.14,33.07-9.32,36.6,4.3S144.78,218.52,138,213.57c-6.45-4.7-17.19-5.95-17.19-5.95a15.48,15.48,0,0,1-3.63-.43l0,.06s2.71,5.27,0,5.09-3.09-3.18-3.21-4-4.24,3.68-6.18,2-6.41-7.75-.23-10S115.12,199.5,115.12,199.5Z"/><path class="cls-6" d="M154.83,197.09c-2.38-3-6-4.51-9.66-5.19-8.14-1.51-17.29.42-24.62,4.12a19.51,19.51,0,0,1-3,1.46,12.45,12.45,0,0,0-2.48.85,5.48,5.48,0,0,0-1.42-.26,16,16,0,0,0-7,1.53,5,5,0,0,0-3.35,4.58,8.91,8.91,0,0,0,2.08,5.1c1,1.33,2.15,2.72,4,2.44a9.56,9.56,0,0,0,3.77-1.88c0,.05,0,.1,0,.16a5,5,0,0,0,1.51,2.46c1.36,1.17,3.95,1.45,4.59-.59a5.33,5.33,0,0,0-.44-3.39c.65.06,1.3.1,2,.18h.12l.84.13a55,55,0,0,1,5.61,1.21,36.86,36.86,0,0,1,7.38,2.79c1.84,1,3.4,2.28,5.33,3.06,6.39,2.61,15.34.24,17.28-7A14,14,0,0,0,154.83,197.09Zm.73,10.34c-1,7.1-10,8.9-15.58,6.15a19.86,19.86,0,0,1-2.25-1.43,24.89,24.89,0,0,0-3.37-1.84,42.36,42.36,0,0,0-7-2.43c-1.71-.45-3.45-.81-5.2-1.09-1.58-.25-3.18-.22-4.74-.58a1,1,0,0,0-1.27.72,1.81,1.81,0,0,0,.3,1.3,11.76,11.76,0,0,1,.72,2,3.49,3.49,0,0,1,.11,1c0,.11.16,0-.19,0a2.2,2.2,0,0,1-1.88-1.68c-.18-.51-.18-1.07-.35-1.58a1.21,1.21,0,0,0-1.8-.6c-1.4.69-2.49,1.9-4.06,2.25-1.05.23-2.28-2-2.71-2.73-.81-1.36-1.49-3.24-.28-4.57a7.23,7.23,0,0,1,3.3-1.57,15.41,15.41,0,0,1,3.39-.7,4.54,4.54,0,0,1,1.57.11c.08,0,.32.2.09,0a1,1,0,0,0,.86.26,1,1,0,0,0,.6-.26c.89-.76,2.45-.74,3.5-1.23s1.88-1,2.85-1.5a37.82,37.82,0,0,1,5.64-2.15,41.27,41.27,0,0,1,12.86-1.83c3.75.09,7.85.84,10.87,3.22A11.7,11.7,0,0,1,155.57,207.42Z"/><path class="cls-6" d="M145.63,194.24q.11,2.53.22,5.07c0,.88,1.41.89,1.37,0l-.22-5.07c0-.88-1.41-.89-1.37,0Z"/><path class="cls-6" d="M142.47,194.18l.6,4.26c.12.87,1.45.5,1.32-.37l-.6-4.26c-.12-.87-1.45-.5-1.32.36Z"/><path class="cls-6" d="M138.37,193.51l.45,4.86c.08.88,1.46.88,1.37,0l-.45-4.86c-.08-.87-1.46-.88-1.37,0Z"/><path class="cls-6" d="M134.63,193.93a15.38,15.38,0,0,0,.15,3.94c.14.87,1.47.5,1.32-.37a14,14,0,0,1-.1-3.57c.08-.88-1.29-.87-1.37,0Z"/><path class="cls-6" d="M131.27,193.67a11.9,11.9,0,0,0-.22,4.74c.13.88,1.45.5,1.32-.36a10.14,10.14,0,0,1,.22-4,.69.69,0,0,0-1.33-.37Z"/><path class="cls-6" d="M127,195.71a16.66,16.66,0,0,0,0,3c.09.87,1.46.88,1.37,0a16.76,16.76,0,0,1,0-3c.07-.88-1.31-.88-1.37,0Z"/><path class="cls-6" d="M122.3,196.49a6.29,6.29,0,0,0-.37,4.09c.21.86,1.53.5,1.32-.37a4.74,4.74,0,0,1,.23-3c.35-.8-.83-1.5-1.19-.69Z"/><path class="cls-6" d="M119.31,198.2l-.54,3.13c-.15.87,1.17,1.24,1.32.36l.54-3.13c.15-.87-1.17-1.24-1.33-.37Z"/><path class="cls-6" d="M105.57,206a13.21,13.21,0,0,1,3.6-2.09c.82-.32.46-1.64-.37-1.33A15.3,15.3,0,0,0,104.6,205c-.69.56.29,1.53,1,1Z"/><path class="cls-6" d="M107.17,209.11a10.19,10.19,0,0,1,3.66-2.84c.8-.37.1-1.56-.69-1.19a11.09,11.09,0,0,0-3.93,3.06c-.55.68.41,1.66,1,1Z"/><path class="cls-8" d="M130.88,213.17a17.38,17.38,0,0,1,0-25,18.53,18.53,0,0,1,25.71,0,17.38,17.38,0,0,1,0,25A18.53,18.53,0,0,1,130.88,213.17Z"/><path class="cls-6" d="M143.73,219.27a19.23,19.23,0,0,1-13.5-5.45,18.3,18.3,0,0,1,0-26.36,19.45,19.45,0,0,1,27,0,18.3,18.3,0,0,1,0,26.36A19.22,19.22,0,0,1,143.73,219.27Zm0-35.42a17.4,17.4,0,0,0-12.22,4.93,16.47,16.47,0,0,0,0,23.73,17.61,17.61,0,0,0,24.44,0,16.47,16.47,0,0,0,0-23.73A17.4,17.4,0,0,0,143.73,183.85Z"/><g class="cls-9"><path class="cls-10" d="M125.78,203.43a17.47,17.47,0,0,0,5.1,9.74,18.53,18.53,0,0,0,25.71,0,17.4,17.4,0,0,0,5.2-14.56C146.1,216,130.75,207.13,125.78,203.43Z"/></g><circle class="cls-8" cx="138.85" cy="217.27" r="13.3" transform="translate(-112.96 161.82) rotate(-45)"/><path class="cls-6" d="M138.85,231.48a14.21,14.21,0,1,1,10-4.16A14.12,14.12,0,0,1,138.85,231.48Zm0-26.59a12.38,12.38,0,1,0,8.75,3.63A12.3,12.3,0,0,0,138.85,204.89Z"/><path class="cls-11" d="M128.12,223.42s-4-13.07,2.76-9.32c2.69,1.49,11.24,39.07,61.76,51.37,0,0,2.64,4.25-3,5.58C186.71,271.74,145.56,267.8,128.12,223.42Z"/><path class="cls-6" d="M188.7,272c-.12,0-12.16-.09-27.17-8.33a73.08,73.08,0,0,1-18.68-14.62,80.82,80.82,0,0,1-15.59-25.33l0-.07c-.39-1.27-2.25-7.75-.45-10.18a2.41,2.41,0,0,1,2-1,5.29,5.29,0,0,1,2.51.79c.69.38,1.18,1.36,2.51,4.14,4.85,10.14,17.71,37.09,59,47.14l.36.09.2.32a5,5,0,0,1,.47,4.13c-.57,1.38-1.93,2.33-4,2.83A5.39,5.39,0,0,1,188.7,272ZM129,223.12a79,79,0,0,0,15.22,24.72,71.23,71.23,0,0,0,18.21,14.26c12.11,6.64,23.08,8.1,26.29,8.1a3.71,3.71,0,0,0,.73,0c1.5-.35,2.42-.94,2.76-1.74a2.85,2.85,0,0,0-.18-2.16c-17.83-4.41-32.53-12.48-43.69-24a85.73,85.73,0,0,1-16.14-24,21,21,0,0,0-1.77-3.34,3.52,3.52,0,0,0-1.59-.54.59.59,0,0,0-.54.25C127.35,215.84,128.13,220.32,129,223.12Z"/><path class="cls-2" d="M145.15,243.59s11.25,15.3,43.37,23.27c0,0,2,.9.85,1.8S156.46,262.74,145.15,243.59Z"/><path class="cls-11" d="M155.23,257.33c-3.25-2.61-7.49-5.35-10.74-8-.18-.15-3,4.38-4.63,5.69,1,.28,3.2,4.87,5.68.29.13-.24,8,5.1,9.16,6.12C154.69,261.46,157,258.72,155.23,257.33Z"/><path class="cls-6" d="M154.69,262.27a.81.81,0,0,1-.52-.2c-1-.87-6.51-4.61-8.32-5.69a3.23,3.23,0,0,1-2.64,1.79c-1.27,0-2.27-1-3-1.77a5.32,5.32,0,0,0-.61-.58.8.8,0,0,1-.24-1.39,25.1,25.1,0,0,0,3.31-4.06c1.12-1.56,1.29-1.8,1.8-1.8a.84.84,0,0,1,.51.18c1.61,1.29,3.5,2.64,5.33,4s3.77,2.69,5.41,4a2.48,2.48,0,0,1,.94,1.71,5.65,5.65,0,0,1-1.36,3.56.8.8,0,0,1-.55.29Zm-9.14-7.73c.28,0,.57,0,4.76,2.83,1.46,1,3.19,2.18,4.21,2.94a3.21,3.21,0,0,0,.56-1.73.86.86,0,0,0-.35-.62c-1.61-1.29-3.5-2.65-5.34-4-1.63-1.17-3.31-2.37-4.81-3.54l-.6.84a37.08,37.08,0,0,1-2.89,3.7l.28.28c.53.54,1.25,1.29,1.84,1.29s1.22-.87,1.62-1.6A.84.84,0,0,1,145.55,254.54Z"/><circle class="cls-11" cx="140.63" cy="260.89" r="6.2" transform="translate(-154.81 237.26) rotate(-57.1)"/><path class="cls-6" d="M140.62,267.89a7,7,0,1,1,5.88-3.2A7,7,0,0,1,140.62,267.89Zm0-12.4a5.4,5.4,0,1,0,2.93.87A5.38,5.38,0,0,0,140.63,255.49Z"/><path class="cls-2" d="M136.9,259.94l7.37-.89a4.8,4.8,0,0,0-3.82-2.25C137.91,256.77,136.9,259.94,136.9,259.94Z"/><path class="cls-12" d="M193.46,241c-7.56-16.1-21.61-11.36-21.61-11.36-6.27-15.56-22.55-13.14-22.55-13.14a21,21,0,0,0-17-13.9c-2.05,4.23-3,6.43-3,6.43-7.81,33.77,33.94,48.05,54.33,52a119.06,119.06,0,0,0,23.27-12.36C201.37,236.72,193.46,241,193.46,241Z"/><path class="cls-6" d="M207.82,248.22c-1.85-3.92-4.8-8-9.35-8.82a9.13,9.13,0,0,0-4.52.32c-2.85-5.55-7.45-10.13-13.76-11.37a18,18,0,0,0-7.77.1,21.57,21.57,0,0,0-13.73-12.1,23.75,23.75,0,0,0-8.75-.89,23.19,23.19,0,0,0-7.85-10.05,22.65,22.65,0,0,0-9.51-3.74,1,1,0,0,0-1.16.47c-1,2-2,4.1-2.88,6.19a19.12,19.12,0,0,0-1,5.52,31.79,31.79,0,0,0,1.2,12.52c2.35,7.72,7.79,14.05,14.1,18.9a82.82,82.82,0,0,0,21.95,11.61c3.6,1.33,7.26,2.47,11,3.45q2.47.65,5,1.2l2.19.46c1.42.28,2.74-.56,4-1.11a119.27,119.27,0,0,0,20.56-11.24A1.06,1.06,0,0,0,207.82,248.22Zm-22,10.88-1.3.54s-1,.4-.79.43l-2.36-.49c-1.65-.36-3.3-.76-4.94-1.19A107.28,107.28,0,0,1,154.17,250c-7.19-3.73-14.11-8.6-18.92-15.21a30.49,30.49,0,0,1-5.34-23.44,10.66,10.66,0,0,1,.73-2.73c.72-1.62,1.48-3.22,2.25-4.82a21.67,21.67,0,0,1,7.72,3.07,20.66,20.66,0,0,1,7.69,9.95,1.07,1.07,0,0,0,1.27.72c-.52.08.23,0,.4,0,.61,0,1.22-.07,1.84-.07a23.59,23.59,0,0,1,5.94.78A19.47,19.47,0,0,1,170.86,230a1,1,0,0,0,1.27.72,15.29,15.29,0,0,1,7.33-.38c6.21,1.08,10.5,5.78,13.12,11.26a.84.84,0,0,0,1.05.48,1,1,0,0,0,.36-.11l.2-.09.26-.1.54-.17a6.85,6.85,0,0,1,2.77-.21c3.77.51,6.22,3.8,7.85,7a121.88,121.88,0,0,1-17.45,9.71C187.39,258.44,186.62,258.77,185.85,259.1Z"/><path class="cls-7" d="M173.44,211.63c-15.45-.9-26.92-6.26-38.18-14.9q-1.74,3.42-3,5.92a21,21,0,0,1,17,13.9s16.28-2.42,22.55,13.14c0,0,14.06-4.74,21.61,11.36,0,0,7.91-4.33,13.47,7.69q4.33-3,8.41-6.27C198.36,236.85,181.43,225.92,173.44,211.63Z"/><path class="cls-6" d="M173.44,210.6a64.64,64.64,0,0,1-20.39-4.51,75.25,75.25,0,0,1-17.27-10.25,1,1,0,0,0-1.41.37q-1.5,2.95-3,5.92a1,1,0,0,0,.62,1.51,21.94,21.94,0,0,1,8.58,3.23,20.66,20.66,0,0,1,7.69,9.95,1.07,1.07,0,0,0,1.27.72c-.52.08.23,0,.4,0,.61,0,1.22-.07,1.84-.07a23.59,23.59,0,0,1,5.94.78A19.47,19.47,0,0,1,170.86,230a1,1,0,0,0,1.27.72,15.29,15.29,0,0,1,7.33-.38c6.21,1.08,10.5,5.78,13.12,11.26a1,1,0,0,0,1.41.37l.3-.14c-.31.14.08,0,.15-.05l.54-.17a6.85,6.85,0,0,1,2.77-.21c4.12.56,6.66,4.44,8.29,7.9a1,1,0,0,0,1.41.37q4.44-3,8.62-6.43a1,1,0,0,0-.45-1.72,92.48,92.48,0,0,1-23.77-11.85c-7-4.89-13.3-11-17.51-18.51a1,1,0,0,0-1.78,1c4.28,7.59,10.62,13.76,17.65,18.82a92.67,92.67,0,0,0,24.87,12.49l-.46-1.72q-4,3.23-8.2,6.11l1.41.37c-1.85-3.92-4.8-8-9.35-8.82a8.72,8.72,0,0,0-5.53.75l1.41.37c-2.82-5.91-7.55-10.87-14.16-12.17a17.44,17.44,0,0,0-8.62.34l1.27.72a21.72,21.72,0,0,0-14.15-13.07,23.29,23.29,0,0,0-9.67-.79l1.27.72a23.49,23.49,0,0,0-8.2-10.88,22.65,22.65,0,0,0-9.51-3.74l.62,1.51q1.45-3,3-5.92l-1.41.37a78.49,78.49,0,0,0,17.76,10.46,65.4,65.4,0,0,0,20.93,4.59C174.77,212.74,174.76,210.68,173.44,210.6Z"/><path class="cls-6" d="M144.72,179.17q-1.91,3.39-3.57,6.42c-2.33,4.27-4.29,8-5.89,11.14,11.25,8.64,22.73,14,38.18,14.9,8,14.29,24.92,25.21,41.9,30.84A120.25,120.25,0,0,0,230.25,228C193.94,190.54,160.13,181.39,144.72,179.17Z"/><path class="cls-6" d="M231,227.26c-16.56-17-35.92-31.74-57.92-41A115.43,115.43,0,0,0,145,178.18h-.09a.92.92,0,0,0-1.08.47c-3.26,5.79-6.43,11.64-9.46,17.56a1.06,1.06,0,0,0,.37,1.41,78.49,78.49,0,0,0,17.76,10.46,65,65,0,0,0,20.32,4.54c5.9,10.18,15.43,17.87,25.58,23.55,2.73,1.53,5.56,2.9,8.43,4.15,1.34.58,2.69,1.13,4.05,1.66.69.27,1.39.52,2.09.77a8.17,8.17,0,0,0,2.37.76c.66,0,1.23-.71,1.69-1.1q1-.8,1.9-1.62c1.36-1.18,2.7-2.4,4-3.64,2.52-2.39,4.92-4.89,7.22-7.49l.82-.94A1,1,0,0,0,231,227.26Zm-15.86,14c-11.57-3.92-22.67-10-31.53-18.45a55.11,55.11,0,0,1-5.91-6.61c-.82-1.09-1.59-2.23-2.32-3.38-.36-.57-.7-1.16-1-1.75s-1.42-.54-2.08-.59a63.32,63.32,0,0,1-17.9-3.92,72.87,72.87,0,0,1-17.76-10.17q4.19-8.15,8.69-16.14c14.77,2.27,29,7.91,41.94,15.2,15.42,8.66,29.27,19.91,41.62,32.52A122.55,122.55,0,0,1,215.12,241.31Z"/><path class="cls-12" d="M208.11,247.93a119.11,119.11,0,0,1-24.45,13.17c5.36,1,7.43,2.83,9.23,3,1.74.57,13.81.53,25.06-3.35C218.14,251.66,211.62,248.8,208.11,247.93Z"/><path class="cls-6" d="M215.31,250.7a14.67,14.67,0,0,0-6.74-3.71.85.85,0,0,0-1,.05,119.62,119.62,0,0,1-24.21,13.07c-.85.34-1.1,1.76,0,2a56.63,56.63,0,0,1,8.19,2.77,14.72,14.72,0,0,0,4.84.56,68.08,68.08,0,0,0,21.81-3.65,1.05,1.05,0,0,0,.76-1A13.79,13.79,0,0,0,215.31,250.7ZM192,262.82c-1-.37-2-.87-3-1.27-.66-.26-1.33-.48-2-.69a121.89,121.89,0,0,0,21.35-11.8,13,13,0,0,1,5.25,2.78A11.17,11.17,0,0,1,216.9,260a67.12,67.12,0,0,1-20.49,3.33A12.41,12.41,0,0,1,192,262.82Z"/><path class="cls-7" d="M214.87,242.85q-3.29,2.66-6.76,5.08c3.51.88,10,3.73,9.84,12.84a44.08,44.08,0,0,0,8.48-3.9A19.07,19.07,0,0,1,214.87,242.85Z"/><path class="cls-6" d="M226.95,256a18.62,18.62,0,0,1-11-13.06,1.11,1.11,0,0,0-1.34-1,1.08,1.08,0,0,0-.47.22q-3.19,2.57-6.55,4.92a1,1,0,0,0,.25,1.88,13.26,13.26,0,0,1,5.69,2.91c2.54,2.29,3.43,5.61,3.4,8.94a1,1,0,0,0,1.3,1,47.22,47.22,0,0,0,8.72-4A1,1,0,0,0,226.95,256Zm-11.63-5.29a13.77,13.77,0,0,0-5-3.13q2-1.43,3.89-2.94a20.42,20.42,0,0,0,10,12.3,45,45,0,0,1-5.28,2.38A13.3,13.3,0,0,0,215.31,250.7Z"/><path class="cls-6" d="M214.87,242.85a19.07,19.07,0,0,0,11.56,14c4.1-2.49,8.63-5.35,13.54-8.56a106.25,106.25,0,0,0,10.64-8c-11-3.45-20.08-8.7-20.08-12.69A120.37,120.37,0,0,1,214.87,242.85Z"/><path class="cls-6" d="M250.88,239.37a65.54,65.54,0,0,1-13.35-5.7,22.07,22.07,0,0,1-4.36-3.21,4.49,4.49,0,0,1-1.62-2.79,1,1,0,0,0-1.76-.73,122.73,122.73,0,0,1-15.66,15.18.82.82,0,0,0-.25,1.07,20.77,20.77,0,0,0,3.21,7.51,19.59,19.59,0,0,0,3.53,3.85,16.21,16.21,0,0,0,5.51,3.31c.86.24,2-.86,2.71-1.28l3-1.86q3.4-2.13,6.75-4.31a124,124,0,0,0,12.72-9.33A1,1,0,0,0,250.88,239.37Zm-24.52,16.34A18.55,18.55,0,0,1,216,243.22a122.72,122.72,0,0,0,14-13.48c1.07,2.17,3.5,3.82,5.36,5a57.88,57.88,0,0,0,13.1,6C241.6,246.38,234,251.09,226.36,255.71Z"/><path class="cls-4" d="M240.48,214.26a135.71,135.71,0,0,1-10,13.41c0,4,9.26,12.69,20.08,12.69q2.66-2.26,5.29-4.81a103.58,103.58,0,0,0,8.36-9.2c10-12.45,15.63-30.8,13.34-44C276.27,180.7,266.27,175.42,240.48,214.26Z"/><path class="cls-5" d="M252.1,206.83s-9.6,17.52-6.88,31.39l3.8,3.59,7.75-5.75S247.69,219.73,252.1,206.83Z"/><path class="cls-6" d="M278.73,183a2.27,2.27,0,0,0-.78-1.68,5.17,5.17,0,0,0-2.33-1c-3.32-.56-6.67,1.11-9.38,2.87-6.62,4.3-11.94,10.65-16.76,16.8-3.5,4.47-6.77,9.11-9.91,13.83-2,3-4,5.9-6.18,8.75-1.07,1.41-2.19,2.78-3.33,4.13a2.26,2.26,0,0,0-.33,2.48c1.23,3.91,5.34,6.95,8.71,8.9a26,26,0,0,0,7.7,2.93,23.05,23.05,0,0,0,4.1.46c.79,0,1.13-.33,1.71-.83.74-.64,1.46-1.29,2.19-1.94a90.11,90.11,0,0,0,13.53-15.15,64.45,64.45,0,0,0,11.41-32.8A40.79,40.79,0,0,0,278.73,183Zm-2.89,16.45a66,66,0,0,1-6.22,16.87c-4.71,8.92-11.77,16.5-19.38,23a23.73,23.73,0,0,1-12.85-4.43,20.83,20.83,0,0,1-4.21-3.87,6.68,6.68,0,0,1-1.6-3,143,143,0,0,0,9.78-13.21c6-9,12.47-18.13,20.47-25.55,3.22-3,7.12-6.23,11.47-7l.11,0,.15,0,.43,0a6.71,6.71,0,0,1,.84,0l.23,0,.23,0a4.81,4.81,0,0,1,.62.17l.13,0,.13.07a3.47,3.47,0,0,1,.41.24l0,0,.06.06.14.12s-.16-.07-.11.22A44.54,44.54,0,0,1,275.84,199.4Z"/><path class="cls-11" d="M188.31,261.39c3.9-2.53,8.34-3.9,12.71-5.24a8,8,0,0,1,3.1-.52,2.44,2.44,0,0,1,2.24,1.79,2.94,2.94,0,0,1-1.22,2.67,8.4,8.4,0,0,1-2.78,1.27l-13,4.09a3.76,3.76,0,0,1-2.84.14c-.83-.45.85-3.88,1.79-4.2"/><path class="cls-6" d="M202.68,254.67A46.16,46.16,0,0,0,195,257a36.49,36.49,0,0,0-7.18,3.46c-1.19.53-1.89,2.17-2.3,3.32-.63,1.76.18,2.92,2,3a10,10,0,0,0,3.4-.82l4.33-1.36c2.82-.89,5.67-1.69,8.45-2.69,2-.7,3.9-2.29,3.67-4.57S204.62,254.33,202.68,254.67Zm2.23,4.21a5,5,0,0,1-2.46,1.37c-3.86,1.28-7.75,2.44-11.63,3.67-.94.3-1.87.62-2.83.84l-.46,0-.17-.05.05-.16c.19-.71.69-2,1.42-2.29A42.6,42.6,0,0,1,199,257.86c1.63-.52,3.76-1.57,5.48-1.11C205.54,257,205.48,258.13,204.91,258.88Z"/><path class="cls-11" d="M124.74,221.29s-4-13.07,2.76-9.32c2.69,1.49,10.34,35.84,60.86,48.14,0,0,2.64,4.25-3,5.58C182.43,266.38,142.18,265.67,124.74,221.29Z"/><path class="cls-6" d="M183.45,266.73a61.6,61.6,0,0,1-27.18-7.37,65.29,65.29,0,0,1-17.64-13.62,77,77,0,0,1-14.75-24.11l0-.07c-.39-1.27-2.25-7.75-.45-10.18a2.41,2.41,0,0,1,2-1,5.3,5.3,0,0,1,2.51.79c.72.4,1.25,1.48,2.42,3.85,4.61,9.34,16.87,34.13,58.21,44.2l.36.09.2.32a5,5,0,0,1,.47,4.13c-.57,1.38-1.93,2.33-4,2.83A11.73,11.73,0,0,1,183.45,266.73ZM125.61,221c6.63,16.84,17.23,29.21,31.52,36.75a59.65,59.65,0,0,0,26.32,7.16,9.6,9.6,0,0,0,1.7-.1c1.5-.35,2.42-.94,2.76-1.74a2.85,2.85,0,0,0-.18-2.16c-17.83-4.4-32.42-12.08-43.36-22.81a77.2,77.2,0,0,1-15.65-22.26,18.5,18.5,0,0,0-1.69-3.07,3.53,3.53,0,0,0-1.6-.55.59.59,0,0,0-.54.25C124,213.72,124.75,218.19,125.61,221Z"/><path class="cls-11" d="M135.77,239.78c2.91,3,6,6.94,9,9.93.17.17-4.08,3.37-5.22,5.16-.37-1-5.16-2.72-.84-5.62.23-.15-5.84-7.46-7-8.53C131.71,240.71,134.22,238.19,135.77,239.78Z"/><path class="cls-6" d="M139.51,255.67h-.08a.8.8,0,0,1-.65-.47,5.42,5.42,0,0,0-.64-.55c-.9-.71-2.12-1.69-2.06-3.12a3.45,3.45,0,0,1,1.54-2.48c-1.24-1.69-5.5-6.81-6.46-7.73a.8.8,0,0,1,0-1.15,5.67,5.67,0,0,1,3.4-1.69,2.48,2.48,0,0,1,1.81.77c1.47,1.51,3,3.28,4.51,5s3,3.46,4.45,4.93a.84.84,0,0,1,.23.61c0,.45-.23.64-1.63,1.85a25,25,0,0,0-3.72,3.69A.8.8,0,0,1,139.51,255.67Zm-6.64-14.89c.86.95,2.23,2.57,3.37,3.94,3.29,4,3.27,4.2,3.24,4.58a.83.83,0,0,1-.36.61c-.91.61-1.42,1.2-1.44,1.67,0,.62.83,1.31,1.46,1.81l.31.25a37,37,0,0,1,3.41-3.23l.77-.68c-1.31-1.38-2.67-2.94-4-4.45-1.48-1.7-3-3.46-4.45-4.93a.87.87,0,0,0-.66-.29A3.23,3.23,0,0,0,132.88,240.78Z"/><circle class="cls-11" cx="133.13" cy="254.9" r="6.2" transform="translate(-129.55 137.88) rotate(-38.41)"/><path class="cls-6" d="M133.13,261.9h0a7,7,0,1,1,4.35-1.52A7,7,0,0,1,133.13,261.9Zm0-12.4a5.34,5.34,0,0,0-3.35,1.17,5.4,5.4,0,0,0,3.36,9.63h0a5.34,5.34,0,0,0,3.35-1.17,5.4,5.4,0,0,0-3.36-9.63Z"/><path class="cls-2" d="M140.88,238.23s11.25,15.3,43.37,23.27c0,0,2,.9.85,1.8S152.18,257.38,140.88,238.23Z"/><path class="cls-2" d="M134.43,258.52l.18-7.42a4.8,4.8,0,0,1,2.6,3.59C137.49,257.21,134.43,258.52,134.43,258.52Z"/><path class="cls-8" d="M201.53,228.54c-.1.34.39.51.74.52a23.26,23.26,0,0,0,8.23-.84c2.62-.92,5-3,5.53-5.71a3.91,3.91,0,0,0-.33-2.68,3.68,3.68,0,0,0-4.17-1.41,7.25,7.25,0,0,0-3.66,2.89c-.93,1.28-1.64,2.71-2.58,4a14,14,0,0,1-3.91,3.6"/><path class="cls-8" d="M188,220.19c0,.35.51.39.85.3a23.27,23.27,0,0,0,7.68-3.07c2.26-1.6,4-4.25,3.75-7a3.92,3.92,0,0,0-1.06-2.48,3.68,3.68,0,0,0-4.4-.21,7.25,7.25,0,0,0-2.72,3.79c-.54,1.49-.83,3.06-1.38,4.54a14,14,0,0,1-2.77,4.54"/><path class="cls-8" d="M171.8,209.28c-.32.14-.55-.33-.6-.67a23.22,23.22,0,0,1-.11-8.27c.61-2.71,2.39-5.32,5-6.15a3.91,3.91,0,0,1,2.7,0,3.68,3.68,0,0,1,1.88,4,7.24,7.24,0,0,1-2.45,4c-1.17,1.07-2.5,1.94-3.66,3a14,14,0,0,0-3.13,4.3"/><path class="cls-8" d="M155.08,202.44c-.26.23-.63-.13-.78-.45a23.27,23.27,0,0,1-2.71-7.82c-.27-2.76.59-5.8,2.84-7.42a3.92,3.92,0,0,1,2.57-.83,3.68,3.68,0,0,1,3,3.19,7.24,7.24,0,0,1-1.08,4.54c-.77,1.38-1.76,2.63-2.52,4a13.94,13.94,0,0,0-1.62,5.06"/><path class="cls-7" d="M273.27,225.44s12.83-28.83-12.68-24.54c-20.66,3.47-3.42,39.57,1.2,39.28s29-2,29-2,1.59,4.63,4.48,3.19,2.3-3,.57-8.38-6.92-4.47-7.36-2C288.46,231,286,219.43,273.27,225.44Z"/><path class="cls-11" d="M295.82,233c-.85-2.63-2.55-3.75-4.1-3.92,2.23,6.86-2.1,5.73-2.1,5.73-5.27-3.66-25.26-1-25.26-1-4.57.39-6.34-23.43-6.84-32.05-15.72,6.48-.09,38.69,4.27,38.42,4.62-.29,29-2,29-2s1.59,4.63,4.48,3.19S297.55,238.37,295.82,233Z"/><path class="cls-6" d="M298.15,237.37a24.08,24.08,0,0,0-1.67-5.49,6.33,6.33,0,0,0-3.29-3.45,4.88,4.88,0,0,0-4.39.36,11.61,11.61,0,0,0-2.63-3.72c-3.12-2.91-7.29-2.73-11.06-1.47a42.15,42.15,0,0,0,2-7.42c.87-5.1.74-11.14-3.74-14.55-2.69-2-6.4-2.34-9.65-2.13-3.67.23-7.38,1-10.15,3.6-4.88,4.51-4.34,12.31-3,18.2s3.8,12.41,7.64,17.31c1,1.3,2.25,2.69,4,2.58l9.34-.62,18.58-1.27c.77,1.7,2.07,3.29,4,3.42a4.59,4.59,0,0,0,3.41-1.75A4.33,4.33,0,0,0,298.15,237.37Zm-2.07,2.08a2.62,2.62,0,0,1-2,1.21c-1.18,0-2.09-1.93-2.36-2.71a1,1,0,0,0-1-.76L273,238.41l-10.11.68c-.38,0-.78.08-1.16.07l-.14-.05c.29.1-.16-.1-.25-.16a9.15,9.15,0,0,1-1.64-1.69c-3.79-4.92-6.14-11.31-7.36-17.34-1.14-5.65-1.3-13.25,4.35-16.59a13.79,13.79,0,0,1,5.09-1.57,21,21,0,0,1,6.1-.09,8.35,8.35,0,0,1,6.38,4c2.38,4.29,1.08,10.13-.21,14.54-.35,1.18-.74,2.35-1.18,3.5-.13.33-.26.67-.39,1v0a1,1,0,0,0,.27,1.44.9.9,0,0,0,1.23,0c3.62-1.65,8-2.49,11.12.61a9.09,9.09,0,0,1,2.4,4.41,1,1,0,0,0,2,0c.29-1.35,2.13-1.35,3.13-.87a4.56,4.56,0,0,1,2.13,2.57,35.8,35.8,0,0,1,1.3,4.21A3.45,3.45,0,0,1,296.08,239.45Z"/><path class="cls-6" d="M263.83,235.23a10.66,10.66,0,0,1-.38,4.42.69.69,0,0,0,1.32.37,11.64,11.64,0,0,0,.43-4.78c-.1-.87-1.48-.88-1.37,0Z"/><path class="cls-6" d="M268.44,234.84q0,2.31-.09,4.63a.69.69,0,0,0,1.37,0q0-2.31.09-4.63a.69.69,0,0,0-1.37,0Z"/><path class="cls-6" d="M273.27,234.92q-.06,2.31-.12,4.63a.69.69,0,0,0,1.37,0q.06-2.31.12-4.63a.69.69,0,0,0-1.37,0Z"/><path class="cls-6" d="M278.53,234.24a7.51,7.51,0,0,0-.5,4.63c.18.87,1.5.5,1.32-.36a5.9,5.9,0,0,1,.36-3.58c.35-.8-.83-1.5-1.19-.69Z"/><path class="cls-6" d="M282.58,234.56l-.36,3.65c-.09.88,1.29.87,1.37,0l.36-3.65c.09-.88-1.29-.87-1.37,0Z"/><path class="cls-6" d="M288.22,233.9l-1,4.24c-.2.86,1.12,1.23,1.33.37l1-4.24c.2-.86-1.12-1.23-1.33-.37Z"/><path class="cls-6" d="M251,212.37l4.81-.11a.69.69,0,0,0,0-1.37L251,211a.69.69,0,0,0,0,1.37Z"/><path class="cls-6" d="M251.26,217.91q2.23-.21,4.47-.2a.69.69,0,0,0,0-1.37q-2.24,0-4.47.2c-.87.08-.88,1.46,0,1.38Z"/><path class="cls-6" d="M253,223.07l4-.79c.87-.17.5-1.5-.37-1.33l-4,.79c-.87.17-.5,1.5.37,1.33Z"/><path class="cls-6" d="M254.08,228l4.12-1.25a.69.69,0,0,0-.37-1.32l-4.12,1.25a.69.69,0,0,0,.37,1.32Z"/><path class="cls-6" d="M255.57,231.8l3.55-1.25c.83-.29.47-1.62-.37-1.32l-3.55,1.25c-.83.29-.47,1.62.37,1.32Z"/><path class="cls-6" d="M258.13,235.72l2.56-2c.7-.54-.28-1.51-1-1l-2.56,2c-.7.54.28,1.51,1,1Z"/><path class="cls-7" d="M268,255.81s1.1-5.49,4.63-4.59c1.5.38-.09,4.7-1,5.85"/><path class="cls-6" d="M269,256.08a5.71,5.71,0,0,1,2.07-3.71,1.7,1.7,0,0,1,1.29-.16c-.26-.06-.16-.25-.14.16a3.6,3.6,0,0,1-.09.84,8.4,8.4,0,0,1-1.38,3.33c-.79,1.07,1,2.1,1.78,1,1.5-2,3.34-7.57-.83-7.49-2.7.05-4.23,3.15-4.7,5.44-.27,1.3,1.72,1.85,2,.55Z"/><path class="cls-7" d="M278.78,254.83c-.82-1.32-4.91.44-4.91.44l.07.35c-4.51-1.73-7,.83-7,.83l0,.06a16.45,16.45,0,0,0-3.68-1.19s-10.89-3.5-16.62-9.7c-6-6.53-22.1-6.63-21.24,8.23s25,16.22,37.09,12a23.83,23.83,0,0,0,5-2.31,4.85,4.85,0,0,0,1.2-.09,11,11,0,0,0,7.61-5.92C277.73,256.78,279.34,255.74,278.78,254.83Z"/><path class="cls-11" d="M276.81,254.68c-3.78,5.5-10.52,7.05-10.52,7.05-20.93,6.27-34.9-2.74-41-8.14,0,.18,0,.35,0,.54.86,14.86,25,16.22,37.09,12a23.78,23.78,0,0,0,5-2.31,4.9,4.9,0,0,0,1.2-.09,11,11,0,0,0,7.61-5.92c1.5-.74,3.11-1.79,2.55-2.69C278.46,254.6,277.67,254.55,276.81,254.68Z"/><path class="cls-6" d="M279.67,254.31a.83.83,0,0,0-.48-.47c-1.56-1.2-4.17-.17-5.81.52a8.25,8.25,0,0,0-5.14.1,6.93,6.93,0,0,0-1.65.84c-1.31-.49-2.66-.8-4-1.27-1.59-.57-3.16-1.23-4.69-2a46.25,46.25,0,0,1-6.54-3.71c-1.93-1.32-3.4-3-5.18-4.51-5.07-4.22-13.8-5-18.7-.14-2.9,2.9-3.62,7.42-3.07,11.34a13.53,13.53,0,0,0,5.62,9,25.88,25.88,0,0,0,11.1,4.25,47.12,47.12,0,0,0,12.91.33,42.65,42.65,0,0,0,6.8-1.26,31.6,31.6,0,0,0,4-1.39c.73-.31,1.44-.64,2.14-1a4.87,4.87,0,0,1,1.93-.56,11.5,11.5,0,0,0,7.1-4.6,12.16,12.16,0,0,0,.77-1.15c.37-.61.65-.61,1.34-1a3,3,0,0,0,1.75-2.62A.84.84,0,0,0,279.67,254.31Zm-2.24,1.31a6,6,0,0,1-1,.65c-.51.29-.9.44-1.19,1a11.25,11.25,0,0,1-1.44,2.08,10.19,10.19,0,0,1-2.58,2.11,8.84,8.84,0,0,1-1.83.77c-.73.23-1.51.13-2.22.33a8.42,8.42,0,0,0-1.5.83,21.38,21.38,0,0,1-2,.91,31.56,31.56,0,0,1-3.36,1.15,38.46,38.46,0,0,1-5.76,1.13,45.48,45.48,0,0,1-12.86-.2c-3.84-.63-7.83-1.84-10.92-4.28a11.65,11.65,0,0,1-4.44-9.71c0-3.77,1.65-7.24,5.13-8.94,3-1.44,6.59-1.17,9.62-.12a12.24,12.24,0,0,1,4.1,2.39c.77.69,1.44,1.48,2.21,2.17a31.15,31.15,0,0,0,3.21,2.47,50,50,0,0,0,9.21,4.82q1.31.54,2.66,1c1.29.45,2.62.66,3.88,1.23a1,1,0,0,0,1.41-.37c-.13.26,0,0,.07,0a4.82,4.82,0,0,1,1.17-.62,6.7,6.7,0,0,1,4.66.23.93.93,0,0,0,1.19-.62q.49-.18,1-.33a7.63,7.63,0,0,1,1.29-.28h.48A1.55,1.55,0,0,1,277.42,255.62Z"/><path class="cls-6" d="M234.61,264.42l.81-5.31c.13-.87-1.19-1.24-1.33-.36l-.81,5.3c-.13.87,1.19,1.24,1.33.37Z"/><path class="cls-6" d="M237.89,265.15l.25-4.54c0-.88-1.32-.88-1.37,0q-.13,2.27-.25,4.54c0,.89,1.32.88,1.37,0Z"/><path class="cls-6" d="M242,266.49l.54-5.13c.09-.88-1.28-.87-1.37,0l-.53,5.13c-.09.88,1.28.87,1.37,0Z"/><path class="cls-6" d="M246,267a16.18,16.18,0,0,0,.66-4.11c0-.89-1.34-.88-1.37,0a14.75,14.75,0,0,1-.61,3.74A.69.69,0,0,0,246,267Z"/><path class="cls-6" d="M249.39,267.94a12.48,12.48,0,0,0,1.23-4.84c0-.89-1.33-.88-1.37,0a10.74,10.74,0,0,1-1,4.15c-.38.8.8,1.49,1.19.69Z"/><path class="cls-6" d="M254.25,266.72a18.62,18.62,0,0,0,.6-3.31c.08-.88-1.29-.87-1.37,0a16.55,16.55,0,0,1-.55,2.94.69.69,0,0,0,1.33.37Z"/><path class="cls-6" d="M257.79,266.43a6.43,6.43,0,0,0,1.14-4c0-.88-1.41-.89-1.37,0a5.2,5.2,0,0,1-1,3.28c-.51.73.69,1.42,1.19.69Z"/><path class="cls-6" d="M262.8,265.54l1.2-3.14c.32-.83-1-1.18-1.33-.37l-1.2,3.14c-.32.83,1,1.18,1.32.37Z"/><path class="cls-8" d="M220.41,263.29a17.38,17.38,0,0,1,0-25,18.53,18.53,0,0,1,25.71,0,17.38,17.38,0,0,1,0,25A18.53,18.53,0,0,1,220.41,263.29Z"/><path class="cls-6" d="M233.27,269.39a19.22,19.22,0,0,1-13.5-5.45,18.3,18.3,0,0,1,0-26.36,19.45,19.45,0,0,1,27,0,18.3,18.3,0,0,1,0,26.36A19.22,19.22,0,0,1,233.27,269.39Zm0-35.42a17.41,17.41,0,0,0-12.22,4.93,16.47,16.47,0,0,0,0,23.73,17.62,17.62,0,0,0,24.44,0,16.47,16.47,0,0,0,0-23.73A17.4,17.4,0,0,0,233.27,234Z"/><g class="cls-9"><path class="cls-10" d="M215.32,253.54a17.46,17.46,0,0,0,5.1,9.74,18.53,18.53,0,0,0,25.71,0,17.39,17.39,0,0,0,5.2-14.56C235.64,266.12,220.28,257.25,215.32,253.54Z"/></g><path class="cls-6" d="M229.62,217.22l2.85,5.67c.4.79,1.58.1,1.19-.69l-2.85-5.67c-.4-.79-1.58-.1-1.19.69Z"/><path class="cls-6" d="M233.44,214.74a23.12,23.12,0,0,1,3.08,5.22c.35.81,1.53.11,1.19-.69a24.29,24.29,0,0,0-3.29-5.5c-.55-.7-1.51.28-1,1Z"/><path class="cls-6" d="M236.51,210.49l2.25,4a.69.69,0,0,0,1.19-.69l-2.25-4a.69.69,0,0,0-1.19.69Z"/><path class="cls-6" d="M239.19,206.62l3,4.14c.52.71,1.71,0,1.19-.69l-3-4.14c-.52-.71-1.71,0-1.19.69Z"/><path class="cls-6" d="M242.41,201.89l2.21,4c.43.78,1.61.08,1.19-.69l-2.21-4c-.43-.78-1.61-.08-1.19.69Z"/><path class="cls-6" d="M245.81,198.4a18.52,18.52,0,0,1,2.54,4.3c.34.8,1.67.45,1.32-.37a20.85,20.85,0,0,0-2.9-4.9c-.55-.7-1.51.28-1,1Z"/><path class="cls-6" d="M249.18,193.55l2.59,4.43a.69.69,0,0,0,1.19-.69l-2.59-4.43a.69.69,0,0,0-1.19.69Z"/><path class="cls-6" d="M252.15,189.69l2.59,4.12c.47.75,1.66.06,1.19-.69L253.33,189c-.47-.75-1.66-.06-1.19.69Z"/><path class="cls-6" d="M255.71,185l2.91,5.34c.42.78,1.61.08,1.19-.69l-2.91-5.34c-.42-.78-1.61-.08-1.19.69Z"/><path class="cls-6" d="M260.2,182.55l2.29,4.89c.38.8,1.56.1,1.19-.69l-2.29-4.89c-.37-.8-1.56-.1-1.19.69Z"/><path class="cls-6" d="M264.41,179.48l1.38,4.43c.26.84,1.59.48,1.32-.37l-1.37-4.43c-.26-.84-1.59-.48-1.33.37Z"/><path class="cls-6" d="M268.23,177.65l1.11,4a.69.69,0,0,0,1.32-.36l-1.11-4a.69.69,0,0,0-1.32.37Z"/><path class="cls-6" d="M272.93,176l.61,3.82c.14.87,1.46.5,1.33-.37l-.61-3.82c-.14-.87-1.46-.5-1.32.36Z"/><path class="cls-6" d="M211.34,158.2a18.22,18.22,0,0,0-4.06-6.22.69.69,0,0,0-1,1,16.56,16.56,0,0,1,3.71,5.61c.32.81,1.65.46,1.33-.37Z"/><path class="cls-6" d="M213.51,154.54a16,16,0,0,0-4.07-5.64c-.66-.59-1.63.38-1,1a15.17,15.17,0,0,1,3.85,5.36c.35.81,1.53.11,1.19-.69Z"/><path class="cls-6" d="M216,152.06a18.27,18.27,0,0,0-3.42-4.64.69.69,0,0,0-1,1,17.13,17.13,0,0,1,3.21,4.37c.41.79,1.59.09,1.19-.69Z"/><path class="cls-6" d="M219.09,149.49l-3.84-4.83c-.55-.69-1.52.29-1,1l3.84,4.83c.55.69,1.52-.29,1-1Z"/><path class="cls-6" d="M221.63,147.95a8.68,8.68,0,0,0-3.62-4.19.69.69,0,0,0-.69,1.19,7.15,7.15,0,0,1,3,3.37c.34.8,1.67.45,1.32-.37Z"/><path class="cls-6" d="M208.83,164.3c4-8.61,11.3-15.66,20.44-18.54,1.26-.4.72-2.39-.55-2A36.44,36.44,0,0,0,207,163.26c-.56,1.2,1.22,2.24,1.78,1Z"/><path class="cls-2" d="M118,111.3A43.14,43.14,0,0,1,120.52,97a4.68,4.68,0,0,1,1.06-1.89,14.89,14.89,0,0,0-5.85,1,69.87,69.87,0,0,1-1.32,14.08l.13-.54"/><path class="cls-6" d="M121.58,94.41a16.31,16.31,0,0,0-6,1.05.71.71,0,0,0-.5.66,71.12,71.12,0,0,1-1.29,13.9c-.17.86,1.12,1.23,1.32.36l.13-.54a.7.7,0,0,0,0-.26,73,73,0,0,0,1.2-13,15.22,15.22,0,0,1,3.88-.8,14.57,14.57,0,0,0-.71,1.79,43.2,43.2,0,0,0-1.25,4.55,44,44,0,0,0-1,9.13.69.69,0,0,0,1.37,0,44.33,44.33,0,0,1,.79-7.93c.24-1.27.56-2.52.92-3.75s.72-3,1.68-4A.69.69,0,0,0,121.58,94.41Z"/><path class="cls-2" d="M126.59,91a21.34,21.34,0,0,1,10.05,5.82,9.64,9.64,0,0,1,2.47,4.23c.37,1.61.61,3.76-.59,4.89a30.25,30.25,0,0,0-4.83,10.68l-3.46-1.31c3.31-9.23,6.55-12.43,3.62-16.07A15.9,15.9,0,0,0,124,93.67a2.92,2.92,0,0,0-2.4,1.42,17.46,17.46,0,0,0-5.85,1S119.13,88.87,126.59,91Z"/><path class="cls-6" d="M139.77,100.84c-.59-2.7-2.81-5-4.94-6.62a24.33,24.33,0,0,0-8.06-3.91,10,10,0,0,0-11.63,5.47c-.23.48.16,1.25.78,1a16,16,0,0,1,4.88-1,4.82,4.82,0,0,0,1,0c.34-.09.5-.47.72-.71a2.18,2.18,0,0,1,1-.61,3.29,3.29,0,0,1,1.72.19,15.78,15.78,0,0,1,2.91,1,15,15,0,0,1,4.78,3.51c1.69,1.83,1.58,3.7.78,5.93-1.21,3.4-2.88,6.62-4.11,10a.69.69,0,0,0,.48.84l3.46,1.31a.69.69,0,0,0,.84-.48A30.74,30.74,0,0,1,138,107.9c.67-1.11,1.63-2,1.95-3.31A8.43,8.43,0,0,0,139.77,100.84Zm-1.48,4.29c-.68,1.17-1.58,2.24-2.25,3.43a30.63,30.63,0,0,0-2.82,7.13l-2.11-.8c1.14-3,2.53-6,3.72-9,.75-1.92,1.21-3.91.35-5.87-1.2-2.72-4.42-4.75-7-5.88-2.38-1-5.09-1.94-6.91.26a17.2,17.2,0,0,0-4,.51,8.53,8.53,0,0,1,9.16-3.3c4.93,1.43,11.07,4.64,12.16,10.16A4.82,4.82,0,0,1,138.29,105.13Z"/><path class="cls-2" d="M133.58,117.05q-4.44-2.18-9-4.14a26.7,26.7,0,0,0-5-1.76,28.56,28.56,0,0,0-6.54-.38,60.78,60.78,0,0,0-11.48.94,20.38,20.38,0,0,0-10.19,5.07,3.31,3.31,0,0,0-1.27,2.71,3.64,3.64,0,0,0,.55,1.22l3.5,5.81a14.69,14.69,0,0,0,2.54,3.41c2.92,2.65,7.39,2.53,11.25,1.73s7.79-2.14,11.66-1.39c2.4.47,4.58,1.71,6.94,2.31s5.24.36,6.74-1.56a7.13,7.13,0,0,0,1.1-2.43c1.14-4,1.19-8.49-1.14-11.88"/><path class="cls-6" d="M134.26,117a.55.55,0,0,0-.29-.5l-.08-.15a.67.67,0,0,0-.77-.28c-3-1.45-6-2.86-9.07-4.15A24.14,24.14,0,0,0,114,110.06c-6.69.08-13.7.23-19.66,3.66-1.79,1-5.49,3.41-4.82,5.95a16.92,16.92,0,0,0,2.25,4.09c1,1.58,1.87,3.2,2.91,4.74,3.5,5.21,9.78,4.69,15.18,3.44,4.09-.95,7.89-1.78,12-.34,3.1,1.09,6.08,2.59,9.43,1.61s4-4.4,4.47-7.32A14,14,0,0,0,134.26,117Zm0,9.27a9.47,9.47,0,0,1-1.62,4.51,5.11,5.11,0,0,1-4.13,1.4c-3.31-.08-6.24-2.25-9.51-2.7s-6.72.5-9.95,1.24c-2.95.68-6,1.13-9,.29-3.44-1-5-4.33-6.68-7.16L92,121.53a6.11,6.11,0,0,1-1.18-2.37c-.12-1.53,2.5-3.15,3.56-3.85a23.26,23.26,0,0,1,9.16-3.24,57.06,57.06,0,0,1,7.78-.56,40.17,40.17,0,0,1,7.7.23,29.7,29.7,0,0,1,6.89,2.5c2.38,1.05,4.73,2.16,7.07,3.3A13,13,0,0,1,134.27,126.26Z"/><path class="cls-8" d="M124.44,122.76c1.34-1.65,4.13-1.19,5.85.11a9.39,9.39,0,0,1,2.66,11A9.14,9.14,0,0,1,127.4,139a7.54,7.54,0,0,1-7.33-1.62,1.17,1.17,0,0,0-.67-.42c-.34,0-.61.27-.87.48a2.93,2.93,0,0,1-3.47-.17,5.92,5.92,0,0,1-1.9-3.11,13.48,13.48,0,0,1,1.67-11.21c1.29-1.94,3.54-3.67,5.86-3.13a6.57,6.57,0,0,1,3.51,2.71,5.71,5.71,0,0,1,.22-3.39,2.08,2.08,0,0,1,2.92-.93,6.08,6.08,0,0,0-2.54,4.17"/><path class="cls-6" d="M131.49,123a6.42,6.42,0,0,0-5.62-1.86,5.47,5.47,0,0,1,1.8-2.34.7.7,0,0,0,0-1.19,2.72,2.72,0,0,0-3.42.56,3.36,3.36,0,0,0-.89,2.45,5.07,5.07,0,0,0-5.56-1.16c-2.63,1.07-4.23,3.79-5.14,6.34a14.07,14.07,0,0,0-.08,8.85c.75,2.36,2.65,4.39,5.31,3.85.33-.07,1.4-.91,1.68-.64A7.79,7.79,0,0,0,125,140a9,9,0,0,0,7-3.36A10.24,10.24,0,0,0,131.49,123Zm-9.72,14.79c-.74-.39-1.46-1.52-2.37-1.52a1.69,1.69,0,0,0-1.09.46,2.14,2.14,0,0,1-2.37.27c-2.43-1-2.71-5.1-2.62-7.32a11.86,11.86,0,0,1,3.14-7.63,4.61,4.61,0,0,1,4.06-1.57c1.38.25,2.4,1.49,3.21,2.53a.6.6,0,0,0,.24.19.61.61,0,0,0,1,0c1.74-1.93,4.63-.34,6,1.17a8.73,8.73,0,0,1,2,6.45C132.68,136.26,126.79,140.44,121.77,137.79Z"/><path class="cls-6" d="M123.44,122.68a2.74,2.74,0,0,0,2.93,1.18c.86-.2.5-1.52-.37-1.32a1.32,1.32,0,0,1-1.38-.55c-.49-.73-1.68,0-1.19.69Z"/><path class="cls-8" d="M108.29,108.39c.68-2,3.38-2.45,5.38-1.84a9.13,9.13,0,0,1,6.08,9.19,8.9,8.9,0,0,1-3.38,6.51,7.34,7.34,0,0,1-7.24,1,1.13,1.13,0,0,0-.75-.16c-.32.09-.46.45-.64.73a2.85,2.85,0,0,1-3.24,1,5.75,5.75,0,0,1-2.77-2.21,13.1,13.1,0,0,1-2.18-10.8c.54-2.21,2-4.52,4.32-4.81a6.4,6.4,0,0,1,4.11,1.32,5.55,5.55,0,0,1-.92-3.17c.14-1.11,1.28-2.18,2.36-1.82a5.91,5.91,0,0,0-.94,4.65"/><path class="cls-6" d="M113.57,105.81a5.53,5.53,0,0,0-4.52.65,5.6,5.6,0,0,1,1-2.85.69.69,0,0,0-.41-1,2.65,2.65,0,0,0-3,1.54,3.3,3.3,0,0,0-.06,2.62,5,5,0,0,0-5.59.91c-1.95,1.81-2.49,4.81-2.48,7.34a13.69,13.69,0,0,0,2.86,8.16c1.39,1.81,4.13,3.41,6.25,1.72.36-.29.81-1.24,1.33-1a7.42,7.42,0,0,0,1.83.51,8.37,8.37,0,0,0,4.27-.59,9,9,0,0,0,5-5.84A9.85,9.85,0,0,0,113.57,105.81Zm-3.28,17.07c-.77-.18-1.9-1-2.61-.22-.3.33-.49.74-.8,1.07a2.24,2.24,0,0,1-1.9.44c-2.63-.41-4.17-4.22-4.74-6.43a11.25,11.25,0,0,1,.56-7.43,5.14,5.14,0,0,1,2.25-2.43c1.53-.8,3.3.16,4.59,1a.66.66,0,0,0,.27.09.75.75,0,0,0,1-.37c.92-2.27,4.19-1.67,5.85-.8a8.53,8.53,0,0,1,4.08,5.6C120.13,118.51,115.75,124.16,110.29,122.88Z"/><path class="cls-6" d="M107.9,107.77a1.52,1.52,0,0,1-1.69.42c-.84-.29-1.2,1-.37,1.32a2.87,2.87,0,0,0,3-.78c.6-.65-.37-1.63-1-1Z"/><path class="cls-8" d="M100.83,122.61c.82-2.36,4.08-3,6.5-2.22,4.64,1.43,7.65,6.34,7.35,11.1a10.75,10.75,0,0,1-4.08,7.86,8.87,8.87,0,0,1-8.75,1.15,1.36,1.36,0,0,0-.91-.2c-.39.11-.56.54-.77.88a3.45,3.45,0,0,1-3.91,1.2,7,7,0,0,1-3.34-2.67,15.84,15.84,0,0,1-2.64-13c.65-2.67,1.68-5.12,4.68-5.9,1.73-.45,4,.72,5.5,1.68a6.7,6.7,0,0,1-1.12-3.83c.17-1.34,1.55-2.63,2.85-2.19a7.14,7.14,0,0,0-1.13,5.62"/><path class="cls-6" d="M115,127.84a11.52,11.52,0,0,0-6.57-7.79c-2.15-.87-5-.94-6.82.46a6.8,6.8,0,0,1,1.19-3.75.69.69,0,0,0-.41-1,3.05,3.05,0,0,0-3.47,1.9,4.12,4.12,0,0,0,.06,3.18,6.27,6.27,0,0,0-5.57-.21c-2.16,1-3.14,3.4-3.71,5.56a16.73,16.73,0,0,0,.12,8.74c.72,2.63,2.25,5.6,4.52,7.22,1.8,1.29,4.82,1.73,6.28-.37.54-.78.92-.64,1.72-.35a8.61,8.61,0,0,0,1.9.4,9.51,9.51,0,0,0,4.38-.6C113.92,139.28,116.3,133.06,115,127.84Zm-14-10.57a7.94,7.94,0,0,0-.7,3A4.82,4.82,0,0,1,100,119,2,2,0,0,1,101,117.27Zm3.28,23.18a7.47,7.47,0,0,1-2.32-.67,1.56,1.56,0,0,0-1.31-.07,2.56,2.56,0,0,0-1,1.13,2.51,2.51,0,0,1-2.15,1c-3.24.14-5.37-4.44-6.19-7a15.39,15.39,0,0,1,0-9.23c.86-2.85,3.06-5,6.19-4a11.82,11.82,0,0,1,2.67,1.36.65.65,0,0,0,.27.1.75.75,0,0,0,1.11-.34c1.07-2.7,4.92-2.21,7-1.21a10.32,10.32,0,0,1,5.12,6.32C115.48,134,110.92,141,104.23,140.45Z"/><path class="cls-6" d="M139.29,160.49c-6.82,4.72-14.07,8.8-20.9,13.52-3.15-8.24-2.25-16.71-1.73-25.52q.5-8.49,1-17a1.37,1.37,0,0,1,.22-.81,1.18,1.18,0,0,1,.77-.34c2.79-.4,5.22,1.88,8,2.53a7.22,7.22,0,0,0,6.51-1.76c1.7-1.61,2-6.78,1.61-9.08-.49-2.67.46-2.09-1.24-5.15a5.25,5.25,0,0,1,3.52,3.22,15,15,0,0,1,.9,4.86c.84,11.83,1.83,23.68,1.35,35.53"/><path class="cls-6" d="M140,160.49a240,240,0,0,0-.61-25.06c-.27-4-.47-8.1-.88-12.12-.31-3-1.57-6.27-4.79-7.08a.69.69,0,0,0-.78,1,5.8,5.8,0,0,1,1,2.75c0,1,.17,1.94.27,2.92a13.34,13.34,0,0,1-1,7,5.19,5.19,0,0,1-3.26,2.23,7.12,7.12,0,0,1-5-.58,39.42,39.42,0,0,0-3.75-1.65c-1-.32-2.7-.61-3.59.11s-.71,2.58-.77,3.7l-.34,5.81c-.22,3.69-.43,7.38-.66,11.06-.43,6.81-.85,13.7.85,20.38a31.31,31.31,0,0,0,1,3.2.69.69,0,0,0,1,.41c6.83-4.71,14.06-8.81,20.9-13.52a.64.64,0,0,0,.08-.08.62.62,0,0,0,.09-.1l0-.06A.66.66,0,0,0,140,160.49Zm-22.91-7.34c.21-3.64.44-7.28.66-10.92q.16-2.68.32-5.36.08-1.34.16-2.68c0-.46-.12-2.92.36-3.11,1.34-.54,3.24.49,4.41,1.05a15,15,0,0,0,4.17,1.54c2.35.36,5.41-.5,6.87-2.5,1.29-1.77,1.51-4.28,1.59-6.4a14.55,14.55,0,0,0-.18-2.91c-.15-.89,0-1.78-.19-2.66a4.74,4.74,0,0,0-.22-.81c2.11,1.75,2.16,5.38,2.35,7.94.27,3.79.55,7.58.79,11.38.47,7.46.74,14.94.47,22.41-6.5,4.46-13.35,8.39-19.86,12.82C116.58,166.55,116.67,159.82,117.06,153.15Z"/><path class="cls-6" d="M118.28,130.67c-5.49-.39-10.91,3-16.29,1.86a13.19,13.19,0,0,1-7.54-5.39,39.22,39.22,0,0,1-4.25-8.45q-2.4,15.15-4,30.42c-.09.87-1.25,9.73-1,10.56.22.66,20.16,10.66,31.81,14.3.43.14,2.79.49,1.32-2.48-2-3.92-1.75-8.53-1.51-12.9l1.55-28.18"/><path class="cls-6" d="M119.21,171.65a22.59,22.59,0,0,1-1.54-4.84c-.57-3.44-.17-7,0-10.48l1.25-22.73.17-3.18a.67.67,0,0,0-1.18-.44c-5.54-.15-10.92,3.24-16.43,1.71-5.87-1.63-8.57-8.1-10.63-13.19-.22-.55-1.21-.75-1.32,0-1.9,12-3.34,24.15-4.66,36.27a27.6,27.6,0,0,0-.34,4.71c0,.77.69,1.06,1.29,1.41,3,1.76,6.15,3.24,9.28,4.72,4.56,2.17,9.17,4.23,13.85,6.12,2.21.89,4.45,1.74,6.71,2.5,1.05.35,2.82,1,3.61-.21A2.58,2.58,0,0,0,119.21,171.65Zm-5,.65c-2.33-.83-4.63-1.75-6.92-2.7-4.64-1.93-9.22-4-13.74-6.23-2.49-1.22-5-2.41-7.41-3.87l-.26-.19a.79.79,0,0,1,0-.13c0-.29,0-.59,0-.88.1-1.75.31-3.5.51-5.24,1.23-10.63,2.46-21.26,4.07-31.84,2,4.71,4.66,9.51,9.63,11.46,5.89,2.3,11.61-1.39,17.54-1.32l-1.2,21.79c-.2,3.55-.51,7.12-.44,10.67a24.49,24.49,0,0,0,.51,4.52c.33,1.59,1.22,3,1.6,4.53C118.46,174.09,114.64,172.44,114.25,172.3Z"/><path class="cls-2" d="M107.4,138.9c-4.59-6.72-3.91-16.44-9.72-22.13a25.8,25.8,0,0,0-5.32-3.69c-2.62-1.51-6-3-8.46-1.27l7.41,3.57c2,1,4.18,2.05,5.44,3.94a11.75,11.75,0,0,1,1.49,4.13,73.93,73.93,0,0,1,1.46,10.38,4.58,4.58,0,0,0,.59,2.37,4.49,4.49,0,0,0,2.89,1.43c1.43.3,2.65.94,4.08,1.25"/><path class="cls-6" d="M108,138.55c-3.74-5.61-3.92-12.69-7.07-18.57-1.71-3.2-4.44-5.29-7.52-7.09-2.87-1.68-6.66-3.72-9.86-1.68a.69.69,0,0,0,0,1.19c3.22,1.55,6.55,3,9.66,4.73a8.26,8.26,0,0,1,3.34,3.22A18.46,18.46,0,0,1,98,125.77c.33,1.8.59,3.62.78,5.44.16,1.5,0,3.3.59,4.71a4,4,0,0,0,3,2.22c1.58.43,3.14,1,4.74,1.4.86.2,1.23-1.12.37-1.33-1.5-.35-2.9-1-4.41-1.32A4.18,4.18,0,0,1,101,136c-.64-.6-.57-1.79-.63-2.58a74.53,74.53,0,0,0-1.53-10.52,9.88,9.88,0,0,0-4.91-6.92c-3.06-1.81-6.45-3.18-9.66-4.73v1.19c3.14-2,7.2.87,9.87,2.51a16.06,16.06,0,0,1,6.47,7.48c2.44,5.5,2.83,11.75,6.23,16.85.49.73,1.68,0,1.19-.69Z"/><path class="cls-2" d="M84,112.48a19.44,19.44,0,0,1,6.15,18.32c-.24,1.13.24,3.59,2.77,2.62.8-.3.66-1.56.72-2.41a26.1,26.1,0,0,0-2.09-11.47,16.59,16.59,0,0,0-2.61-4.68,7.64,7.64,0,0,0-4.51-2.72"/><path class="cls-6" d="M83.5,113a18.76,18.76,0,0,1,6.22,16.14,16.23,16.23,0,0,0-.32,2.53,2.63,2.63,0,0,0,2.4,2.69c2.18.18,2.42-1.66,2.51-3.32a26,26,0,0,0-1-8.47c-1.26-4.47-3.57-10.1-8.7-11.06-.87-.16-1.24,1.16-.37,1.32,4.8.89,6.7,6.39,7.86,10.51a23.24,23.24,0,0,1,.88,7.28c0,.84.18,2.1-.83,2.35-.8.2-1.18-.44-1.33-1.1A4.93,4.93,0,0,1,91,130a19.56,19.56,0,0,0,.23-2.91,20.23,20.23,0,0,0-.79-5.6A19.87,19.87,0,0,0,84.47,112c-.66-.59-1.64.38-1,1Z"/><path class="cls-13" d="M88.15,139.63a35.21,35.21,0,0,0,5.23,1.8l-.28,1.86A35.45,35.45,0,0,1,89.57,142l-.39,2.74c1.17.55,1.76.8,3,1.26l-.28,1.86c-1.19-.5-1.78-.77-2.94-1.36l-.61,4.25c-.64-.39-1-.59-1.58-1Z"/><path class="cls-13" d="M97.72,155.13c-.39-2.12-.6-3.16-1-5.19l-1.2-.37-.71,4.49c-.67-.27-1-.42-1.67-.72l1.79-11.51c1.23.29,1.85.41,3.1.61,1.88.3,3.24,1.34,2.75,4.27-.32,1.92-1.19,3-2.29,3.3.49,2.24.72,3.38,1.18,5.71C98.87,155.49,98.49,155.38,97.72,155.13Zm-1.92-7.44,1.13.31c1.12.29,1.85-.26,2.07-1.58a1.58,1.58,0,0,0-1.48-2.11l-1.15-.24Z"/><path class="cls-13" d="M103.2,142.94a38.17,38.17,0,0,0,5.66-.12l-.42,2.36a37.82,37.82,0,0,1-3.79,0l-.54,3.11c1.27.1,1.91.13,3.18.13l-.42,2.36c-1.26,0-1.9-.1-3.15-.24l-.62,3.6a35.52,35.52,0,0,0,3.79.46l-.42,2.38a36,36,0,0,1-5.5-1Z"/><path class="cls-13" d="M110.88,142.6a39.58,39.58,0,0,0,5.7-1.09l-.48,2.61a38.46,38.46,0,0,1-3.8.69l-.63,3.46c1.28-.12,1.92-.2,3.2-.42l-.48,2.61c-1.26.17-1.9.23-3.17.31l-.73,4a35.11,35.11,0,0,0,3.8-.2l-.49,2.63a34.56,34.56,0,0,1-5.53,0Z"/><path class="cls-2" d="M56,116.59A53.17,53.17,0,0,0,55,98.7a5.76,5.76,0,0,0-1-2.47,18.36,18.36,0,0,1,7,2.09,86.23,86.23,0,0,0-.39,17.43l-.08-.68"/><path class="cls-6" d="M61.66,98.32a.66.66,0,0,0-.34-.59A20.09,20.09,0,0,0,54,95.54a.69.69,0,0,0-.59,1,9.65,9.65,0,0,1,1.32,4,51.35,51.35,0,0,1,.78,5.47,53.13,53.13,0,0,1-.12,10.52c-.09.88,1.28.87,1.37,0a55.24,55.24,0,0,0,.09-11c-.17-1.81-.44-3.61-.79-5.4a16.64,16.64,0,0,0-.79-3.13,18.29,18.29,0,0,1,5,1.64,88.24,88.24,0,0,0-.4,16,.65.65,0,0,0,0,.29l.08.68c.1.86,1.44.89,1.37,0A88.34,88.34,0,0,1,61.66,98.32Z"/><path class="cls-2" d="M48.42,90.46a26.31,26.31,0,0,0-13.14,5.7A11.88,11.88,0,0,0,31.65,101c-.68,1.92-1.29,4.52,0,6.07a37.29,37.29,0,0,1,4.39,13.77l4.42-1.11c-2.74-11.78-6.25-16.16-2.14-20.2a19.61,19.61,0,0,1,12.88-5.38A3.59,3.59,0,0,1,54,96.23a21.52,21.52,0,0,1,7,2.09S57.85,88.95,48.42,90.46Z"/><path class="cls-6" d="M61.64,98.14a14.12,14.12,0,0,0-3.05-4.95A11.43,11.43,0,0,0,48.23,89.8,29.91,29.91,0,0,0,38,93.35c-2.78,1.61-5.73,4-6.9,7.12a12,12,0,0,0-.9,4.33c0,1.66,1.09,3,1.79,4.4a36.35,36.35,0,0,1,3.37,11.63.7.7,0,0,0,.87.66l4.42-1.11a.7.7,0,0,0,.48-.85c-1-4.24-2.46-8.33-3.53-12.55-.71-2.79-.69-5.16,1.48-7.24a18,18,0,0,1,6.41-3.83,20.5,20.5,0,0,1,3.65-.9,5.75,5.75,0,0,1,2.39-.1,2.93,2.93,0,0,1,1,.57c.42.34.54.86.9,1.22s.77.24,1.1.29a19.36,19.36,0,0,1,6,1.91A.69.69,0,0,0,61.64,98.14ZM54.39,95.6c-1.84-3.08-5.58-2.11-8.53-1.24-3.41,1-7.44,3.14-9.29,6.32-1.23,2.12-.79,4.67-.22,6.91,1,3.91,2.32,7.72,3.29,11.63l-3,.76a39.11,39.11,0,0,0-2.38-9.1,19,19,0,0,0-2.16-4.42c-1-1.29-.4-3.33,0-4.71,1-3.23,3.8-5.54,6.6-7.23a27.84,27.84,0,0,1,9.89-3.41,10.1,10.1,0,0,1,9.28,3.33,13.12,13.12,0,0,1,1.72,2.48A21.17,21.17,0,0,0,54.39,95.6Z"/><path class="cls-2" d="M36.14,121.41q5.74-2,11.57-3.8a33,33,0,0,1,6.35-1.45,35.16,35.16,0,0,1,8.06.47A75,75,0,0,1,76,119.43a25.13,25.13,0,0,1,11.75,7.66c.8,1,1.53,2.27,1.17,3.5a4.48,4.48,0,0,1-.84,1.42L83,138.62a18.13,18.13,0,0,1-3.59,3.81c-4,2.83-9.41,2-14,.51s-9.23-3.73-14.08-3.36c-3,.23-5.85,1.44-8.83,1.84s-6.47-.3-8-2.88a8.78,8.78,0,0,1-1-3.14c-.84-5-.24-10.57,3.09-14.39"/><path class="cls-6" d="M88.29,126.6c-3.49-4.27-8.49-6.82-13.7-8.35a67.2,67.2,0,0,0-9.29-1.87,62.67,62.67,0,0,0-9.89-1c-3.3,0-6.48,1.11-9.6,2.08s-6,1.92-8.94,3a.56.56,0,0,0-.81.09l-.24.31a.65.65,0,0,0-.28.36c-3.27,4.37-3.69,10.26-2.53,15.48a6.79,6.79,0,0,0,4.9,5.13c2.76.86,5.67.21,8.38-.49a31.58,31.58,0,0,1,5-1,17.13,17.13,0,0,1,5.54.55c3.33.8,6.45,2.25,9.73,3.21a19.69,19.69,0,0,0,8.54.81,11.67,11.67,0,0,0,7.21-4.26c2-2.37,3.85-4.93,5.75-7.39.67-.86,1.6-1.81,1.66-3A5.35,5.35,0,0,0,88.29,126.6Zm-.55,4.79c-1.14,1.59-2.4,3.1-3.6,4.65-2,2.59-3.89,5.6-7.05,6.87-2.87,1.15-6.16.77-9.09.07-4.49-1.08-8.61-3.3-13.21-4a17.78,17.78,0,0,0-6.48.35,45,45,0,0,1-6.76,1.44,8.33,8.33,0,0,1-5.31-1.32c-1.84-1.27-2.12-3.82-2.33-5.86-.42-4.06.26-8.41,2.79-11.7q5.14-1.81,10.34-3.41a29.68,29.68,0,0,1,11.07-1.68,100.72,100.72,0,0,1,11.09,1.55,41.75,41.75,0,0,1,9.91,3,23.39,23.39,0,0,1,7.51,5.37C87.86,128.11,89,129.66,87.74,131.4Z"/><path class="cls-8" d="M44.06,126.29c-1.65-2.6-5.74-2.4-8.43-.82-5.16,3-7.38,9.78-5.67,15.4a13.25,13.25,0,0,0,7.12,8.28,10.93,10.93,0,0,0,10.83-1.1,1.7,1.7,0,0,1,1-.49c.5,0,.83.49,1.17.84a4.25,4.25,0,0,0,5,.33,8.58,8.58,0,0,0,3.25-4.16,19.53,19.53,0,0,0-.53-16.41c-1.54-3-4.47-5.87-7.91-5.49-2.19.24-4,1.74-5.51,3.31.42-1.61.84-3.35.26-4.91s-2.6-2.72-4-1.83a8.81,8.81,0,0,1,3,6.43"/><path class="cls-6" d="M59.17,129.38c-1.21-3-3.29-5.82-6.41-7-2.64-1-5.14.06-7.2,1.7a5.22,5.22,0,0,0-.8-4.23,3.57,3.57,0,0,0-4.45-1.15.69.69,0,0,0-.14,1.08,8.4,8.4,0,0,1,2.57,4.48c-3.26-1.73-7.9.41-10.3,2.94a14.62,14.62,0,0,0-3.05,14.21,13.28,13.28,0,0,0,12.06,9.4,11.63,11.63,0,0,0,3.92-.61,10.91,10.91,0,0,0,1.73-.76c.48-.25,1.57-1.42,2.1-1A5,5,0,0,0,52,150a5.67,5.67,0,0,0,3.75-.9c2.81-1.78,4-5.72,4.56-8.8A20.29,20.29,0,0,0,59.17,129.38ZM44,121.15a4.64,4.64,0,0,1,.16,3.17A9.67,9.67,0,0,0,42,119.65,2.8,2.8,0,0,1,44,121.15Zm14.62,20.69c-.76,2.92-2.44,6.76-5.95,6.86a3,3,0,0,1-2.08-.79c-.35-.32-.69-.84-1.2-1-1.3-.29-2.22.84-3.29,1.41a10.42,10.42,0,0,1-9,0c-5.43-2.48-7.94-8.9-6.68-14.53a12.37,12.37,0,0,1,5-7.49c2.21-1.51,6.25-2.36,8,.24a.73.73,0,0,0,1.18,0,.64.64,0,0,0,.29-.17c2.35-2.41,5.24-4.15,8.5-2.3,2.78,1.57,4.32,4.83,5.16,7.77A19,19,0,0,1,58.62,141.84Z"/><path class="cls-6" d="M44.22,125.26a2.28,2.28,0,0,1-2.58.71c-.84-.29-1.2,1-.37,1.33a3.62,3.62,0,0,0,3.92-1.06c.57-.67-.4-1.65-1-1Z"/><path class="cls-8" d="M72.85,113.28c-.58-2.64-4-3.7-6.72-3.21-5.17,1-9,5.87-9.3,11a11.64,11.64,0,0,0,3.4,9,9.61,9.61,0,0,0,9.27,2.34,1.48,1.48,0,0,1,1-.1c.4.17.54.65.72,1a3.73,3.73,0,0,0,4.06,1.78,7.54,7.54,0,0,0,3.93-2.46A17.15,17.15,0,0,0,83.69,119c-.37-2.95-1.94-6.19-4.89-6.9a8.37,8.37,0,0,0-5.54,1.09,7.27,7.27,0,0,0,1.68-4c0-1.47-1.34-3-2.8-2.72a7.74,7.74,0,0,1,.51,6.19"/><path class="cls-6" d="M84,116.93a8.24,8.24,0,0,0-3.68-5,6.48,6.48,0,0,0-5.36-.17,5.19,5.19,0,0,0,.6-3.37,3.23,3.23,0,0,0-3.38-2.6.7.7,0,0,0-.59,1,7.23,7.23,0,0,1,.76,4.25,6.61,6.61,0,0,0-3.68-1.69,10,10,0,0,0-7,1.88,13,13,0,0,0-5.07,13.89A10.85,10.85,0,0,0,69,133.25c.82-.17,1.21-.46,1.61.45a3.4,3.4,0,0,0,1,1.24,4.74,4.74,0,0,0,3.33.92c2.78-.21,4.93-2.71,6.42-4.83A17.26,17.26,0,0,0,84,116.93Zm-1.23,7.62a16.3,16.3,0,0,1-4.52,8.15A5.26,5.26,0,0,1,74,134.47a3.13,3.13,0,0,1-1.77-.89c-.46-.44-.58-1.14-1-1.63-.77-.91-2.46,0-3.38.1a8.89,8.89,0,0,1-4.69-.83,10.08,10.08,0,0,1-5.4-7.17A11.37,11.37,0,0,1,66,110.8c2.24-.53,5.53.13,6.2,2.66a.67.67,0,0,0,1.08.34.7.7,0,0,0,.34-.06,7.56,7.56,0,0,1,5.31-.94A5.45,5.45,0,0,1,82,115.69C83.42,118.33,83.34,121.71,82.73,124.55Z"/><path class="cls-6" d="M72.14,113.43a3.58,3.58,0,0,0,3.75,1.45c.87-.19.5-1.52-.37-1.32a2.15,2.15,0,0,1-2.2-.82c-.51-.71-1.7,0-1.19.69Z"/><path class="cls-8" d="M53.47,125.2c-1.77-1.27-4.41-.06-5.77,1.69a9.64,9.64,0,0,0,.35,11.63,9.39,9.39,0,0,0,6.88,3.56,7.75,7.75,0,0,0,6.83-3.59,1.2,1.2,0,0,1,.55-.6c.33-.12.67.1,1,.24A3,3,0,0,0,66.7,137a6.07,6.07,0,0,0,1-3.6A13.85,13.85,0,0,0,63,122.77c-1.81-1.57-4.5-2.68-6.66-1.52a6.75,6.75,0,0,0-2.74,3.64,5.85,5.85,0,0,0-1.13-3.3c-.8-.87-2.43-1.1-3.14-.13A6.25,6.25,0,0,1,53,124.91"/><path class="cls-6" d="M61.35,120.83a5.24,5.24,0,0,0-7.43,2,4.16,4.16,0,0,0-1.47-2.18,2.74,2.74,0,0,0-3.56.33.7.7,0,0,0,.3,1.15A5.66,5.66,0,0,1,51.66,124a6.27,6.27,0,0,0-4.23,2.16,9.56,9.56,0,0,0-2.13,7.25c.49,5.41,5.46,10,11,9.29a8.94,8.94,0,0,0,3.5-1.25,8.26,8.26,0,0,0,1.45-1.15c.36-.35,1.13-1.84,1.73-1.57,2.49,1.15,4.67-1.19,5.25-3.4C69.59,130,66.18,123.25,61.35,120.83Zm5.14,15.26a2.87,2.87,0,0,1-1.52,1.4,2.84,2.84,0,0,1-2.14-.27c-1.09-.36-1.62,1-2.13,1.62-3.67,4.73-10.7,2.3-13.12-2.31a9.22,9.22,0,0,1-.47-7.14c.74-2.21,3.51-5.19,6-3.59a.64.64,0,0,0,1-.42.82.82,0,0,0,.21-.29A6.67,6.67,0,0,1,56.45,122a4.29,4.29,0,0,1,4.2,0,11.58,11.58,0,0,1,5.47,6.25C67.06,130.57,67.61,133.76,66.48,136.09Z"/><path class="cls-6" d="M53.12,125.8a3,3,0,0,0,3.18-1.24c.52-.72-.68-1.41-1.19-.69a1.6,1.6,0,0,1-1.63.6c-.86-.19-1.23,1.13-.37,1.33Z"/><path class="cls-8" d="M75.45,132.88c-.66-3-4.58-4.21-7.65-3.65-5.89,1.08-10.27,6.68-10.58,12.55A13.25,13.25,0,0,0,61.09,152a10.93,10.93,0,0,0,10.55,2.66,1.69,1.69,0,0,1,1.14-.11c.46.19.61.74.82,1.19a4.25,4.25,0,0,0,4.62,2A8.58,8.58,0,0,0,82.7,155a19.53,19.53,0,0,0,5.09-15.61c-.42-3.36-1.32-6.51-4.89-7.89-2.05-.8-5,.31-7,1.28.95-1.37,1.93-2.86,1.92-4.53s-1.52-3.44-3.18-3.1a8.81,8.81,0,0,1,.59,7"/><path class="cls-6" d="M76.11,132.7c-1.31-5.07-8-4.82-11.7-3a14.6,14.6,0,0,0-7.89,12.47,13.23,13.23,0,0,0,8.52,13,11.52,11.52,0,0,0,3.91.63,10.79,10.79,0,0,0,1.88-.21,8.92,8.92,0,0,0,1-.26c.71-.21.94.19,1.18.76,1,2.28,4,2.78,6.09,2.16,3.31-1,5.79-4.47,7.29-7.36a20.26,20.26,0,0,0,2.17-10.82c-.23-3-1-6.25-3.47-8.18-2.95-2.29-6.44-1.24-9.5.25l.94.94c1.17-1.71,2.27-3.54,1.91-5.68a3.6,3.6,0,0,0-3.77-3,.7.7,0,0,0-.59,1,8.34,8.34,0,0,1,.52,6.52c-.28.84,1.05,1.2,1.32.37a9.75,9.75,0,0,0-.65-7.58l-.59,1a2.35,2.35,0,0,1,2.5,2.41c.09,1.53-1,3-1.82,4.18-.42.62.37,1.21.94.94a14,14,0,0,1,4.34-1.42,5.15,5.15,0,0,1,4.17,1.53c1.91,1.79,2.3,4.88,2.44,7.35a18.87,18.87,0,0,1-1.87,9.08c-1.29,2.71-3.44,5.74-6.29,6.93a4.26,4.26,0,0,1-4-.34c-1.15-.73-1-2.38-2.49-2.64a4.54,4.54,0,0,0-1.79.36,8.85,8.85,0,0,1-2.2.23,10.39,10.39,0,0,1-4.63-1.2c-5.62-2.83-7.28-10.06-5.1-15.6a12.84,12.84,0,0,1,7.55-7.3c2.79-1,7.48-.7,8.37,2.76a.69.69,0,0,0,1.32-.36Z"/><path class="cls-6" d="M23,180.64c7.68,6.76,15.36,6.67,23,13.43,5-9.64,5.76-20.88,6.38-31.75q.6-10.47,1.19-20.94a1.68,1.68,0,0,0-.16-1,1.46,1.46,0,0,0-.89-.53c-3.37-.89-6.67,1.56-10.12,2a8.9,8.9,0,0,1-7.73-3.08c-1.85-2.22-1.52-8.59-.67-11.36,1-3.2-.27-2.63,2.25-6.13a6.48,6.48,0,0,0-4.77,3.44,18.56,18.56,0,0,0-1.8,5.82C26.95,144.84,20.6,153.9,23,180.64"/><path class="cls-6" d="M53.58,139.57a5.49,5.49,0,0,0-3.76-.53c-3.12.48-5.92,2.31-9.15,2.08-2.72-.19-5.55-2-6.28-4.67a17.8,17.8,0,0,1,.16-8.53,23.75,23.75,0,0,0,.63-3.17,7.37,7.37,0,0,1,1.66-3.2.69.69,0,0,0-.59-1c-6.11.77-6.73,7.77-7.82,12.56-.84,3.71-2,7.36-3,11a95.5,95.5,0,0,0-3.64,28.28c.06,2.73.24,5.46.47,8.18a.56.56,0,0,0,.21.55,42.92,42.92,0,0,0,11.32,6.67c4.19,1.82,8.24,3.74,11.72,6.75a.7.7,0,0,0,1.08-.14c6.28-12.18,6.15-26.48,6.91-39.83q.32-5.69.65-11.38C54.21,142.13,54.67,140.31,53.58,139.57Zm-.73,2.26q-.17,3-.34,5.92c-.41,7.28-.73,14.57-1.3,21.84-.63,8-1.89,16.12-5.45,23.39a44.66,44.66,0,0,0-10.6-6.08c-4.12-1.79-8.1-3.68-11.54-6.61a97.23,97.23,0,0,1,2-31.72c.92-3.73,2.07-7.4,3.08-11.11.51-1.86,1-3.74,1.36-5.63.63-3,1-6.3,3.34-8.57a5,5,0,0,1,1.19-.85,8,8,0,0,0-.62,1.27,11.88,11.88,0,0,0-.34,2.12c-.17,1-.52,1.93-.7,2.92a24,24,0,0,0-.34,3.59,12,12,0,0,0,1.2,6.4,9,9,0,0,0,6.49,3.74c3.12.34,5.84-1.13,8.79-1.89a8,8,0,0,1,2.33-.23,3.59,3.59,0,0,1,1.23.27C53,140.77,52.87,141.57,52.85,141.83Z"/><path class="cls-6" d="M52.93,140.27c6.78.31,12.93,5.28,19.68,4.6,3.88-.39,7.37-2.66,10-5.53A48.31,48.31,0,0,0,89,129.59q.78,18.9.52,37.83a7.76,7.76,0,0,1-.5,3.18,8,8,0,0,1-1.56,2c-10,10.62-32.77,21.21-40.79,21.73-1.15.07-.35-3.12.28-4.09,2.95-4.53,3.36-10.19,3.69-15.58l2.12-34.74"/><path class="cls-6" d="M90.29,159.66q0-11.4-.32-22.79-.11-3.64-.26-7.29a.69.69,0,0,0-1.28-.35c-3.44,6.28-7.58,13.5-15.28,14.87-3.46.61-7-.65-10.19-1.83a37,37,0,0,0-9.54-2.65.71.71,0,0,0-1.32.31l-1.39,22.85L50,174.21a56.62,56.62,0,0,1-1.2,9.89,20.15,20.15,0,0,1-1.65,4.48,16.52,16.52,0,0,0-1.47,3.07c-.4,1.42-.54,3.53,1.46,3.33A40.48,40.48,0,0,0,58,191.82c9.61-3.85,19.11-9,27-15.84,1.79-1.55,4-3.34,4.91-5.58.58-1.45.37-3.29.39-4.81Q90.29,162.63,90.29,159.66Zm-1.55,9.6c-.24,1.6-1.59,2.74-2.68,3.83a66.85,66.85,0,0,1-12.43,9.34,112.13,112.13,0,0,1-14.27,7.36,52.43,52.43,0,0,1-11.23,3.69c-.33.06-.65.1-1,.14l-.32,0a1.09,1.09,0,0,1,0-.18,5.57,5.57,0,0,1,.69-2.73A37,37,0,0,0,49.35,187a24.91,24.91,0,0,0,1.19-4.44,75.3,75.3,0,0,0,.9-9.29q.33-5.48.67-11L53.41,141c7,.61,13.17,5.66,20.46,4.37,7-1.23,11.24-7.46,14.55-13.28q.38,10.14.48,20.28,0,5.7,0,11.4A39.64,39.64,0,0,1,88.74,169.26Z"/><path class="cls-2" d="M65.08,151.9c6.57-7.58,7.13-19.58,15.07-25.72a31.74,31.74,0,0,1,7-3.76c3.42-1.47,7.76-2.82,10.54-.35l-9.58,3.31c-2.64.91-5.41,1.92-7.22,4a14.48,14.48,0,0,0-2.41,4.84,90.91,90.91,0,0,0-3.26,12.51,5.66,5.66,0,0,1-1.06,2.82c-.91,1-2.39,1.21-3.75,1.34-1.79.17-3.39.78-5.18.95"/><path class="cls-6" d="M65.56,152.38c5-5.8,6.45-13.49,10.2-20a19.77,19.77,0,0,1,8.84-8.08c3.42-1.66,9.14-4.69,12.64-1.76l.3-1.15c-4,1.38-8.07,2.64-12,4.2a14.84,14.84,0,0,0-4.35,2.56,11.65,11.65,0,0,0-3,4.82,80.22,80.22,0,0,0-3.49,12.76,21.84,21.84,0,0,1-.56,2.51,3,3,0,0,1-2.56,1.84c-1,.21-2,.24-3,.43s-2.24.54-3.39.67c-.87.1-.88,1.47,0,1.37,2-.22,3.88-.79,5.86-1a5,5,0,0,0,4-2.15c.93-1.49,1-3.72,1.35-5.4.49-2.25,1.08-4.47,1.74-6.67a33.81,33.81,0,0,1,2.18-6,9.52,9.52,0,0,1,4.62-4.07A58.59,58.59,0,0,1,91.25,125l6.67-2.31a.69.69,0,0,0,.3-1.15c-3.33-2.78-7.82-1.27-11.37.24-4.32,1.84-8.1,4-10.92,7.81C71,136.29,70,145.07,64.59,151.41c-.57.67.39,1.65,1,1Z"/><path class="cls-2" d="M98.06,122.39a22.05,22.05,0,0,0-9.47,20.73c.13,1.42-1.22,3.71-2.75,3.43-1-.19-2.77,0-2.77-2.37,0-4.83,1.9-9.5,4.19-13.75a20.42,20.42,0,0,1,3.87-5.35A9.42,9.42,0,0,1,97,122.39"/><path class="cls-6" d="M97.72,121.8A23,23,0,0,0,89.47,132a23.22,23.22,0,0,0-1.58,6.65,24.33,24.33,0,0,0-.06,3.44,4.11,4.11,0,0,1-.73,3.24c-.6.71-1.32.57-2.13.44-1.28-.2-1.23-1.28-1.19-2.37a24.59,24.59,0,0,1,2-8.38c2-4.84,5.27-11.54,11.23-11.92.88-.06.88-1.43,0-1.37-6.3.4-9.67,6.54-12,11.65a29.25,29.25,0,0,0-2.56,8.83c-.24,2.13-.25,4.52,2.3,4.92a3.62,3.62,0,0,0,2.33-.09A4.18,4.18,0,0,0,89,144.8a8.46,8.46,0,0,0,.2-3.42,23,23,0,0,1,.33-4.57A21.23,21.23,0,0,1,98.41,123c.72-.5,0-1.69-.69-1.19Z"/><path class="cls-13" d="M54.46,160.57a46.94,46.94,0,0,0,6.41-.49c0,1.05-.05,1.58-.09,2.63a40.81,40.81,0,0,1-4.35.53c0,1.72-.07,2.58-.12,4.3,1.46-.17,2.2-.28,3.7-.56,0,1.07-.05,1.61-.09,2.68-1.49.32-2.23.45-3.69.65q-.1,3.35-.19,6.71c-.82.16-1.22.23-2,.35Q54.23,169,54.46,160.57Z"/><path class="cls-13" d="M68,173.24c-.79-1.88-1.19-2.85-2-4.85l-1.5.48c-.09,2.33-.13,3.5-.22,5.83-.85.31-1.28.45-2.13.72q.27-7.83.55-15.65c1.49-.27,2.25-.44,3.76-.83,2.27-.58,4-.16,3.9,3.19a7,7,0,0,1-2.25,5c.91,2.06,1.37,3.05,2.28,5C69.45,172.6,69,172.82,68,173.24Zm-3.39-6.79L66,166a3.14,3.14,0,0,0,2.25-3.12c.07-1.61-.68-1.89-2.07-1.51l-1.4.36C64.71,163.63,64.68,164.57,64.61,166.44Z"/><path class="cls-13" d="M72.73,157c2.3-.88,4.49-1.92,6.68-3l-.12,2.23c-1.79,1-2.69,1.42-4.49,2.23l-.15,3.25c1.53-.73,2.29-1.13,3.81-2l-.12,2.28c-1.52.88-2.28,1.29-3.81,2.06l-.18,3.77c1.86-1,2.79-1.54,4.63-2.71,0,.91-.07,1.36-.12,2.27-2.23,1.41-4.47,2.72-6.79,4Q72.4,164.13,72.73,157Z"/><path class="cls-13" d="M81.76,152.65c2.23-1.35,4.37-2.75,6.49-4.27l-.13,2c-1.71,1.31-2.59,1.93-4.35,3.07-.07,1.19-.1,1.79-.17,3,1.49-1,2.23-1.55,3.7-2.69l-.13,2.09c-1.46,1.17-2.2,1.72-3.69,2.77-.08,1.38-.12,2.08-.2,3.47,1.82-1.34,2.71-2.05,4.48-3.58l-.13,2.08A79.28,79.28,0,0,1,81,165.85Q81.4,159.25,81.76,152.65Z"/><path class="cls-14" d="M87.63,213.36c2.47,3.81,4.86,7.78,5.73,12.24-3.17,1.33-7,.51-9.78-1.46a20.23,20.23,0,0,1-6.27-8.06,14.58,14.58,0,0,1-1.52-4.73c-.17-1.66-6.11-5.62-5.07-6.93C70.71,204.41,80.57,202.45,87.63,213.36Z"/><path class="cls-6" d="M94.35,225.32c-.94-4.57-3.33-8.61-5.83-12.48-3.83-5.83-10.73-10.76-18.06-9.42-.63.12-.94.93-.88,1.5A4.12,4.12,0,0,0,70.71,207c1.19,1.44,2.8,2.54,3.87,4.08a1.91,1.91,0,0,1,.27.9,14.22,14.22,0,0,0,.64,2.4,27.39,27.39,0,0,0,2.14,4.45,18.67,18.67,0,0,0,6,6.53,11.29,11.29,0,0,0,10,1.18A1.06,1.06,0,0,0,94.35,225.32Zm-10.26-2.08c-2.82-1.91-4.66-5-6.08-8.07a16.64,16.64,0,0,1-.93-2.48c-.19-.64-.16-1.35-.41-2A7.29,7.29,0,0,0,75,208.48c-.73-.76-1.51-1.48-2.24-2.24a9.9,9.9,0,0,1-.79-.91l.36,0a14.65,14.65,0,0,1,3.81.46c4.51,1.12,8.08,4.3,10.59,8.12,2.23,3.46,4.36,7,5.39,11A9.85,9.85,0,0,1,84.09,223.24Z"/><path class="cls-8" d="M73.4,203.46a4.7,4.7,0,0,1,3.86,2c1.25,2.29-1,5.1-.49,7.66l3.33-.48c.7,1.64-.15,6.47,0,7.07.38,1.13,5.46-.25,6.51.3-1,1.34-.33,3.41,1,4.4,3.66,2.65,5.33-1.93,6.15.84,1.33,4.5,2.23,10.35.4,14.67a18.14,18.14,0,0,1-9.78,9.61,8.81,8.81,0,0,0-1.89.9,12.53,12.53,0,0,0-1.81,1.95,12.55,12.55,0,0,1-6.88,3.45A27.9,27.9,0,0,1,40.7,233.95a21.68,21.68,0,0,1,0-8.74A17.61,17.61,0,0,1,62.49,212S62.07,202.55,73.4,203.46Z"/><path class="cls-15" d="M76.48,246.47c-12.29,7.46-27.72-5.87-35.15-13.61q.08.52.18,1A27.9,27.9,0,0,0,74.69,255.8a12.55,12.55,0,0,0,6.88-3.46,12.5,12.5,0,0,1,1.81-1.95,8.67,8.67,0,0,1,1.89-.9A18.14,18.14,0,0,0,95,239.89a12,12,0,0,0,.67-2.13A95.49,95.49,0,0,0,76.48,246.47Z"/><path class="cls-6" d="M95.54,227.78c-.31-1.45-.66-4.87-2.9-4.4a10.7,10.7,0,0,0-1.65.7,2.74,2.74,0,0,1-2.81-.54,2.26,2.26,0,0,1-.63-3,1,1,0,0,0-.37-1.41A6.43,6.43,0,0,0,84,219c-.65.06-1.3.13-2,.16-.28,0-.56,0-.84,0h-.07c0-.23,0-.46,0-.69,0-.67.11-1.33.15-2a9.88,9.88,0,0,0-.26-4.06,1.07,1.07,0,0,0-1.27-.72l-2.09.3a13.57,13.57,0,0,1,.55-2.48,8.17,8.17,0,0,0,.29-3.39c-.37-2.44-3-3.46-5.17-3.68-4-.29-8.17.64-10.46,4.21a9.72,9.72,0,0,0-1.42,4,19,19,0,0,0-15.77,4.11A19.28,19.28,0,0,0,39.27,231c.84,12.22,10.13,22.63,21.86,25.59,5.7,1.44,12.72,1.37,18-1.57a11.17,11.17,0,0,0,3.14-2.8c1.06-1.3,2.55-1.66,4-2.37a18.88,18.88,0,0,0,6.49-5.37,16.17,16.17,0,0,0,3.4-7.69A26.07,26.07,0,0,0,95.54,227.78Zm-14.39-8.36c0,.11,0,.15,0,0Zm11.76,21a17.16,17.16,0,0,1-5.66,6.53,18.25,18.25,0,0,1-3.72,1.94,8.79,8.79,0,0,0-3.5,2.85c-2,2.35-5.46,3.14-8.41,3.53a27.42,27.42,0,0,1-9.58-.48,27.13,27.13,0,0,1-20.56-22.3,17.63,17.63,0,0,1,5-15.48,16.71,16.71,0,0,1,15.79-4,1,1,0,0,0,1.3-1,7.52,7.52,0,0,1,.95-3.86c1.74-3.26,5.56-3.84,8.92-3.6,2,.21,3.5,1.31,3.12,3.49-.33,1.87-1.05,3.51-.75,5.45.1.6.76.79,1.27.72l2.28-.33a14.9,14.9,0,0,1-.07,3.18c-.08,1-.42,2.37,0,3.35s2.29.9,3.24.84c.74,0,1.47-.14,2.21-.2l.46,0a4.88,4.88,0,0,0,2.51,4.74c1.73,1,3.44.59,5.12-.22h0a7.78,7.78,0,0,1,.27,1.1,33.27,33.27,0,0,1,.95,4.81A16,16,0,0,1,92.91,240.36Z"/><path class="cls-6" d="M62.49,208.67c-1.26-3.49-8.27-9.21-8.58-9.12-1.43.42-4.24,4-3.7,4.43a45.36,45.36,0,0,1,6.1,5,13.69,13.69,0,0,0,4.88,3S64.16,213.29,62.49,208.67Z"/><path class="cls-6" d="M63.48,208.39a1.14,1.14,0,0,0-.1-.21c-1.38-3.35-4.57-6.11-7.31-8.34-.94-.77-1.74-1.63-3-1a9.12,9.12,0,0,0-3.73,4.1,1.59,1.59,0,0,0,.12,1.83,10.52,10.52,0,0,0,1.82,1.35c.66.49,1.32,1,2,1.49,1.2,1,2.2,2.14,3.4,3.1a16,16,0,0,0,3.67,2.08,3.05,3.05,0,0,0,2.61.24C64.65,212.16,63.94,209.72,63.48,208.39Z"/><path class="cls-6" d="M80.44,213.62a5.49,5.49,0,0,1,2.85-.43,4.19,4.19,0,0,1,2,1.48,11.11,11.11,0,0,1,.71.9c.27.36.05.94,0,1.35,0,.82.56,1.76-.06,2.46-.88,1,.57,2.45,1.46,1.46a3.51,3.51,0,0,0,.75-3.31,10,10,0,0,1,0-1.87A3.08,3.08,0,0,0,87.4,214a7.53,7.53,0,0,0-2.94-2.53,6.34,6.34,0,0,0-4.58.19c-1.26.41-.72,2.4.55,2Z"/><path class="cls-6" d="M45.66,220.28a33.72,33.72,0,0,0-3.36,6.17c-.34.82,1,1.17,1.33.37A32.13,32.13,0,0,1,46.84,221c.51-.73-.68-1.42-1.19-.69Z"/><path class="cls-6" d="M48.78,219.88l-4.38,9.34c-.37.8.81,1.5,1.19.69L50,220.58c.37-.8-.81-1.5-1.19-.69Z"/><path class="cls-6" d="M42.7,224.54A19.46,19.46,0,0,1,48,227.47c.69.54,1.67-.43,1-1a21.52,21.52,0,0,0-5.93-3.28c-.83-.3-1.19,1-.37,1.32Z"/><path class="cls-6" d="M43.17,220.47A30.09,30.09,0,0,0,49.88,225c.79.39,1.49-.8.69-1.19a28.75,28.75,0,0,1-6.43-4.3c-.66-.58-1.64.38-1,1Z"/></g></g></svg>