<?xml version="1.0" encoding="utf-8"?>
<!-- Generator: Adobe Illustrator 21.0.2, SVG Export Plug-In . SVG Version: 6.00 Build 0)  -->
<svg version="1.1" id="圖層_1" xmlns="http://www.w3.org/2000/svg" xmlns:xlink="http://www.w3.org/1999/xlink" x="0px" y="0px"
	 viewBox="0 0 310 290" style="enable-background:new 0 0 310 290;" xml:space="preserve">
<style type="text/css">
	.st0{fill:#E6E6E6;}
	.st1{fill:#CCCCCC;}
	.st2{fill:#162585;}
	.st3{fill:#8FE1FF;}
	.st4{fill:#FFFFFF;}
	.st5{fill:#B3B3B3;}
	.st6{fill:#FBD23B;}
	.st7{fill:#81CBE6;}
	.st8{fill:#534741;}
	.st9{fill:#FF4A46;}
	.st10{fill:#C3F1FF;}
</style>
<title>princess-cinderalla</title>
<g>
	<g id="圖層_1_1_">
		<path class="st0" d="M72.8,155.8c-6.4-0.7-12.6-1-19-1.2c0.4,3,2.8,5.3,5.7,5.8c0.5,0,1.1,0.1,1.6,0.3c1,0.5,1.2,1.8,1.3,2.9
			c0.4,2.5,1.3,4.9,2.5,7.1c1.1,2.2,2.8,4,4.9,5.3c2.1,1.2,4.8,1.2,6.9,0c1-0.7,1.9-1.7,2.4-2.8c1.7-3.2,1.8-6.9,0.4-10.2
			C78.3,159.8,76.2,156.8,72.8,155.8"/>
		<g>
			<path class="st1" d="M75.4,157.1l-5.2,5.8c-5.8-3.5-7.4-6.2-7.6-7.9c-2.9-0.2-5.8-0.3-8.8-0.4c0.4,3,2.8,5.3,5.7,5.8
				c0.5,0,1.1,0.1,1.6,0.3c1,0.5,1.2,1.8,1.3,2.9c0.4,2.5,1.3,4.9,2.5,7.1c1.1,2.2,2.8,4,4.9,5.3c2.1,1.2,4.8,1.2,6.9,0
				c1-0.7,1.9-1.7,2.4-2.8c1.7-3.2,1.8-6.9,0.4-10.2C78.8,160.7,77.3,158.6,75.4,157.1z"/>
		</g>
		<path class="st2" d="M81.3,165c-0.9-4.3-3.9-8.8-8.2-10H73c-0.1,0-0.1-0.1-0.2-0.1c-6.3-0.7-12.7-1-19-1.2c-0.6,0-1,0.5-1,1
			c0,0.1,0,0.1,0,0.2c0.3,1.9,1.3,3.7,2.8,4.9c0.7,0.6,1.5,1,2.4,1.3c0.8,0.3,2.3,0.1,2.9,0.9s0.6,2.1,0.8,3.1
			c0.3,1.2,0.7,2.5,1.1,3.6c0.8,2.1,1.9,4,3.4,5.7c2.7,3,7.3,4.9,11,2.5S82.1,169.1,81.3,165z M76.2,175.2c-3.6,2.2-7.6-0.7-9.5-3.6
			c-1.1-1.7-2-3.5-2.6-5.5c-0.5-1.6-0.5-3.7-1.4-5.2c-1.1-1.7-3.2-1.2-4.8-2.1c-1.3-0.7-2.3-1.8-2.8-3.2c5.8,0.2,11.6,0.5,17.4,1.1
			h0.1c3.3,1,5.5,4.3,6.6,7.4C80.2,167.8,79.6,173.1,76.2,175.2z"/>
		<path class="st3" d="M60,155.1c-2.4-0.5-4.7-1.2-7-2.1c-2.8-1-3.8,2.1-3.3,3.3c2.3,6.2,10.7,4.7,10.4,3.8c-0.2-0.6-0.8-3.9,0-4.9"
			/>
		<path class="st2" d="M60.9,155.7c0.3-0.4,0.2-0.9-0.1-1.2c-0.1,0-0.1-0.1-0.2-0.1c-0.2-0.2-0.4-0.3-0.6-0.3
			c-1.4-0.2-2.8-0.6-4.1-1.1c-1.2-0.6-2.5-0.9-3.8-1.1c-2,0.1-3.6,1.8-3.5,3.8c0,0.3,0.1,0.6,0.1,0.9c1.3,4.3,7.2,6.5,11.2,4.9
			C62.4,160.5,59.7,157.5,60.9,155.7z M56.1,159.9c-2-0.1-3.8-1.1-4.9-2.7c-0.6-0.6-0.8-1.5-0.5-2.3c0.2-0.8,1-1.2,1.8-1
			c0.1,0,0.2,0.1,0.3,0.1c2,0.8,4,1.4,6.1,1.9c-0.1,0.6-0.1,1.2-0.1,1.8c0,0.5,0.1,1.1,0.2,1.6c0,0.1,0,0.3,0.1,0.5
			c-0.2,0.1-0.4,0.1-0.7,0.2C57.6,160,56.9,160,56.1,159.9L56.1,159.9z M59.3,159.6L59.3,159.6z"/>
		<path class="st4" d="M49.5,206.7L0,218.9l24.8,32.4l26.5,2.5l-11.7,19.8l34.8,6.6l41.8,8.6l4-14.6l35.1-3.7l45.6-8.8l-6.7-22.6
			l46.7,2.1l69.3-41.7c0,0-16.9-22-19.7-20.8S49.5,206.7,49.5,206.7z"/>
		<path class="st0" d="M46.5,215.2c0,0-6.8,4.2-7.3,11.9c-4.3-0.3-8.6,1.3-11.7,4.3c-5.3,5.1,13.7,6.1,18.3,5.6
			S57.8,235.2,46.5,215.2z"/>
		<path class="st5" d="M46.5,215.2c-2.5,1.7-4.5,4-5.8,6.6c0.3,3.4,1.2,7.2,3.9,9.7c-5.5,2.7-11.9,2.9-17.6,0.7
			c-2.7,4.4,14.5,5.3,18.9,4.8C50.5,236.6,57.8,235.2,46.5,215.2z"/>
		<path class="st2" d="M52.8,226.8c-1.3-4.2-3.2-8.2-5.5-12c-0.1-0.2-0.3-0.3-0.5-0.4c-0.3-0.2-0.6-0.2-0.9,0
			c-4.1,2.7-6.9,6.9-7.6,11.7c-1.7,0-3.4,0.2-5,0.8c-1.8,0.6-3.5,1.4-5,2.6c-1.1,0.7-2,1.7-2.6,2.9c-1.3,4.1,6.5,4.9,8.9,5.2
			c4.1,0.7,8.3,0.7,12.5,0.2c2.6-0.4,5-1.6,5.9-4.2C53.8,231.5,53.4,229,52.8,226.8z M51.5,231.9c-0.2,2.4-1.7,3.4-3.8,3.9
			c-1,0.2-2.1,0.4-3.2,0.4c-2,0.1-4.1,0-6.1-0.1c-2.3-0.1-4.6-0.4-6.8-0.9c-1.2-0.3-3.3-0.8-3.9-1.8c-0.1-0.1-0.1-0.2,0-0.3
			c0.1-0.3,0.3-0.5,0.5-0.7c1.4-1.5,3.1-2.6,5.1-3.3c1.9-0.8,4-1.1,6-0.9c0.5,0.1,0.9-0.5,1-1c0.4-4.2,2.6-8,6-10.5
			c1.7,2.9,3.1,6,4.3,9.1C51.2,227.7,51.6,229.8,51.5,231.9L51.5,231.9z"/>
		<polygon class="st4" points="299.9,176.9 248.2,200 248.2,172.9 300,153.2 		"/>
		<path class="st2" d="M301,153.2c0-0.6-0.5-1-1-1c-0.1,0-0.1,0-0.2,0l-17.5,6.6l-27.9,10.6l-6.4,2.4c-0.4,0.1-0.7,0.5-0.7,0.9V200
			c0,0.6,0.5,1,1,1c0.1,0,0.3,0,0.4-0.1l17.5-7.8l27.8-12.4l6.4-2.9c0.4-0.1,0.6-0.5,0.5-0.9c0-6.9,0.1-13.8,0.1-20.6
			C301,155.2,301,154.2,301,153.2z M282,183.8l-27.8,12.5l-4.9,2.2v-25l16.8-6.3l27.9-10.6l5.1-1.9L299,174c0,0.8,0,1.5,0,2.3
			L282,183.8z"/>
		<polygon class="st4" points="222,222.2 125.5,213.2 125.5,195.2 222,203 		"/>
		<path class="st2" d="M222,202.1l-9.6-0.8l-23-1.9l-27.9-2.3l-24-1.9l-8-0.6c-1.2-0.1-2.5-0.3-3.8-0.3h-0.2c-0.6,0-1,0.4-1,1v17.9
			c0,0.6,0.4,1,1,1l9.6,0.9l23,2.1l27.8,2.6l24,2.2l8,0.8c1.2,0.1,2.5,0.4,3.8,0.4h0.2c0.4,0.1,0.8-0.2,0.9-0.5
			c0.1-0.1,0.1-0.3,0.1-0.4V203C222.9,202.5,222.5,202.1,222,202.1z M212.4,220.3l-23-2.1l-27.9-2.6l-24-2.2l-8-0.8
			c-0.9-0.1-2-0.3-3-0.4v-15.9l8.6,0.7l23,1.9l27.9,2.3l24,1.9l8,0.6c0.9,0.1,2,0.3,3,0.3v17.1L212.4,220.3z"/>
		<polygon class="st4" points="222,203.3 125.6,195.4 158,186.3 247.9,192.2 		"/>
		<path class="st2" d="M247.9,191.2l-16.1-1.1l-33.9-2.2l-31.1-2l-7.9-0.5c-1.5,0-3,0.3-4.4,0.9l-28.4,7.9l-0.7,0.2
			c-0.5,0.2-0.8,0.8-0.6,1.3c0.1,0.3,0.4,0.6,0.8,0.6l9.6,0.8l22.9,1.9l27.9,2.3l24,2l8,0.7c1.2,0.1,2.5,0.3,3.8,0.3h0.1
			c0.2,0,0.4,0,0.6-0.2l22.5-9.7l3.2-1.4C249.3,192.6,248.7,191.3,247.9,191.2z M158.1,187.2C158,187.2,158,187.2,158.1,187.2z
			 M221.8,202.3l-9.5-0.8l-22.9-1.9l-27.9-2.3l-24-2l-6.4-0.5l20.8-5.8l5.4-1.5l0.9-0.2h0.1c2,0.2,4.1,0.4,6.1,0.4l29.2,1.9
			l34.7,2.3l12.8,0.8c0.8,0.1,1.6,0.1,2.5,0.2l-18.9,8.1L221.8,202.3z"/>
		<polygon class="st4" points="300,186.6 222.3,222.1 222.3,204 300,170.4 		"/>
		<path class="st2" d="M300.9,186.6v-16.2c0-0.6-0.5-1-1-1c-0.1,0-0.3,0-0.4,0.1l-7.7,3.4l-18.6,8l-22.4,9.7l-19.4,8.5l-6.4,2.7
			c-1,0.4-2.1,0.8-3.1,1.3l-0.1,0.1c-0.3,0.2-0.5,0.5-0.5,0.8v18.1c0,0.6,0.5,1,1,1c0.1,0,0.3,0,0.4-0.1l7.7-3.5L249,211l22.5-10.2
			l19.4-8.9l6.4-2.9c1-0.4,2.1-0.8,3-1.4l0.1-0.1C300.8,187.4,301.1,187,300.9,186.6z M291.7,189.3l-18.5,8.4L250.8,208l-19.4,8.9
			l-6.3,2.9c-0.5,0.2-1.1,0.5-1.7,0.7v-15.9l7.3-3.1l18.6-8l22.4-9.7l19.4-8.4l6.4-2.8c0.5-0.2,1.1-0.4,1.7-0.7v14L291.7,189.3z"/>
		<polygon class="st4" points="247.9,192.2 157.6,185.9 157.8,167.1 247.9,173 		"/>
		<path class="st2" d="M247.9,172.1l-9-0.6l-21.5-1.4l-26-1.7l-22.5-1.5l-7.4-0.5c-1.2-0.1-2.4-0.3-3.5-0.2h-0.1c-0.6,0-1,0.4-1,1
			c-0.1,5.5-0.1,10.9-0.2,16.4c0,0.8,0,1.6,0,2.4c0,0.6,0.4,1,1,1l9,0.6l21.6,1.4l26,1.8l22.6,1.6l7.4,0.5c1.1,0.1,2.4,0.3,3.5,0.2
			h0.1c0.4,0,0.7-0.2,0.9-0.5c0.1-0.1,0.1-0.3,0.1-0.5V173C248.8,172.5,248.4,172.1,247.9,172.1z M238.9,190.6l-21.6-1.5l-26-1.8
			l-22.6-1.6l-7.4-0.5c-0.8-0.1-1.8-0.2-2.7-0.3c0.1-5.1,0.1-10.3,0.2-15.4c0-0.4,0-0.9,0-1.4l8,0.5l21.5,1.4l26,1.7l22.5,1.5
			l7.4,0.5c0.8,0.1,1.8,0.2,2.7,0.3v17.1L238.9,190.6z"/>
		<polygon class="st4" points="248.3,173.5 158.2,166.9 205.6,156.4 298.7,154 		"/>
		<path class="st2" d="M298.7,153l-19.8,0.5l-39.9,1l-30.4,0.8c-1.4,0-2.7,0.1-4.1,0.3l-13.3,2.9l-32.7,7.2l-0.7,0.1
			c-1.1,0.2-0.8,1.8,0.3,1.9l9,0.7l21.5,1.6l26,1.9l22.5,1.6l7.4,0.5c1.1,0.1,2.3,0.3,3.4,0.2c0.2,0.1,0.4,0.1,0.5,0
			c0.1,0,0.2-0.1,0.3-0.1l16.8-6.5l27.2-10.5l6.2-2.4C299.9,154.6,299.9,153,298.7,153z M281.4,159.6l-27.2,10.5l-6.1,2.4l-8.8-0.6
			l-21.5-1.6l-26-1.9l-22.5-1.6l-4.4-0.3l22.3-4.9l15.9-3.5c0.8-0.2,1.6-0.4,2.5-0.6h0.4h1.1l27.4-0.7l40.1-1l15.8-0.4
			c0.9,0,1.7,0,2.6,0L281.4,159.6z"/>
		<polygon class="st4" points="270.7,164.4 187.2,161.4 187.2,145.5 270.7,147.4 		"/>
		<path class="st2" d="M271.7,147.4c0-0.6-0.4-1-1-1l-8.3-0.2l-19.9-0.5l-24.2-0.6l-20.8-0.5l-6.9-0.2c-1.1,0-2.2-0.1-3.3-0.1h-0.1
			c-0.6,0-1,0.4-1,1c0,5.3,0,10.6,0,15.9c0,0.6,0.4,1,1,1l8.3,0.3l19.9,0.7l24.1,0.9l20.9,0.8l6.9,0.2c1.1,0,2.2,0.2,3.3,0.1h0.1
			c0.3,0,0.6-0.1,0.8-0.4c0.1-0.2,0.2-0.3,0.2-0.5V147.4z M262.4,163.2l-19.9-0.7l-24.1-0.9l-20.9-0.8l-6.9-0.2
			c-0.8,0-1.6-0.2-2.4-0.2c0-4.6,0-9.2,0-13.9l7.4,0.2l19.9,0.5l24.2,0.6l20.8,0.5l6.9,0.2c0.8,0,1.6,0.1,2.5,0.1v15L262.4,163.2z"
			/>
		<polygon class="st4" points="300,153.2 271,164.3 271,148.4 300,137.7 		"/>
		<path class="st2" d="M299.8,136.7l-25.4,9.4l-3.6,1.3c-0.4,0.1-0.7,0.5-0.7,0.9v16c0,0.6,0.5,1,1,1c0.1,0,0.1,0,0.2,0l25.5-9.8
			l3.5-1.4l0.1-0.1c0.4-0.1,0.6-0.5,0.6-0.9v-15.6c0-0.6-0.5-1-1-1C299.9,136.7,299.8,136.7,299.8,136.7z M274.3,162l-2.3,0.9V149
			l24.7-9.1l2.4-0.9v13.5L274.3,162z"/>
		<polygon class="st4" points="270.7,147.7 187.8,145.3 225.2,135.4 300.1,137.3 		"/>
		<path class="st2" d="M300.1,136.3l-15.9-0.4l-32-0.8l-24.5-0.6c-1.1-0.1-2.2-0.1-3.3,0.1l-10.3,2.7l-26.1,6.9l-0.5,0.1
			c-0.5,0.2-0.8,0.8-0.6,1.3c0.1,0.3,0.4,0.6,0.8,0.6l8.2,0.2l19.8,0.6l23.9,0.7l20.7,0.6l6.8,0.2c1,0,2.1,0.1,3.2,0.1
			c0.2,0,0.3,0,0.5,0h0.1l0.1-0.1l25.6-9.1l3.7-1.3c0.5-0.1,0.9-0.6,0.8-1.2C301.1,136.6,300.6,136.3,300.1,136.3z M270.5,146.8
			l-8.1-0.2l-19.8-0.6l-23.9-0.7l-20.7-0.6l-3.5-0.1l16.4-4.3l12.5-3.3l1.5-0.4c0.1,0,0.5-0.1,0.5-0.1h1.1l22.1,0.5l32.3,0.8
			l12.6,0.3l1.3,0.1l-20.7,7.4L270.5,146.8z"/>
		<path class="st2" d="M226.6,214l0.2,5.4c0,0.8,1.3,0.8,1.3,0c-0.1-1.8-0.2-3.6-0.2-5.4C227.9,213.2,226.5,213.2,226.6,214z"/>
		<path class="st2" d="M230.2,212.2l0.2,4.9c0,0.8,1.3,0.8,1.3,0c-0.1-1.6-0.1-3.3-0.2-4.9C231.5,211.4,230.2,211.4,230.2,212.2z"/>
		<path class="st2" d="M234.2,210.6l0.2,4.9c0,0.8,1.3,0.8,1.3,0c-0.1-1.6-0.1-3.3-0.2-4.9C235.5,209.8,234.1,209.8,234.2,210.6z"/>
		<path class="st2" d="M238.1,209l0.2,4.9c0,0.8,1.3,0.8,1.3,0c-0.1-1.6-0.1-3.3-0.2-4.9C239.4,208.2,238.1,208.2,238.1,209z"/>
		<path class="st2" d="M242.1,207.4l0.2,4.9c0,0.8,1.3,0.8,1.3,0c-0.1-1.6-0.1-3.3-0.2-4.9C243.4,206.6,242.1,206.6,242.1,207.4z"/>
		<path class="st2" d="M246.1,205.5l0.2,4.9c0,0.8,1.3,0.8,1.3,0l-0.2-4.9C247.4,204.6,246,204.6,246.1,205.5z"/>
		<path class="st2" d="M250,203.7l0.2,4.9c0,0.8,1.3,0.8,1.3,0c-0.1-1.6-0.1-3.3-0.2-4.9C251.3,202.9,250,202.9,250,203.7z"/>
		<path class="st2" d="M254,201.7l0.2,4.9c0,0.8,1.3,0.8,1.3,0c-0.1-1.6-0.1-3.3-0.2-4.9C255.3,200.9,254,200.9,254,201.7z"/>
		<path class="st2" d="M258,200.1l0.2,4.9c0,0.8,1.3,0.8,1.3,0l-0.2-4.9C259.3,199.3,258,199.3,258,200.1z"/>
		<path class="st2" d="M261.9,198.4c0.1,1.6,0.1,3.3,0.2,4.9c0,0.8,1.3,0.8,1.3,0l-0.2-4.9C263.2,197.5,261.9,197.5,261.9,198.4z"/>
		<path class="st2" d="M265.9,196.6l0.2,4.9c0,0.8,1.3,0.8,1.3,0l-0.2-4.9C267.2,195.7,265.9,195.7,265.9,196.6z"/>
		<path class="st2" d="M269.9,194.8l0.2,4.9c0,0.8,1.3,0.8,1.3,0l-0.2-4.9C271.1,194,269.8,193.9,269.9,194.8z"/>
		<path class="st2" d="M273.8,193c0.1,1.6,0.1,3.3,0.2,4.9c0,0.8,1.3,0.8,1.3,0l-0.2-4.9C275.1,192.2,273.8,192.2,273.8,193z"/>
		<path class="st2" d="M277.8,191.2c0.1,1.6,0.1,3.3,0.2,4.9c0,0.8,1.3,0.8,1.3,0l-0.2-4.9C279.1,190.4,277.7,190.4,277.8,191.2z"/>
		<path class="st2" d="M281.7,189.3c0.1,1.6,0.1,3.3,0.2,4.9c0,0.8,1.3,0.8,1.3,0l-0.2-4.9C283,188.4,281.7,188.4,281.7,189.3z"/>
		<path class="st2" d="M285.7,187.3c0.1,1.6,0.1,3.3,0.2,4.9c0,0.8,1.3,0.8,1.3,0l-0.2-4.9C287,186.4,285.7,186.4,285.7,187.3z"/>
		<path class="st2" d="M289.7,185.7l0.2,4.9c0,0.8,1.3,0.8,1.3,0l-0.2-4.9C291,184.9,289.6,184.9,289.7,185.7z"/>
		<path class="st2" d="M293.6,183.7l0.2,4.9c0,0.8,1.3,0.8,1.3,0l-0.2-4.9C294.9,182.9,293.6,182.9,293.6,183.7z"/>
		<path class="st2" d="M252.9,185.7l0.2,4.9c0,0.8,1.3,0.8,1.3,0l-0.2-4.9C254.2,184.9,252.8,184.9,252.9,185.7z"/>
		<path class="st2" d="M256.8,183.8l0.2,4.9c0,0.8,1.3,0.8,1.3,0l-0.2-4.9C258.1,182.9,256.8,182.9,256.8,183.8z"/>
		<path class="st2" d="M260.8,182.2l0.2,4.8c0,0.8,1.3,0.8,1.3,0c-0.1-1.6-0.1-3.3-0.2-4.9C262.1,181.3,260.7,181.3,260.8,182.2
			L260.8,182.2z"/>
		<path class="st2" d="M264.8,180.4l0.2,4.9c0,0.8,1.3,0.8,1.3,0c-0.1-1.6-0.1-3.3-0.2-4.9C266,179.5,264.7,179.5,264.8,180.4z"/>
		<path class="st2" d="M268.7,178.6l0.2,4.9c0,0.8,1.3,0.8,1.3,0l-0.2-4.9C270,177.8,268.7,177.8,268.7,178.6z"/>
		<path class="st2" d="M272.7,176.8l0.2,4.9c0,0.8,1.3,0.8,1.3,0l-0.2-4.9C274,176,272.6,176,272.7,176.8z"/>
		<path class="st2" d="M276.6,175l0.2,4.9c0,0.8,1.3,0.8,1.3,0c-0.1-1.6-0.1-3.3-0.2-4.9C277.9,174.2,276.6,174.2,276.6,175z"/>
		<path class="st2" d="M280.6,173.2l0.2,4.9c0,0.8,1.3,0.8,1.3,0l-0.2-4.9C281.9,172.4,280.6,172.4,280.6,173.2z"/>
		<path class="st2" d="M284.6,171.3c0.1,1.6,0.1,3.3,0.2,4.9c0,0.8,1.3,0.8,1.3,0l-0.2-4.9C285.9,170.4,284.5,170.4,284.6,171.3z"/>
		<path class="st2" d="M288.5,169.3l0.2,4.9c0,0.8,1.3,0.8,1.3,0c-0.1-1.6-0.1-3.3-0.2-4.9C289.8,168.5,288.5,168.5,288.5,169.3z"/>
		<path class="st2" d="M292.5,167.7c0.1,1.6,0.1,3.3,0.2,4.9c0,0.8,1.3,0.8,1.3,0c-0.1-1.6-0.1-3.3-0.2-4.9
			C293.8,166.9,292.4,166.9,292.5,167.7z"/>
		<path class="st2" d="M296.5,165.8l0.2,4.9c0,0.8,1.3,0.8,1.3,0l-0.2-4.9C297.8,164.9,296.4,164.9,296.5,165.8z"/>
		<path class="st2" d="M275.8,157.8l0.2,4.9c0,0.8,1.3,0.8,1.3,0l-0.2-4.9C277.1,156.9,275.8,156.9,275.8,157.8L275.8,157.8z"/>
		<path class="st2" d="M279.8,156l0.2,4.9c0,0.8,1.3,0.8,1.3,0c-0.1-1.6-0.1-3.3-0.2-4.9C281.1,155.2,279.8,155.2,279.8,156
			L279.8,156z"/>
		<path class="st2" d="M283.8,154.1l0.2,4.9c0,0.8,1.3,0.8,1.3,0l-0.2-4.9C285.1,153.3,283.8,153.3,283.8,154.1L283.8,154.1z"/>
		<path class="st2" d="M287.8,152.2l0.2,4.9c0,0.8,1.3,0.8,1.3,0l-0.2-4.9C289.1,151.4,287.8,151.4,287.8,152.2z"/>
		<path class="st2" d="M291.8,150.6c0.1,1.6,0.1,3.3,0.2,4.9c0,0.8,1.3,0.8,1.3,0l-0.2-4.9C293.1,149.8,291.7,149.8,291.8,150.6
			L291.8,150.6z"/>
		<path class="st2" d="M295.7,148.7c0.1,1.6,0.1,3.3,0.2,4.9c0,0.8,1.3,0.8,1.3,0c-0.1-1.6-0.1-3.3-0.2-4.9
			C297,147.9,295.7,147.9,295.7,148.7z"/>
		<path class="st2" d="M292.1,98.4L292.1,98.4c0-0.1-0.2-0.2-0.3-0.2h-5c-0.3,0-0.5,0.1-0.7,0.3l-75.6,28c0,0-3.4,2.5-1.2,7.3
			l5.4,0.2l0,0l1.8-1.4c-0.1-0.8,0-1.5,0.4-2.2c0.8-0.5,1.6-0.9,2.5-1.1v66c-0.4,0.1-0.7,0.3-0.9,0.5l0,0c0,0-1,0.6-0.8,2.8
			c0,0.6,1.6,1,3.6,1l0,0c2,0,3.6-0.4,3.6-1l0,0c0.2-2.1-0.8-2.8-0.8-2.8l0,0c-0.3-0.3-0.6-0.4-0.9-0.5V128v-0.1
			c5.5-2,14.2-5,23.6-8.4v46.8c-0.4,0.1-0.7,0.3-0.9,0.5l0,0c0,0-1,0.6-0.8,2.8c0,0.6,1.6,1,3.6,1l0,0c2,0,3.6-0.4,3.6-1l0,0
			c0.2-2.1-0.8-2.8-0.8-2.8l0,0c-0.3-0.3-0.6-0.4-0.9-0.5v-48c7.4-2.6,15.1-5.4,21.8-8v29.2c-0.4,0.1-0.7,0.3-1,0.5l0,0
			c0,0-1,0.6-0.8,2.8c0,0.6,1.6,1,3.6,1l0,0c2,0,3.6-0.4,3.6-1l0,0c0.2-2.1-0.8-2.8-0.8-2.8l0,0c-0.3-0.3-0.6-0.4-1-0.5v-30.6
			c8.2-3.2,14.4-5.9,16-7.4c0.3-0.3,0.5-0.7,0.5-1.1v-1.7C292.2,98.6,292.1,98.5,292.1,98.4z"/>
		<path class="st2" d="M226,97L226,97c0-0.1-0.2-0.2-0.3-0.2h-5c-0.3,0-0.5,0.1-0.7,0.3l-75.6,28c0,0-3.4,2.5-1.2,7.3l5.4,0.2l0,0
			l1.8-1.4c-0.1-0.8,0-1.5,0.4-2.2c0.8-0.5,1.6-0.9,2.5-1.1v66c-0.4,0.1-0.7,0.3-0.9,0.5l0,0c0,0-1,0.6-0.8,2.8c0,0.6,1.6,1,3.6,1
			l0,0c2,0,3.6-0.4,3.6-1l0,0c0.2-2.1-0.8-2.8-0.8-2.8l0,0c-0.3-0.3-0.6-0.4-0.9-0.5v-67.2v-0.1c5.1-1.9,12.9-4.6,21.4-7.6v43
			c-0.4,0.1-0.7,0.2-0.9,0.5l0,0c0,0-1,0.6-0.8,2.6c0,0.5,1.6,1,3.6,1l0,0c2,0,3.6-0.4,3.6-1l0,0c0.2-2-0.8-2.6-0.8-2.6l0,0
			c-0.3-0.3-0.6-0.4-0.9-0.5v-44.3c10-3.6,20.7-7.4,29-10.7v31.2c-0.4,0.1-0.7,0.3-0.9,0.5l0,0c0,0-1,0.6-0.8,2.8c0,0.6,1.6,1,3.6,1
			l0,0c2,0,3.6-0.4,3.6-1l0,0c0.2-2.1-0.8-2.8-0.8-2.8l0,0c-0.3-0.3-0.6-0.4-0.9-0.5v-32.6c5.6-2.3,9.7-4.2,11-5.4
			c0.3-0.3,0.5-0.7,0.5-1.1v-1.7C226.1,97.1,226.1,97.1,226,97z"/>
		<path class="st2" d="M235.6,138.2c2.3-4.6,6.4-9.7,11.9-10.6c1.4-0.2,0.8-2.3-0.6-2.1c-3.2,0.5-6,2.5-8.2,4.7c-1,1-1.9,2-2.6,3.1
			c-0.1-0.5-0.2-1-0.4-1.5c0,0,0,0,0.1-0.1c1-0.6,1.9-1.4,2.7-2.3c0.7-0.8,1.3-1.8,1.7-2.8c0.3-0.9,0.7-2.3,0.3-3.2
			c-0.3-0.4-0.8-0.6-1.3-0.5c-1.5,0.4-2.8,2.1-3.6,3.3c-0.7,1-1.3,2.1-1.7,3.3c-3.2-2-7.8,1.7-9.7,4.2c-0.9,1.1,0.7,2.6,1.5,1.5
			c1-1.4,2.3-2.5,3.7-3.4c1.3-0.7,3.1-1.2,4.1,0.3c0.8,1.3,0.6,3.2,0.3,4.6c-0.4,1.6-1.1,3.2-2.2,4.5c-0.7,0.9-2.1,2.4-3.4,2.1
			s-1.1-2.1-0.8-3c0.3-1.3,1.1-2.5,2.1-3.4c0.6-0.4,1.2-0.5,1.1,0.4c-0.1,0.7-0.4,1.3-0.8,1.8c-0.9,1,0.6,2.6,1.5,1.5
			c1.2-1.2,1.7-2.9,1.3-4.5c-0.6-1.9-2.8-2-4.2-1.1c-2.5,1.6-4.5,6-2.9,8.8c0.8,1.4,2.5,2,4,1.5c0.7-0.2,1.3-0.5,1.8-0.9
			c-0.3,1.8-0.4,3.5-0.2,5.3c0.2,1.5,0.8,3,1.8,4.2c-0.4,0.2-0.7,0.4-1,0.6c-0.4,0.3-0.9,0.7-1.2,1c-0.3-0.7-0.7-1.3-1.2-1.8
			c-0.6-0.6-1.5-0.9-2.4-0.7c-0.9,0.1-1.8,0.6-2.4,1.3c-0.7,1.3,0.6,3.4,1.6,4.1c0.3,0.3,0.7,0.4,1.1,0.6c-0.9,1.3-1.6,2.8-2.1,4.4
			c-0.8,2.6-1.8,7.6,1.6,8.9c3.1,1.2,6-2.1,7.4-4.5c1-1.7,1.6-3.6,1.5-5.6c-0.2-1.5-1.2-2.7-2.8-2.4c-2.9,0.4-5.4,5.2-3,7.5
			c1,1,2.5-0.6,1.5-1.5s1.4-4.5,2-3.6c0.2,0.3,0.1,1.3,0,1.6c-0.1,0.6-0.3,1.2-0.5,1.7c-0.5,1.2-1.1,2.3-2,3.2
			c-0.6,0.8-1.6,1.4-2.6,1.6c-1.3,0.1-1.6-1.1-1.6-2.2c0-2.6,0.7-5.1,2-7.4c0.6-1,1.4-1.9,2.2-2.7c1-1,2.1-2.2,3.5-2.6
			c2.1-0.5,3.2,1.5,3.5,3.2c0.9,4.6-1.6,9.8-4.2,13.5c-1.6,2.4-3.8,4.4-6.3,5.7c-1.2,0.7-2.6,1.1-4,1.2c-1.4,0-2.1-1-2.3-2.4
			s-2.4-1.4-2.2,0c0.1,1.5,0.8,2.9,1.9,3.8c1.4,1,3.1,0.8,4.7,0.4c3.5-1.1,6.6-3.2,8.8-6.1c2.3-2.8,4-6,5-9.4c0.9-3,1.3-6.6-0.3-9.5
			c-0.3-0.5-0.6-0.9-1-1.3c2.8-1.1,5.2-3.1,6.9-5.6c1.9-2.7,2.6-6.1,2.2-9.3c-0.6-3.1-3.1-5.3-6.3-4.1s-5.4,4.6-6,7.8
			c-0.4,1.6,0,3.3,1.2,4.6c1.3,1,3,1,4.3,0c1.5-1,2.5-2.7,2.5-4.5c0-1.1-0.9-2-2.1-2c-0.4,0-0.9,0.1-1.2,0.4c-1.1,0.8,0,2.7,1.1,1.9
			l0,0v0.1c-0.1,0.2-0.1,0.6-0.2,0.8c-0.3,0.6-0.7,1.1-1.2,1.5c-0.8,0.6-1.7,0.8-2.2-0.2c-0.9-2,0.7-4.9,2-6.4s4-3.1,5.4-0.8
			c1.1,1.9,0.6,4.6-0.1,6.6c-0.9,2.4-2.5,4.6-4.7,6c-1.6,1.1-4.7,3-6.2,0.8c-1.2-1.8-1-4.5-0.7-6.6
			C233.4,142.9,234.3,140.5,235.6,138.2z"/>
		<path class="st2" d="M154.7,169.5c0.1,1.3,0.6,2.5,1.6,3.4c1.2,0.8,2.8,1,4.2,0.5c3.3-0.9,6.2-2.9,8.2-5.6
			c2.1-2.6,3.7-5.5,4.6-8.7c0.7-2.7,1-6-0.5-8.5s-4.6-2.6-6.9-0.8c-2.6,2-4.6,4.7-5.6,7.9c-0.7,2.4-1.6,7,1.6,8c2.9,1,5.4-2,6.6-4.2
			c1-1.5,1.4-3.3,1.2-5.1c-0.1-1.2-1.2-2.1-2.5-2c-0.1,0-0.1,0-0.2,0c-2.6,0.5-4.8,4.8-2.7,6.9c1,1,2.5-0.6,1.5-1.5
			c-0.5-0.5,0-1.7,0.3-2.2c0.2-0.4,0.5-0.7,0.9-0.9s0.4-0.3,0.5,0.2c-0.1,2.1-0.9,4.2-2.5,5.6c-0.6,0.6-1.5,1.4-2.3,1.2
			c-1.1-0.1-1-1.6-1-2.4c0.1-2.2,0.8-4.4,2-6.2c0.6-0.8,1.2-1.6,1.9-2.3c0.7-0.9,1.7-1.6,2.8-2c1.9-0.5,2.8,1.4,3.1,2.9
			c0.7,4.1-1.5,8.5-3.8,11.7c-1.4,2.1-3.3,3.8-5.5,5c-1.2,0.7-2.4,1-3.8,1.1c-1.1,0-1.6-1-1.7-2
			C156.6,168.1,154.5,168.1,154.7,169.5L154.7,169.5z"/>
		<path class="st2" d="M179.4,123.9c-6.1,0.9-10.6,7.2-12.8,12.6c-1.3,2.9-1.8,6.1-1.4,9.3c0.4,2.8,2.1,5.1,5.2,4.6s6.2-3.1,7.8-5.7
			c1.7-2.6,2.3-5.7,1.7-8.7c-0.7-2.8-3.3-4.3-6-3.1c-2.7,1.4-4.6,4.1-5,7.2c-0.3,1.5,0.2,3,1.3,4c1.2,0.8,2.7,0.7,3.8-0.2
			c1.4-0.9,2.2-2.5,2.2-4.2c-0.1-1.1-1-1.9-2-1.8c-0.4,0-0.8,0.2-1.1,0.4c-1.1,0.8-0.1,2.7,1.1,1.9l-0.1-0.2c0,0.2,0,0.3-0.1,0.5
			c-0.1,0.3-0.2,0.5-0.4,0.8c-0.2,0.4-0.6,0.7-0.9,0.9c-0.8,0.5-1.5,0.2-1.7-0.7c-0.3-1.8,0.9-4,2.1-5.3c1.4-1.4,3.7-2.4,4.6-0.1
			c0.5,1.9,0.4,3.9-0.4,5.7c-0.9,2.2-2.6,4.1-4.6,5.3c-1.4,0.9-3.7,2-4.8,0c-0.9-1.7-0.7-4.1-0.4-5.9c0.4-2.2,1.1-4.3,2.2-6.3
			c2.1-3.9,5.6-8.3,10.3-9C181.4,125.7,180.8,123.6,179.4,123.9L179.4,123.9z"/>
		<path class="st2" d="M160.5,132.7c0.9-1.2,2-2.2,3.2-2.9c1-0.6,2.6-1.1,3.4,0s0.6,2.8,0.4,4c-0.3,1.5-1,2.8-1.9,4
			c-0.6,0.8-1.8,2.2-3,2s-0.9-1.7-0.7-2.4c0.3-1.1,0.8-2.1,1.7-2.9c0.4-0.3,1-0.8,1,0c0,0.6-0.3,1.1-0.7,1.6c-0.9,1,0.6,2.6,1.5,1.5
			c1.1-1.1,1.5-2.6,1.2-4.1c-0.5-1.6-2.3-1.9-3.6-1.2c-2.4,1.3-4.3,5.4-3,8c0.7,1.3,2.1,2,3.6,1.6c1.6-0.5,3-1.6,3.9-3
			c2-2.6,3.5-7.2,1.4-10.2c-2.8-4-7.9,0-10,2.6C158.1,132.3,159.6,133.8,160.5,132.7L160.5,132.7z"/>
		<path class="st2" d="M168.5,129.1c-0.1-0.4,0-0.8,0.2-1.2c0.7-2.1,2.1-4,3.9-5.2h0.1c0,0,0,0.1,0,0.2c0,0.6-0.1,1.2-0.3,1.8
			c-0.3,0.9-0.8,1.7-1.4,2.3c-0.6,0.6-1.2,1.2-1.9,1.6c-0.1,0.1-0.3,0.2-0.4,0.2c-0.1,0-0.2,0-0.2-0.2v-0.1"/>
		<path class="st2" d="M169.6,129.1c-0.1-1,0.7-2.3,1.2-3.1c0.4-0.7,1.4-2.1,2.2-2.3l-1.2-0.5c-0.2-0.5-0.1-0.3-0.2,0.2
			c0,0.3-0.1,0.5-0.2,0.8c-0.2,0.6-0.5,1.1-0.8,1.6c-0.6,0.9-1.5,1.6-2.4,2.1l0.8-0.1h-0.2l0.8,0.8l-0.1-0.2
			c-0.4-1.3-2.5-0.8-2.1,0.6c0.8,2.5,3.6-0.3,4.5-1.3c0.7-0.8,1.2-1.7,1.6-2.7c0.4-0.9,0.4-1.9,0.2-2.8c-0.3-0.4-0.7-0.6-1.2-0.5
			c-1.4,0.4-2.5,1.9-3.3,3s-1.9,3-1.7,4.5S169.8,130.6,169.6,129.1L169.6,129.1z"/>
		<path class="st2" d="M164.5,152.4c-0.2,0.3-0.6,0.4-0.9,0.4c-1.6,0.2-2.8-0.9-3-2.7V150c0-0.1,0.1-0.1,0.2-0.1
			c0.4-0.3,0.9-0.5,1.4-0.6c0.6-0.1,1.1,0.2,1.4,0.7c0.3,0.5,0.6,1.1,0.7,1.8c0.1,0.2,0.1,0.3,0.1,0.5s-0.1,0.4-0.3,0.5"/>
		<path class="st2" d="M163.7,151.7c-0.9,0.8-2.1-0.8-2.1-1.6l-0.3,0.8c0.3-0.4,0.8-0.5,1.2-0.3c0.2,0.2,0.3,0.4,0.4,0.7
			c0.1,0.2,0.1,0.4,0.2,0.5c0,0.3,0,0.4,0.1,0.2c-1,1,0.5,2.5,1.5,1.5c1.3-1.2,0.3-3.6-0.8-4.6c-0.6-0.6-1.4-0.8-2.2-0.6
			c-0.8,0.1-1.6,0.5-2.2,1.2c-0.7,1.2,0.5,3.1,1.5,3.8c1.2,0.9,3,0.9,4.1-0.1C166.2,152.3,164.7,150.8,163.7,151.7L163.7,151.7z"/>
		<path class="st2" d="M262,124.2c1.9-3.6,5.1-7.5,9.3-8.1c1.4-0.2,0.8-2.3-0.6-2.1c-3.5,0.6-6.5,3-8.7,6c-0.1-0.2-0.1-0.4-0.2-0.6
			c0.8-0.5,1.5-1.1,2.2-1.9s1.2-1.7,1.5-2.6c0.3-0.8,0.4-1.7,0.1-2.5c-0.3-0.4-0.7-0.6-1.2-0.5c-1.3,0.4-2.4,1.8-3.1,2.8
			c-0.5,0.7-1,1.6-1.3,2.4c-2.6-1.4-6.3,1.5-7.9,3.5c-0.9,1.1,0.7,2.6,1.5,1.5s4.3-4.8,6-2.6c0.7,1,0.5,2.5,0.3,3.6
			c-0.3,1.3-0.9,2.5-1.7,3.6c-0.5,0.7-1.5,1.8-2.5,1.7s-0.9-1.3-0.7-2c0.2-1,0.7-2,1.5-2.7c0.3-0.2,0.6-0.6,0.8-0.3
			s-0.4,1.3-0.6,1.5c-0.9,1,0.6,2.6,1.5,1.5c1-1,1.4-2.4,1.1-3.8c-0.4-1.2-1.7-1.8-2.9-1.5c-0.2,0.1-0.3,0.1-0.5,0.2
			c-2.4,1.1-4.1,5-3,7.4c0.6,1.2,1.9,1.9,3.2,1.6c0.6-0.1,1.1-0.3,1.6-0.6c-0.2,1.5-0.2,3,0,4.5c0.2,1,0.6,2,1.3,2.8
			c-0.3,0.1-0.5,0.3-0.8,0.5c-0.2,0.2-0.4,0.4-0.7,0.5c-0.2-0.5-0.5-0.9-0.9-1.3c-0.6-0.5-1.4-0.8-2.1-0.6c-0.8,0.1-1.5,0.5-2,1.1
			c-0.6,1.1,0.5,3,1.4,3.6c0.2,0.2,0.5,0.3,0.8,0.4c-0.7,1.1-1.3,2.3-1.6,3.6c-0.6,2.2-1.3,6.3,1.6,7.2c2.7,0.9,5.1-1.9,6.3-4
			c0.8-1.4,1.2-3,1-4.6c-0.1-1.2-1.2-2-2.4-1.9c-0.1,0-0.2,0-0.2,0c-2.4,0.5-4.4,4.5-2.4,6.4c0.4,0.4,1,0.4,1.4,0.1
			c0.1,0,0.1-0.1,0.1-0.2c-0.3,0.5-0.7,0.9-1.1,1.3c-0.5,0.4-1.4,1.2-2.1,0.8s-0.5-1.7-0.5-2.4c0.1-1.9,0.8-3.8,1.9-5.4
			c0.6-0.8,1.2-1.5,1.9-2.1c0.7-0.7,1.6-1.6,2.7-1.6c1.5,0,2.1,1.8,2.2,3.1c0.4,3.6-1.5,7.5-3.6,10.3c-1.3,1.9-3,3.4-5,4.5
			c-1.6,0.8-4.4,1.8-4.8-0.8c-0.2-1.4-2.4-1.4-2.2,0c0.1,1.2,0.6,2.4,1.5,3.2c1.1,0.7,2.4,0.9,3.7,0.5c3-0.8,5.7-2.5,7.6-5
			c2-2.4,3.4-5.1,4.3-8.1c0.7-2.5,1-5.5-0.4-7.8c-0.2-0.3-0.3-0.5-0.5-0.7c2.3-1,4.3-2.7,5.7-4.9c1.4-2.3,2.2-5.5,1.3-8.2
			c-0.6-2.1-2.7-3.3-4.8-2.8c-0.3,0.1-0.6,0.2-0.9,0.4c-2.6,1.4-4.3,4-4.5,6.9c-0.2,2.9,2.4,5,5,3.1c1.3-0.9,2.1-2.4,2-4
			c-0.1-1-1-1.8-2-1.7c-0.4,0-0.7,0.2-1,0.4c-0.5,0.4-0.6,1.1-0.2,1.6c0.2,0.3,0.6,0.5,1,0.4c-0.1,0.2-0.1,0.4-0.2,0.6
			c-0.2,0.4-0.5,0.7-0.9,1c-0.7,0.5-1.3,0.3-1.4-0.6c-0.4-1.7,0.9-3.8,2-4.9s3.2-1.9,4,0.1c0.5,1.7,0.3,3.6-0.5,5.2
			c-0.9,2-2.3,3.6-4.2,4.7c-1.3,0.8-3.3,1.8-4.2,0c-0.7-1.7-0.8-3.6-0.3-5.3C260.4,127.9,261.1,125.9,262,124.2z M258.5,146.7
			c-0.4-0.4,0-1.5,0.3-1.9c0.2-0.3,0.5-0.6,0.8-0.8c0.3-0.1,0.2-0.1,0.2,0.3c-0.1,1.3-0.4,2.5-1.1,3.6
			C258.9,147.5,258.8,147,258.5,146.7L258.5,146.7z"/>
		<path class="st2" d="M199.7,120.6c2.4-3.4,6.2-6.9,10.6-7c1.4,0,1.1-2.2-0.3-2.2c-3.7,0.1-7,2.2-9.7,5c0-0.2-0.1-0.4-0.1-0.7
			c0.9-0.4,1.7-0.9,2.5-1.6s1.4-1.5,1.9-2.5c0.4-0.8,0.6-1.6,0.4-2.5c-0.2-0.5-0.7-0.7-1.2-0.7c-1.4,0.2-2.6,1.5-3.5,2.4
			c-0.7,0.7-1.2,1.5-1.7,2.3c-2.5-1.8-6.6,0.7-8.6,2.5c-1,1,0.3,2.8,1.4,1.8s5.1-4.3,6.4-1.9c0.6,1.1,0.2,2.6-0.2,3.7
			c-0.5,1.3-1.2,2.4-2.2,3.4c-0.6,0.6-1.8,1.6-2.8,1.4s-0.7-1.5-0.5-2.2c0.4-1,1-1.9,1.9-2.5c0.3-0.2,0.7-0.5,0.8-0.2
			s-0.6,1.2-0.8,1.5c-1.1,0.9,0.3,2.7,1.4,1.8c1.1-0.9,1.8-2.3,1.7-3.8c-0.2-1.3-1.5-2.1-2.7-1.9c-0.2,0-0.3,0.1-0.5,0.2
			c-2.6,0.8-4.9,4.5-4,7.2c0.4,1.3,1.7,2.2,3.1,2.1c0.6,0,1.2-0.2,1.7-0.4c-0.5,1.5-0.7,3-0.6,4.6c0,1.1,0.4,2.1,0.9,3
			c-0.3,0.1-0.6,0.2-0.8,0.4c-0.2,0.1-0.5,0.3-0.8,0.5c-0.2-0.5-0.4-1-0.7-1.4c-0.5-0.6-1.3-1-2.1-0.9c-0.8,0-1.6,0.3-2.2,0.9
			c-0.8,1.1,0.1,3.1,0.9,3.9c0.2,0.2,0.5,0.4,0.7,0.5c-0.9,1-1.6,2.2-2.2,3.5c-0.9,2.2-2.2,6.2,0.6,7.6c2.6,1.3,5.5-1.2,6.9-3.2
			c1-1.3,1.6-2.9,1.7-4.6c0-1.2-0.9-2.2-2.1-2.3c-0.1,0-0.2,0-0.3,0c-2.5,0.2-5,4-3.3,6.2c0.3,0.5,1,0.6,1.5,0.2l0.1-0.1
			c-0.4,0.4-0.8,0.8-1.3,1.2c-0.6,0.4-1.6,1-2.3,0.5s-0.3-1.9-0.2-2.5c0.4-2,1.3-3.8,2.7-5.3c0.7-0.7,1.4-1.4,2.2-1.9
			c0.8-0.6,1.9-1.4,3-1.3c1.6,0.2,1.9,2.1,1.9,3.5c-0.1,3.8-2.5,7.4-5,10.1c-1.6,1.7-3.5,3.1-5.7,3.9c-1.8,0.6-4.7,1.2-4.7-1.5
			c0-1.4-2.2-1.7-2.2-0.3c-0.1,1.3,0.3,2.5,1.1,3.4c1,0.9,2.4,1.2,3.7,1c3.2-0.4,6.2-1.8,8.4-4.1c2.3-2.1,4.2-4.8,5.5-7.6
			c1-2.4,1.8-5.5,0.7-8c-0.1-0.3-0.3-0.6-0.5-0.8c2.5-0.7,4.8-2.2,6.5-4.3c1.7-2.2,3-5.3,2.5-8.2c-0.2-2.2-2.2-3.8-4.4-3.5
			c-0.4,0-0.7,0.1-1.1,0.3c-2.8,1-5,3.4-5.7,6.4c-0.6,2.9,1.8,5.5,4.6,3.9c1.3-0.7,2.6-2.2,2.5-3.8c0-1.1-0.8-1.9-1.8-2
			c-0.3,0-0.7,0.1-1,0.2c-0.6,0.3-0.8,0.9-0.5,1.5c0.2,0.4,0.6,0.7,1.1,0.7c-0.1,0.2-0.2,0.4-0.3,0.5c-0.3,0.4-0.6,0.7-1,0.9
			c-0.8,0.4-1.3,0.1-1.4-0.8c-0.1-1.8,1.4-3.8,2.7-4.8s3.5-1.6,4,0.7c0.2,1.8-0.2,3.7-1.2,5.2c-1.2,1.9-2.9,3.4-4.9,4.2
			c-1.4,0.6-3.6,1.3-4.3-0.6c-0.6-1.7-0.1-3.8,0.4-5.5C197.5,124.2,198.5,122.3,199.7,120.6z M193.1,143.1c-0.4-0.5,0.2-1.5,0.6-1.9
			c0.3-0.3,0.6-0.6,1-0.7c0.3-0.1,0.3-0.1,0.2,0.3c-0.2,1.3-0.8,2.5-1.6,3.5C193.4,144,193.4,143.5,193.1,143.1L193.1,143.1z"/>
		<circle class="st6" cx="145.8" cy="128.6" r="4.6"/>
		<path class="st2" d="M145.8,134c-3,0-5.4-2.4-5.4-5.4s2.4-5.4,5.4-5.4s5.4,2.4,5.4,5.4l0,0C151.2,131.6,148.8,134,145.8,134z
			 M145.8,124.7c-2.1,0-3.9,1.7-3.9,3.9c0,2.1,1.7,3.9,3.9,3.9c2.1,0,3.9-1.7,3.9-3.9C149.7,126.5,147.9,124.7,145.8,124.7
			L145.8,124.7z"/>
		<circle class="st6" cx="222.9" cy="98.3" r="4.6"/>
		<path class="st2" d="M222.9,103.7c-3,0-5.4-2.4-5.4-5.4s2.4-5.4,5.4-5.4s5.4,2.4,5.4,5.4l0,0C228.3,101.3,225.9,103.7,222.9,103.7
			z M222.9,94.4c-2.1,0-3.9,1.7-3.9,3.9c0,2.1,1.7,3.9,3.9,3.9c2.1,0,3.9-1.7,3.9-3.9l0,0C226.8,96.2,225,94.5,222.9,94.4z"/>
		<circle class="st6" cx="211.7" cy="130.3" r="4.6"/>
		<path class="st2" d="M211.7,135.7c-3,0-5.4-2.4-5.4-5.4s2.4-5.4,5.4-5.4s5.4,2.4,5.4,5.4l0,0C217.1,133.3,214.7,135.7,211.7,135.7
			z M211.7,126.5c-2.1,0-3.9,1.7-3.9,3.9c0,2.1,1.7,3.9,3.9,3.9c2.1,0,3.9-1.7,3.9-3.9l0,0C215.6,128.2,213.8,126.5,211.7,126.5z"/>
		<circle class="st6" cx="289.3" cy="99.8" r="4.6"/>
		<path class="st2" d="M289.3,105.2c-3,0-5.4-2.4-5.4-5.4s2.4-5.4,5.4-5.4s5.4,2.4,5.4,5.4C294.7,102.8,292.3,105.2,289.3,105.2z
			 M289.3,96c-2.1,0-3.9,1.7-3.9,3.9s1.7,3.9,3.9,3.9c2.1,0,3.9-1.7,3.9-3.9l0,0C293.2,97.7,291.4,96,289.3,96L289.3,96z"/>
		<path class="st5" d="M62.5,245.4c0,0-5.4-5.9-2.4-6.1s26.9,26,76.3,13.6c0,0,5.4,2,1.1,5.7C135.4,260.5,97.9,275.9,62.5,245.4z"/>
		<path class="st2" d="M63.2,244.7c-1.3-1.3-2.3-2.8-3-4.5c0-0.2,0,0,0,0.1s-0.2-0.1,0.1,0s-0.2-0.1,0.2,0.1l0.5,0.3
			c2.3,1.3,4.4,2.9,6.7,4.3c9.1,5.7,19.3,9.5,29.9,11.2c7.8,1.2,15.7,1.3,23.5,0.5c4.7-0.5,9.3-1.3,13.9-2.4l0.9-0.2
			c0.1,0,0.8-0.3,0.4-0.2c0.1,0-0.2-0.1,0,0c0.4,0.2,0.8,0.4,1.1,0.6c0.8,0.5,1.1,1.5,0.6,2.3c-0.1,0.2-0.2,0.3-0.4,0.4
			c-0.2,0.3-0.5,0.5-0.8,0.7c0.3-0.2,0.1-0.1,0,0l-0.5,0.3c-0.4,0.2-0.9,0.4-1.3,0.6c-1.5,0.6-2.9,1.1-4.5,1.6
			c-5,1.5-10.2,2.4-15.5,2.7c-16.4,0.8-32.5-3.9-45.8-13.5C67.2,248,65.1,246.4,63.2,244.7c-1-0.8-2.4,0.5-1.5,1.4
			c13.9,11.9,31.2,19.2,49.6,19.1c6,0,11.9-0.8,17.7-2.3c2.9-0.8,6.2-1.6,8.8-3.3c2.2-1.5,3.3-4.4,1.2-6.4c-0.6-0.6-1.4-1.1-2.2-1.4
			c-0.9-0.2-2,0.3-2.8,0.5c-1.3,0.3-2.7,0.6-4.1,0.9c-8.8,1.8-17.9,2.3-26.9,1.5c-11.8-1.1-23.3-4.8-33.4-11
			c-2.5-1.5-4.9-3.3-7.5-4.8c-0.7-0.5-1.6-0.8-2.4-0.6c-3,0.8-0.2,4.6,0.8,5.9c0.5,0.6,1,1.2,1.5,1.8
			C62.7,247,64.1,245.7,63.2,244.7z"/>
		<path class="st3" d="M129.9,256.2c0,0-2.8,0.4,3.1,1.5c4.3,0.8,10.4-13.8,20.3-24.5c10-10.9,17.8-17.1,7.2-42.2
			C160.5,191,123.8,195.8,129.9,256.2z"/>
		<path class="st2" d="M161.4,190.7c-0.1-0.4-0.5-0.8-0.9-0.7c-4.5,0.6-8.9,2.8-12.6,5.4c-9.5,6.6-15.1,17.1-17.6,28.1
			c-2.4,10.5-2.5,21.4-1.5,32.1c-0.5,0.4-0.7,1.1-0.3,1.6c0.1,0.2,0.3,0.4,0.5,0.4c1.3,0.6,2.7,1,4.1,1.1c0.8,0,1.6-0.2,2.3-0.7
			c2.1-1.4,3.6-3.7,5-5.7c2.1-3,4.1-6.1,6.2-9.2c2.4-3.4,5-6.7,7.8-9.8c1.8-1.9,3.6-3.8,5.3-5.9c3.2-3.8,5.7-8,6.5-12.9
			C167.5,206.4,164.5,198.1,161.4,190.7z M129.8,257.2L129.8,257.2L129.8,257.2L129.8,257.2z M160.2,223.8c-3,4.2-6.9,7.7-10.2,11.7
			c-4.4,5.4-7.9,11.4-12.1,17c-0.7,1-1.6,2-2.5,2.9c-0.5,0.6-1.2,1.1-2,1.3c-0.6,0-1.1-0.1-1.7-0.3c-0.3-0.1-0.6-0.2-1-0.3
			c-1.6-16-1.1-33.8,7.6-47.8c4.1-6.9,10.4-12.2,17.9-15.2c1-0.4,2.1-0.7,3.2-1l0.4-0.1c2.5,6.1,4.8,12.7,4.7,19.4
			C164.5,215.9,162.9,220.2,160.2,223.8z"/>
		<path class="st0" d="M44.5,198.1c-0.3,1.8-0.4,3.6-0.5,5.3l0,0c-1.2,21.8,9.2,40.3,9.2,40.3c32.9,29.6,76.9,11.1,76.9,11.1
			c0-10.1,1.3-20.2,3.8-30C74.5,222.9,51.6,205.4,44.5,198.1z"/>
		<path class="st5" d="M123.6,257c2.2-0.6,4.4-1.3,6.6-2.2c0-10.1,1.3-20.2,3.8-30l0.1-0.4c0-0.2,0.1-0.3,0.1-0.5
			c-4.7-0.2-9.6-0.9-12.2-1.4C121.3,236.7,123.3,250.8,123.6,257z"/>
		<path class="st5" d="M50.2,223.8c0,0,4.1,5.1,11.8,0.9s2.6-8.5-1.7-5.6s-7,1.9-7.7,0.7S46.8,220.1,50.2,223.8z"/>
		<path class="st0" d="M45.5,193c-0.1,0.3-0.1,0.7-0.2,1c6.3,6.9,28.7,25.3,89.8,27.4l0.1-0.3c-33-5.2-51.7-20.1-51.7-20.1
			C70.2,203.4,56.6,200.5,45.5,193z"/>
		<path class="st3" d="M54.8,173.1c-5.4,6.3-7.8,12.5-9.4,19.9c11.1,7.5,24.8,10.4,38,8c0,0,18.7,14.8,51.7,20.1
			c0.4-1.2,0.8-2.3,1.2-3.4c1.4-3.6,3.1-7.1,5.3-10.4C113.4,169.8,69.2,171.4,54.8,173.1z"/>
		<path class="st7" d="M130.3,195c-5.5,7-7.6,17.3-8.2,27.6c2.6,0.4,7.5,1.1,12.2,1.4c0.2-0.9,0.5-1.7,0.8-2.6l0.1-0.3
			c0.4-1.2,0.8-2.3,1.2-3.4c1.4-3.6,3.1-7.1,5.3-10.4l0.2-0.2C137.9,202.4,132.7,197.3,130.3,195z"/>
		<path class="st3" d="M161.4,192.7c-0.1-6.8-47.2-62.9-94.2-30.3c-4.5,3-8.7,6.6-12.3,10.7c14.4-1.6,58.6-3.2,86.8,34.2
			C150.6,193.7,161.4,192.7,161.4,192.7z"/>
		<path class="st7" d="M161.4,192.7c-0.1-5-25.7-36.9-58-40.2c40.6,15,42.5,33.6,42.5,33.6c-6.2,0.7-11.7,3.9-15.5,8.8
			c2.4,2.3,7.6,7.4,11.5,12C150.7,193.7,161.4,192.7,161.4,192.7z"/>
		<path class="st2" d="M160.7,188.6c-1.3-2.2-2.8-4.2-4.5-6.1c-4.8-5.7-10.2-10.9-16.2-15.4c-7.1-5.5-15.2-9.8-23.7-12.8
			c-9.1-3.1-18.9-3.8-28.4-2.1c-11.6,2.3-22.3,8.8-30.8,16.9c-1,1-2,2.1-3,3.2c-4.9,5.9-8.2,12.9-9.6,20.4l0,0
			c-0.1,0.3-0.1,0.6-0.2,0.9v0.1c-0.2,0.8-0.3,1.6-0.5,2.4c-0.2,0.6-0.3,1.3-0.3,1.9l0,0c-1.7,12.2,0.3,24.7,4.5,36.2
			c1.1,3.1,2.4,6.1,3.9,9.1c0.4,0.8,1.1,1.6,1.8,2.1c2.4,2,4.9,3.9,7.5,5.6c9.2,5.8,19.7,9.3,30.6,10.1c8.7,0.7,17.4,0.1,25.9-1.7
			c4.2-0.8,8.4-2.1,12.4-3.6l0.2-0.1c0.4-0.1,0.7-0.5,0.7-0.9c0-10,1.3-20,3.8-29.7c0.3-1.2,0.7-2.3,1-3.5l0.1-0.3
			c1.5-4.8,3.7-9.3,6.4-13.6c3.2-5,7.6-9.2,12.8-12c1.4-0.7,2.9-1.3,4.5-1.7c0.4-0.1,0.9-0.2,1.3-0.3h0.3l0,0c0.1,0,0.1,0,0.2-0.1
			c0.5-0.1,0.8-0.5,0.8-0.9C162.1,191.3,161.6,189.8,160.7,188.6z M129.2,254.2c-2.9,1.1-5.9,2-9,2.7c-7.7,1.9-15.6,2.8-23.5,2.6
			c-10.4-0.2-20.6-2.7-29.8-7.4c-2.6-1.4-5.1-2.9-7.4-4.6c-1.2-0.9-2.5-1.8-3.6-2.8c-0.6-0.4-1.2-1-1.8-1.5c-0.4-0.6-0.7-1.3-1-2
			c-0.7-1.4-1.3-2.8-1.9-4.3c-4.3-10.5-6.8-22.1-6.1-33.5c0.1-1.1,0.2-2.2,0.3-3.2l0.3,0.3c0.3,0.2,0.5,0.5,0.8,0.7
			c4,3.4,8.3,6.4,13,8.7l0.2,0.1l0.5,0.3l0.7,0.4l0.5,0.2l1.4,0.7l0.7,0.3l1.7,0.8l0.5,0.2l2,0.8l0.3,0.1l2.1,0.8l0.2,0.1l2.1,0.8
			l0.3,0.1l2.1,0.7l0.3,0.1l2,0.7l0.5,0.1l1.9,0.6l0.7,0.2l1.7,0.5l0.9,0.2l1.5,0.4l1.1,0.3l1.3,0.3L88,220l1.1,0.2l1.5,0.3l0.9,0.2
			l1.7,0.3l0.9,0.2l1.7,0.3l0.9,0.2l1.5,0.3l0.7,0.1h0.3l0.7,0.1l1.9,0.3l1.9,0.3l2,0.3l2.3,0.3l1.1,0.1c7.9,1,15.8,1.6,23.8,1.9
			h0.1C130.5,235,129.3,244.6,129.2,254.2L129.2,254.2z M49.2,196.4c0.8,0.5,1.7,0.9,2.5,1.3l0.1,0.1c1.7,0.8,3.5,1.5,5.3,2.1h0.1
			c0.9,0.3,1.7,0.6,2.6,0.8l0.3,0.1c1.7,0.5,3.5,0.9,5.3,1.2l0.4,0.1c0.8,0.1,1.7,0.2,2.5,0.3h0.5c0.9,0.1,1.7,0.2,2.6,0.2l0,0
			c1,0.1,2,0.1,3,0.1c0.8,0,1.6,0,2.4-0.1h0.6c1.9-0.1,3.9-0.3,5.8-0.6c2.5,1.9,5.2,3.6,8,5.1l0.1,0.1c1.9,1.1,3.8,2.1,5.7,3
			c5.8,2.8,11.8,5.2,18,7.1c1.5,0.5,3,0.9,4.6,1.4c1.5,0.4,3.1,0.8,4.6,1.2l0,0c-1.8-0.1-3.5-0.3-5.3-0.4h-0.4
			c-1.7-0.2-3.4-0.3-5.2-0.5l-0.7-0.1c-3.4-0.4-6.8-0.9-10.2-1.4l-0.9-0.1c-1.6-0.3-3.3-0.6-4.9-0.9l-0.6-0.1c-1.5-0.3-3-0.6-4.5-1
			l-0.8-0.2c-1.6-0.4-3.2-0.8-4.8-1.2l-1-0.3c-1.6-0.4-3.2-0.9-4.8-1.4l0,0c-9.8-3-19.4-7.1-27.7-13.1l-0.5-0.4
			c-0.9-0.7-1.8-1.4-2.7-2.2L49.2,196.4z M134.5,219.9l-1.9-0.3c-1.9-0.3-3.8-0.7-5.7-1.1c-0.9-0.2-1.9-0.4-2.8-0.7
			c-2.2-0.5-4.3-1.1-6.4-1.7c-1.3-0.4-2.6-0.8-3.8-1.2c-2.5-0.8-5-1.7-7.4-2.7c-2.8-1.1-5.5-2.3-8.2-3.6c-0.9-0.4-1.7-0.9-2.6-1.3
			s-1.7-0.9-2.4-1.2l-1.4-0.8c-0.7-0.4-1.3-0.7-1.9-1.1c-1.3-0.8-2.5-1.6-3.8-2.4c-0.6-0.4-1.2-0.9-1.8-1.3l-0.2-0.1l0,0l-0.2-0.1
			h-0.1c-0.1,0-0.2-0.1-0.3-0.1c-0.1,0-0.3,0-0.4,0c-0.3,0-0.6,0.1-0.8,0.2l-0.4,0.1c-0.6,0.1-1.3,0.2-1.9,0.2
			c-1.3,0.1-2.5,0.2-3.8,0.3c-4.4,0.2-8.7-0.2-13-1.2c-5.9-1.3-11.5-3.7-16.5-7c1.3-6.8,4.3-13.2,8.7-18.6l0,0
			c4.5-0.5,8.9-0.7,13.4-0.6H69c1.1,0,2.2,0,3.2,0.1h0.5c0.9,0,1.9,0.1,2.8,0.2l1.2,0.1c0.7,0.1,1.4,0.1,2.1,0.2
			c1.1,0.1,2.2,0.3,3.4,0.4c13.7,1.8,26.8,6.6,38.3,14.1c1,0.7,1.9,1.3,2.8,2c0.5,0.4,1,0.8,1.6,1.2s0.8,0.6,1.2,0.9
			c0.7,0.6,1.4,1.1,2,1.7l0.6,0.5c0.8,0.7,1.5,1.4,2.3,2.1l0.2,0.2c0.8,0.8,1.6,1.6,2.4,2.4l0,0c2.4,2.5,4.6,5.1,6.7,7.8l0,0
			C137.9,211.2,136,215.5,134.5,219.9z M154.3,194c-5.1,2.8-9.5,6.7-12.8,11.6c-1.2-1.5-2.5-3-3.8-4.5l0,0c-0.7-0.7-1.3-1.4-2-2.1
			l0,0c-0.7-0.7-1.3-1.3-2-2l-0.1-0.1c-0.7-0.7-1.3-1.3-2-1.9l-0.1-0.1c-0.7-0.6-1.3-1.2-2-1.8l-0.2-0.2c-0.7-0.6-1.3-1.1-2-1.6
			l-0.3-0.2c-0.7-0.5-1.3-1-2-1.5l-0.4-0.3c-0.6-0.5-1.3-0.9-1.9-1.4l-0.5-0.4c-0.6-0.4-1.2-0.8-1.9-1.2l-0.7-0.4
			c-0.6-0.4-1.2-0.8-1.8-1.1l-0.8-0.5c-0.6-0.3-1.1-0.6-1.7-1l-1-0.6c-0.5-0.3-1-0.6-1.6-0.8l-1.3-0.6l-1.4-0.7
			c-0.5-0.2-1.1-0.5-1.6-0.7l-1.1-0.5c-0.9-0.4-1.8-0.8-2.8-1.1c-11.6-4.4-23.9-6.7-36.4-6.7c-1,0-2,0-3,0h-1.5h-1.3l-2,0.1h-0.8
			l-2.3,0.2h-0.1c3.9-3.9,8.2-7.4,12.9-10.3c4.5-2.9,9.5-5,14.6-6.5c9.1-2.4,18.8-2.3,27.8,0.3c8.5,2.5,16.5,6.4,23.6,11.6
			c6.2,4.3,11.8,9.4,16.8,15c1.8,2,3.5,4.1,5,6.3c0.5,0.8,1.1,1.6,1.5,2.5c0.2,0.3,0.3,0.6,0.5,1c0,0,0.1,0.2,0.1,0.3l0,0
			C158.2,192.3,156.2,193.1,154.3,194L154.3,194z"/>
		<path class="st2" d="M49.2,223.9c1.5,1.5,3.4,2.6,5.5,3.1c3.1,0.8,6.4,0.2,9-1.8c1-0.7,0-2.4-1-1.7c-2.2,1.7-5.1,2.3-7.8,1.6
			c-1.6-0.4-3.1-1.3-4.3-2.5C49.8,221.6,48.4,223,49.2,223.9L49.2,223.9z"/>
		<path class="st2" d="M81.1,237c-0.9-0.3-0.5-1.5,0.4-1.4s0.8-1.2,0-1.3c-1.1-0.1-2.1,0.7-2.2,1.8c-0.1,1,0.5,1.8,1.5,2.1
			C81.6,238.5,81.9,237.3,81.1,237L81.1,237z"/>
		<path class="st2" d="M61.9,224.7c-0.7-1-1.3-2.1-1.7-3.2c-0.3-0.8-1.6-0.4-1.2,0.4c0.5,1.2,1.1,2.4,1.8,3.5
			C61.2,226.1,62.3,225.4,61.9,224.7L61.9,224.7z"/>
		<path class="st2" d="M60,225.3c-0.7-0.8-1.2-1.7-1.6-2.6c-0.3-0.8-1.6-0.4-1.3,0.4c0.4,1.2,1.1,2.3,1.9,3.2
			C59.5,226.8,60.5,225.9,60,225.3L60,225.3z"/>
		<path class="st2" d="M57.7,225.8c-0.6-0.7-1.1-1.5-1.6-2.3c-0.4-0.7-1.5-0.1-1.1,0.7c0.5,0.9,1.1,1.8,1.8,2.6
			C57.3,227.4,58.2,226.4,57.7,225.8L57.7,225.8z"/>
		<path class="st4" d="M76.6,224.4c0.2,1.7,1.2,3.3,2.7,4.2s3.1,1.5,4.8,1.6c1.3,0.2,2.7,0,3.9-0.7c1.2-0.8,1.5-2.3,0.8-3.5
			c-0.9-0.8-2.1-1.1-3.2-0.8s-2.3,0.4-3.4,0.2c-1.8-0.6-2.6-2.7-4.3-3.6c-0.4-0.2-0.9-0.3-1.2,0c-0.1,0.2-0.2,0.4-0.2,0.7
			L76.6,224.4"/>
		<path class="st2" d="M76,224.6c0.5,2.7,2.4,4.8,5,5.6c2.3,0.8,5.9,1.4,7.8-0.6c1.2-1.1,1.3-2.9,0.2-4.1c-0.4-0.4-0.9-0.7-1.5-0.9
			c-1.4-0.3-2.8,0.2-4.2,0.3c-1.7,0.1-2.5-1-3.5-2.1c-0.7-0.8-1.8-2-3-1.8c-1.5,0.3-1,2.4-1,3.4c0,0.4,0.3,0.6,0.7,0.6
			s0.7-0.3,0.7-0.6c0-0.4-0.2-1.9,0.2-2s1.1,0.6,1.3,0.9c0.6,0.8,1.3,1.5,2.1,2.1c0.9,0.6,2.1,0.9,3.2,0.6c1.2-0.1,2.6-0.7,3.8-0.1
			c1.6,0.8,0.4,2.8-0.8,3.3c-1.3,0.4-2.8,0.4-4.1,0c-2.7-0.6-5.2-2.2-5.6-5.1C77,223.3,75.8,223.7,76,224.6L76,224.6z"/>
		<path class="st2" d="M81.2,222.3c0.5,0.6,1.1,1.1,1.8,1.5c0.8,0.3,1.6,0.4,2.4,0.2s0.5-1.4-0.3-1.2c-0.6,0.1-1.3,0-1.8-0.3
			s-0.8-0.8-1.2-1.2C81.5,220.9,80.5,221.8,81.2,222.3L81.2,222.3z"/>
		<path class="st6" d="M96,252.6c-15.4-10.6-35-14.2-45.6-14.9c0.8,2.1,1.8,4.1,2.9,6.1c32.9,29.6,76.9,11.1,76.9,11.1
			c0.1-4.7,0.3-9.1,0.8-13.1C114.9,239.1,96,252.6,96,252.6z"/>
		<path class="st2" d="M98.9,261.4L98.9,261.4c-7.8,0-15.5-1.1-22.9-3.5c-8.6-2.8-16.6-7.4-23.3-13.5c-0.1-0.1-0.1-0.1-0.2-0.2
			c-1.1-2-2.1-4-3-6.2c-0.2-0.4,0-1,0.5-1.1c0.1-0.1,0.3-0.1,0.4-0.1c12.8,0.9,31.4,5.2,45.5,14.8c2.8-1.9,16.9-11,30.7-11
			c1.5,0,2.9,0.1,4.4,0.3c0.5,0.1,0.8,0.5,0.7,0.9c-0.4,4.1-0.7,8.5-0.8,13c0,0.3-0.2,0.7-0.5,0.8
			C120.4,259.4,109.7,261.4,98.9,261.4z M54,243.2c12.2,10.9,27.3,16.5,44.9,16.5c10.4,0,20.7-1.9,30.5-5.4c0.1-4.1,0.3-8,0.7-11.8
			c-1.1-0.1-2.2-0.2-3.3-0.2c-14.5,0-30,10.9-30.2,11c-0.3,0.2-0.7,0.2-1,0c-13.4-9.2-31.1-13.6-43.8-14.7
			C52.8,241.1,53.7,242.7,54,243.2z"/>
		
			<ellipse transform="matrix(0.4037 -0.9149 0.9149 0.4037 -206.4747 210.765)" class="st5" cx="58.4" cy="263.8" rx="6.1" ry="6.1"/>
		<path class="st2" d="M63.3,258.7c-2.8-2.7-7.3-2.6-10,0.2c-2.7,2.8-2.6,7.3,0.2,10s7.3,2.6,10-0.2c0.5-0.6,1-1.2,1.3-1.9v-0.1
			c0,0,0-0.1,0.1-0.1C66,263.8,65.4,260.7,63.3,258.7z M56.5,268.5c-2.6-1.1-3.9-4-2.8-6.6c1.1-2.6,4-3.9,6.6-2.8s3.9,4,2.8,6.6
			c0,0.1,0,0.1-0.1,0.2C62,268.4,59.1,269.5,56.5,268.5z"/>
		<path class="st4" d="M61.2,266.4l-3.2-6.5c1.5,0,3,0.7,3.9,1.9C63.3,263.8,61.2,266.4,61.2,266.4z"/>
		<path class="st2" d="M72.7,224.2c0.2-1.2,0.6-2.4,1-3.6c0.3-0.7-0.9-1-1.2-0.3c-0.4,1.2-0.8,2.4-1,3.6
			C71.4,224.6,72.5,224.9,72.7,224.2z"/>
		<path class="st2" d="M70.1,223.7c0.5-1.7,0.9-3.4,1.3-5.2c0.1-0.8-1-1.1-1.1-0.3c-0.3,1.7-0.7,3.5-1.2,5.1
			c-0.1,0.3,0.1,0.6,0.4,0.7C69.7,224.2,70.1,224,70.1,223.7L70.1,223.7L70.1,223.7z"/>
		<path class="st2" d="M67.2,224l1.8-7c0.1-0.3-0.1-0.6-0.4-0.7c-0.3-0.1-0.6,0.1-0.7,0.4l0,0l-1.8,6.9c-0.1,0.3,0.1,0.6,0.4,0.7
			c0.3,0.1,0.6-0.1,0.7-0.4l0,0V224z"/>
		<path class="st2" d="M64.7,224.8c0.2-1.7,0.6-3.4,1.1-5c0.2-0.7-0.9-1-1.1-0.3c-0.5,1.7-0.9,3.5-1.1,5.3
			C63.5,225.6,64.7,225.6,64.7,224.8L64.7,224.8z"/>
		<path class="st2" d="M101.8,234.1l2.8-9.2c0.2-0.7-0.9-1-1.2-0.3l-2.8,9.2C100.4,234.5,101.6,234.8,101.8,234.1L101.8,234.1z"/>
		<path class="st2" d="M99.7,231.9c0.4-2.3,1-4.6,1.6-6.9c0.1-0.3-0.1-0.6-0.4-0.7c-0.3-0.1-0.6,0.1-0.7,0.4
			c-0.6,2.3-1.2,4.6-1.6,6.9C98.5,232.3,99.6,232.7,99.7,231.9L99.7,231.9z"/>
		<path class="st2" d="M97.3,231c0.5-1.4,0.9-2.8,1.2-4.2c0.2-0.8-1-1.1-1.2-0.3c-0.3,1.4-0.7,2.8-1.2,4.2
			C95.9,231.4,97.1,231.7,97.3,231z"/>
		<path class="st2" d="M104.8,246.9c1.2-1.1,1.7-2.7,1.4-4.4c-0.1-0.8-1.3-0.5-1.2,0.3c0.2,1.2-0.2,2.4-1,3.2
			C103.4,246.5,104.2,247.4,104.8,246.9L104.8,246.9z"/>
		<path class="st2" d="M57,226.7c-0.6,1.7-0.7,3.6-0.3,5.4c0.1,0.3,0.4,0.5,0.7,0.4s0.5-0.4,0.5-0.7c-0.4-1.6-0.3-3.3,0.2-4.8
			C58.4,226.4,57.3,226,57,226.7L57,226.7z"/>
		<path class="st4" d="M91.9,245.9c1,0.7,2.3,1.1,3.5,1c3.5-0.1,6.6-2.5,7.7-5.8c0.9-3.4-0.7-7.1-3.9-8.6c-1.2-0.5-2.4-0.7-3.7-0.8
			c-1.5-0.3-3-0.2-4.4,0.3c-2.6,1.3-4.1,4-3.8,6.9C87.6,241.5,89.1,245.2,91.9,245.9"/>
		<path class="st2" d="M99.6,231.4c-5-2.2-11.4-1.2-13.2,4.5c-1.2,3.9,1,9.6,5,11.1c4.2,2.8,10.2,0.1,12.3-4.1
			C105.7,238.6,103.9,233.5,99.6,231.4L99.6,231.4z M101.4,242c-1.6,3-5.9,4.9-9,2.9c-0.1-0.1-0.3-0.2-0.5-0.2c-2.5-1-4-5-3.5-7.5
			c0.9-4.7,6.4-5.3,10.1-3.6c3.1,1.4,4.4,5.1,3,8.2C101.5,241.9,101.5,241.9,101.4,242z"/>
		<path class="st4" d="M64.9,239.3c1,0.7,2.3,1.1,3.5,1c3.5-0.1,6.6-2.5,7.7-5.8c0.9-3.4-0.7-7.1-3.9-8.6c-1.2-0.5-2.4-0.7-3.7-0.8
			c-1.5-0.3-3-0.1-4.4,0.4c-2.6,1.3-4.1,4-3.8,6.9C60.7,234.9,62.1,238.6,64.9,239.3"/>
		<path class="st2" d="M72.6,224.8c-5-2.2-11.4-1.2-13.2,4.5c-1.2,3.9,1,9.6,5,11.1c4.2,2.8,10.2,0.1,12.3-4.1
			C78.7,232,76.9,226.8,72.6,224.8L72.6,224.8z M74.4,235.3c-1.6,3-5.9,4.9-9,2.9c-0.1-0.1-0.3-0.2-0.4-0.2c-2.5-1-4-5-3.5-7.5
			c0.9-4.7,6.4-5.3,10.1-3.6c3.1,1.4,4.4,5.1,2.9,8.2C74.5,235.2,74.5,235.2,74.4,235.3L74.4,235.3z"/>
		<path class="st2" d="M70,239.1c-1.5,1-2.4,2.6-2.3,4.4c0,0.1,0,0.2-0.1,0.3s-0.3,0.1-0.4,0s-0.2-0.2-0.2-0.4
			c-0.2-0.6-0.3-1.3-0.3-2c0-0.4,0.1-0.8,0.3-1.2c0.2-0.4,0.5-0.7,0.9-0.8C68.6,239.2,69.3,239.1,70,239.1"/>
		<path class="st2" d="M67.9,239.2c0.7-0.1,1.3-0.2,2-0.2c0.1,0,0.1,0,0.1,0.1v0.1c-1.4,1-2.3,2.6-2.2,4.3c0,0.1,0,0.3-0.1,0.4
			c-0.1,0.1-0.1,0.1-0.2,0.1s-0.2,0-0.3-0.1c-0.1-0.1-0.2-0.3-0.2-0.4c-0.2-0.7-0.3-1.4-0.3-2.1c0-0.4,0.1-0.9,0.3-1.3
			C67.1,239.7,67.4,239.3,67.9,239.2L67.9,239.2z M69.6,239.2c-0.6,0-1.2,0.1-1.7,0.2c-0.4,0.1-0.7,0.4-0.8,0.8
			c-0.2,0.4-0.3,0.8-0.2,1.2c0,0.7,0.1,1.4,0.3,2c0,0.1,0.1,0.3,0.2,0.4c0,0,0.1,0.1,0.2,0.1h0.1c0-0.1,0-0.2,0-0.2
			C67.5,241.8,68.2,240.2,69.6,239.2L69.6,239.2z"/>
		<path class="st2" d="M65.6,239.4c-1.4,0.3-2.6,1.4-3.1,2.8c0,0.1-0.1,0.2-0.1,0.2c-0.1,0.1-0.3,0-0.3-0.1
			c-0.1-0.1-0.1-0.2-0.1-0.3c0-0.6,0.1-1.2,0.3-1.7c0.1-0.3,0.3-0.6,0.5-0.9c0.3-0.3,0.6-0.4,1-0.4
			C64.5,239.1,65.1,239.2,65.6,239.4"/>
		<path class="st2" d="M63.5,238.9c0.1,0,0.3,0,0.4,0c0.6,0.1,1.2,0.2,1.8,0.4l0.1,0.1c0,0.1,0,0.1-0.1,0.1c-1.4,0.3-2.5,1.4-3,2.7
			c0,0.1-0.1,0.2-0.2,0.3c-0.1,0-0.2,0-0.2,0c-0.1,0-0.2-0.1-0.2-0.2c-0.1-0.1-0.1-0.3-0.1-0.4c0-0.6,0.1-1.2,0.3-1.7
			c0.1-0.3,0.3-0.7,0.6-0.9C63,239.1,63.2,239,63.5,238.9z M65.2,239.4c-0.4-0.1-0.9-0.2-1.3-0.3c-0.3,0-0.6,0.1-0.9,0.4
			c-0.2,0.2-0.4,0.5-0.5,0.9c-0.2,0.5-0.3,1.1-0.3,1.7c0,0.1,0,0.2,0,0.3l0.1,0.1h0.1c0,0,0.1-0.1,0.1-0.2
			C62.8,240.9,63.9,239.8,65.2,239.4z"/>
		<path class="st2" d="M62,237.1c-1.5-0.3-3,0.2-4,1.2c-0.1,0.1-0.1,0.1-0.2,0.1c-0.1,0-0.2-0.1-0.2-0.2c0-0.1,0-0.3,0.1-0.4
			c0.3-0.5,0.6-1,1-1.4s0.8-0.8,1.3-1.1c0.3-0.1,0.2,0.5,0.6,0.6C61.1,236.3,61.6,236.7,62,237.1"/>
		<path class="st2" d="M60.1,235.3c0.3-0.1,0.4,0.2,0.4,0.3s0.1,0.2,0.2,0.3c0.5,0.3,1,0.7,1.4,1.1v0.1l-0.1,0.1
			c-1.4-0.3-2.9,0.2-3.9,1.2c-0.1,0.1-0.2,0.2-0.3,0.2s-0.2,0-0.2-0.1c-0.1-0.1-0.1-0.2-0.1-0.3s0-0.3,0.1-0.4c0.3-0.5,0.6-1,1-1.4
			l0.2-0.1C59.1,235.8,59.5,235.5,60.1,235.3L60.1,235.3z M61.7,236.9c-0.3-0.3-0.7-0.6-1.1-0.8c-0.1-0.1-0.3-0.3-0.3-0.4
			c-0.1-0.2-0.1-0.2-0.2-0.2c-0.4,0.3-0.8,0.6-1.1,1l-0.2,0.2c-0.4,0.4-0.7,0.9-1,1.4c-0.1,0.1-0.1,0.2-0.1,0.3c0,0,0,0.1,0.1,0.1
			h0.1c0,0,0.1-0.1,0.2-0.1C58.9,237.3,60.3,236.8,61.7,236.9L61.7,236.9z"/>
		<path class="st2" d="M88.2,243c0.4,1.7-0.2,3.5-1.5,4.8c-0.1,0.1-0.2,0.2-0.2,0.3c0,0.2,0.1,0.3,0.3,0.3c0.2,0,0.3-0.1,0.4-0.1
			c0.6-0.3,1.2-0.8,1.7-1.3c0.3-0.3,0.5-0.7,0.7-1.1c0.1-0.4,0.1-0.8-0.1-1.2C89.2,244,88.7,243.5,88.2,243"/>
		<path class="st2" d="M89.7,244.6c0.2,0.4,0.2,0.9,0.1,1.3c-0.2,0.4-0.4,0.8-0.7,1.1c-0.5,0.5-1.1,0.9-1.7,1.3
			c-0.1,0.1-0.3,0.1-0.5,0.1c-0.1,0-0.2-0.1-0.3-0.2c-0.1-0.1-0.1-0.2-0.1-0.2c0-0.1,0.1-0.2,0.2-0.3c1.2-1.2,1.8-2.9,1.4-4.6
			c0,0,0-0.1,0.1-0.1h0.1C88.8,243.4,89.2,243.9,89.7,244.6L89.7,244.6z M86.9,247.8c-0.1,0.1-0.1,0.1-0.1,0.2v0.1
			c0,0,0.1,0.1,0.2,0.1s0.3,0,0.4-0.1c0.6-0.3,1.2-0.7,1.6-1.2c0.3-0.3,0.5-0.6,0.7-1c0.1-0.4,0.1-0.8-0.1-1.1
			c-0.3-0.5-0.7-1-1.1-1.4C88.6,245,88.1,246.6,86.9,247.8L86.9,247.8z"/>
		<path class="st2" d="M91.1,246.3c0.8,1.3,0.9,2.8,0.2,4.2c-0.1,0.1-0.1,0.2-0.1,0.2c0.1,0.1,0.2,0.2,0.3,0.1
			c0.1,0,0.2-0.1,0.3-0.2c0.4-0.4,0.7-0.9,0.9-1.4c0.1-0.3,0.2-0.7,0.2-1c0-0.4-0.1-0.7-0.4-0.9C92.2,246.8,91.6,246.5,91.1,246.3"
			/>
		<path class="st2" d="M93.1,248.1c0,0.4-0.1,0.7-0.2,1.1c-0.3,0.5-0.6,1-1,1.5c-0.1,0.1-0.2,0.2-0.3,0.3c-0.1,0-0.2,0-0.3,0
			c-0.1,0-0.1-0.1-0.1-0.2c0-0.1,0-0.2,0.1-0.3c0.6-1.3,0.5-2.8-0.2-4v-0.1h0.1c0.6,0.2,1.1,0.6,1.5,0.9c0.1,0.1,0.2,0.2,0.2,0.3
			C93,247.7,93.1,247.9,93.1,248.1z M91.4,250.5c0,0.1-0.1,0.1-0.1,0.2l0,0h0.1c0.1,0,0.2-0.1,0.2-0.2c0.4-0.4,0.7-0.9,0.9-1.4
			c0.1-0.3,0.2-0.7,0.2-1s-0.1-0.6-0.4-0.9c-0.4-0.3-0.8-0.5-1.2-0.7C92,247.7,92.1,249.2,91.4,250.5L91.4,250.5z"/>
		<path class="st2" d="M95.3,247.1c1.3,0.8,2,2.2,2,3.7c0,0.1,0,0.2,0,0.3c0.1,0.1,0.2,0.1,0.3,0c0.1-0.1,0.1-0.2,0.2-0.3
			c0.2-0.6,0.2-1.2,0.2-1.7c0-0.6,0-1.2-0.2-1.8c-0.2-0.3-0.5,0.2-0.8,0.1C96.4,247.2,95.8,247.1,95.3,247.1"/>
		<path class="st2" d="M98,247.2c0.1,0.5,0.2,1,0.2,1.6c0,0.1,0,0.2,0,0.2c0,0.6-0.1,1.2-0.2,1.8c0,0.1-0.1,0.3-0.2,0.4
			c-0.1,0.1-0.2,0.1-0.3,0.1c-0.1,0-0.2,0-0.2-0.1c-0.1-0.1-0.1-0.2-0.1-0.3c0-1.4-0.7-2.8-1.9-3.6c0,0-0.1-0.1,0-0.2h0.1
			c0.6,0,1.2,0.1,1.8,0.2c0.1,0,0.3,0,0.4-0.1C97.6,247.1,97.8,247,98,247.2L98,247.2z M97.4,250.8c0,0.1,0,0.1,0,0.2c0,0,0,0,0.1,0
			h0.1c0.1-0.1,0.1-0.2,0.1-0.3c0.2-0.5,0.2-1.1,0.2-1.7c0-0.1,0-0.1,0-0.2c0-0.5,0-1-0.1-1.5c0-0.1-0.1-0.1-0.3,0
			c-0.2,0.1-0.3,0.1-0.5,0.1c-0.4-0.1-0.9-0.2-1.4-0.2C96.8,248.1,97.4,249.4,97.4,250.8L97.4,250.8z"/>
		<path class="st2" d="M33.2,236.1c0.2-1.1,0.3-2.1,0.3-3.2c0-0.4-0.3-0.6-0.7-0.6s-0.6,0.3-0.6,0.6c0,1-0.1,1.9-0.2,2.9
			C31.8,236.6,33.1,237,33.2,236.1z"/>
		<path class="st2" d="M36.8,236.9c0.2-1,0.2-2,0.1-2.9c0-0.4-0.3-0.6-0.7-0.6s-0.6,0.3-0.7,0.6c0.1,0.9,0.1,1.7,0,2.6
			C35.4,237.3,36.7,237.7,36.8,236.9L36.8,236.9z"/>
		<path class="st2" d="M39.6,237.2c0.4-1.1,0.5-2.4,0.3-3.6c-0.1-0.8-1.4-0.5-1.2,0.4c0.1,1,0,1.9-0.3,2.9
			C38,237.6,39.3,238,39.6,237.2L39.6,237.2z"/>
		<path class="st2" d="M43.4,236.5c0-1,0-1.9,0-2.9c0-0.4-0.3-0.6-0.7-0.6s-0.6,0.3-0.6,0.6c0,1,0,1.9,0,2.9c0,0.4,0.3,0.6,0.7,0.6
			C43.1,237.2,43.4,236.9,43.4,236.5z"/>
		<path class="st2" d="M47.2,236.5c0.1-1.1,0-2.2-0.2-3.2c-0.1-0.3-0.5-0.6-0.8-0.5s-0.6,0.5-0.5,0.8c0.3,0.9,0.3,1.9,0.2,2.9
			C45.8,237.4,47.1,237.4,47.2,236.5L47.2,236.5z"/>
		<circle class="st4" cx="91.7" cy="159.8" r="2.4"/>
		<circle class="st4" cx="100.7" cy="170.1" r="2.4"/>
		<circle class="st4" cx="111.3" cy="161.4" r="2.4"/>
		<circle class="st4" cx="78.5" cy="165" r="2.4"/>
		<circle class="st4" cx="117.7" cy="176.4" r="2.4"/>
		<circle class="st4" cx="134" cy="184.6" r="2.4"/>
		<circle class="st4" cx="143.4" cy="181.7" r="2.4"/>
		<circle class="st4" cx="143.2" cy="193" r="2.4"/>
		<circle class="st4" cx="128.6" cy="172.6" r="2.4"/>
		<path class="st0" d="M168.2,204c0,0-4.3,15.8-15.5,15.8c0,0-7.9,0.8-8-6.2s8.4-21.8,17-20.4c0,0,11.6-0.6,13.2-2.3
			c0,0,2.2-3.8,5.7-2.5s2.1,7.3-2.4,9.6C175.3,199.6,175.5,205.3,168.2,204z"/>
		<path class="st5" d="M157.6,211.5c-6.5,6.4-10.7,4.2-12.8,2.1c0,0,0,0,0,0.1c0.1,6.9,8,6.2,8,6.2c11.2,0,15.5-15.8,15.5-15.8
			c7.3,1.3,7-4.4,10.1-6c1.5-0.8,2.8-2,3.6-3.5c-4.8,2.8-10.9,3.4-13.2,3.9C165.2,199.2,167.4,201.9,157.6,211.5z"/>
		<path class="st2" d="M183.1,189.4c-1.2-2-3.7-2.8-5.8-1.8c-0.9,0.4-1.7,1.1-2.4,1.8c-0.2,0.3-0.4,0.5-0.6,0.8l-0.1,0.1h-0.1
			c-3.4,1.3-7.3,1.5-10.9,1.8c-1.4,0.1-2.5-0.1-3.9,0.1c-2.2,0.4-4.3,1.4-6,2.9c-3.9,3.4-6.7,7.7-8.4,12.6
			c-1.4,3.8-2.2,8.9,1.8,11.6c2.3,1.6,5.5,1.6,8.2,1.2c7.4-1.2,11.9-8.9,14-15.5c2,0.3,4.1-0.2,5.7-1.4c1.3-1.1,2-2.6,3.1-3.9
			c0.6-0.6,1.3-1.1,2.1-1.5c1.1-0.7,2-1.7,2.7-2.8C183.5,193.7,184.1,191.3,183.1,189.4z M178.6,196.8c-0.7,0.4-1.4,0.9-2,1.4
			c-0.5,0.6-1,1.2-1.4,1.8c-0.9,1.3-1.7,2.5-3.2,3c-1.1,0.3-2.3,0.3-3.4,0.1c-0.1,0-0.2,0-0.2,0c-0.5-0.1-0.9,0.2-1,0.7
			c-1.4,5.1-4.5,10.8-9.1,13.5c-2.3,1.3-5.1,1.9-7.7,1.4c-1.5-0.2-2.8-0.9-3.8-2c-1.1-1.5-1-3.5-0.7-5.3c1-4.4,3-8.5,5.9-12
			c1.4-1.7,3.1-3.2,5-4.3c1.5-0.8,3.3-1.2,5-1c1.1,0,2.1-0.1,3.2-0.2c1.9-0.2,3.9-0.4,5.8-0.7c1.5-0.1,3-0.6,4.4-1.2
			c1-0.6,1.4-1.8,2.5-2.4c1.7-1,3.9-0.2,3.9,1.9C181.6,193.7,180.4,195.6,178.6,196.8L178.6,196.8z"/>
		<path class="st2" d="M155.8,218.2l-2.4-4.2c-0.2-0.3-0.6-0.4-0.9-0.2c-0.3,0.2-0.4,0.6-0.2,0.9l2.4,4.2c0.2,0.3,0.6,0.4,0.9,0.2
			S156,218.5,155.8,218.2L155.8,218.2z"/>
		<path class="st2" d="M159.3,217l-2.3-3.3c-0.5-0.7-1.6,0-1.1,0.7l2.3,3.3C158.7,218.4,159.8,217.7,159.3,217L159.3,217z"/>
		<path class="st2" d="M161.9,215l-2.5-3.9c-0.4-0.7-1.6-0.1-1.1,0.7l2.5,3.9C161.3,216.4,162.4,215.7,161.9,215z"/>
		<path class="st2" d="M164.1,212.8c-0.5-1.2-1.1-2.3-1.8-3.3c-0.5-0.7-1.6,0-1.1,0.7c0.7,0.9,1.2,1.9,1.7,3
			C163.2,214,164.4,213.6,164.1,212.8L164.1,212.8z"/>
		<path class="st2" d="M166.1,209.7c-0.3-1.4-0.9-2.8-1.8-3.9c-0.5-0.7-1.6,0-1.1,0.7c0.8,1.1,1.3,2.3,1.6,3.6
			C165.1,210.9,166.3,210.5,166.1,209.7z"/>
		<path class="st2" d="M167.8,206.1c-0.4-0.9-0.9-1.8-1.4-2.7c-0.5-0.7-1.6,0-1.1,0.7s0.9,1.5,1.3,2.4c0.1,0.3,0.5,0.5,0.8,0.4
			C167.7,206.8,167.9,206.5,167.8,206.1L167.8,206.1z"/>
		<path class="st2" d="M175,202.1l-0.6-2.4c-0.1-0.3-0.5-0.5-0.8-0.4s-0.5,0.4-0.4,0.8l0.6,2.4c0.1,0.3,0.5,0.5,0.8,0.4
			C174.9,202.8,175.1,202.5,175,202.1z"/>
		<path class="st2" d="M172.8,203.4l-0.6-2.4c-0.1-0.3-0.5-0.6-0.8-0.5s-0.6,0.5-0.5,0.8l0,0l0.6,2.4c0.1,0.3,0.5,0.5,0.8,0.4
			C172.6,204.1,172.8,203.8,172.8,203.4L172.8,203.4z"/>
		<path class="st5" d="M102.8,234.6c0,0,1.6,6.3,10.3,5.8s5.9-6.6,0.8-5.8s-7.2-1.2-7.3-2.6S101.2,229.8,102.8,234.6z"/>
		<path class="st2" d="M102.1,233.9c0.1,0.2,0.2,0.4,0.3,0.7c0.2,0.4,0.3,0.8,0.5,1.2c0.4,0.9,1,1.8,1.7,2.5
			c2.6,2.5,6.4,2.9,9.8,2.9c0.6,0,1-0.4,1-1s-0.4-1-1-1c-3,0-6.5-0.2-8.7-2.5c-1-1.1-1.3-2.4-1.9-3.7
			C103.2,231.7,101.5,232.7,102.1,233.9L102.1,233.9z"/>
		<path class="st5" d="M103.4,265.1c-4-0.8-8.9-1.2-12.9-2c-0.2,0-0.6,5.1-1.4,7c1-0.2,5,2.8,5.1-2.3c0-0.3,9.2,0.8,10.7,1.1
			C104.8,268.9,105.5,265.5,103.4,265.1z"/>
		<path class="st2" d="M103.6,264.2c-2.4-0.5-4.8-0.8-7.2-1.1c-1.2-0.2-2.4-0.3-3.6-0.5c-0.8-0.1-2.2-0.7-2.9-0.3s-0.7,2.2-0.8,3
			c-0.1,1.6-0.5,3.1-1,4.6c-0.3,0.8,0.6,1.3,1.2,1.2c-0.4,0,0.2,0.1,0.4,0.2s0.7,0.2,1,0.3c0.7,0.3,1.5,0.3,2.3,0.1
			c0.8-0.2,1.4-0.8,1.7-1.5c0.2-0.4,0.3-0.9,0.4-1.4c3.2,0.1,6.4,0.5,9.5,1.1c0.5,0.1,1-0.2,1.2-0.7
			C106.1,267.3,105.9,264.7,103.6,264.2z M94.6,266.8c-0.5,0-1.1,0-1.4,0.5c-0.4,0.7,0.1,2.1-0.8,2.5c-0.7,0.2-1.5,0-2.2-0.3
			c0.3-1,0.5-2,0.6-3.1c0.1-0.6,0.2-1.3,0.3-1.9v-0.2l0.6,0.1l1.5,0.2c1.1,0.2,2.3,0.3,3.4,0.5c2.2,0.3,4.3,0.6,6.5,1
			c0.7,0.2,0.9,1,0.8,1.7c-1.3-0.2-2.5-0.3-3.8-0.5C98.3,267.1,96.5,266.8,94.6,266.8L94.6,266.8z"/>
		
			<ellipse transform="matrix(8.924292e-02 -0.996 0.996 8.924292e-02 -189.6304 342.2175)" class="st5" cx="92.3" cy="274.8" rx="6.1" ry="6.1"/>
		<path class="st2" d="M98.7,271.8c-1.7-3.5-5.9-4.9-9.4-3.2s-4.9,5.9-3.2,9.4c1.7,3.5,5.9,4.9,9.4,3.2c0.7-0.4,1.4-0.8,2-1.4
			C99.5,277.6,100,274.4,98.7,271.8z M97.4,275.4c-0.3,2.8-2.8,4.8-5.6,4.5s-4.8-2.8-4.5-5.6c0.3-2.8,2.8-4.8,5.6-4.5l0,0
			C95.7,270.1,97.7,272.6,97.4,275.4L97.4,275.4z"/>
		<path class="st4" d="M88.7,275.7l6-4.1c-1.3-0.8-2.9-0.8-4.3-0.2C88.1,272.5,88.7,275.7,88.7,275.7z"/>
		<path class="st5" d="M54.5,246.1c0,0-5.4-5.9-2.4-6.1s28.1,25.5,77.5,13.1c0,0,4.2,2.5,0,6.2C127.4,261.2,89.9,276.6,54.5,246.1z"
			/>
		<path class="st2" d="M131.7,253.8c-0.4-0.6-1.3-1.6-2.1-1.7c-0.6,0.1-1.2,0.2-1.8,0.4L126,253c-1.3,0.3-2.6,0.5-3.9,0.8
			c-8.8,1.7-17.9,2.1-26.8,1.4c-11.9-1.1-23.4-4.8-33.7-10.8c-2.5-1.5-5-3.2-7.5-4.6c-0.7-0.5-1.6-0.7-2.5-0.6
			c-2.8,0.9-0.1,4.6,0.9,5.9c0.5,0.6,1,1.2,1.5,1.8c13.7,11.8,30.9,19,49.1,19c6,0,12-0.7,17.8-2.2c3-0.8,6.3-1.6,9-3.3
			C131.9,259,133.4,256.1,131.7,253.8z M52.1,240.9L52.1,240.9C52.2,240.9,52.2,241,52.1,240.9L52.1,240.9z M130.4,256.7
			c-0.2,0.4-0.5,0.9-0.8,1.2c-0.1,0.1-0.6,0.6-0.7,0.7l-0.2,0.1l-0.4,0.2c-0.4,0.2-0.9,0.4-1.3,0.6c-3.2,1.3-6.5,2.3-9.9,2.9
			c-12.2,2.5-24.8,1.7-36.6-2.4c-9.3-3.3-17.8-8.3-25.2-14.7c-0.6-0.6-1.1-1.2-1.6-1.9c-0.4-0.5-0.8-1.1-1.1-1.7
			c-0.1-0.2-0.2-0.4-0.3-0.7c0-0.1,0-0.1,0-0.2l0.2,0.1l0.3,0.1l0.6,0.3c2.8,1.6,5.4,3.5,8.2,5c11.1,6.3,23.5,9.9,36.3,10.7
			c10.6,0.6,21.3-0.5,31.6-3.1c0.4,0.3,0.7,0.7,0.9,1.1C130.6,255.7,130.6,256.3,130.4,256.7L130.4,256.7z"/>
		<path class="st5" d="M74.8,259.5c3.9,1.3,8.4,3.3,12.3,4.5c0.2,0.1-2,4.8-2.2,6.9c-0.8-0.7-5.7,0-3.3-4.5c0.1-0.2-8.5-3.8-9.9-4.2
			C71.7,262.1,72.7,258.8,74.8,259.5z"/>
		<path class="st2" d="M87.9,263.4c-0.5-0.6-1.8-0.8-2.6-1.1c-1.1-0.4-2.3-0.8-3.4-1.3c-2.3-0.9-4.6-1.8-6.9-2.5
			c-2.2-0.6-3.7,1.5-4.3,3.3c-0.1,0.5,0.2,1,0.7,1.2c1.6,0.5,3.1,1.1,4.6,1.8c1,0.4,1.9,0.8,2.8,1.2c0.5,0.2,1,0.5,1.5,0.7
			c-0.2,0.5-0.3,1-0.4,1.5c0,0.8,0.3,1.6,0.9,2.1s1.3,0.8,2,0.9c0.5,0.1,1,0.2,1.5,0.4c0.7,0.5,1.4-0.2,1.5-0.8
			c0.3-1.5,0.7-2.9,1.3-4.3C87.5,265.8,88.5,264.3,87.9,263.4z M85.1,266.8c-0.4,0.9-0.7,1.9-0.9,2.8c-0.7,0-1.4-0.2-2-0.7
			c-0.6-0.7,0.3-1.6,0.4-2.3s-0.3-1.1-0.9-1.4c-1.6-0.9-3.3-1.5-5-2.2c-1.2-0.5-2.4-1-3.7-1.5c0.3-0.7,0.8-1.3,1.5-1.1
			c2.1,0.7,4.1,1.5,6.2,2.3l3,1.2l1.4,0.5l0.8,0.3l-0.1,0.2C85.6,265.5,85.3,266.1,85.1,266.8z"/>
		<path class="st4" d="M78.5,255.8c0,0,16.7,8.1,48.2,0.4c0,0,2.1-0.1,1.6,1.2S97,267.2,78.5,255.8z"/>
		<path class="st2" d="M126.5,237.6l4.4,0.5c0.8,0.1,0.8-1.2,0-1.3l-4.4-0.5C125.7,236.2,125.7,237.5,126.5,237.6z"/>
		<path class="st2" d="M127.1,233.8l4.4,0.5c0.8,0.1,0.8-1.2,0-1.3l-4.4-0.5C126.2,232.4,126.2,233.7,127.1,233.8z"/>
		<path class="st2" d="M127.3,230l4.3,1.2c0.4,0.1,0.7-0.1,0.8-0.5c0.1-0.3-0.1-0.6-0.4-0.8l-4.3-1.2c-0.3-0.1-0.7,0.1-0.8,0.5
			C126.8,229.6,127,229.9,127.3,230L127.3,230L127.3,230z"/>
		<path class="st2" d="M130.5,216.4l5.1,1.8c0.8,0.3,1.1-1,0.4-1.2l-5.1-1.8C130.1,214.8,129.8,216.1,130.5,216.4z"/>
		<path class="st2" d="M131.8,212.4c1.5,0.9,3.1,1.7,4.7,2.5c0.8,0.4,1.4-0.8,0.7-1.1c-1.6-0.8-3.2-1.6-4.7-2.5
			c-0.3-0.2-0.7-0.1-0.9,0.2C131.4,211.8,131.5,212.2,131.8,212.4z"/>
		<path class="st2" d="M134.5,209c1.5,0.6,2.8,1.6,3.8,2.9c0.5,0.6,1.4-0.3,0.9-0.9c-1.2-1.4-2.7-2.5-4.4-3.2
			C134,207.4,133.7,208.7,134.5,209L134.5,209z"/>
		<path class="st2" d="M140.5,202.2c0.8,0.7,1.5,1.5,2.2,2.3c0.5,0.6,1.4-0.3,0.9-0.9c-0.7-0.8-1.4-1.6-2.2-2.3
			C140.8,200.7,139.8,201.6,140.5,202.2z"/>
		<path class="st2" d="M142.4,198.8l2.6,2.6c0.3,0.3,0.7,0.3,0.9,0s0.3-0.7,0-0.9l-2.6-2.6c-0.3-0.3-0.7-0.3-0.9,0
			S142.1,198.5,142.4,198.8L142.4,198.8z"/>
		<path class="st2" d="M145.4,195.8c0.9,0.7,1.7,1.6,2.4,2.6c0.5,0.7,1.6,0,1.1-0.7c-0.7-1.1-1.6-2-2.6-2.8
			C145.6,194.4,144.7,195.3,145.4,195.8L145.4,195.8z"/>
		<path class="st2" d="M149.1,194.1c0.8,0.5,1.6,1.1,2.3,1.8c0.6,0.6,1.5-0.4,0.9-0.9c-0.8-0.7-1.7-1.4-2.6-2
			C149,192.5,148.4,193.6,149.1,194.1L149.1,194.1z"/>
		<path class="st2" d="M151.9,192c0.7,0.8,1.5,1.6,2.4,2.3c0.6,0.5,1.6-0.4,0.9-0.9c-0.8-0.7-1.6-1.5-2.4-2.3
			C152.3,190.5,151.3,191.4,151.9,192z"/>
		<path class="st0" d="M277.5,273.5h0.5c0.2,0,0.3-0.2,0.3-0.4c0-0.1-0.1-0.2-0.3-0.3h-0.4c-0.2,0-0.3,0.2-0.3,0.4
			C277.3,273.4,277.4,273.5,277.5,273.5L277.5,273.5z"/>
		<path class="st5" d="M132.2,253c1.4-4.1,4-7.7,6.4-11.2c0.5-0.8,1.2-1.6,2-2.2c0.8-0.6,1.9-0.6,2.7,0c0.7,0.7,0.9,1.7,0.6,2.7
			c-0.3,0.9-0.7,1.8-1.3,2.5l-7.3,10.5c-0.4,0.8-1.1,1.4-2,1.7C132.5,257.3,131.8,253.8,132.2,253"/>
		<path class="st2" d="M144.9,240.3c-0.5-1.4-1.9-2.2-3.4-1.9c-1.6,0.3-2.7,1.6-3.6,2.9c-2.7,3.5-4.9,7.3-6.6,11.4
			c-0.6,1.5-0.1,5,1.6,5.4c1.6,0.4,2.8-1.5,3.5-2.5l3.8-5.4c1.2-1.8,2.5-3.5,3.7-5.3C145,243.5,145.3,241.8,144.9,240.3z
			 M142.5,243.5c-2,3.2-4.3,6.2-6.5,9.3c-0.6,0.8-1.1,1.6-1.6,2.4c-0.2,0.2-0.7,0.6-0.8,0.8h-0.1c-0.1-0.7-0.8-1.8-0.4-2.5v-0.1
			c0,0,0-0.1,0.1-0.1c1.3-3.3,3.1-6.5,5.2-9.4c0.8-1.1,1.7-3,3.1-3.5c0.5-0.3,1.2-0.1,1.5,0.4c0.1,0.1,0.1,0.2,0.1,0.4
			C143.2,242,143,242.9,142.5,243.5z"/>
		<path class="st0" d="M176.3,248.3c0,0,2.1-4.6,5-3c1.2,0.6-1,4.1-2.1,4.9"/>
		<path class="st2" d="M177.2,248.8c0.5-1.1,1.4-2.6,2.7-2.8c0.2,0,0.4,0,0.5,0c0.5,0.1,0.2,0.2,0.3-0.1c0,0.4-0.2,0.8-0.4,1.1
			c-0.4,0.9-1,1.7-1.8,2.4c-1,0.8,0.4,2.2,1.4,1.4c1.7-1.4,4.5-6,0.9-6.8c-2.4-0.6-4.4,1.8-5.4,3.8
			C175,248.9,176.6,249.9,177.2,248.8L177.2,248.8z"/>
		<path class="st0" d="M185.9,249.9c-0.4-1.3-4.4-0.6-4.4-0.6v0.3c-3.6-2.4-6.3-0.7-6.3-0.7l0,0c-0.9-0.7-1.9-1.3-3-1.8
			c0,0-8.8-5.3-12.5-11.9c-3.9-6.9-17.9-10.4-20.2,2.8s18.4,19.3,29.8,18.1c1.6-0.1,3.3-0.5,4.8-1c0.3,0.1,0.7,0.2,1.1,0.2
			c3,0.1,5.9-1.2,7.9-3.6C184.5,251.4,186.2,250.8,185.9,249.9z"/>
		<path class="st5" d="M184.2,249.1c-4.4,4-10.6,4-10.6,4c-19.5,1.1-29.8-9.6-34-15.6l-0.1,0.5c-2.3,13.1,18.4,19.3,29.8,18.1
			c1.6-0.1,3.3-0.5,4.8-1c0.3,0.1,0.7,0.2,1.1,0.2c3,0.1,5.9-1.2,7.9-3.6c1.5-0.3,3.1-0.9,2.8-1.8
			C185.7,249.4,185,249.2,184.2,249.1z"/>
		<path class="st2" d="M186.8,249.6c0-0.2-0.1-0.4-0.3-0.5c-1-1.5-3.8-1.1-5.3-0.8c-1.4-0.8-2.9-1.2-4.5-1c-0.6,0.1-1.1,0.2-1.6,0.4
			c-1-0.7-2.1-1.2-3.2-1.9c-1.3-0.8-2.5-1.7-3.7-2.7c-1.8-1.4-3.4-3-4.9-4.6c-1.4-1.6-2.4-3.5-3.7-5.2c-3.6-4.6-11.2-7.1-16.4-3.6
			c-3.1,2.1-4.6,6-4.8,9.6c-0.1,3.4,1.2,6.7,3.6,9.1c5.1,5.5,13.4,7.8,20.7,8.6c2,0.2,3.9,0.3,5.9,0.1c1.3-0.1,2.7-0.3,4-0.5
			c0.6-0.2,1.1-0.3,1.7-0.5c0.7,0,1.4,0.2,2.1,0.1c2.4-0.2,4.7-1.2,6.4-2.8c0.3-0.3,0.6-0.6,0.9-0.9c0.2-0.1,0.9-0.3,1.4-0.4
			C186.1,251.7,187,250.9,186.8,249.6z M183.8,250.5c-0.5,0.1-1,0.3-1.5,0.6c-0.5,0.4-0.9,1-1.4,1.4c-1.7,1.4-4,2.1-6.2,1.8
			c-0.9,0-1.9,0.1-2.8,0.4c-1.1,0.2-2.3,0.4-3.4,0.5c-1.6,0.1-3.1,0.1-4.7,0c-6.7-0.5-14.2-2.5-19.3-7c-2.3-1.9-3.9-4.6-4.2-7.6
			c-0.2-3.1,0.9-6.8,3.4-8.9c4.3-3.6,11.2-1.2,14.4,2.8c0.5,0.7,0.9,1.5,1.4,2.2c0.6,1,1.3,1.9,2.1,2.8c1.5,1.8,3.2,3.4,5,4.8
			c1.3,1.1,2.7,2.1,4.1,3c1.2,0.8,2.5,1.3,3.7,2.2c0.4,0.4,1,0.4,1.4,0c-0.2,0.2-0.1,0,0.1,0c0.3-0.1,0.7-0.2,1-0.3
			c1.4-0.1,2.8,0.3,4,1.1c0.4,0.3,1,0.1,1.3-0.3c0.8-0.1,1.6-0.1,2.4,0l-0.1,0.1C184.2,250.3,184,250.4,183.8,250.5L183.8,250.5z"/>
		<path class="st2" d="M145.5,248.7l1.8-4.4c0.3-0.8-0.9-1.1-1.2-0.4l-1.8,4.4C144,249.1,145.2,249.5,145.5,248.7L145.5,248.7z"/>
		<path class="st2" d="M148.2,250.2l1.2-3.9c0.1-0.4-0.1-0.7-0.5-0.8c-0.3-0.1-0.6,0.1-0.8,0.4l-1.2,3.9c-0.1,0.4,0.1,0.7,0.5,0.8
			C147.7,250.7,148.1,250.5,148.2,250.2z"/>
		<path class="st2" d="M151.5,252.2l1.5-4.4c0.3-0.8-1-1.1-1.2-0.4l-1.5,4.4C150,252.6,151.2,253,151.5,252.2z"/>
		<path class="st2" d="M154.8,253.5c0.6-1.1,1.1-2.2,1.4-3.4c0.1-0.4-0.1-0.7-0.5-0.8c-0.3-0.1-0.6,0.1-0.8,0.4
			c-0.3,1.1-0.7,2.1-1.3,3.1c-0.2,0.3-0.1,0.7,0.2,0.9C154.3,253.9,154.7,253.8,154.8,253.5L154.8,253.5z"/>
		<path class="st2" d="M157.6,255c1-1.2,1.7-2.5,2.1-4c0.1-0.4-0.1-0.7-0.5-0.8c-0.3-0.1-0.6,0.1-0.8,0.4c-0.3,1.2-0.9,2.4-1.8,3.4
			C156.2,254.7,157.1,255.6,157.6,255L157.6,255z"/>
		<path class="st2" d="M162.1,254.9c0.5-0.9,0.9-1.8,1.2-2.8c0.3-0.8-1-1.1-1.2-0.4c-0.3,0.8-0.6,1.7-1.1,2.4
			C160.6,255,161.7,255.7,162.1,254.9z"/>
		<path class="st2" d="M165.2,255.4c1-0.8,1.6-2,1.8-3.2c0.1-0.8-1.1-1.2-1.2-0.4c-0.2,1-0.7,2-1.5,2.7
			C163.7,255.1,164.6,256,165.2,255.4z"/>
		<path class="st2" d="M169.8,255.7l1.7-2.5c0.5-0.7-0.6-1.3-1.1-0.7l-1.7,2.5C168.2,255.7,169.3,256.4,169.8,255.7z"/>
		<path class="st4" d="M125.8,117.6h-86c-19.8,0-36-15.8-36-35l0,0c0-19.2,16.2-35,36-35h86c19.8,0,36,15.8,36,35l0,0
			C161.9,101.9,145.6,117.6,125.8,117.6z"/>
		<circle class="st4" cx="44.7" cy="132.2" r="5.1"/>
		<path class="st8" d="M30.6,67.7v-1.4h1.5v1.3h5.5v-1.3h1.5v1.3h2.6V69h-2.6v7h3v1.4H27.6V76h2.9v-6.9h-2.6v-1.4H30.6z M33.6,78.6
			c-1.5,1.1-3.1,1.9-4.7,2.5l-1-1.2c1.6-0.5,3.2-1.3,4.6-2.2L33.6,78.6z M37.6,70.5v-1.4h-5.5v1.4H37.6z M37.6,73.3v-1.4h-5.5v1.4
			H37.6z M37.6,76.1v-1.5h-5.5v1.5H37.6z M41.8,79.8L41,81.1c-1.5-0.9-3.1-1.7-4.8-2.3l0.8-1.2C38.7,78.2,40.3,79,41.8,79.8
			L41.8,79.8z"/>
		<path class="st8" d="M55.5,69.3l-0.1,1.4h2.4v1.2h-2.5l-0.1,1.4H46l0.2-1.4H44v-1.2h2.5l0.2-1.4H55.5z M55.7,73.9v5.2h-2
			c1.2,0.2,2.4,0.5,3.6,0.9l-0.5,1.2c-1.6-0.6-3.2-1-4.8-1.3l0.4-0.7h-3.2l0.5,0.7c-1.5,0.7-3.2,1.2-4.8,1.4l-0.7-1.2
			c1.4-0.2,2.8-0.5,4.1-0.9H46V74L55.7,73.9L55.7,73.9z M57.5,70.2h-1.4v-1.5H45.6v1.5h-1.4v-2.8h5.9c-0.1-0.3-0.3-0.6-0.4-0.9
			l1.5-0.3c0.1,0.4,0.3,0.7,0.4,1.2h5.9V70.2z M54.3,75.4v-0.6h-6.9v0.6H54.3z M54.3,76.8v-0.6h-6.9v0.6H54.3z M54.3,77.6h-6.9v0.6
			h6.9V77.6z M50,72.5l0.1-0.7h-2.5l-0.1,0.7H50z M50.3,70.9l0.1-0.7h-2.5l-0.1,0.7H50.3z M51.3,72.5h2.5l0.1-0.7h-2.5L51.3,72.5z
			 M51.6,70.9H54l0.1-0.7h-2.4L51.6,70.9z"/>
		<path class="st8" d="M67.9,72.9c0.3,0.4,0.4,0.8,0.4,1.3c0,0.8-0.2,1.5-0.7,2.2c-0.5,0.6-1.2,1-1.9,1.2v-1
			c0.4-0.1,0.8-0.4,1.1-0.8c0.2-0.3,0.4-0.7,0.4-1.1c-0.1,0-0.3,0.1-0.4,0.1c-0.3,0-0.6-0.1-0.8-0.3c-0.2-0.2-0.3-0.5-0.3-0.8
			s0.1-0.6,0.3-0.9c0.2-0.2,0.6-0.4,0.9-0.3C67.2,72.4,67.6,72.6,67.9,72.9z"/>
		<path class="st8" d="M78.5,68.4v-2.1H80v2.1h2.3v1.3H80v2h2.2v1.4h-1.8V75h1.9v1.4h-1.9V79l0.2,0.1c2.1,0.4,4.3,0.6,6.5,0.5
			c1.5,0,2.5,0,3.2-0.1L89.9,81h-2.7c-4.1,0-6.7-0.2-7.7-0.7c-0.9-0.4-1.6-1-2.1-1.8c-0.2,0.9-0.5,1.8-0.8,2.7l-1.1-1
			c0.7-2,1-4,1.1-6.1l1.3,0.2c0,0.8-0.1,1.6-0.2,2.4c0.3,0.5,0.7,1,1.1,1.4v-4.8H76v-1.4h2.5v-2h-2.3v-1.4L78.5,68.4L78.5,68.4z
			 M82.6,68.4V67h7c0,2.8-0.2,4.6-0.5,5.1c-0.3,0.6-0.9,0.9-1.6,0.8c-0.3,0-0.7,0-1.2-0.1L86,71.6l1.3,0.1c0.3,0,0.6-0.2,0.7-0.6
			c0.1-0.9,0.2-1.8,0.2-2.7h-2c-0.2,0.9-0.5,1.8-0.9,2.6c-0.5,0.8-1.2,1.6-2,2.1l-1-1.2c0.7-0.4,1.3-1,1.7-1.6
			c0.3-0.6,0.6-1.2,0.7-1.8L82.6,68.4z M89.4,73.6v5.2H83v-5.2H89.4z M88,75h-3.6v2.5H88V75z"/>
		<path class="st8" d="M95.6,70.3v1.2c-0.5,0.9-1.1,1.7-1.8,2.5h2v1c-0.2,1-0.4,2-0.8,2.9l0.4,0.3c0.4,0.4,0.9,0.7,1.5,1
			c0.6,0.2,1.3,0.3,2,0.3c0.9,0,1.9,0,3,0s2.7,0,4.5-0.1l-0.3,1.4h-4c-1.1,0-2.2,0-3.2-0.1c-0.8,0-1.7-0.1-2.5-0.4
			c-0.7-0.3-1.3-0.7-1.8-1.2c-0.1-0.1-0.2-0.2-0.4-0.2c-0.3,0-0.8,0.7-1.5,2.1l-1.1-1c0.4-1,1.1-1.9,2.1-2.4
			c0.3-0.8,0.6-1.6,0.8-2.4H92v-1.1c0.7-0.8,1.3-1.6,1.9-2.4h-2.2v-1.4C91.7,70.3,95.6,70.3,95.6,70.3z M95.6,68.7l-1,1
			c-0.7-0.8-1.6-1.6-2.5-2.3l1-1C94,67.1,94.8,67.9,95.6,68.7L95.6,68.7z M105.7,71.5v6c0,0.9-0.5,1.3-1.6,1.3h-1.4l-0.3-1.3
			l1.3,0.1c0.3,0,0.5-0.2,0.5-0.4v-4.3h-6.5v5.9h-1.5v-7.2h1.1v-4.7h7.3v4.7L105.7,71.5z M103.2,68.1h-4.4v3.4h1.4v-2.3h3V68.1z
			 M103.2,73.5v3.6h-4.4v-3.6H103.2z M101.9,74.7h-1.8v1.2h1.8V74.7z M103.2,71.5v-1.2h-1.7v1.2H103.2z"/>
		<path class="st8" d="M112.8,79.5h-1.4v-1h-1.9v1.4H108V67.5h4.8V79.5z M111.3,72.2v-3.4h-1.9v3.4H111.3z M111.3,77.1v-3.5h-1.9
			v3.5H111.3z M118.5,66.5V68h2.8v1.4h-2.8v1.5h3.7v1.4h-8.8v-1.4h3.7v-1.5h-2.9V68h2.9v-1.5H118.5z M118.8,73.9v-1.1h1.5v1.1h1.8
			v1.4h-1.8v3.9c0,1.2-0.5,1.8-1.5,1.8h-1.9l-0.3-1.4c0.6,0.1,1.2,0.1,1.8,0.1c0.4,0,0.6-0.3,0.6-0.8v-3.5h-5V74L118.8,73.9
			L118.8,73.9z M117,78.2l-1.2,0.8c-0.6-0.9-1.2-1.7-1.9-2.5l1.2-0.7C115.8,76.5,116.4,77.3,117,78.2z"/>
		<path class="st8" d="M130.2,72.4h-4.4v8.7h-1.5V66.8h5.9V72.4z M128.7,68.2h-2.9V69h2.9V68.2z M125.8,71.1h2.9v-0.9h-2.9
			C125.8,70.2,125.8,71.1,125.8,71.1z M133.9,73.4v6.4h-6.2v-6.4H133.9z M132.5,76v-1.3h-3.2V76H132.5z M132.5,77.2h-3.2v1.4h3.2
			V77.2z M131.4,72.4v-5.6h6v12.9c0.1,0.7-0.4,1.3-1.1,1.4c-0.1,0-0.2,0-0.4,0c-0.5,0-1,0-1.5,0l-0.4-1.5c0.5,0,1,0.1,1.4,0.1
			s0.4-0.2,0.4-0.5v-6.8H131.4z M135.9,68.2h-3V69h3V68.2z M132.9,71.1h3v-0.9h-3V71.1z"/>
		<path class="st8" d="M53.4,86.3v3.6l4.8-1.1c-0.1,2.6-0.4,5.1-1,7.6L55.7,96c0.5-1.7,0.8-3.5,0.9-5.2l-3.3,0.7v5.8h-1.5v-5.5
			l-3.1,0.7v5.7c0,0.6,0.4,1,0.9,1.1h0.1h6.8c0.4,0,0.9-0.1,1.2-0.3c0.3-0.7,0.5-1.5,0.5-2.3l1.4,0.5c-0.1,1.7-0.4,2.7-0.7,3.1
			c-0.6,0.4-1.3,0.6-2.1,0.5h-7.5c-1.5,0-2.2-0.8-2.2-2.3V93l-2.4,0.5V92l2.4-0.5v-3.7h1.5V91l3.1-0.7v-4H53.4z"/>
		<path class="st8" d="M64.6,92.6l-1.1,1.1c-0.8-0.9-1.7-1.6-2.6-2.3l1.1-1.1C62.9,91,63.8,91.8,64.6,92.6z M64.9,95.3
			c-0.7,1.9-1.5,3.8-2.4,5.7l-1.5-0.7c1-1.8,1.8-3.6,2.6-5.6L64.9,95.3z M65,88.8l-1.1,1.1c-0.8-0.8-1.7-1.6-2.7-2.2l1.1-1
			C63.3,87.2,64.2,88,65,88.8z M74.3,93.2v1.4c-0.5,1.4-1.4,2.6-2.5,3.5c1.3,0.7,2.7,1.2,4.1,1.6l-0.8,1.3c-1.6-0.5-3.1-1.2-4.4-2.1
			c-1.7,1-3.4,1.7-5.3,2.2l-0.8-1.3c1.7-0.4,3.3-1,4.8-1.8c-1.1-0.9-2-2.1-2.5-3.4h-1v-1.4C65.9,93.2,74.3,93.2,74.3,93.2z
			 M69.5,86.6c-0.1,0.4-0.2,0.8-0.3,1.2h5.1c0,1.3-0.1,2.7-0.4,4c-0.3,0.5-0.9,0.8-1.8,0.8c-0.5,0-1.1,0-1.8-0.1l-0.4-1.4
			c0.8,0.1,1.5,0.1,2,0.1c0.4,0,0.6-0.1,0.7-0.3c0.1-0.6,0.2-1.1,0.1-1.7h-4.1c-0.6,1.4-1.6,2.6-2.7,3.6l-1-1.2
			c1.6-1.4,2.7-3.2,3.2-5.3L69.5,86.6z M70.4,97.3c1-0.7,1.7-1.6,2.3-2.6h-4.5C68.6,95.7,69.4,96.6,70.4,97.3L70.4,97.3z"/>
		<path class="st8" d="M83.8,91.3h-1.1c-0.5,0.6-1,1.2-1.6,1.8l1.4-0.1c0.2-0.3,0.5-0.6,0.7-0.8l1,0.4c-0.8,0.9-1.7,1.8-2.7,2.6
			L83,95c-0.1-0.2-0.1-0.5-0.2-0.7l0.9-0.3c0.2,0.6,0.4,1.3,0.6,2.1l-0.9,0.2c0-0.2-0.1-0.3-0.1-0.5c-1.2,0.2-2.2,0.3-3.2,0.4
			l-0.2-0.9c0.7-0.3,1.3-0.8,1.8-1.3H80l-0.2-0.9c0.7-0.5,1.3-1.1,1.7-1.8H79v9.9h-1.3V86.9h6.2L83.8,91.3z M82.4,88H79v0.6h3.4V88z
			 M79,90.2h3.4v-0.7H79V90.2z M81.6,96.5v1.3h1.2c0-0.1,0-0.2,0-0.3v-1.2H84v1.2c0,0.8-0.3,1.6-0.8,2.2c-0.7,0.6-1.5,1-2.4,1.2
			l-0.7-1.1c0.8-0.1,1.5-0.5,2.1-0.9l0.1-0.1h-1.9v-2.4L81.6,96.5z M87.4,91.3c-0.4,0.6-1,1.2-1.6,1.8l1.3-0.1l0.7-0.8l1,0.4
			c-0.8,0.9-1.7,1.8-2.7,2.5l1.5-0.2c-0.1-0.2-0.2-0.4-0.2-0.7l0.9-0.3c0.3,0.7,0.5,1.4,0.7,2.1l-0.9,0.2c0-0.2-0.1-0.4-0.1-0.6
			c-1.2,0.2-2.3,0.3-3.3,0.4l-0.2-0.9c0.7-0.3,1.3-0.8,1.8-1.3L84.7,94l-0.2-0.9c0.7-0.5,1.3-1.1,1.7-1.8h-1.3v-4.4H91v12.8
			c0.1,0.7-0.4,1.3-1.1,1.4c-0.1,0-0.2,0-0.3,0c-0.6,0-1.2,0-1.8,0l-0.3-1.3c0.6,0,1.1,0,1.6,0s0.5-0.2,0.5-0.6v-8L87.4,91.3z
			 M86.1,96.3v1.5h1.1v-1.3h1.2v2.4h-2.3v2.1h-1.3v-4.7H86.1z M89.6,88h-3.4v0.6h3.4V88z M86.2,90.3h3.4v-0.7h-3.4V90.3z"/>
		<path class="st8" d="M97.8,86.9c-0.4,1.2-0.9,2.4-1.6,3.5v10.8h-1.5v-8.6c-0.5,0.6-1,1.2-1.5,1.7l-0.5-1.6
			c1.6-1.9,2.9-4.1,3.6-6.5L97.8,86.9z M100.5,97.2c-0.6,1.2-1.4,2.3-2.3,3.3L97,99.7c0.9-0.9,1.6-1.9,2.2-3L100.5,97.2z
			 M105.7,87.2c-0.9,0.5-1.9,1-2.9,1.3s-2.4,0.7-4.2,1.1l-0.8-1.2c1.3-0.2,2.6-0.5,3.9-0.8c1-0.3,1.9-0.6,2.8-1.1L105.7,87.2z
			 M100.4,101.1l-0.3-1.4c0.4,0.1,0.8,0.1,1.2,0.1c0.4,0,0.6-0.2,0.6-0.5v-3.5L98.2,96l-0.3-1.3l0.5-0.1c1.4-0.5,2.7-1.2,3.8-2
			c-1.2,0-2.4,0.1-3.7,0.1l-0.3-1.2c0.2,0,0.3-0.1,0.5-0.1c1.6-0.7,3-1.6,4.3-2.8l1.4,0.5c-1.1,0.9-2.2,1.6-3.4,2.3l2.9-0.1l1.7-1.3
			l1.4,0.5c-1.9,1.5-3.9,2.9-6,4.1c1.4-0.1,2.8-0.2,4.2-0.3c-0.3-0.4-0.6-0.8-0.9-1.2l1.2-0.5c0.8,0.9,1.5,1.9,2.1,3l-1.2,0.6
			c-0.2-0.3-0.3-0.6-0.5-0.9l-2.5,0.2v3.9c0,1-0.5,1.4-1.5,1.4L100.4,101.1z M107.7,99.7l-1.1,0.8c-0.7-1.1-1.5-2.2-2.4-3.2l1.1-0.7
			C106.1,97.6,106.9,98.6,107.7,99.7L107.7,99.7z"/>
		<path class="st8" d="M111.3,97.6c0.2,0.2,0.4,0.5,0.3,0.9c0,0.3-0.1,0.6-0.3,0.8c-0.2,0.2-0.5,0.3-0.8,0.3s-0.6-0.1-0.8-0.3
			c-0.2-0.2-0.4-0.5-0.3-0.8c0-0.3,0.1-0.6,0.3-0.9c0.2-0.2,0.5-0.4,0.8-0.3C110.8,97.2,111.1,97.3,111.3,97.6z"/>
		<path class="st8" d="M115.7,97.6c0.2,0.2,0.4,0.5,0.3,0.9c0,0.3-0.1,0.6-0.3,0.8c-0.2,0.2-0.5,0.3-0.8,0.3s-0.6-0.1-0.8-0.3
			c-0.2-0.2-0.4-0.5-0.3-0.8c0-0.3,0.1-0.6,0.3-0.9c0.2-0.2,0.5-0.4,0.8-0.3C115.2,97.2,115.5,97.3,115.7,97.6z"/>
		<path class="st8" d="M120.1,97.6c0.2,0.2,0.4,0.5,0.3,0.9c0,0.3-0.1,0.6-0.3,0.8c-0.2,0.2-0.5,0.3-0.8,0.3s-0.6-0.1-0.8-0.3
			c-0.2-0.2-0.4-0.5-0.3-0.8c0-0.3,0.1-0.6,0.3-0.9c0.2-0.2,0.5-0.4,0.8-0.3C119.5,97.2,119.8,97.3,120.1,97.6z"/>
		<g>
			<g>
				<rect x="218.7" y="14.8" class="st9" width="70.5" height="73.1"/>
				<path class="st2" d="M289.2,88.7h-70.5c-0.4,0-0.8-0.4-0.8-0.8V14.8c0-0.4,0.4-0.8,0.8-0.8h70.5c0.4,0,0.8,0.4,0.8,0.8v73.1
					C290.1,88.4,289.7,88.7,289.2,88.7z M219.6,87.1h68.9V15.7h-68.9V87.1z"/>
			</g>
			<g>
				<g>
					<path class="st4" d="M241.1,23.7c0-0.2,0.1-0.4,0.3-0.5l1.3-1.3c0.1-0.1,0.2-0.1,0.3-0.1c0.2,0,0.3,0,0.4,0.1
						c0.1,0.1,0.2,0.2,0.2,0.3V31c0,0.1-0.1,0.3-0.2,0.3c-0.1,0.1-0.3,0.1-0.5,0.1s-0.3,0-0.5-0.1c-0.1-0.1-0.2-0.2-0.2-0.3v-7.4
						l-0.5,0.6c-0.1,0.1-0.2,0.1-0.3,0.1s-0.2-0.1-0.3-0.2C241.2,24,241.1,23.9,241.1,23.7z"/>
				</g>
				<g>
					<path class="st4" d="M244.9,31v-1.3c0-0.4,0.1-0.8,0.4-1.2c0.3-0.4,0.6-0.7,1-1l1.2-0.9c0.4-0.3,0.8-0.7,1-1
						c0.3-0.4,0.4-0.7,0.4-1.1s-0.1-0.7-0.4-1c-0.2-0.3-0.6-0.4-1-0.4s-0.7,0.1-0.9,0.3c-0.2,0.2-0.4,0.5-0.4,1
						c0,0.1-0.1,0.3-0.2,0.4c-0.1,0.1-0.3,0.2-0.5,0.2c-0.4,0-0.6-0.3-0.6-0.8c0-0.7,0.3-1.3,0.8-1.7c0.5-0.4,1.1-0.7,1.9-0.7
						c0.8,0,1.4,0.2,2,0.7c0.5,0.5,0.8,1.1,0.8,1.9c0,0.5-0.1,1-0.4,1.5c-0.3,0.5-0.6,0.9-1,1.2c-0.4,0.3-0.8,0.6-1.2,0.9
						s-0.8,0.6-1,0.9c-0.3,0.3-0.4,0.6-0.4,0.9v0.5h3.8c0.1,0,0.2,0.1,0.3,0.2s0.1,0.3,0.1,0.4c0,0.2,0,0.3-0.1,0.4
						s-0.2,0.2-0.3,0.2h-4.6c-0.1,0-0.3,0-0.4-0.1C245,31.3,244.9,31.2,244.9,31z"/>
				</g>
				<g>
					<path class="st4" d="M251.7,27.2c-0.1-0.1-0.2-0.3-0.2-0.5s0.1-0.4,0.2-0.5c0.1-0.1,0.3-0.2,0.6-0.2c0.2,0,0.4,0.1,0.5,0.2
						c0.2,0.1,0.2,0.3,0.2,0.5s-0.1,0.4-0.2,0.5c-0.2,0.1-0.3,0.2-0.5,0.2C252,27.5,251.9,27.4,251.7,27.2z M251.7,31.4
						c-0.1-0.1-0.2-0.3-0.2-0.5s0.1-0.4,0.2-0.5c0.1-0.1,0.3-0.2,0.6-0.2c0.2,0,0.4,0.1,0.5,0.2c0.2,0.1,0.2,0.3,0.2,0.5
						s-0.1,0.4-0.2,0.5c-0.2,0.1-0.3,0.2-0.5,0.2C252,31.6,251.9,31.5,251.7,31.4z"/>
				</g>
				<g>
					<path class="st4" d="M254.3,28.6v-3.9c0-1,0.3-1.8,0.8-2.3s1.2-0.7,2.1-0.7s1.6,0.2,2.1,0.7s0.8,1.2,0.8,2.3v3.9
						c0,1-0.3,1.8-0.8,2.3s-1.2,0.7-2.1,0.7s-1.6-0.2-2.1-0.7S254.3,29.6,254.3,28.6z M255.7,28.6c0,1.2,0.5,1.7,1.5,1.7
						c0.5,0,0.9-0.1,1.1-0.4c0.3-0.3,0.4-0.7,0.4-1.3v-3.9c0-0.6-0.1-1-0.4-1.3s-0.6-0.4-1.1-0.4c-1,0-1.5,0.6-1.5,1.7L255.7,28.6
						L255.7,28.6z M256.8,27.1c-0.1-0.1-0.2-0.2-0.2-0.4s0.1-0.3,0.2-0.4s0.2-0.2,0.4-0.2c0.2,0,0.3,0.1,0.4,0.2s0.2,0.2,0.2,0.4
						s-0.1,0.3-0.2,0.4s-0.2,0.2-0.4,0.2C257.1,27.2,256.9,27.2,256.8,27.1z"/>
				</g>
				<g>
					<path class="st4" d="M261.4,28.6v-3.9c0-1,0.3-1.8,0.8-2.3s1.2-0.7,2.1-0.7s1.6,0.2,2.1,0.7s0.8,1.2,0.8,2.3v3.9
						c0,1-0.3,1.8-0.8,2.3s-1.2,0.7-2.1,0.7s-1.6-0.2-2.1-0.7C261.7,30.4,261.4,29.6,261.4,28.6z M262.8,28.6c0,1.2,0.5,1.7,1.5,1.7
						c0.5,0,0.9-0.1,1.1-0.4c0.3-0.3,0.4-0.7,0.4-1.3v-3.9c0-0.6-0.1-1-0.4-1.3s-0.6-0.4-1.1-0.4c-1,0-1.5,0.6-1.5,1.7V28.6z
						 M263.9,27.1c-0.1-0.1-0.2-0.2-0.2-0.4s0.1-0.3,0.2-0.4s0.2-0.2,0.4-0.2s0.3,0.1,0.4,0.2s0.2,0.2,0.2,0.4s-0.1,0.3-0.2,0.4
						s-0.2,0.2-0.4,0.2S264,27.2,263.9,27.1z"/>
				</g>
			</g>
			<g>
				<g>
					<path class="st4" d="M226.4,46.8v-8.6c0-1,0.3-1.8,1-2.5s1.6-1,2.7-1c0.7,0,1.3,0.1,1.8,0.3s0.8,0.5,0.8,0.8
						c0,0.2-0.1,0.4-0.2,0.6c-0.1,0.3-0.3,0.4-0.4,0.4c-0.1,0-0.2-0.1-0.4-0.2c-0.2-0.1-0.4-0.2-0.7-0.3s-0.6-0.2-1-0.2
						c-0.7,0-1.2,0.2-1.6,0.5c-0.4,0.4-0.5,0.8-0.5,1.4v1.3h1.8c0.1,0,0.3,0.1,0.3,0.2c0.1,0.1,0.1,0.3,0.1,0.5s0,0.3-0.1,0.5
						c-0.1,0.1-0.2,0.2-0.3,0.2h-1.8v6.1c0,0.2-0.1,0.3-0.3,0.4c-0.2,0.1-0.4,0.2-0.6,0.2c-0.2,0-0.4-0.1-0.6-0.2
						C226.5,47.1,226.4,47,226.4,46.8z M231.7,46.8V40c0-0.2,0.1-0.3,0.2-0.4c0.2-0.1,0.4-0.2,0.6-0.2c0.2,0,0.5,0.1,0.6,0.2
						c0.2,0.1,0.3,0.2,0.3,0.4v6.8c0,0.1-0.1,0.3-0.3,0.4c-0.2,0.1-0.4,0.2-0.6,0.2c-0.2,0-0.4-0.1-0.6-0.2
						C231.8,47.1,231.7,47,231.7,46.8z"/>
				</g>
				<g>
					<path class="st4" d="M235.2,46.8V40c0-0.2,0.1-0.3,0.2-0.4c0.2-0.1,0.4-0.2,0.6-0.2c0.2,0,0.4,0.1,0.5,0.2
						c0.1,0.1,0.2,0.2,0.2,0.4v0.6c0.2-0.4,0.4-0.7,0.8-0.9c0.4-0.2,0.8-0.4,1.3-0.4c0.8,0,1.4,0.3,2,1c0.6,0.6,0.8,1.4,0.8,2.3v4.2
						c0,0.2-0.1,0.3-0.3,0.4c-0.2,0.1-0.4,0.2-0.6,0.2c-0.2,0-0.4-0.1-0.6-0.2c-0.2-0.1-0.3-0.2-0.3-0.4v-4.2c0-0.4-0.2-0.8-0.5-1.2
						s-0.7-0.5-1.1-0.5c-0.4,0-0.8,0.2-1.1,0.5s-0.5,0.7-0.5,1.3v4.2c0,0.1-0.1,0.3-0.3,0.4c-0.2,0.1-0.4,0.2-0.6,0.2
						c-0.2,0-0.4-0.1-0.6-0.2C235.3,47.1,235.2,47,235.2,46.8z"/>
				</g>
				<g>
					<path class="st4" d="M243,45.3c0-0.9,0.3-1.5,1-1.9s1.6-0.5,2.8-0.5h0.7v-0.3c0-0.5-0.1-0.9-0.4-1.3c-0.3-0.4-0.7-0.5-1.2-0.5
						s-0.9,0.1-1.2,0.3s-0.5,0.3-0.6,0.3c-0.2,0-0.3-0.1-0.4-0.3c-0.1-0.2-0.2-0.4-0.2-0.6c0-0.3,0.3-0.5,0.8-0.8
						c0.5-0.2,1.1-0.3,1.7-0.3c1.1,0,1.9,0.3,2.5,0.9c0.5,0.6,0.8,1.4,0.8,2.3v4.2c0,0.2-0.1,0.3-0.2,0.4c-0.2,0.1-0.4,0.2-0.6,0.2
						c-0.2,0-0.4-0.1-0.5-0.2c-0.2-0.1-0.2-0.3-0.2-0.4v-0.6c-0.7,0.9-1.5,1.3-2.4,1.3c-0.6,0-1.1-0.2-1.5-0.6
						C243.2,46.6,243,46,243,45.3z M244.7,45.1c0,0.4,0.1,0.6,0.3,0.8s0.4,0.3,0.8,0.3c0.4,0,0.8-0.2,1.2-0.5
						c0.4-0.4,0.6-0.7,0.6-1.1V44h-0.4c-0.5,0-0.9,0-1.2,0.1c-0.3,0-0.6,0.2-0.8,0.4C244.8,44.5,244.7,44.8,244.7,45.1z"/>
				</g>
				<g>
					<path class="st4" d="M251,46.8V35.3c0-0.2,0.1-0.3,0.2-0.4s0.4-0.2,0.6-0.2c0.2,0,0.4,0.1,0.6,0.2c0.2,0.1,0.3,0.2,0.3,0.4
						v11.5c0,0.1-0.1,0.3-0.3,0.4c-0.2,0.1-0.4,0.2-0.6,0.2c-0.2,0-0.4-0.1-0.6-0.2C251.1,47.1,251,47,251,46.8z"/>
				</g>
				<g>
					<path class="st4" d="M257.5,45.6c0-0.2,0.1-0.4,0.2-0.6c0.2-0.2,0.3-0.3,0.5-0.3c0.1,0,0.3,0.1,0.4,0.2s0.3,0.3,0.5,0.5
						s0.4,0.3,0.7,0.5c0.3,0.1,0.7,0.2,1.1,0.2c0.6,0,1.1-0.2,1.5-0.5s0.6-0.7,0.6-1.3c0-0.5-0.2-1-0.5-1.3
						c-0.4-0.4-0.8-0.6-1.3-0.9c-0.5-0.2-1-0.4-1.5-0.7c-0.5-0.2-1-0.6-1.3-1.1c-0.4-0.5-0.5-1.1-0.5-1.9c0-0.6,0.1-1.1,0.3-1.5
						c0.2-0.4,0.5-0.8,0.9-1s0.8-0.4,1.2-0.5c0.4-0.1,0.9-0.2,1.3-0.2c0.3,0,0.6,0,0.9,0.1c0.3,0,0.6,0.1,0.9,0.2
						c0.3,0.1,0.6,0.2,0.8,0.4c0.2,0.2,0.3,0.4,0.3,0.6c0,0.2-0.1,0.4-0.2,0.6c-0.1,0.2-0.3,0.3-0.5,0.3c-0.1,0-0.3-0.1-0.4-0.2
						c-0.2-0.1-0.4-0.2-0.7-0.3c-0.3-0.1-0.7-0.2-1.1-0.2c-0.6,0-1.1,0.1-1.5,0.4c-0.4,0.3-0.5,0.6-0.5,1.2c0,0.3,0.1,0.6,0.3,0.9
						c0.2,0.2,0.4,0.4,0.8,0.6c0.3,0.2,0.6,0.3,1,0.5s0.8,0.3,1.1,0.5c0.4,0.2,0.7,0.4,1,0.7s0.6,0.6,0.8,1.1c0.2,0.5,0.3,1,0.3,1.6
						c0,1.2-0.3,2-1,2.6s-1.6,0.9-2.7,0.9c-1,0-1.8-0.2-2.5-0.6C257.8,46.5,257.5,46,257.5,45.6z"/>
				</g>
				<g>
					<path class="st4" d="M265.7,45.3c0-0.9,0.3-1.5,1-1.9c0.6-0.4,1.6-0.5,2.8-0.5h0.7v-0.3c0-0.5-0.1-0.9-0.4-1.3
						c-0.3-0.4-0.7-0.5-1.2-0.5s-0.9,0.1-1.2,0.3c-0.4,0.2-0.5,0.3-0.6,0.3c-0.2,0-0.3-0.1-0.4-0.3s-0.2-0.4-0.2-0.6
						c0-0.3,0.3-0.5,0.8-0.8c0.5-0.2,1.1-0.3,1.7-0.3c1.1,0,1.9,0.3,2.5,0.9c0.5,0.6,0.8,1.4,0.8,2.3v4.2c0,0.2-0.1,0.3-0.2,0.4
						c-0.2,0.1-0.4,0.2-0.6,0.2s-0.4-0.1-0.5-0.2c-0.2-0.1-0.2-0.3-0.2-0.4v-0.6c-0.7,0.9-1.5,1.3-2.4,1.3c-0.6,0-1.1-0.2-1.5-0.6
						C265.9,46.6,265.7,46,265.7,45.3z M267.4,45.1c0,0.4,0.1,0.6,0.3,0.8c0.2,0.2,0.4,0.3,0.8,0.3s0.8-0.2,1.2-0.5
						c0.4-0.4,0.6-0.7,0.6-1.1V44h-0.4c-0.5,0-0.9,0-1.2,0.1c-0.3,0-0.6,0.2-0.8,0.4C267.5,44.5,267.4,44.8,267.4,45.1z"/>
				</g>
				<g>
					<path class="st4" d="M273.7,46.8V35.3c0-0.2,0.1-0.3,0.2-0.4c0.2-0.1,0.4-0.2,0.6-0.2s0.4,0.1,0.6,0.2c0.2,0.1,0.3,0.2,0.3,0.4
						v11.5c0,0.1-0.1,0.3-0.3,0.4c-0.2,0.1-0.4,0.2-0.6,0.2s-0.4-0.1-0.6-0.2C273.8,47.1,273.7,47,273.7,46.8z"/>
				</g>
				<g>
					<path class="st4" d="M277,44.2v-1.6c0-0.9,0.3-1.6,1-2.3c0.7-0.6,1.4-1,2.4-1c0.9,0,1.6,0.3,2.3,0.9c0.6,0.6,0.9,1.3,0.9,2.2
						c0,0.3,0,0.6-0.1,0.8s-0.2,0.4-0.4,0.4c-0.2,0.1-0.3,0.1-0.5,0.2c-0.1,0-0.3,0-0.5,0h-3.4v0.4c0,0.6,0.2,1,0.6,1.3
						s0.9,0.5,1.5,0.5c0.4,0,0.9-0.1,1.3-0.3s0.6-0.3,0.7-0.3c0.2,0,0.3,0.1,0.5,0.3c0.1,0.2,0.2,0.4,0.2,0.5c0,0.3-0.3,0.6-0.8,0.8
						c-0.5,0.3-1.2,0.4-1.9,0.4c-1.1,0-2-0.3-2.7-0.9C277.4,46,277,45.2,277,44.2z M278.7,42.8h2.7c0.2,0,0.4,0,0.5-0.1
						s0.1-0.2,0.1-0.4c0-0.4-0.2-0.8-0.5-1.1s-0.7-0.5-1.2-0.5s-0.8,0.1-1.2,0.4c-0.3,0.3-0.5,0.7-0.5,1.1v0.6H278.7z"/>
				</g>
			</g>
			<g>
				<g>
					<g>
						<g>
							<path class="st10" d="M253.7,74.2c3.4-2.2,14.8-13.6,16.3-19.7c-0.1,0-0.2,0-0.2-0.1c-3-0.7-6-0.6-8.7,0.8
								c-3.8,4.8-7.7,9.7-12.7,13.1c-2.5,1.7-5.2,2.9-7.9,4.2l-0.3,0.1C243.9,74,251,76,253.7,74.2z"/>
						</g>
						<g>
							<g>
								<path class="st2" d="M254.2,75c1.4-0.9,2.7-2.1,3.9-3.3c1.8-1.7,3.5-3.5,5.2-5.3c1.7-1.9,3.3-3.9,4.8-6.1
									c1.2-1.7,2.3-3.5,2.8-5.6c0.1-0.5-0.1-1-0.6-1.1c-3-0.7-6.2-0.8-9,0.6c-1.4,0.6-2.3,2.3-3.2,3.4c-1,1.2-2,2.4-3,3.6
									c-2.1,2.3-4.4,4.5-7,6.3s-5.5,3.1-8.3,4.4c-0.8,0.4-0.5,1.4,0.2,1.7c2.5,0.8,5,1.5,7.6,1.9C249.6,75.9,252.2,76.2,254.2,75
									c1-0.6,0.1-2.2-0.9-1.6c-1.7,1-4.3,0.5-6.1,0.2c-2.3-0.4-4.6-1.1-6.8-1.8c0.1,0.6,0.1,1.1,0.2,1.7c2.7-1.3,5.4-2.5,7.9-4.1
									c2.4-1.6,4.6-3.5,6.6-5.6c2-2.1,3.9-4.4,5.7-6.7c0.5-0.7,1-1.1,1.8-1.5c0.8-0.3,1.7-0.5,2.5-0.6c1.6-0.1,3.1,0,4.6,0.4
									c-0.2-0.4-0.4-0.7-0.6-1.1c-0.5,1.9-1.5,3.5-2.6,5.1c-1.4,2.1-3,4-4.7,5.9c-1.6,1.8-3.2,3.5-4.9,5.1
									c-1.1,1.1-2.3,2.2-3.7,3.1C252.3,74.1,253.2,75.7,254.2,75z"/>
							</g>
						</g>
					</g>
					<g>
						<g>
							<path class="st3" d="M272.4,55.8c-0.6-0.7-1.5-1-2.5-1.3c-1.5,6.1-12.9,17.5-16.3,19.7c-2.7,1.7-9.9-0.3-13.6-1.5l-7.6,3.6
								c-1,0.5-1.2,1.7-0.5,2.5c2.2,2.3,8,4.8,20.6,3.5c4.7-0.5,9.3-3,11.9-7.1c0.7-1.1,1.6-2.6,2.9-2.4c1.2,0.1,1.9,1.6,1.9,2.9
								s-0.4,2.5,0,3.7v0.1c0.6,1.5,2.8,1.1,3-0.4c0.8-6.2,1.2-12.5,1.3-18.7C273.6,58.7,273.5,57,272.4,55.8z"/>
						</g>
						<g>
							<g>
								<path class="st2" d="M273.1,55.2c-0.8-0.8-1.8-1.2-2.9-1.5c-0.5-0.1-1,0.2-1.1,0.6c-0.9,3.6-3.8,6.9-6.2,9.7
									c-2.6,3-5.3,5.9-8.4,8.4c-1.2,1-2.3,1.5-3.9,1.5c-2.4,0-4.9-0.6-7.2-1.2c-1-0.3-2.1-0.8-3.1-0.9c-0.5-0.1-0.8,0.1-1.2,0.3
									c-1.4,0.6-2.7,1.3-4.1,1.9c-1,0.5-2,0.9-3,1.4c-1.8,1-1.7,3.1-0.2,4.4c2.2,1.9,5.3,2.8,8.1,3.2c2.4,0.4,4.8,0.5,7.3,0.4
									c2.9-0.1,5.9-0.1,8.7-1c2.5-0.8,4.9-2.1,6.9-3.9c1-0.9,1.8-1.9,2.5-3c0.5-0.7,1.5-2.7,2.5-1.7c1,0.9,0.4,2.8,0.4,3.9
									s0.2,2.4,1.2,3c0.7,0.5,1.7,0.5,2.5,0.1c1-0.5,1.3-1.4,1.4-2.4c0.4-3.4,0.7-6.9,0.9-10.3c0.1-1.7,0.2-3.5,0.2-5.2
									c0-1.5,0.2-3.1,0-4.6C274.3,57.3,273.9,56.1,273.1,55.2c-0.8-0.9-2,0.4-1.3,1.3c1.2,1.3,0.9,3.4,0.9,5.1
									c0,2.1-0.1,4.1-0.2,6.2s-0.3,4.3-0.5,6.4c-0.1,1-0.2,2-0.3,3c-0.1,0.6,0.1,2-0.5,2.4c-1.5,1-1-2.8-1-3.4
									c0.1-1.3-0.3-2.7-1.3-3.6c-2.9-2.3-4.8,2.2-6.3,3.9c-4.8,5.4-12.3,5.7-19,5.3c-2.4-0.1-4.8-0.5-7-1.3c-1.3-0.4-2.7-1-3.6-2
									c-0.7-0.7-0.1-1.2,0.6-1.5c0.8-0.4,1.7-0.8,2.5-1.2c1.5-0.7,3.1-1.4,4.6-2.2c-0.2,0-0.5,0.1-0.7,0.1c3,1,6.2,1.9,9.4,2.2
									c1.3,0.1,2.8,0.1,4.1-0.3c0.8-0.3,1.5-0.9,2.2-1.4c4.2-3.4,8-7.6,11.2-11.9c1.7-2.2,3.4-4.6,4.1-7.3
									c-0.4,0.2-0.7,0.4-1.1,0.6c0.8,0.2,1.5,0.5,2,1C272.6,57.3,273.9,56,273.1,55.2z"/>
							</g>
						</g>
					</g>
				</g>
				<g>
					<path class="st4" d="M248.3,80.4c-0.8,0-1.5,0-2.3-0.1c-5.9-0.4-10.6-2.3-10.8-2.4c-0.3-0.1-0.4-0.4-0.3-0.7
						c0.1-0.3,0.4-0.4,0.7-0.3c0,0,4.8,1.9,10.5,2.3c7.6,0.6,13.2-1.6,16.6-6.3c0.2-0.2,0.5-0.3,0.7-0.1s0.3,0.5,0.1,0.7
						C260.2,78.1,255,80.4,248.3,80.4z"/>
				</g>
				<g>
					<path class="st4" d="M270.7,70.1L270.7,70.1c-0.3,0-0.5-0.3-0.5-0.5c0.3-4.5,0.4-7.5,0.4-9.4c-1.5,3-3.9,5.5-4,5.7
						c-0.2,0.2-0.5,0.2-0.7,0s-0.2-0.5,0-0.7c0,0,3.7-3.9,4.7-7.6c0.1-0.2,0.3-0.4,0.5-0.4s0.4,0.2,0.5,0.5c0,0.1,0.3,3.5-0.3,12
						C271.2,69.9,271,70.1,270.7,70.1z"/>
				</g>
				<g>
					<path class="st4" d="M250.9,72.9c-2,0-4.3-0.4-4.4-0.4c-0.2,0-0.4-0.2-0.4-0.4c0-0.2,0.1-0.4,0.3-0.5
						c8.6-3.5,15.1-14.6,15.2-14.7c0.1-0.2,0.4-0.3,0.7-0.2c0.2,0.1,0.3,0.4,0.2,0.7c-0.1,0.1-1.7,2.9-4.4,6.2
						c-2.2,2.7-5.6,6.1-9.6,8.2c1.6,0.2,3.7,0.3,4.7-0.1c0.3-0.1,0.6,0,0.7,0.3c0.1,0.3,0,0.6-0.3,0.7
						C252.8,72.9,251.9,72.9,250.9,72.9z"/>
				</g>
			</g>
			<g>
				<path class="st4" d="M243.9,62.4c-2.1,0-3.8-1.7-3.8-3.8c0,2.1-1.7,3.8-3.8,3.8c2.1,0,3.8,1.7,3.8,3.8
					C240.1,64.1,241.8,62.4,243.9,62.4z"/>
				<path class="st4" d="M240.1,66.7c-0.3,0-0.5-0.2-0.5-0.5c0-1.8-1.5-3.3-3.3-3.3c-0.3,0-0.5-0.2-0.5-0.5s0.2-0.5,0.5-0.5
					c1.8,0,3.3-1.5,3.3-3.3c0-0.3,0.2-0.5,0.5-0.5s0.5,0.2,0.5,0.5c0,1.8,1.5,3.3,3.3,3.3c0.3,0,0.5,0.2,0.5,0.5s-0.2,0.5-0.5,0.5
					c-1.8,0-3.3,1.5-3.3,3.3C240.6,66.5,240.4,66.7,240.1,66.7z M238.3,62.4c0.7,0.4,1.4,1,1.8,1.8c0.4-0.7,1-1.4,1.8-1.8
					c-0.7-0.4-1.4-1-1.8-1.8C239.7,61.4,239.1,62,238.3,62.4z"/>
			</g>
			<g>
				<path class="st4" d="M281.2,78.4c-1.5,0-2.6-1.2-2.6-2.6c0,1.5-1.2,2.6-2.6,2.6c1.5,0,2.6,1.2,2.6,2.6
					C278.5,79.6,279.7,78.4,281.2,78.4z"/>
				<path class="st4" d="M278.5,81.5c-0.3,0-0.5-0.2-0.5-0.5c0-1.2-1-2.1-2.1-2.1c-0.3,0-0.5-0.2-0.5-0.5s0.2-0.5,0.5-0.5
					c1.2,0,2.1-1,2.1-2.1c0-0.3,0.2-0.5,0.5-0.5s0.5,0.2,0.5,0.5c0,1.2,1,2.1,2.1,2.1c0.3,0,0.5,0.2,0.5,0.5s-0.2,0.5-0.5,0.5
					c-1.2,0-2.1,1-2.1,2.1C279,81.3,278.8,81.5,278.5,81.5z M277.6,78.4c0.4,0.2,0.7,0.6,0.9,0.9c0.2-0.4,0.6-0.7,0.9-0.9
					c-0.4-0.2-0.7-0.6-0.9-0.9C278.3,77.9,278,78.2,277.6,78.4z"/>
			</g>
		</g>
	</g>
</g>
</svg>
