<svg xmlns="http://www.w3.org/2000/svg" viewBox="0 0 310 290"><defs><style>.cls-1{isolation:isolate;}.cls-2{fill:#fff;}.cls-3{fill:#162585;}.cls-4{fill:#ff4a46;}.cls-5{fill:#e6e6e6;}.cls-6{fill:#b3b3b3;}.cls-7{fill:#cc3b38;}.cls-8{fill:#fbd23b;}.cls-9{fill:#ff8d9f;}.cls-10{fill:#cc717f;}.cls-11{mix-blend-mode:multiply;}.cls-12{fill:#ccc;}.cls-13{fill:#534741;}</style></defs><title>princess-sleep</title><g class="cls-1"><g id="圖層_1" data-name="圖層 1"><path class="cls-2" d="M41.91,115c.35.62,115.67-40.83,115.67-40.83l42.43,3S231.44,21.74,230.38,22s46.74,7.06,46.74,7.06,31.64,20.19,31.64,18.65-42.76,109-42.76,109L224.39,146l22,108.35-56.67-2.06-32,17-35.16,19.5L71.73,255.59l-40.92-85Z"/><path class="cls-2" d="M46.84,144.62s-.27,37.81,20.52,57.27c0,0,63-2.46,133.26-52.44,0,0,9.05-26-30.73-55.2C169.88,94.25,98.76,86.72,46.84,144.62Z"/><path class="cls-3" d="M45.43,144.62a91.51,91.51,0,0,0,.91,12.22,100.43,100.43,0,0,0,6.72,26.07,64.26,64.26,0,0,0,7.39,13.26,50.77,50.77,0,0,0,5,5.86c.6.59,1.19,1.31,2.09,1.26,2.65-.13,5.29-.44,7.92-.77a239.44,239.44,0,0,0,44.2-10.29A303.26,303.26,0,0,0,188,159.63q4.79-3.06,9.47-6.29l2.29-1.59a6.79,6.79,0,0,0,2-1.59,2.24,2.24,0,0,0,.18-.45,17.29,17.29,0,0,0,.57-2.72A36.82,36.82,0,0,0,201.42,132c-2.38-8.67-7.36-16.44-13.21-23.17a102.62,102.62,0,0,0-14.4-13.41q-1-.81-2.09-1.6a3.81,3.81,0,0,0-1.83-1h-.12l-.8-.07a136.13,136.13,0,0,0-28.6,1.29A160,160,0,0,0,88,110.73a151.36,151.36,0,0,0-42.13,32.89c-1.21,1.35.78,3.35,2,2a149.76,149.76,0,0,1,56.22-39.18,159.93,159.93,0,0,1,47.77-10.76,134.83,134.83,0,0,1,14-.27c1.12,0,2.24.1,3.36.19l.62.05h0c-.75-.08-.06.29,0,.36l1.1.83c1.54,1.17,3,2.39,4.52,3.63,12.51,10.5,24.84,25.54,24.54,42.68,0,.88-.07,1.75-.17,2.62,0,.16,0,.32-.06.48,0,.33,0-.33,0,0l0,.26c0,.31-.1.61-.16.92a12.09,12.09,0,0,1-.41,1.65l.65-.84A307.52,307.52,0,0,1,129,186a253.81,253.81,0,0,1-49.09,13.07,109,109,0,0,1-12.51,1.41l1,.41C61,194,56.29,184.78,53.22,175.25a106.7,106.7,0,0,1-4.64-23.74c-.19-2.29-.35-4.6-.34-6.9A1.41,1.41,0,0,0,45.43,144.62Z"/><path class="cls-2" d="M53.7,143.57a33.43,33.43,0,0,0-8.54-1.85,8,8,0,0,0-4.09.58A3.49,3.49,0,0,0,39,145.64c.19,1.52,1.61,2.57,3,3.21a15.44,15.44,0,0,0,7.2,1.38"/><path class="cls-3" d="M54.08,142.21a35.23,35.23,0,0,0-9.29-1.93c-2.67-.14-5.61.67-6.8,3.3s.54,4.91,2.74,6.18a16.15,16.15,0,0,0,8.51,1.88c1.81-.07,1.82-2.89,0-2.82a15.25,15.25,0,0,1-6.07-1c-1.48-.56-3.71-2-2.21-3.68,1.27-1.46,3.84-1.07,5.52-.89a33.29,33.29,0,0,1,6.86,1.68c1.73.58,2.46-2.14.75-2.72Z"/><path class="cls-2" d="M63.37,193.17A33.42,33.42,0,0,0,62,201.79a8,8,0,0,0,.79,4.05,3.5,3.5,0,0,0,3.44,1.88c1.51-.26,2.48-1.74,3.05-3.17a15.45,15.45,0,0,0,1-7.26"/><path class="cls-3" d="M62,192.79a35.4,35.4,0,0,0-1.46,9.38c0,2.66.91,5.62,3.6,6.67s4.88-.69,6-3a16.09,16.09,0,0,0,1.47-8.59c-.16-1.8-3-1.81-2.82,0a15.23,15.23,0,0,1-.68,6.12c-.46,1.43-1.72,3.93-3.53,2.52-1.55-1.21-1.32-3.72-1.22-5.45a33.15,33.15,0,0,1,1.31-6.93,1.41,1.41,0,0,0-2.72-.75Z"/><path class="cls-2" d="M166.43,96.28a33.44,33.44,0,0,1,5-7.18,8,8,0,0,1,3.39-2.36,3.5,3.5,0,0,1,3.78,1c.9,1.24.57,3,0,4.4-.94,2.28-3.72,4.12-5.61,5.71"/><path class="cls-3" d="M167.65,97a35.82,35.82,0,0,1,3.93-6c1.23-1.46,3-3.47,5.09-2.93s.67,3.76-.16,4.79a30.05,30.05,0,0,1-4.55,4c-1.4,1.16.61,3.14,2,2,2.06-1.71,4.42-3.26,5.7-5.7s1.35-5.86-1.31-7.43-5.48,0-7.39,1.8a31.32,31.32,0,0,0-5.74,8c-.87,1.6,1.57,3,2.43,1.42Z"/><path class="cls-2" d="M198.79,142.3a33.42,33.42,0,0,1,6.91,5.35,8,8,0,0,1,2.18,3.5,3.5,3.5,0,0,1-1.23,3.72c-1.29.84-3,.42-4.39-.24a15.44,15.44,0,0,1-5.69-4.63"/><path class="cls-3" d="M198.08,143.52a36.5,36.5,0,0,1,5.43,4c1.42,1.28,3.15,2.89,3.05,5-.11,2.37-3.06,1.26-4.26.64a14.52,14.52,0,0,1-4.75-4.07c-1.11-1.43-3.09.58-2,2,2.5,3.22,10.27,9.17,13.3,3.39,1.39-2.65-.13-5.47-1.91-7.47a32.84,32.84,0,0,0-7.46-5.84c-1.55-1-3,1.49-1.42,2.43Z"/><path class="cls-3" d="M71.78,153.92a76.82,76.82,0,0,1,39.08-2.18c1.77.37,2.53-2.35.75-2.72A79.78,79.78,0,0,0,71,151.2c-1.72.56-1,3.28.75,2.72Z"/><path class="cls-3" d="M262.07,139.08l-53.38-20.54a2.83,2.83,0,0,1-1.62-3.64l29.44-76.51a2.83,2.83,0,0,1,3.64-1.62l53.38,20.54A2.83,2.83,0,0,1,295.16,61l-29.44,76.51A2.83,2.83,0,0,1,262.07,139.08Z"/><path class="cls-3" d="M263.08,140.2a3.72,3.72,0,0,1-1.34-.25l-53.39-20.54a3.76,3.76,0,0,1-2.16-4.86L235.63,38a3.78,3.78,0,0,1,3.51-2.41,3.74,3.74,0,0,1,1.34.25l53.39,20.55A3.77,3.77,0,0,1,296,61.29l-29.44,76.51A3.78,3.78,0,0,1,263.08,140.2ZM239.15,37.51a1.9,1.9,0,0,0-1.76,1.2l-29.44,76.51a1.88,1.88,0,0,0,1.08,2.43l53.38,20.55a1.87,1.87,0,0,0,.67.12,1.9,1.9,0,0,0,1.76-1.2l29.44-76.51a1.89,1.89,0,0,0-1.08-2.43L239.82,37.64A1.87,1.87,0,0,0,239.15,37.51Z"/><path class="cls-2" d="M262,128.55,215.83,110.8a2.83,2.83,0,0,1-1.62-3.64l24.44-63.51A2.83,2.83,0,0,1,242.3,42l46.12,17.75A2.83,2.83,0,0,1,290,63.42l-24.44,63.51A2.83,2.83,0,0,1,262,128.55Z"/><path class="cls-3" d="M263,129.68a3.74,3.74,0,0,1-1.34-.25l-46.12-17.75a3.76,3.76,0,0,1-2.16-4.86l24.44-63.51a3.78,3.78,0,0,1,3.51-2.41,3.71,3.71,0,0,1,1.34.25l46.12,17.75a3.76,3.76,0,0,1,2.16,4.86l-24.44,63.51A3.79,3.79,0,0,1,263,129.68ZM241.29,42.79a1.89,1.89,0,0,0-1.76,1.2L215.09,107.5a1.88,1.88,0,0,0,1.08,2.43l46.12,17.75a1.87,1.87,0,0,0,.67.12,1.9,1.9,0,0,0,1.76-1.2l24.44-63.51a1.88,1.88,0,0,0-1.08-2.43L242,42.91A1.85,1.85,0,0,0,241.29,42.79Z"/><path class="cls-3" d="M274.19,72.39l.52,1,4-3.12a.13.13,0,0,0-.14-.22Z"/><path class="cls-2" d="M250.15,76.41a.33.33,0,0,1,.2-.63L264,79.32a.33.33,0,0,1-.17.64l-13.63-3.53Z"/><path class="cls-3" d="M253,83.21l-.22.1a.87.87,0,0,1-1.15-.44l-7.37-16.6a.87.87,0,0,1,.44-1.15l.22-.1a.87.87,0,0,1,1.15.44l7.37,16.6A.88.88,0,0,1,253,83.21Z"/><path class="cls-3" d="M252,83.59a1.31,1.31,0,0,1-.73-.7L244,66.51a1.32,1.32,0,0,1,2.42-1.08l7.28,16.38A1.32,1.32,0,0,1,252,83.59Zm-6.56-18.23a.66.66,0,0,0-.51,0,.66.66,0,0,0-.34.87l7.28,16.38a.67.67,0,0,0,.87.34h0a.66.66,0,0,0,.34-.87l-7.28-16.38A.66.66,0,0,0,245.48,65.36Z"/><path class="cls-3" d="M275.5,72.23h0c-.17-.25-1.51.42-1.76.59l-17.29,12a.56.56,0,0,0-.14.78h0a.56.56,0,0,0,.78.14l17.29-12C274.62,73.57,275.67,72.48,275.5,72.23Z"/><path class="cls-3" d="M256.44,86.09a.89.89,0,0,1-.55-1,.88.88,0,0,1,.37-.57l17.29-12a6.39,6.39,0,0,1,1-.49c.51-.21,1-.36,1.25,0s-.07.76-.42,1.19a5.53,5.53,0,0,1-.79.79L257.27,86a.88.88,0,0,1-.66.14ZM275,72.58a6.1,6.1,0,0,0-1.09.52l-17.29,12a.23.23,0,0,0-.06.31.22.22,0,0,0,.15.09.23.23,0,0,0,.17,0l17.29-12A5.54,5.54,0,0,0,275,72.58Z"/><path class="cls-3" d="M265,89.84l-22.53-8.67a1.27,1.27,0,0,1-.73-1.63l.13-.33a1.27,1.27,0,0,1,1.63-.72L266,87.15a1.27,1.27,0,0,1,.73,1.63l-.13.33A1.27,1.27,0,0,1,265,89.84Z"/><path class="cls-3" d="M265.11,90.24l-23-8.87a1.33,1.33,0,0,1-.76-1.71l.32-.83a1.33,1.33,0,0,1,1.71-.76l23,8.87a1.33,1.33,0,0,1,.76,1.71l-.32.83A1.33,1.33,0,0,1,265.11,90.24Zm-22-11.56a.67.67,0,0,0-.86.38l-.32.83a.66.66,0,0,0,.38.86l23,8.87a.66.66,0,0,0,.86-.38l.32-.83a.66.66,0,0,0-.38-.86Z"/><polygon class="cls-3" points="263.63 99.97 261.55 99.17 260.87 88.25 262.95 89.06 263.63 99.97"/><path class="cls-3" d="M263.51,100.28l-2.08-.8a.33.33,0,0,1-.21-.29l-.68-10.92a.33.33,0,0,1,.45-.33l2.08.8a.33.33,0,0,1,.21.29L264,100a.33.33,0,0,1-.13.29A.33.33,0,0,1,263.51,100.28Zm-1.65-1.34,1.4.54-.63-10.19-1.4-.54Z"/><polygon class="cls-3" points="236.65 89.59 238.73 90.39 246.56 82.75 244.47 81.95 236.65 89.59"/><path class="cls-3" d="M238.61,90.7l-2.08-.8a.33.33,0,0,1-.11-.55l7.82-7.65a.33.33,0,0,1,.35-.07l2.08.8a.33.33,0,0,1,.11.55L239,90.63A.33.33,0,0,1,238.61,90.7Zm-1.36-1.23,1.4.54,7.3-7.14-1.4-.54Z"/><path class="cls-2" d="M272.66,72.46l-.07,0L252.12,58.64a.33.33,0,0,1,.37-.55L273,71.87a.33.33,0,0,1-.3.58Z"/><path class="cls-3" d="M254.13,69.43c-.09.23-.19.46-.29.69l-.15.31c-.18.35.14-.23-.06.11a10.12,10.12,0,0,1-.86,1.23c-.14.17-.29.33-.43.5s.23-.22,0,0l-.28.26a10,10,0,0,1-1.15.9l-.27.18c-.18.12.28-.15.09-.05l-.14.08c-.22.12-.44.24-.67.34l-.65.27-.3.11-.15.05c-.22.08.05,0,.1,0a2,2,0,0,1-.68.17l-.75.13-.7.07h-.16c-.19,0,.17,0,.16,0a1.32,1.32,0,0,1-.44,0,9.88,9.88,0,0,1-1.49-.14l-.33-.06c-.39-.08.23.07-.06,0l-.71-.21a11,11,0,0,1-1.43-.61c-.29-.14.27.16,0,0l-.34-.2q-.33-.21-.64-.44c-.19-.14-.38-.29-.56-.45l-.25-.22c-.05,0-.12-.17,0,0s0,0-.08-.08a10,10,0,0,1-.91-1.08c-.14-.19-.26-.39-.39-.58s.09.13.08.13a1.43,1.43,0,0,1-.11-.19l-.18-.33a10.21,10.21,0,0,1-.57-1.34l-.05-.15c-.07-.17,0,.16,0,.15a1.15,1.15,0,0,1-.1-.36c-.06-.23-.11-.46-.15-.69s-.07-.46-.1-.7,0-.25,0-.38,0-.11,0-.16c0-.22,0,.32,0,.1,0-.5,0-1,.08-1.49q0-.36.12-.72a1.08,1.08,0,0,0,0-.17s-.09.34,0,.16.08-.29.12-.44a10.28,10.28,0,0,1,.54-1.4l.18-.36c.15-.29-.16.27,0,0s.27-.45.42-.66a12.85,12.85,0,0,1,.94-1.16l-.11.12s.1-.11.11-.12l.28-.26c.19-.17.38-.33.58-.49l.53-.38.32-.21-.13.08s.16-.09.19-.11a10,10,0,0,1,1.32-.61l.35-.13.15-.05c.17-.07-.16.05-.15,0a2.07,2.07,0,0,1,.73-.18,11.17,11.17,0,0,1,1.45-.2.68.68,0,0,1,.16,0h.17q.39,0,.77,0l.72.09.39.07c.38.08-.22-.06.06,0a10.93,10.93,0,0,1,1.47.5c.23.1.45.21.67.32s-.27-.16,0,0l.38.23a9.91,9.91,0,0,1,1.15.86l.29.26c.14.12-.12-.11-.11-.11s.1.1.12.12c.17.18.35.37.51.57s.3.37.43.56.4.45.42.63c0,0-.17-.3-.08-.13l.08.14.15.29c.12.22.22.45.32.68s.18.43.25.65l.05.15c.1.28,0-.08,0-.1a1.14,1.14,0,0,1,.1.37,10.15,10.15,0,0,1,.25,1.44c0,.11,0,.22,0,.33a1.38,1.38,0,0,1,0,.22s0-.34,0-.16,0,.51,0,.77a10,10,0,0,1-.19,1.43c-.09.42.07-.23,0,.06l-.09.33c-.08.26-.16.51-.26.76a1.66,1.66,0,1,0,3.09,1.19,11.69,11.69,0,0,0-16.53-14.45,12,12,0,0,0-5,5.31,11.66,11.66,0,0,0,2.16,13A12,12,0,0,0,244.4,78a11.72,11.72,0,0,0,11.94-5.55,13.41,13.41,0,0,0,.88-1.78,1.66,1.66,0,0,0-3.09-1.19Z"/><path class="cls-3" d="M249.12,57l-2.37,6.17L243,73l-.87,2.26a.75.75,0,0,0,1.39.54l2.37-6.17,3.78-9.83.87-2.26a.75.75,0,0,0-1.39-.54Z"/><path class="cls-3" d="M254.94,61.77l-6,2.68-9.62,4.28-2.21,1a.75.75,0,0,0,.61,1.36l6-2.68,9.63-4.28,2.21-1a.75.75,0,0,0-.6-1.36Z"/><path class="cls-3" d="M251,75.05l-2.68-6L244,59.39l-1-2.21a.75.75,0,0,0-1.36.61l2.68,6,4.28,9.62,1,2.21a.75.75,0,0,0,1.36-.6Z"/><path class="cls-3" d="M255.7,69.23l-6.17-2.37-9.83-3.78-2.26-.87a.75.75,0,0,0-.54,1.39L243.08,66l9.83,3.78,2.26.87a.75.75,0,0,0,.54-1.39Z"/><circle class="cls-3" cx="246.3" cy="66.42" r="4.55" transform="translate(95.85 272.43) rotate(-68.95)"/><path class="cls-2" d="M272.78,72.15l1.42,2.52-3.1,3.79L265.64,81A1.9,1.9,0,0,1,264,78.33l3.69-4.27Z"/><path class="cls-3" d="M264.91,81.13a2.23,2.23,0,0,1-1.06-.8,2.39,2.39,0,0,1-.19-2.09.34.34,0,0,1,.07-.12l3.69-4.27a.31.31,0,0,1,.13-.09l5.11-1.92a.33.33,0,0,1,.41.15l1.42,2.52a.33.33,0,0,1,0,.37l-3.1,3.79a.34.34,0,0,1-.12.09l-5.45,2.53a.33.33,0,0,1-.17,0A2.84,2.84,0,0,1,264.91,81.13Zm-.64-2.63a1.73,1.73,0,0,0,.12,1.46,1.88,1.88,0,0,0,1.2.68l5.3-2.46,2.91-3.55-1.17-2.07-4.77,1.79Z"/><path class="cls-3" d="M265.95,80.88a.25.25,0,0,1-.12-.1,6.23,6.23,0,0,1-1-3.68.25.25,0,0,1,.5,0,5.73,5.73,0,0,0,.89,3.39.25.25,0,0,1-.3.37Z"/><path class="cls-3" d="M267.09,80.41a.25.25,0,0,1-.15-.16,19.34,19.34,0,0,1-.81-4.59.25.25,0,1,1,.5,0,18.82,18.82,0,0,0,.79,4.47.25.25,0,0,1-.17.31A.24.24,0,0,1,267.09,80.41Z"/><path class="cls-3" d="M268.2,79.88a.25.25,0,0,1-.14-.13,7.13,7.13,0,0,1-.5-2.06,23.79,23.79,0,0,1-.18-3.53.25.25,0,0,1,.5,0,23.15,23.15,0,0,0,.18,3.45,6.61,6.61,0,0,0,.46,1.91.25.25,0,0,1-.12.33A.24.24,0,0,1,268.2,79.88Z"/><path class="cls-3" d="M268.63,77.36a4,4,0,0,1-1-.55.25.25,0,1,1,.3-.4,4.72,4.72,0,0,0,3,.8l.85,0a.25.25,0,0,1,0,.5l-.84,0A7,7,0,0,1,268.63,77.36Z"/><path class="cls-3" d="M270.12,76.54a7.15,7.15,0,0,1-2.56-1.77.25.25,0,1,1,.36-.34,5.57,5.57,0,0,0,4.51,2,.25.25,0,0,1,0,.5A5.33,5.33,0,0,1,270.12,76.54Z"/><path class="cls-3" d="M269.45,76h0a.25.25,0,0,1-.13-.33,3.71,3.71,0,0,0,.24-1.34,1.14,1.14,0,0,0-.1-.67.25.25,0,0,1,.41-.28,1.55,1.55,0,0,1,.19,1,4.11,4.11,0,0,1-.28,1.52A.25.25,0,0,1,269.45,76Z"/><path class="cls-3" d="M270.61,76.43h0a.25.25,0,0,1-.1-.33,3.67,3.67,0,0,0,.2-2.92.25.25,0,0,1,.47-.17,4.17,4.17,0,0,1-.22,3.32A.25.25,0,0,1,270.61,76.43Z"/><path class="cls-3" d="M271.88,76.69l0,0a.25.25,0,0,1-.08-.34,4.11,4.11,0,0,0,.2-3.79.25.25,0,0,1,.45-.21,4.56,4.56,0,0,1-.23,4.26A.25.25,0,0,1,271.88,76.69Z"/><path class="cls-3" d="M268.83,78.7a6.74,6.74,0,0,1-.83-.41l-.24-.13a.25.25,0,0,1,.23-.44l.25.13a5.72,5.72,0,0,0,.8.39,3.42,3.42,0,0,0,1.51.2.25.25,0,1,1,.07.49,3.89,3.89,0,0,1-1.75-.23Z"/><path class="cls-2" d="M252.62,74.22a8.68,8.68,0,0,1-3,1.91,9.34,9.34,0,0,1-3.56.61,9.49,9.49,0,0,1-1.8-.23,9.07,9.07,0,0,1-.88-.24l-.21-.07-.21-.08-.42-.17a8.58,8.58,0,0,1-2.91-2.06,12.14,12.14,0,0,0,3.08,1.64l.41.13.21.06.21.06c.28.06.56.15.84.19l.42.08.43.05.43,0,.43,0c.29,0,.57,0,.86,0l.43,0,.43,0c.14,0,.28,0,.43-.07l.21,0,.11,0,.11,0,.42-.1.11,0,.1,0,.21-.06A12.3,12.3,0,0,0,252.62,74.22Z"/><path class="cls-2" d="M254.23,60.26a7.61,7.61,0,0,1,1.51,2.13,8.71,8.71,0,0,1,.78,2.52,8.6,8.6,0,0,1,0,2.64,7.62,7.62,0,0,1-.83,2.47,15.21,15.21,0,0,0,.38-2.52,12.06,12.06,0,0,0-.73-4.93A15,15,0,0,0,254.23,60.26Z"/><path class="cls-4" d="M255.88,121.87l-31.07-12a2.83,2.83,0,0,1-1.62-3.64L226.75,97a2.83,2.83,0,0,1,3.64-1.62l31.07,12a2.83,2.83,0,0,1,1.62,3.64l-3.56,9.25A2.83,2.83,0,0,1,255.88,121.87Z"/><path class="cls-3" d="M256.89,123a3.73,3.73,0,0,1-1.34-.25l-31.07-12a3.76,3.76,0,0,1-2.16-4.86l3.56-9.25a3.79,3.79,0,0,1,3.51-2.41,3.72,3.72,0,0,1,1.34.25l31.07,12a3.76,3.76,0,0,1,2.16,4.86l-3.56,9.25A3.78,3.78,0,0,1,256.89,123Zm-27.5-26.84a1.89,1.89,0,0,0-1.76,1.2l-3.56,9.25a1.88,1.88,0,0,0,1.08,2.43l31.07,12a1.85,1.85,0,0,0,.67.12,1.89,1.89,0,0,0,1.76-1.2l3.56-9.24a1.88,1.88,0,0,0-1.08-2.43l-31.07-12A1.85,1.85,0,0,0,229.39,96.16Z"/><circle class="cls-2" cx="237.19" cy="124.08" r="2.38" transform="matrix(0.36, -0.93, 0.93, 0.36, 36.21, 300.9)"/><path class="cls-3" d="M237.19,127.41a3.29,3.29,0,0,1-1.19-.22,3.32,3.32,0,1,1,1.19.22Zm0-4.76a1.44,1.44,0,1,0,1.34,2,1.44,1.44,0,0,0-1.34-2Z"/><path class="cls-2" d="M230.8,109.21l3.54-9.21a.44.44,0,0,1,.32-.28.8.8,0,0,1,.49,0l2.44.94a3.54,3.54,0,0,1,1.76,1.29,2.32,2.32,0,0,1,0,2.16q-.66,1.73-2,1.82a2.35,2.35,0,0,1,.72,1.2,3,3,0,0,1-.24,1.66l-.1.26a3.19,3.19,0,0,1-1.58,1.95A2.87,2.87,0,0,1,234,111l-2.72-1a.76.76,0,0,1-.4-.31A.44.44,0,0,1,230.8,109.21Zm1.73-.29,1.67.64q1.51.58,2.18-1.14l.09-.22a1.91,1.91,0,0,0,.11-1.43,1.63,1.63,0,0,0-1-.83l-1.67-.64Zm1.84-4.79,1.59.61a1.32,1.32,0,0,0,1.9-.91A1.29,1.29,0,0,0,237,102l-1.57-.6Z"/><path class="cls-2" d="M239.15,109.5l2.57-6.68a.41.41,0,0,1,.34-.27,1.2,1.2,0,0,1,1,.39.41.41,0,0,1,.07.43L240.57,110a2,2,0,0,0-.09,1.51,1.71,1.71,0,0,0,1,.91q1.65.63,2.34-1.16l2.57-6.68a.41.41,0,0,1,.34-.27,1.2,1.2,0,0,1,1,.39.41.41,0,0,1,.07.43l-2.57,6.68a3.22,3.22,0,0,1-1.74,2,3.92,3.92,0,0,1-4.45-1.71A3.22,3.22,0,0,1,239.15,109.5Z"/><path class="cls-2" d="M248.8,105.7a.55.55,0,0,1,.46-.32,1.22,1.22,0,0,1,.67.05.56.56,0,0,1,.34.51l.51,5.26,3.89-3.56a.54.54,0,0,1,.6-.15,1.19,1.19,0,0,1,.53.41.56.56,0,0,1,.12.54.54.54,0,0,1-.12.19L251,112.76a.54.54,0,0,0-.08.14l-1.35,3.52a.43.43,0,0,1-.35.27,1,1,0,0,1-.55-.06,1,1,0,0,1-.45-.33.43.43,0,0,1-.07-.43l1.36-3.52a1,1,0,0,0,0-.17l-.77-6.25A.51.51,0,0,1,248.8,105.7Z"/><path class="cls-2" d="M271.78,69.29l0,0,0,0Z"/><path class="cls-3" d="M271.78,69.76a.49.49,0,0,1-.17,0h0a.47.47,0,0,1-.26-.61l0,0a.47.47,0,0,1,.91.17.49.49,0,0,1,0,.17l0,0a.47.47,0,0,1-.44.3Zm-.44-.64.44.17Z"/><path class="cls-2" d="M269.9,64.23a4,4,0,0,1,1.9,5,4,4,0,0,1,4.77-2.45,4,4,0,0,1-1.9-5A4,4,0,0,1,269.9,64.23Z"/><path class="cls-3" d="M271.8,69.71a.48.48,0,0,1-.17,0,.47.47,0,0,1-.3-.44.47.47,0,0,1,0-.17,3.55,3.55,0,0,0-1.68-4.43.47.47,0,0,1,.33-.87,3.52,3.52,0,0,0,.9.12,3.58,3.58,0,0,0,3.32-2.28.47.47,0,0,1,.91.17.47.47,0,0,1,0,.17,3.55,3.55,0,0,0,1.64,4.41.47.47,0,0,1-.17.91l-.13,0a3.55,3.55,0,0,0-4.21,2.16A.47.47,0,0,1,271.8,69.71Zm-.4-4.91a4.5,4.5,0,0,1,1.12,2.58,4.53,4.53,0,0,1,2.55-1.16A4.5,4.5,0,0,1,274,63.64,4.53,4.53,0,0,1,271.4,64.8Z"/><path class="cls-5" d="M106.5,233.29s3.9,12.24,8.19,18,11.93,19.94,12.94,20.83,3.37-3.81,2.73-5.77-.24-9.16-1.52-18.61S112.19,217.76,106.5,233.29Z"/><path class="cls-6" d="M123.54,247.13s.5,13.35,4.95,24.78c1.08-.95,2.38-4.09,1.88-5.6-.64-2-.24-9.16-1.52-18.61s-16.65-29.93-22.35-14.41a41.91,41.91,0,0,0,4.42,11.33C114.24,246.14,120.09,248.64,123.54,247.13Z"/><path class="cls-3" d="M127.91,273.13h0a1.36,1.36,0,0,1-.9-.34c-.5-.44-1.51-2.12-4.26-6.82s-6.37-10.87-8.82-14.15c-4.33-5.79-8.17-17.74-8.33-18.25a.94.94,0,0,1,0-.61c1-2.85,3.09-6.25,6.86-6.25,2,0,6,1,11.11,7.77,3.27,4.32,5.7,9.46,6.19,13.09.72,5.31.91,9.91,1.05,13.27a30.14,30.14,0,0,0,.43,5.18c.56,1.71-.52,4.52-1.52,5.89A2.37,2.37,0,0,1,127.91,273.13Zm-20.42-39.82c.63,1.92,4.18,12.35,7.95,17.38,2.51,3.36,6.07,9.44,8.93,14.32,1.47,2.52,3,5.1,3.64,6a6.44,6.44,0,0,0,1-1.79,4.7,4.7,0,0,0,.44-2.67,27.59,27.59,0,0,1-.52-5.68c-.14-3.32-.33-7.87-1-13.1-.44-3.28-2.79-8.19-5.83-12.21-3.33-4.4-6.92-7-9.61-7C110.38,228.59,108.71,230.18,107.49,233.31Z"/><path class="cls-5" d="M206.79,193.82s5.49,11.62,6.25,18.73,4.86,22.72,4.72,24.06-5.07-.49-5.94-2.36-6.06-6.87-11.57-14.66S192,186.34,206.79,193.82Z"/><path class="cls-6" d="M212.79,227.65c-1.51,0-10.83-14.21-16.92-23.71.2,5.82,2,12.33,4.38,15.65,5.51,7.79,10.71,12.79,11.57,14.66s5.8,3.7,5.94,2.36c.07-.66-.89-4.8-2-9.67A9.28,9.28,0,0,1,212.79,227.65Z"/><path class="cls-3" d="M217,238a7.88,7.88,0,0,1-3.3-1,6.13,6.13,0,0,1-2.68-2.38,30,30,0,0,0-3.21-4.08c-2.19-2.55-5.18-6.05-8.27-10.43-1.87-2.65-3.47-7.3-4.18-12.14-1.06-7.27.25-11.19,1.12-12.89a6.08,6.08,0,0,1,5.6-3.59,11.74,11.74,0,0,1,5.18,1.46.94.94,0,0,1,.42.44c.23.48,5.56,11.84,6.34,19,.44,4.06,2,10.88,3.19,16.36,1.19,5.32,1.6,7.24,1.53,7.9S218.14,238,217,238ZM202,193.4A4.2,4.2,0,0,0,198.1,196c-2.81,5.42-.67,18,2.92,23.07,3,4.3,6,7.76,8.17,10.29a27.62,27.62,0,0,1,3.49,4.51c.39.83,2.67,2.17,4.11,2.27-.16-1.11-.82-4.05-1.46-6.91-1.24-5.52-2.77-12.4-3.22-16.57-.67-6.25-5.18-16.29-6-18.14A9.58,9.58,0,0,0,202,193.4Z"/><path class="cls-5" d="M217.76,124.91s5.36-.84,5.73,2.68c.16,1.5-4.3,1.5-5.65,1.06"/><path class="cls-3" d="M218,125.93c-.28,0,0,0,.23,0,.36,0,.71,0,1.07,0a4.07,4.07,0,0,1,2.58.74,1.62,1.62,0,0,1,.33.42c.12.2.09.78.25.41-.09.21-1,.3-1.15.33a8.1,8.1,0,0,1-3.23-.14,1.06,1.06,0,0,0-.56,2c2.29.67,8.24.57,6.72-3.25-1-2.6-4.39-2.89-6.8-2.52-1.34.2-.77,2.24.56,2Z"/><path class="cls-5" d="M214.87,134.51a35.27,35.27,0,0,0,.58-3.51h.06a6.36,6.36,0,0,0,4.12-6s3.7-4.59,2.82-5.81c-.61-.84-3.84.84-5.05,1.91-1.45.12-8.33.25-8.12,5.6,0,.43-2.42,2.5-3.4,4.11C207.79,132,210.41,134.29,214.87,134.51Z"/><path class="cls-3" d="M215.89,134.79a28.2,28.2,0,0,0,.62-3.79l-1.06,1.06a5.34,5.34,0,0,0,2.68-1.41,7.54,7.54,0,0,0,2.56-5.63l-.31.75c1.34-1.67,3.16-3.84,3.26-6.07.07-1.5-1.36-1.88-2.56-1.67a10.24,10.24,0,0,0-4.44,2.35l.75-.31c-2.48.19-5.11.46-7.12,2.06a5.53,5.53,0,0,0-2.05,4c-.07.29,0,.35.08.19a1.74,1.74,0,0,1-.27.34c-.3.34-.62.67-.93,1a18.08,18.08,0,0,0-2.14,2.6,1.07,1.07,0,0,0,.38,1.45c3,2,5.81,3.59,9.53,3.82,1.36.09,1.35-2,0-2.11-3.32-.21-5.76-1.8-8.46-3.54l.38,1.45a16.72,16.72,0,0,1,2-2.4,7.27,7.27,0,0,0,1.37-1.64c.33-.7.1-1.53.41-2.27a3.63,3.63,0,0,1,1.5-1.63,9.18,9.18,0,0,1,3.75-1.12c.46-.05.92-.08,1.38-.12.83-.06,1.47-.76,2.17-1.17a6.2,6.2,0,0,1,2.38-1c.36,0-.18-.59-.27-.15a4,4,0,0,1-.34.9,20.57,20.57,0,0,1-2.22,3.4c-.49.63-.37,1.4-.54,2.15a5.06,5.06,0,0,1-1.17,2.23,5.57,5.57,0,0,1-1.39,1.11c-.18.1-.36.19-.54.27.22-.1-.36,0,.14,0a1.08,1.08,0,0,0-1.06,1.06,24.35,24.35,0,0,1-.54,3.23C213.67,135.56,215.7,136.13,215.89,134.79Z"/><path class="cls-4" d="M191.69,144.38c7.37-3.57,13.69-12.69,13.69-12.69.22-.4.45-.79.68-1.16,3.59,2.65,6.55,3.7,8.81,4q0,.42,0,.86c.52,12.4-7.54,34.43-21.58,31S183.92,148.14,191.69,144.38Z"/><path class="cls-7" d="M214.91,135.36q0-.44,0-.86a13,13,0,0,1-2.33-.51,63.67,63.67,0,0,1-10.26,23.47c-4.2,6.06-10.33,6.54-15.51,5.44a12.91,12.91,0,0,0,6.56,3.5C207.37,169.79,215.44,147.76,214.91,135.36Z"/><path class="cls-3" d="M215.92,134.51a1.09,1.09,0,0,0-1.06-1.06c-3.05-.4-5.83-2.05-8.28-3.83a1.06,1.06,0,0,0-1.45.38,40.55,40.55,0,0,1-4.3,5.62,33.25,33.25,0,0,1-9.69,7.84c-6.27,3.11-10.13,12-6.5,18.36,2.14,3.75,6.76,5.69,10.91,6s7.74-1.73,10.54-4.49c3.71-3.66,6.05-8.64,7.66-13.53A41.5,41.5,0,0,0,215.92,134.51ZM212.2,147.6a35.65,35.65,0,0,1-5.93,12.33c-2.41,3.07-5.73,5.61-9.77,5.76s-8.63-1.93-10.42-5.69c-2.52-5.26,1.29-12.3,6.14-14.71a35.24,35.24,0,0,0,10.12-8.17,43.65,43.65,0,0,0,4-5.1,20.56,20.56,0,0,0,7.5,3.37A40.18,40.18,0,0,1,212.2,147.6Z"/><path class="cls-3" d="M205.91,160.49l-4.69-2.25c-.82-.39-1.53.82-.71,1.22l4.69,2.25c.82.39,1.53-.82.71-1.22Z"/><path class="cls-3" d="M207.5,157.65l-4.14-1.52c-.86-.31-1.22,1-.37,1.36l4.14,1.52c.86.31,1.22-1,.38-1.36Z"/><path class="cls-3" d="M209.9,154.2l-4.61-1.94c-.84-.35-1.2,1-.37,1.36l4.61,1.94c.84.35,1.2-1,.37-1.36Z"/><path class="cls-3" d="M211.5,150.68a15.61,15.61,0,0,0-3.63-1.77c-.86-.29-1.23,1.07-.37,1.36a14.11,14.11,0,0,1,3.29,1.63c.76.5,1.46-.72.71-1.22Z"/><path class="cls-3" d="M213.35,147.77a12,12,0,0,0-4.17-2.5c-.86-.3-1.23,1.06-.37,1.36a10.29,10.29,0,0,1,3.54,2.14c.67.61,1.67-.38,1-1Z"/><path class="cls-3" d="M213.58,142.91a17.85,17.85,0,0,0-2.9-1.49.71.71,0,0,0-.87.49.72.72,0,0,0,.49.87,15.94,15.94,0,0,1,2.57,1.34c.77.49,1.47-.73.71-1.22Z"/><path class="cls-3" d="M214.31,139.54a6.21,6.21,0,0,0-3.38-2.17.71.71,0,0,0-.37,1.36,5,5,0,0,1,2.76,1.81c.56.71,1.55-.29,1-1Z"/><path class="cls-3" d="M204.48,217.38a7.33,7.33,0,0,1-2.91,1.65.7.7,0,0,0,.38,1.36,8.88,8.88,0,0,0,3.53-2c.67-.62-.33-1.61-1-1Z"/><path class="cls-3" d="M206.2,219.9a7.33,7.33,0,0,1-2.91,1.65.7.7,0,0,0,.38,1.36,8.89,8.89,0,0,0,3.54-2c.67-.62-.33-1.61-1-1Z"/><path class="cls-3" d="M207.44,222.37a15.55,15.55,0,0,1-2.57,2.13c-.76.5-.05,1.72.71,1.22a17.25,17.25,0,0,0,2.86-2.35c.64-.65-.36-1.65-1-1Z"/><path class="cls-3" d="M209.09,225.36a3.9,3.9,0,0,1-2.41,2.17c-.86.28-.49,1.64.38,1.36a5.43,5.43,0,0,0,3.4-3.16.7.7,0,0,0-.49-.87.72.72,0,0,0-.87.49Z"/><path class="cls-4" d="M216.91,231.1a62.33,62.33,0,0,1,1.55,6.91,1.94,1.94,0,0,1-.3,1.77c-.52.48-1.37.25-2-.06a13.17,13.17,0,0,1-7-8.89c-.08-.37,0-.91.35-.94a.65.65,0,0,1,.38.14,23,23,0,0,0,3.56,2.37c1.32.54,3.57-1.52,3.41-1.49"/><path class="cls-3" d="M216.23,231.28q.66,2.35,1.15,4.73c.15.72.28,1.45.4,2.18.27,1.62-1.1,1-1.89.6a12.6,12.6,0,0,1-5.27-5.72,11.85,11.85,0,0,1-.64-1.77l-.09-.33c.05-.38-.07-.49-.38-.33a9.33,9.33,0,0,1,1,.68c.92.69,2,1.7,3.17,1.84a4.76,4.76,0,0,0,3.82-1.89.7.7,0,0,0,0-.71h0c-.41-.81-1.63-.1-1.22.71h0v-.71c-.44.6-1.94,1.46-2.81,1.06a12.06,12.06,0,0,1-2.25-1.53c-.48-.36-1.05-.92-1.7-.92-2.89,0,.73,6.13,1.34,7a14.33,14.33,0,0,0,3.2,3.13c1.11.81,2.67,1.81,4.09,1.34s1.15-2.15,1-3.24a62.48,62.48,0,0,0-1.48-6.47.7.7,0,0,0-1.36.37Z"/><path class="cls-5" d="M88,235s5.14,1.75,3.82,5c-.56,1.4-4.51-.68-5.5-1.69"/><path class="cls-3" d="M87.72,236c1,.34,2.68,1.19,3.16,2.4a1.79,1.79,0,0,1,.05,1.1c.15-.18,0,0-.21-.08a5.37,5.37,0,0,1-.86-.23,7.66,7.66,0,0,1-2.78-1.6c-1-.95-2.48.55-1.49,1.49,1.72,1.67,7.05,4.38,7.49.26.29-2.74-2.51-4.59-4.79-5.38-1.29-.45-1.84,1.59-.56,2Z"/><path class="cls-5" d="M88.33,231.61a14.51,14.51,0,0,1-1.12,2.13l.05,0s2.14,2.75-.09,6.87l.34,0s1.3,6.21-.07,6.83c-.94.42-2.92-2.63-3.44-4.17-1.27-.87-3.45-4.2-3.68-8.74a4.72,4.72,0,0,1,.07-1.16,21.39,21.39,0,0,1-1.4-4.26C81.26,229,84.36,229.58,88.33,231.61Z"/><path class="cls-3" d="M87.42,231.08a17.28,17.28,0,0,1-1.12,2.13,1.07,1.07,0,0,0,.38,1.45c-.49-.33-.34-.4-.12,0a4.45,4.45,0,0,1,.43,1.09,6.16,6.16,0,0,1-.73,4.4,1.07,1.07,0,0,0,.91,1.59l.34,0-1-.78a23.76,23.76,0,0,1,.52,4.2,5.68,5.68,0,0,1-.06,1.15c-.13.71,0-.05.33.14a6.74,6.74,0,0,1-2-2.77c-.23-.46-.31-.93-.75-1.25a4.24,4.24,0,0,1-.69-.71,10.48,10.48,0,0,1-1.73-3.31,14.45,14.45,0,0,1-.67-5,6.25,6.25,0,0,0-.66-1.8,25.77,25.77,0,0,1-.78-2.73l-1,1.34a18.46,18.46,0,0,1,8.81,2.34c1.21.61,2.29-1.21,1.07-1.83A20.72,20.72,0,0,0,79,228.07a1.07,1.07,0,0,0-1,1.34,24.36,24.36,0,0,0,1.51,4.51l-.11-.81c-.55,3.63,1,8.84,4.09,11.1l-.49-.63c.53,1.46,4,7.53,5.76,4,1-2,.22-5.09-.21-7.19a1,1,0,0,0-1-.78l-.34,0,.91,1.59a8.78,8.78,0,0,0,1-5.8,4.14,4.14,0,0,0-1.33-2.56l.38,1.45a17.14,17.14,0,0,0,1.12-2.13C89.79,230.91,88,229.83,87.42,231.08Z"/><path class="cls-4" d="M100.25,215.61c-6.69,4.72-11.43,14.75-11.43,14.75-.15.43-.31.85-.49,1.25-4-2-7.07-2.58-9.34-2.48-.06-.27-.12-.55-.19-.84-2.54-12.15,1.83-35.2,16.22-34.14S107.29,210.63,100.25,215.61Z"/><path class="cls-7" d="M99.5,195.1c.5,5.12,0,11-4.23,13.9-6.27,4.33-9.75,15.42-11,20.91a26.44,26.44,0,0,1,4.09,1.7c.17-.4.34-.82.49-1.25,0,0,4.75-10,11.43-14.75C106.45,211.23,108.84,198.75,99.5,195.1Z"/><path class="cls-3" d="M104.81,197.86c-2.45-3.47-6.9-4.85-11-4.8A13.31,13.31,0,0,0,84,198c-3.57,4.15-5.32,9.71-6.23,15A42.35,42.35,0,0,0,78,229.41a1.06,1.06,0,0,0,1,.78,18.46,18.46,0,0,1,8.81,2.34,1.08,1.08,0,0,0,1.55-.63,40.1,40.1,0,0,1,3.21-6,33,33,0,0,1,8.23-9.36C106.27,212.57,108.92,203.67,104.81,197.86ZM99.72,214.7c-5.24,3.77-9.26,9.58-11.9,15.5a20.41,20.41,0,0,0-8-2.11,39.56,39.56,0,0,1,3-24.58c1.66-3.36,4.2-6.54,7.85-7.79A11.89,11.89,0,0,1,102.2,198C106.85,202.51,104.5,211.25,99.72,214.7Z"/><path class="cls-3" d="M92.85,216.74a15.38,15.38,0,0,0,2.63,3.07c.68.6,1.68-.39,1-1a14,14,0,0,1-2.4-2.78c-.5-.76-1.72-.05-1.22.71Z"/><path class="cls-3" d="M90.1,218.85a11.62,11.62,0,0,0,2.74,3.79c.67.61,1.67-.38,1-1a10.64,10.64,0,0,1-2.52-3.51c-.37-.83-1.59-.11-1.22.71Z"/><path class="cls-3" d="M87.89,223.06A17.8,17.8,0,0,0,90,225.58a.7.7,0,0,0,1-1,15.82,15.82,0,0,1-1.85-2.23c-.51-.75-1.73,0-1.22.71Z"/><path class="cls-3" d="M85.91,225.86a6.37,6.37,0,0,0,2.37,3.46c.72.55,1.42-.67.71-1.22a4.83,4.83,0,0,1-1.72-2.62.71.71,0,0,0-1.36.37Z"/><path class="cls-8" d="M145.5,133.59c-13.83,2.49-30.6,7.82-42.3,19.17C112.7,154.28,131.72,154.16,145.5,133.59Z"/><path class="cls-3" d="M110.29,154.15h0a46,46,0,0,1-7.23-.57l-1.62-.26,1.18-1.14a65.25,65.25,0,0,1,20.61-13.08,107.87,107.87,0,0,1,22.12-6.32l1.91-.34L146.18,134C135.05,150.67,120.52,154.15,110.29,154.15Zm-5.28-2a44.54,44.54,0,0,0,5.28.32c9.48,0,22.82-3.13,33.38-17.74C131.79,137.11,116.26,142,105,152.19Z"/><path class="cls-5" d="M170.2,131.44a131.62,131.62,0,0,0-24.71,2.15c-13.77,20.57-32.8,20.69-42.3,19.17a45.94,45.94,0,0,0-11.07,16.65s-4,7.52-2.57,21c6.16-4.2,24.15-14.73,51.56-16.37,0,0,16.27-21.84,42.16-31.09Q177.39,137.46,170.2,131.44Z"/><path class="cls-3" d="M170.2,130.39c-2.9-.09-5.82.05-8.72.23-3.13.19-6.25.5-9.36.9q-2.55.33-5.08.75c-.67.11-1.78.08-2.29.59a18.44,18.44,0,0,0-1.57,2.21,41,41,0,0,1-25.63,16.59,42.18,42.18,0,0,1-11,.47c-.69-.06-1.38-.13-2.06-.22l-1-.15c-.84-.13-1.29.52-1.83,1.06a48.74,48.74,0,0,0-5.91,7.27,44.13,44.13,0,0,0-7.52,23.06,54,54,0,0,0,.27,7.31,1.07,1.07,0,0,0,1.59.91,89,89,0,0,1,19.55-9.78A109.63,109.63,0,0,1,126.32,177c3.33-.65,6.7-1.13,10.08-1.47.85-.09,1.7-.16,2.55-.23a13.78,13.78,0,0,0,2.45-.19,1.44,1.44,0,0,0,.73-.62l0,0,.24-.31.77-1c.78-.94,1.58-1.86,2.4-2.77a108,108,0,0,1,8.17-8.12,92.46,92.46,0,0,1,28.39-17.75l1.42-.52a1.07,1.07,0,0,0,.47-1.77c-4.24-4-8.61-7.83-13.07-11.56-1-.87-2.54.62-1.5,1.5,4.46,3.74,8.83,7.58,13.07,11.56L183,142a93.9,93.9,0,0,0-29,17.33,97.07,97.07,0,0,0-13.21,13.55l-.54.69.91-.52C123,174.15,104.21,179.22,89,189.54l1.59.91c-.65-6.54-.4-13.5,2.06-19.69a50.42,50.42,0,0,1,11.28-17.25l-1,.27a44.41,44.41,0,0,0,20.24-1.35c9.76-3.07,17.6-9.93,23.26-18.31l-.63.49a119.84,119.84,0,0,1,24.42-2.11C171.57,132.54,171.56,130.43,170.2,130.39Z"/><path class="cls-8" d="M145.5,133.59c-13.83,2.49-30.6,7.82-42.3,19.17C112.7,154.28,131.72,154.16,145.5,133.59Z"/><path class="cls-3" d="M110.29,154.15h0a46,46,0,0,1-7.23-.57l-1.62-.26,1.18-1.14a65.25,65.25,0,0,1,20.61-13.08,107.87,107.87,0,0,1,22.12-6.32l1.91-.34L146.18,134C135.05,150.67,120.52,154.15,110.29,154.15Zm-5.28-2a44.54,44.54,0,0,0,5.28.32c9.48,0,22.82-3.13,33.38-17.74C131.79,137.11,116.26,142,105,152.19Z"/><path class="cls-3" d="M130.68,154.22a.76.76,0,0,1,.76,1.3c-.74.52,0,1.74.71,1.22a2.26,2.26,0,0,0,.73-2.93A2.23,2.23,0,0,0,130,153c-.82.39-.11,1.6.71,1.22Z"/><path class="cls-2" d="M143.38,161.16a6.53,6.53,0,0,0-5.2-1.46,11.18,11.18,0,0,0-5.06,2.19,6.16,6.16,0,0,0-2.62,3.35c-.33,1.41.46,3.15,1.89,3.37,1.23.19,2.35-.73,3.13-1.71a8.1,8.1,0,0,1,2.6-2.64c1.85-.86,4.06.28,6-.17.44-.1.94-.38.92-.84a1.12,1.12,0,0,0-.36-.65l-1.39-1.56"/><path class="cls-3" d="M143.88,160.67c-3.12-2.64-7.25-1.86-10.46.17a8.25,8.25,0,0,0-3.5,3.88,3.69,3.69,0,0,0,1.12,4,3.16,3.16,0,0,0,4-.36c1.52-1.31,2.27-3.57,4.51-3.75,1.84-.15,3.71.73,5.48-.15,2-1-.47-3.12-1.21-3.94s-1.6.32-1,1l1.39,1.56c.31.35-1.82.36-2,.34a11.33,11.33,0,0,0-4,0c-2.43.65-3,4.29-5.55,4.48-1.45.11-1.73-1.86-1.45-2.85.41-1.45,2-2.49,3.19-3.25,2.51-1.59,6-2.24,8.41-.18.69.58,1.69-.41,1-1Z"/><path class="cls-3" d="M141.1,166.14a6.4,6.4,0,0,0-2.61.11,4.34,4.34,0,0,0-2.1,1.59c-.55.73.68,1.43,1.22.71a3,3,0,0,1,1.48-1,5.1,5.1,0,0,1,2,0c.91.05.9-1.35,0-1.41Z"/><path class="cls-4" d="M198.29,158.74a183,183,0,0,0-15-15.74c-25.89,9.25-42.16,31.09-42.16,31.09-27.41,1.64-45.4,12.17-51.56,16.37A70.33,70.33,0,0,0,93.85,208C111,209.51,158.74,208.45,198.29,158.74Z"/><path class="cls-7" d="M103.72,208.21c-4.18-14.46-4.46-23.41-4.46-23.41s-8.91,3.86-9.69,6,4.48,17,4.48,17c0,.21.06.47.11.76A62,62,0,0,0,103.72,208.21Z"/><path class="cls-3" d="M199,158a185.61,185.61,0,0,0-15-15.74,1,1,0,0,0-1-.27,93.9,93.9,0,0,0-29,17.33,97.06,97.06,0,0,0-13.21,13.55l-.16.21c-18,1.19-36.52,6.25-51.55,16.47a1.06,1.06,0,0,0-.52.91,73,73,0,0,0,4.33,17.84,1.11,1.11,0,0,0,1,.78,110.49,110.49,0,0,0,38.75-3.84c20.76-5.74,39.42-17.38,54.64-32.52A154.05,154.05,0,0,0,199,159.49a1.1,1.1,0,0,0,.25-.63A1.06,1.06,0,0,0,199,158Zm-56.91,41.89a111.89,111.89,0,0,1-43.32,7.37c-1.4,0-2.8-.13-4.2-.24a70.59,70.59,0,0,1-3.93-16,89.7,89.7,0,0,1,19-9.4A109.62,109.62,0,0,1,126.32,177c3.33-.65,6.7-1.13,10.08-1.47.85-.09,1.7-.16,2.55-.23a13.79,13.79,0,0,0,2.45-.19,1.44,1.44,0,0,0,.73-.62l0,0,.24-.31.77-1c.78-.94,1.58-1.86,2.4-2.77a108,108,0,0,1,8.17-8.12,92.46,92.46,0,0,1,28.39-17.75l.88-.32a186.28,186.28,0,0,1,13.89,14.54C182.36,176.78,163.89,191.6,142.13,199.89Z"/><path class="cls-9" d="M207.3,171.51a66.31,66.31,0,0,0-9-12.77c-14.74,18.53-30.61,30.3-45.62,37.7C159.61,197.75,181.71,199.11,207.3,171.51Z"/><path class="cls-3" d="M208.22,171A69.2,69.2,0,0,0,199,158a1.05,1.05,0,0,0-1.5,0c-12.37,15.51-27.56,28.7-45.4,37.53a1.06,1.06,0,0,0,.25,1.93c14.88,2.8,30.17-3.89,41.85-12.63a104.81,104.81,0,0,0,13.81-12.56c.93-1-.56-2.49-1.5-1.49-12.63,13.57-30.06,26.13-49.52,25.13a28.92,28.92,0,0,1-4.09-.47l.25,1.93c18-8.9,33.36-22.23,45.83-37.86h-1.5A66.78,66.78,0,0,1,206.39,172C207,173.25,208.86,172.18,208.22,171Z"/><path class="cls-9" d="M151.23,197.13A112.69,112.69,0,0,1,93.85,208c.63,1.67.92,9.31,4.27,17.18C134.17,221.46,147.2,204.56,151.23,197.13Z"/><path class="cls-10" d="M109.14,223.91a165.8,165.8,0,0,1-5.42-15.71,62,62,0,0,1-9.55.31c.74,4.48,4,17.27,4,17.27Z"/><path class="cls-3" d="M150.7,196.22c-17.57,8.33-37.42,12.41-56.85,10.74a1.06,1.06,0,0,0-1,1.34,39.51,39.51,0,0,1,1.08,6.09,52.56,52.56,0,0,0,3.19,11.08,1.07,1.07,0,0,0,1,.78c18.05-1.9,37.44-7.71,49.55-22.1a39.63,39.63,0,0,0,4.48-6.48c.65-1.2-1.17-2.26-1.83-1.07-6.76,12.39-20.08,19.89-33.18,23.84a103.2,103.2,0,0,1-19,3.7l1,.78A53.14,53.14,0,0,1,96,214.17c-.39-2.09-.44-4.42-1.14-6.43l-1,1.34c19.81,1.71,40-2.54,57.92-11C153,197.46,151.93,195.64,150.7,196.22Z"/><path class="cls-4" d="M152.67,196.44l-1.44.7c-4,7.42-17.06,24.32-53.12,28.06,6.22,14.58,23,30,72,9.63,26.76-11.11,53-33.4,37.23-63.31C181.71,199.11,159.61,197.75,152.67,196.44Z"/><path class="cls-3" d="M209.57,173.75c-.42-.94-.88-1.86-1.35-2.77a1.06,1.06,0,0,0-1.66-.21c-12.63,13.57-30.06,26.13-49.52,25.13a28.91,28.91,0,0,1-4.09-.47,1.06,1.06,0,0,0-.28,0h-.16l-.07,0a1.07,1.07,0,0,0-.31.08,4,4,0,0,0-2.12,1.62c-.24.43-.5.85-.76,1.27-.59,1-1.23,1.87-1.91,2.76a44.17,44.17,0,0,1-5.85,6.29c-6.42,5.77-14.32,9.72-22.48,12.39a101.27,101.27,0,0,1-20.91,4.29,1.08,1.08,0,0,0-.91,1.59A32.91,32.91,0,0,0,106.05,238a33.72,33.72,0,0,0,17.61,7.28c9.76,1.28,19.83-.6,29.2-3.25a130.85,130.85,0,0,0,34.45-14.93c8.94-5.68,17.38-13.11,22.17-22.72a34.35,34.35,0,0,0,3.64-14.44A37.7,37.7,0,0,0,209.57,173.75Zm-1.91,29.56C202.9,213,194.14,220.39,185.09,226a130,130,0,0,1-34.94,14.58c-9.08,2.42-18.85,4-28.21,2.32a30.38,30.38,0,0,1-15.14-7,30.75,30.75,0,0,1-7.14-9.81c17.6-2.07,36.24-7.94,48-21.91a43.42,43.42,0,0,0,2.81-3.73c.34-.51.67-1,1-1.55l.44-.76c.21-.37.5-.44.91-.6,14.75,2.6,29.86-4,41.43-12.69A103.08,103.08,0,0,0,207,173.32a37.15,37.15,0,0,1,4,15.38A31.74,31.74,0,0,1,207.66,203.31Z"/><path class="cls-7" d="M106.81,235.87a30.38,30.38,0,0,0,15.14,7c9.36,1.64,19.12.1,28.21-2.32A130,130,0,0,0,185.09,226c9-5.62,17.81-13,22.57-22.69a33.4,33.4,0,0,0,2.84-8.52c-29,30.17-70.83,42.59-93.24,36.16-3.18-.91-5.81-3.19-8-6.42-3.2.65-6.41,1.15-9.59,1.52A30.75,30.75,0,0,0,106.81,235.87Z"/><path class="cls-3" d="M152.48,197.36a.82.82,0,0,1-.73-.45l-11.36-22.45a.82.82,0,0,1,1.47-.74l11.36,22.45a.82.82,0,0,1-.73,1.19Z"/><path class="cls-3" d="M168.38,188a.82.82,0,0,1-.77-.53,43.31,43.31,0,0,0-14.75-18.85.82.82,0,0,1,.91-1.37,44.27,44.27,0,0,1,15.38,19.64.82.82,0,0,1-.77,1.11Z"/><path class="cls-3" d="M186.38,172.9a.82.82,0,0,1-.71-.41c-4.47-7.77-12.19-9.75-15.09-10.49-1.27-.32-1.85-.47-1.89-1.19a.82.82,0,0,1,1.38-.65c.18.06.57.16.92.25,3.09.79,11.29,2.88,16.11,11.26a.82.82,0,0,1-.71,1.23Z"/><path class="cls-3" d="M134.64,203.4A.82.82,0,0,1,134,203a36.57,36.57,0,0,1-5.87-22.87.82.82,0,0,1,1.63.22,35.58,35.58,0,0,0,5.62,21.76.82.82,0,0,1-.69,1.27Z"/><path class="cls-3" d="M112,208.45a.82.82,0,0,1-.75-.49c-3.9-8.84-.73-16.69.46-19.64.13-.33.28-.7.34-.89a.82.82,0,0,1,1.34-.73c.55.46.33,1-.16,2.23-1.12,2.78-4.1,10.16-.48,18.37a.82.82,0,0,1-.42,1.08A.81.81,0,0,1,112,208.45Z"/><path class="cls-3" d="M124,249.38a10.69,10.69,0,0,0,4.76-1c.83-.37.11-1.58-.71-1.22A9.13,9.13,0,0,1,124,248c-.91,0-.91,1.38,0,1.41Z"/><path class="cls-3" d="M124.38,253.05a10.69,10.69,0,0,0,4.77-.95c.83-.37.11-1.58-.71-1.22a9.12,9.12,0,0,1-4.05.76c-.91,0-.91,1.38,0,1.41Z"/><path class="cls-3" d="M125.17,256.3a20.26,20.26,0,0,0,4.26-.08c.89-.11.9-1.52,0-1.41a20.27,20.27,0,0,1-4.26.08c-.91-.08-.9,1.33,0,1.41Z"/><path class="cls-3" d="M124.56,259.81a6.4,6.4,0,0,0,5.32.24c.83-.34.47-1.7-.37-1.36a5,5,0,0,1-4.23-.1c-.81-.4-1.53.81-.71,1.22Z"/><path class="cls-4" d="M125,268.22a62.33,62.33,0,0,0,3.57,6.11c.35.52.8,1.09,1.43,1.09s1.17-.75,1.43-1.41a13.17,13.17,0,0,0-.92-11.29c-.19-.33-.6-.69-.89-.45a.66.66,0,0,0-.18.37,23,23,0,0,1-1,4.16c-.6,1.3-3.64,1.32-3.51,1.24"/><path class="cls-3" d="M124.36,268.58q1.42,2.76,3.09,5.37c.74,1.16,1.47,2.35,3,2.11,1.32-.2,1.82-2.28,2.09-3.3a13.71,13.71,0,0,0,.32-5.06,14.06,14.06,0,0,0-1.41-4.67c-.39-.78-1.59-2.34-2.48-1.11s-.26,3.42-1.29,4.71a3.93,3.93,0,0,1-2.6.75l.52.68h0c-.1-.89-1.51-.9-1.41,0h0a.72.72,0,0,0,.52.68,5,5,0,0,0,3.83-1,5.37,5.37,0,0,0,1.18-3c.12-.64.22-1.29.37-1.92l-.21.25c.13.22.25.44.36.66a11.12,11.12,0,0,1,.53,1.22,12.61,12.61,0,0,1,.08,8.52c-.23.67-.67,1.65-1.43.88a12.62,12.62,0,0,1-1.47-2.24c-.85-1.38-1.64-2.8-2.38-4.25-.42-.81-1.63-.09-1.22.71Z"/><path class="cls-6" d="M115.37,172.9s-4.19-3.91-10.35.61-1.23,7.66,2.13,4.66,5.88-2.49,6.63-1.52S118.75,175.67,115.37,172.9Z"/><path class="cls-6" d="M165.88,143.11s-6.09-2.34-10.66,5.06,2,8.61,4.24,4,5.13-5.14,6.34-4.43S170.63,144.58,165.88,143.11Z"/><g class="cls-11"><path class="cls-12" d="M99.57,156.69a45.3,45.3,0,0,0-7.44,12.72s-4,7.52-2.57,21a82.09,82.09,0,0,1,10.54-6C98.46,170.23,99,161.37,99.57,156.69Z"/></g><path class="cls-8" d="M96.56,173.5c8.61-5.06,10.21-16.44,10.51-20.29-1.42-.1-2.72-.26-3.87-.45a45.94,45.94,0,0,0-11.07,16.65s-4,7.52-2.57,21a77.37,77.37,0,0,1,7.11-4.26A18.68,18.68,0,0,0,96.56,173.5Z"/><path class="cls-3" d="M97.1,174.41c7.28-4.37,10.39-13.1,11-21.2a1.07,1.07,0,0,0-1.06-1.06c-1.2-.09-2.4-.22-3.59-.41s-1.94,1.17-2.61,1.88a49.05,49.05,0,0,0-4.7,5.82A60.08,60.08,0,0,0,91,169.34c-2.91,6.48-3.2,14.17-2.5,21.12a1.07,1.07,0,0,0,1.59.91c1.68-1.14,3.41-2.2,5.17-3.2,1.08-.61,2.14-.9,2.58-2.13a19.46,19.46,0,0,0-.25-12.82c-.52-1.24-2.56-.7-2,.56a17.23,17.23,0,0,1,.1,12.13l.49-.63A79.94,79.94,0,0,0,89,189.54l1.59.91c-.65-6.54-.4-13.5,2.06-19.69a50.42,50.42,0,0,1,11.28-17.25l-1,.27q2.07.32,4.16.48L106,153.21c-.58,7.34-3.38,15.41-10,19.38A1.06,1.06,0,0,0,97.1,174.41Z"/><path class="cls-8" d="M170.2,131.44a131.62,131.62,0,0,0-24.71,2.15l-.52.76c3.73,2.13,8.52,4.61,12,5.26a22.55,22.55,0,0,0,13.06-1.2,10,10,0,0,0,8,6.67c1.69-.75,3.43-1.45,5.22-2.09Q177.39,137.46,170.2,131.44Z"/><path class="cls-3" d="M170.2,130.39c-2.69-.08-5.4,0-8.09.19-2.92.16-5.84.43-8.75.78-1.67.2-3.33.43-5,.69-.9.14-1.81.29-2.71.45s-1.11.6-1.61,1.33a1.06,1.06,0,0,0,.38,1.45c3.75,2.13,7.73,4.36,12,5.31a23.33,23.33,0,0,0,13.92-1.14l-1.3-.74a11.06,11.06,0,0,0,5.34,6.27c1,.52,2.83,1.45,4,1.14a22.71,22.71,0,0,0,2.38-1c.94-.38,1.89-.74,2.85-1.08a1.07,1.07,0,0,0,.47-1.77c-4.24-4-8.61-7.83-13.07-11.56-1-.87-2.54.62-1.5,1.5,4.46,3.74,8.83,7.58,13.07,11.56L183,142c-1.85.67-3.67,1.4-5.48,2.19l.81-.11a9.09,9.09,0,0,1-7.26-5.93,1.06,1.06,0,0,0-1.3-.74,21.72,21.72,0,0,1-13.11,1.07c-4-.88-7.67-3-11.16-5l.38,1.45.52-.76-.63.49a119.84,119.84,0,0,1,24.42-2.11C171.57,132.54,171.56,130.43,170.2,130.39Z"/><path class="cls-6" d="M107,141.9c4-1.95,8.52-4.79,12.49-6.73.23-.11-2.87-4.82-3.38-7-.72.83-6.12.88-2.84,5.32.17.23-8.5,5.37-10,6C103.24,139.53,104.85,142.94,107,141.9Z"/><path class="cls-3" d="M107.5,142.82c2.31-1.14,4.55-2.41,6.79-3.67,1.08-.61,2.16-1.21,3.25-1.8.79-.42,2.37-.87,2.83-1.66s-.68-2.43-1.11-3.2a19.76,19.76,0,0,1-2.18-4.61,1.07,1.07,0,0,0-1.77-.47,1.75,1.75,0,0,1-.29.13l-1,.36a5.41,5.41,0,0,0-2.15,1.28,2.93,2.93,0,0,0-.65,2.6,5,5,0,0,0,.72,1.67c.44.75.3-.43.49-.62-.19.19.08,0-.12.09-1.57,1.14-3.29,2.1-5,3.08a51.32,51.32,0,0,1-4.65,2.61,1.07,1.07,0,0,0-.38,1.45c.86,1.79,2.77,3.75,4.92,2.86,1.24-.51.7-2.56-.56-2s-2.08-.94-2.54-1.89l-.38,1.45a50,50,0,0,0,4.44-2.48c1.71-1,3.44-2,5.07-3.14.42-.3,1.09-.72,1-1.34-.11-.86-1.46-1.84-1-2.77.61-1.1,2.61-.94,3.48-1.8l-1.77-.47c.62,2.45,2.6,4.89,3.37,6.9q.6-1.31-.19-.74l-.7.36-1.42.75c-1.09.59-2.18,1.2-3.26,1.81-2.12,1.19-4.24,2.39-6.43,3.47C105.21,141.6,106.29,143.42,107.5,142.82Z"/><circle class="cls-6" cx="110.13" cy="126.28" r="6.58" transform="translate(-50.16 77.47) rotate(-31.97)"/><path class="cls-3" d="M114.79,123.33a5.52,5.52,0,1,1-7.61-1.72,5.59,5.59,0,0,1,7.61,1.72c.75,1.13,2.58.08,1.83-1.07a7.63,7.63,0,1,0-2.48,10.51,7.75,7.75,0,0,0,2.48-10.51A1.06,1.06,0,0,0,114.79,123.33Z"/><path class="cls-2" d="M112.72,123.13l-2.47,7.48a5.09,5.09,0,0,0,3.88-2.66C115.31,125.52,112.72,123.13,112.72,123.13Z"/><path class="cls-6" d="M161.57,126.39s14.36,2,7.71,6.85c-2.64,1.91-42.59-6.8-77.16,36.17,0,0-5.27.62-4-5.39C88.77,160.9,111.09,123.15,161.57,126.39Z"/><path class="cls-3" d="M161.29,127.41a25.75,25.75,0,0,1,6.51,1.69,6.88,6.88,0,0,1,1.61.91,1.56,1.56,0,0,1,.58.79c-.08.59-.65,1-1.08,1.4s.05.09-.33.19l-.28.05h-.11c-.3,0-.61,0-.91.06-.8,0-1.61,0-2.41,0-2.39,0-4.77.06-7.15.19a86.7,86.7,0,0,0-48.39,18.14,109,109,0,0,0-18,17.8l.75-.31A3.37,3.37,0,0,1,90,168c-1.29-.7-1.24-2.6-.88-3.81,0-.12.23-.6.08-.24.1-.23.21-.46.32-.68.31-.62.65-1.21,1-1.8a62.3,62.3,0,0,1,9.3-11.63,77,77,0,0,1,46.49-22.11,90.78,90.78,0,0,1,15.21-.27c1.36.09,1.35-2,0-2.11-19.78-1.23-39.51,3.94-55.32,16.08A76.2,76.2,0,0,0,92.5,155c-2,2.55-4.27,5.41-5.34,8.52-1,2.95.28,6.37,3.53,6.88a6.43,6.43,0,0,0,1.3.08c1.06-.05,1.65-1.27,2.27-2q3.32-4,7-7.66A91.27,91.27,0,0,1,129,141.55a81.7,81.7,0,0,1,23.52-6.27c4.83-.55,9.65-.51,14.5-.65a7.12,7.12,0,0,0,2.36-.28c1.83-.73,3.28-2.92,2.35-4.82s-3.62-2.64-5.42-3.17a31.39,31.39,0,0,0-4.48-1C160.52,125.18,159.95,127.22,161.29,127.41Z"/><path class="cls-6" d="M135.34,128.07c-4.18,1.45-9.4,2.68-13.57,4.13-.24.08-1.4-5.44-2.6-7.33,1.1.08,4.94-3.73,5.78,1.73,0,.29,9.79-2.25,11.33-2.85C136.27,123.75,137.56,127.29,135.34,128.07Z"/><path class="cls-3" d="M135.06,127c-4.35,1.5-8.85,2.54-13.21,4,.57-.19.93,1,.71.37-.08-.22-.14-.45-.21-.68-.21-.72-.41-1.43-.62-2.15a18.32,18.32,0,0,0-1.65-4.27l-.91,1.59c1.3,0,2.46-1.48,3.77-1.2,1,.21.79,2,1.27,2.62s1.16.31,1.67.22c1.87-.33,3.72-.85,5.56-1.33a51.69,51.69,0,0,0,5.13-1.47l-1.3-.74c.26.74.79,2.61-.2,3-1.24.52-.7,2.56.56,2,2.29-1,2.42-3.53,1.67-5.62a1.07,1.07,0,0,0-1.3-.74,65.64,65.64,0,0,1-10.56,2.78,1.45,1.45,0,0,1-.37.06c.39,0,1,.91.77.05a5.42,5.42,0,0,0-.38-1.1,3.09,3.09,0,0,0-2.12-1.86,4.36,4.36,0,0,0-2.64.45c-.36.16-.72.33-1.07.51-.16.08-.64.2-.46.2a1.07,1.07,0,0,0-.91,1.59,19,19,0,0,1,1.67,4.54c.25.85.43,2.66,1.29,3.17s1.94-.26,2.68-.5c1.3-.42,2.62-.79,3.93-1.17,2.61-.75,5.22-1.47,7.79-2.35C136.9,128.65,136.35,126.61,135.06,127Z"/><circle class="cls-6" cx="122.01" cy="118.72" r="6.58" transform="translate(-24.02 31.22) rotate(-13.29)"/><path class="cls-3" d="M114.59,120.51a7.75,7.75,0,0,0,9.21,5.63c4.16-.87,6.46-5.24,5.63-9.21-.87-4.16-5.24-6.46-9.21-5.63-4.16.87-6.46,5.24-5.63,9.21.28,1.33,2.32.77,2-.56a5.52,5.52,0,1,1,6.61,4.15,5.6,5.6,0,0,1-6.61-4.15A1.06,1.06,0,0,0,114.59,120.51Z"/><path class="cls-2" d="M134.53,133.67s-19.77,3.92-41.89,31.17c0,0-1.77,1.51-2.12,0S111,135.9,134.53,133.67Z"/><path class="cls-2" d="M117.95,118.34l7,3.51a5.09,5.09,0,0,1-4.62.89C117.82,121.87,117.95,118.34,117.95,118.34Z"/><path class="cls-3" d="M165.79,141.82a12,12,0,0,0-6.47,1.43,11.29,11.29,0,0,0-6,8c-.27,1.33,1.77,1.9,2,.56a9.38,9.38,0,0,1,5.06-6.71,9.78,9.78,0,0,1,5.41-1.15c1.35.17,1.33-1.94,0-2.11Z"/><path class="cls-3" d="M115.89,171.92l-.67-.34c-.39-.21-.79-.41-1.2-.59a9.29,9.29,0,0,0-3.3-.8c-3.83-.2-7.31,2.4-10,4.82-1,.92.48,2.4,1.49,1.5,2.42-2.18,5.44-4.44,8.88-4.17,1.57.12,2.81,1.07,4.23,1.62s1.82-1.55.56-2Z"/><path class="cls-3" d="M146.7,158.5a22.73,22.73,0,0,1,1.77,3.63c.3.77,1.44.19,1.15-.57a22.63,22.63,0,0,0-1.77-3.62c-.43-.71-1.58-.14-1.15.57Z"/><path class="cls-3" d="M149.06,157a53.21,53.21,0,0,0,2.71,5.07c.43.7,1.58.13,1.15-.57a53.11,53.11,0,0,1-2.71-5.07c-.35-.75-1.5-.18-1.15.57Z"/><path class="cls-3" d="M151.26,154.75l3.51,6.89a.64.64,0,0,0,1.15-.57l-3.51-6.89a.64.64,0,0,0-1.15.57Z"/><path class="cls-3" d="M152.66,152.29a31.67,31.67,0,0,1,2.76,4.82c.35.75,1.5.18,1.15-.57a33.5,33.5,0,0,0-2.94-5.1c-.47-.68-1.43.18-1,.85Z"/><path class="cls-3" d="M116,171.57l4.39,9.47c.35.75,1.5.18,1.15-.57L117.17,171c-.35-.75-1.5-.18-1.15.57Z"/><path class="cls-3" d="M119.26,171.82q2,3.28,3.66,6.7a.64.64,0,0,0,1.15-.57q-1.69-3.43-3.66-6.7c-.42-.7-1.58-.14-1.15.57Z"/><path class="cls-3" d="M121.86,170.79a33.76,33.76,0,0,0,2.09,4.25c.42.71,1.57.14,1.15-.57a33.45,33.45,0,0,1-2.09-4.25c-.31-.77-1.46-.19-1.15.57Z"/><path class="cls-3" d="M104.4,163.36a5.08,5.08,0,0,0,2,4.55c.65.51,1.4-.54.75-1a3.74,3.74,0,0,1-1.45-3.36.64.64,0,0,0-1.28-.14Z"/><path class="cls-3" d="M157.53,145.1a10.09,10.09,0,0,0-3.7-4.58c-.68-.47-1.43.58-.75,1a8.89,8.89,0,0,1,3.28,4.07c.31.77,1.48.23,1.17-.54Z"/><path class="cls-2" d="M115.51,154.84a5.67,5.67,0,0,0-3.55,1.71,9.09,9.09,0,0,0-2,10.26,8,8,0,0,0,9.39,4.09,13.48,13.48,0,0,0,3.56-2,9.54,9.54,0,0,0,3.28-3.44,7.62,7.62,0,0,0-1.89-8.3c-2.19-1.8-6.08-3.73-8.78-2.28"/><path class="cls-3" d="M119.76,172.12c5.57-1.83,10.07-7.31,7.41-13.19-1.84-4.08-7.71-7-12-5.33-5.38.82-8.32,7.24-7,12.18A9.31,9.31,0,0,0,119.76,172.12Zm-9.12-7.2c-.89-3.59,1.21-8.27,5.14-8.82a1.26,1.26,0,0,0,.53-.2c2.74-1,6.82,1.11,8.22,3.48,2.66,4.5-1.3,8.87-5.56,10.26A6.66,6.66,0,0,1,110.64,164.92Z"/><path class="cls-2" d="M142.07,140.71a5.67,5.67,0,0,0-3.55,1.71,9.09,9.09,0,0,0-2,10.26,8,8,0,0,0,9.39,4.09,13.5,13.5,0,0,0,3.56-2,9.55,9.55,0,0,0,3.28-3.44,7.62,7.62,0,0,0-1.89-8.3c-2.19-1.8-6.08-3.73-8.78-2.28"/><path class="cls-3" d="M146.32,158c5.57-1.83,10.07-7.31,7.41-13.19-1.84-4.08-7.71-7-12-5.33-5.38.82-8.32,7.24-7,12.18A9.31,9.31,0,0,0,146.32,158Zm-9.12-7.2c-.89-3.59,1.21-8.27,5.14-8.82a1.26,1.26,0,0,0,.53-.2c2.74-1,6.82,1.11,8.22,3.48,2.65,4.5-1.3,8.87-5.56,10.26A6.66,6.66,0,0,1,137.2,150.79Z"/><path class="cls-3" d="M138.11,144.56a5.44,5.44,0,0,0-1.33-5.22.49.49,0,0,1-.18-.29.32.32,0,0,1,.33-.3.88.88,0,0,1,.46.17,7.26,7.26,0,0,1,1.72,1.43,3.1,3.1,0,0,1,.67,1.17,1.67,1.67,0,0,1-.15,1.32,9,9,0,0,1-1.52,1.71"/><path class="cls-3" d="M139.68,143a9.57,9.57,0,0,1-1.49,1.65.12.12,0,0,1-.19-.12,5.35,5.35,0,0,0-1.3-5.11.6.6,0,0,1-.21-.36.36.36,0,0,1,.1-.27.49.49,0,0,1,.34-.15,1,1,0,0,1,.52.19,7.31,7.31,0,0,1,1.75,1.45,3.2,3.2,0,0,1,.7,1.22,1.79,1.79,0,0,1-.16,1.41Zm-1.36,1.2a7.69,7.69,0,0,0,1.21-1.42,1.55,1.55,0,0,0,.13-1.22,3,3,0,0,0-.65-1.13,7.07,7.07,0,0,0-1.7-1.4.77.77,0,0,0-.39-.15.25.25,0,0,0-.17.08.12.12,0,0,0,0,.09c0,.07.08.14.14.21A5.53,5.53,0,0,1,138.32,144.2Z"/><path class="cls-3" d="M141.38,141.1a4.55,4.55,0,0,0,.45-4.49.41.41,0,0,1-.06-.28.27.27,0,0,1,.34-.14.74.74,0,0,1,.31.26,6.08,6.08,0,0,1,.95,1.62,2.61,2.61,0,0,1,.19,1.12,1.4,1.4,0,0,1-.49,1,7.5,7.5,0,0,1-1.69.91"/><path class="cls-3" d="M143.43,140a1.31,1.31,0,0,1-.29.31,7.7,7.7,0,0,1-1.72.93.12.12,0,0,1-.14,0,.11.11,0,0,1,0-.14,4.47,4.47,0,0,0,.43-4.37.51.51,0,0,1-.06-.36.32.32,0,0,1,.17-.2.43.43,0,0,1,.33,0,.84.84,0,0,1,.37.3,6.12,6.12,0,0,1,1,1.65,2.68,2.68,0,0,1,.2,1.17A1.64,1.64,0,0,1,143.43,140Zm-1.73.87a6.27,6.27,0,0,0,1.3-.74,1.28,1.28,0,0,0,.45-.91,2.46,2.46,0,0,0-.18-1.06,5.88,5.88,0,0,0-.93-1.58.63.63,0,0,0-.26-.23.2.2,0,0,0-.14,0,.09.09,0,0,0,0,.05.34.34,0,0,0,.05.19A4.65,4.65,0,0,1,141.7,140.83Z"/><path class="cls-3" d="M145.94,140.39a4.55,4.55,0,0,0,2.3-3.87.42.42,0,0,1,.06-.27.27.27,0,0,1,.37,0,.74.74,0,0,1,.17.37,6.08,6.08,0,0,1,.17,1.87,7.47,7.47,0,0,1-.26,1.89c-.19.33-.54-.2-.91-.11a7.48,7.48,0,0,1-1.92.11"/><path class="cls-3" d="M148.85,140.48c-.16.25-.41.12-.58,0a.62.62,0,0,0-.39-.11,7.73,7.73,0,0,1-1.95.11.12.12,0,0,1-.05-.22,4.47,4.47,0,0,0,2.24-3.77.49.49,0,0,1,.09-.35.32.32,0,0,1,.23-.11.43.43,0,0,1,.31.12.83.83,0,0,1,.2.43,6.14,6.14,0,0,1,.18,1.9c0,.06,0,.14,0,.24a5.53,5.53,0,0,1-.26,1.7Zm-2.51-.19a6.3,6.3,0,0,0,1.49-.12.81.81,0,0,1,.55.13c.22.12.24.1.28,0a6.13,6.13,0,0,0,.23-1.6l0-.24a5.87,5.87,0,0,0-.17-1.83.65.65,0,0,0-.14-.31.19.19,0,0,0-.14-.05.08.08,0,0,0-.06,0,.33.33,0,0,0,0,.2A4.65,4.65,0,0,1,146.34,140.29Z"/><path class="cls-3" d="M120.58,154.59a5.44,5.44,0,0,1-2.26-4.89.48.48,0,0,0,0-.33.32.32,0,0,0-.44,0,.87.87,0,0,0-.25.42,7.22,7.22,0,0,0-.44,2.2,3.1,3.1,0,0,0,.22,1.33,1.68,1.68,0,0,0,.95.93,9,9,0,0,0,2.26.37"/><path class="cls-3" d="M118.27,154.33a1.78,1.78,0,0,1-1-1A3.2,3.2,0,0,1,117,152a7.27,7.27,0,0,1,.45-2.23,1,1,0,0,1,.29-.47.48.48,0,0,1,.36-.1.36.36,0,0,1,.25.15.59.59,0,0,1,.06.41,5.36,5.36,0,0,0,2.21,4.79.12.12,0,0,1,0,.14.12.12,0,0,1-.12.08,9.63,9.63,0,0,1-2.2-.34Zm-.07-4.65a.41.41,0,0,0,0-.25.13.13,0,0,0-.09,0,.26.26,0,0,0-.18,0,.79.79,0,0,0-.21.37,7.1,7.1,0,0,0-.43,2.16,3,3,0,0,0,.21,1.28,1.55,1.55,0,0,0,.88.87,7.74,7.74,0,0,0,1.83.33A5.53,5.53,0,0,1,118.2,149.69Z"/><path class="cls-3" d="M115.85,154a4.55,4.55,0,0,1-3.17-3.2.42.42,0,0,0-.13-.25.27.27,0,0,0-.35.11.74.74,0,0,0-.08.4,6.11,6.11,0,0,0,.28,1.85,2.61,2.61,0,0,0,.55,1,1.4,1.4,0,0,0,1,.46,7.54,7.54,0,0,0,1.89-.36"/><path class="cls-3" d="M112.87,153.95a2.71,2.71,0,0,1-.58-1A6.13,6.13,0,0,1,112,151a.83.83,0,0,1,.09-.47.42.42,0,0,1,.27-.19.32.32,0,0,1,.25,0,.51.51,0,0,1,.18.32,4.47,4.47,0,0,0,3.09,3.12.11.11,0,0,1,.09.11.12.12,0,0,1-.09.12,7.74,7.74,0,0,1-1.92.36,1.3,1.3,0,0,1-.42-.06A1.64,1.64,0,0,1,112.87,153.95Zm-.31-3.15a.34.34,0,0,0-.08-.18h-.07a.2.2,0,0,0-.12.08.65.65,0,0,0-.06.34,5.88,5.88,0,0,0,.28,1.82,2.46,2.46,0,0,0,.53.94,1.28,1.28,0,0,0,.92.42,6.25,6.25,0,0,0,1.47-.25A4.65,4.65,0,0,1,112.56,150.79Z"/><path class="cls-3" d="M111.87,156.29a4.55,4.55,0,0,1-4.23-1.56.41.41,0,0,0-.22-.17.27.27,0,0,0-.28.25.73.73,0,0,0,.1.4,6.08,6.08,0,0,0,1,1.56,7.42,7.42,0,0,0,1.4,1.3c.35.14.29-.49.63-.66a7.56,7.56,0,0,0,1.56-1.12"/><path class="cls-3" d="M109.64,158.18a5.56,5.56,0,0,1-1.28-1.16l-.16-.17a6.09,6.09,0,0,1-1.06-1.59.82.82,0,0,1-.11-.46.43.43,0,0,1,.17-.29.32.32,0,0,1,.25-.06.5.5,0,0,1,.29.21,4.46,4.46,0,0,0,4.12,1.51.12.12,0,0,1,.1.21,7.75,7.75,0,0,1-1.58,1.14.62.62,0,0,0-.23.33c-.07.17-.19.43-.47.34Zm-2.09-3.37c0-.06-.1-.12-.15-.13l-.07,0a.19.19,0,0,0-.07.13.64.64,0,0,0,.09.33,6,6,0,0,0,1,1.53l.17.18a6.1,6.1,0,0,0,1.19,1.1c.07,0,.09,0,.19-.2a.8.8,0,0,1,.35-.45,6.24,6.24,0,0,0,1.23-.85A4.65,4.65,0,0,1,107.55,154.81Z"/><path class="cls-2" d="M141.86,173.71s22.21-31.9,54.68-34.05l-3.64,13S157.36,162.3,141.86,173.71Z"/><path class="cls-3" d="M142.78,174.24a77.89,77.89,0,0,1,7.36-8.74,92.64,92.64,0,0,1,20.37-16.38,60.25,60.25,0,0,1,26-8.41l-1-1.34-3.64,13,.74-.74c-4.91,1.33-9.77,2.88-14.6,4.49a197.64,197.64,0,0,0-27.49,11.13,67.71,67.71,0,0,0-9.2,5.54c-1.09.8,0,2.63,1.07,1.82,7.77-5.69,17-9.43,25.94-12.82,7.35-2.79,14.83-5.24,22.38-7.43l2.41-.68c1-.28,1.15-2,1.38-2.83l3.06-10.92a1.06,1.06,0,0,0-1-1.34c-19.19,1.34-36.11,12.67-48.88,26.46a76.65,76.65,0,0,0-6.71,8.12C140.17,174.3,142,175.35,142.78,174.24Z"/><path class="cls-2" d="M141.11,174.09s-36-5.12-56.92,19.78L90.76,199S122.74,179.82,141.11,174.09Z"/><path class="cls-3" d="M141.39,173.07a64.46,64.46,0,0,0-11.52-.4,74.52,74.52,0,0,0-25,5.15,55,55,0,0,0-21.46,15.3,1.07,1.07,0,0,0,0,1.5L90,199.77a1.09,1.09,0,0,0,1.28.16,340.83,340.83,0,0,1,40.47-21.19,101.73,101.73,0,0,1,9.63-3.63c1.29-.41.74-2.45-.56-2-9.32,2.93-18.19,7.37-26.85,11.84-7.2,3.72-14.29,7.65-21.29,11.74l-2.47,1.46,1.28.17-6.57-5.15v1.5C97,180.35,115.78,174.55,134,174.72q2.58,0,5.14.23l1.42.14c.21,0,.71.09.25,0C142.16,175.3,142.74,173.26,141.39,173.07Z"/><polygon class="cls-8" points="237.16 49.58 251.72 45.96 262.33 50.05 233.56 57.98 237.16 49.58"/><path class="cls-3" d="M233.56,58.57a.59.59,0,0,1-.54-.82l3.6-8.41A.59.59,0,0,1,237,49l14.56-3.61a.58.58,0,0,1,.35,0l10.61,4.08a.59.59,0,0,1-.05,1.11l-28.77,7.93Zm4-8.49-3,7L260.45,50l-8.77-3.37Z"/><path class="cls-3" d="M240.52,54.28a.55.55,0,0,1,0-.33.32.32,0,0,1,.2-.23.34.34,0,0,1,.19,0l.22.09a.84.84,0,0,0,.59,0,.71.71,0,0,0,.33-.2.3.3,0,0,0,.07-.31.41.41,0,0,0-.26-.26,2,2,0,0,0-.48-.12l-.56-.1a1.25,1.25,0,0,1-.53-.26,1.12,1.12,0,0,1-.35-.55,1,1,0,0,1,.13-1,1.62,1.62,0,0,1,.85-.57l.29-.07.35,0a.73.73,0,0,1,.35.06.34.34,0,0,1,.19.22.63.63,0,0,1,0,.32.27.27,0,0,1-.19.22.85.85,0,0,1-.29,0,1,1,0,0,0-.48,0,.68.68,0,0,0-.36.21.29.29,0,0,0-.06.27.31.31,0,0,0,.19.19,1.17,1.17,0,0,0,.36.08l.45.07a3.17,3.17,0,0,1,.47.13,1.12,1.12,0,0,1,.42.29,1.33,1.33,0,0,1,.29.53,1.13,1.13,0,0,1-.09,1,1.44,1.44,0,0,1-.84.6,1.81,1.81,0,0,1-.94.05C240.74,54.59,240.57,54.46,240.52,54.28Z"/><path class="cls-3" d="M243.29,53.76a.27.27,0,0,1,0-.06l0-3.58a.35.35,0,0,1,.13-.26.8.8,0,0,1,.32-.18.79.79,0,0,1,.36,0,.35.35,0,0,1,.25.15l2,3,0,.06a.3.3,0,0,1-.09.29.7.7,0,0,1-.32.21c-.15,0-.25,0-.31-.08l-.38-.62L244.1,53l0,.73c0,.11-.07.19-.22.24a.68.68,0,0,1-.38,0A.3.3,0,0,1,243.29,53.76Zm.78-1.47.76-.23L244,50.73Z"/><path class="cls-3" d="M246.63,52.84l-1-3.42a.21.21,0,0,1,.06-.22.63.63,0,0,1,.26-.15.61.61,0,0,1,.3,0,.22.22,0,0,1,.18.15l.9,2.95,1.18-.36a.2.2,0,0,1,.2.05.6.6,0,0,1,.16.52.2.2,0,0,1-.14.16l-1.64.5a.47.47,0,0,1-.27,0A.22.22,0,0,1,246.63,52.84Z"/><path class="cls-3" d="M249.17,52.06l-1-3.42a.23.23,0,0,1,0-.22.47.47,0,0,1,.23-.14l1.84-.56a.2.2,0,0,1,.21.05.58.58,0,0,1,.16.52.21.21,0,0,1-.15.16l-1.39.42.28.91.78-.24a.21.21,0,0,1,.21,0,.43.43,0,0,1,.13.21.42.42,0,0,1,0,.24.21.21,0,0,1-.15.15l-.78.24.28.91,1.39-.42a.21.21,0,0,1,.21.05.53.53,0,0,1,.15.24.52.52,0,0,1,0,.27.21.21,0,0,1-.15.16l-1.84.56a.46.46,0,0,1-.27,0A.23.23,0,0,1,249.17,52.06Z"/><path class="cls-3" d="M136.35,244.34a12.69,12.69,0,0,0,1.8-5.91c.05-.91-1.36-.9-1.41,0a11.15,11.15,0,0,1-1.61,5.19.71.71,0,0,0,1.22.71Z"/><path class="cls-3" d="M140.26,243.56a12.72,12.72,0,0,0,1.25-5c0-.91-1.38-.91-1.41,0a10.93,10.93,0,0,1-1.05,4.34c-.39.82.83,1.53,1.22.71Z"/><path class="cls-3" d="M144.53,242.77a12.72,12.72,0,0,0,1.24-5c0-.91-1.38-.91-1.41,0a10.94,10.94,0,0,1-1.05,4.34c-.39.82.83,1.53,1.22.71Z"/><path class="cls-3" d="M148.75,242A9.88,9.88,0,0,0,150.4,237c0-.91-1.37-.9-1.41,0a8.47,8.47,0,0,1-1.46,4.36c-.51.76.71,1.46,1.22.71Z"/><path class="cls-3" d="M152.58,241a16.41,16.41,0,0,0,1.71-6.4c.06-.91-1.35-.9-1.41,0a14.62,14.62,0,0,1-1.52,5.68c-.4.81.81,1.53,1.22.71Z"/><path class="cls-3" d="M156.44,240.34a12,12,0,0,0,2.84-5.94c.15-.89-1.21-1.27-1.36-.37a10.66,10.66,0,0,1-2.48,5.32c-.59.68.4,1.68,1,1Z"/><path class="cls-3" d="M161.24,238.55a17,17,0,0,0,1.85-5.4c.14-.89-1.21-1.27-1.36-.37a15.92,15.92,0,0,1-1.71,5.06c-.43.8.79,1.51,1.22.71Z"/><path class="cls-3" d="M165.22,237.05A22.68,22.68,0,0,0,168,230.6a.71.71,0,0,0-1.36-.37,21.39,21.39,0,0,1-2.68,6.12c-.49.77.73,1.47,1.22.71Z"/><path class="cls-3" d="M171,234.4a34.71,34.71,0,0,0,1.32-4.54c.19-.89-1.17-1.26-1.36-.37a34.63,34.63,0,0,1-1.32,4.54c-.31.86,1,1.22,1.36.38Z"/><path class="cls-3" d="M175.78,232.79a13.5,13.5,0,0,0,1.88-6.31.71.71,0,0,0-1.31-.36l-.1.21c-.39.81.82,1.53,1.22.71l.1-.21-1.31-.36a12,12,0,0,1-1.69,5.6.7.7,0,0,0,1.22.71Z"/><path class="cls-3" d="M180.36,230.42a17.14,17.14,0,0,0,1.76-6c.1-.9-1.32-.89-1.41,0a15.2,15.2,0,0,1-1.57,5.28c-.41.81.81,1.52,1.22.71Z"/><path class="cls-3" d="M184.35,228.54a14.62,14.62,0,0,0,1.89-6.07c.08-.91-1.33-.9-1.41,0a13,13,0,0,1-1.7,5.36.71.71,0,0,0,1.22.71Z"/><path class="cls-3" d="M190.22,224.07a13.61,13.61,0,0,0,1.55-6.07.7.7,0,0,0-1.41,0,12,12,0,0,1-1.36,5.36c-.42.81.8,1.52,1.22.71Z"/><path class="cls-3" d="M196,220.22a10.38,10.38,0,0,0,.63-4.89c-.1-.89-1.51-.9-1.41,0a9.49,9.49,0,0,1-.58,4.51c-.32.85,1,1.22,1.36.38Z"/><path class="cls-3" d="M200.72,215.14a12.92,12.92,0,0,0,.26-4.42c-.1-.89-1.51-.9-1.41,0a11.79,11.79,0,0,1-.21,4c-.21.88,1.15,1.26,1.36.38Z"/><path class="cls-3" d="M203.74,212a13.42,13.42,0,0,0,.49-5.37c-.1-.89-1.51-.9-1.41,0a12.4,12.4,0,0,1-.44,5,.7.7,0,0,0,1.36.37Z"/><path class="cls-3" d="M130.46,244.57a16.56,16.56,0,0,0,1.5-5.82c.06-.91-1.35-.9-1.41,0a14.59,14.59,0,0,1-1.31,5.11c-.38.82.84,1.54,1.22.71Z"/><path class="cls-3" d="M125.35,244.3a16.51,16.51,0,0,0,1.5-5.82c.06-.91-1.34-.9-1.41,0a14.62,14.62,0,0,1-1.31,5.11c-.38.82.84,1.54,1.22.71Z"/><path class="cls-3" d="M120.21,243a17.21,17.21,0,0,0,2.16-3.9c.34-.84-1-1.21-1.36-.37a15.86,15.86,0,0,1-2,3.56c-.54.73.68,1.43,1.22.71Z"/><path class="cls-3" d="M115.7,242.09l1.66-3.59c.38-.82-.84-1.54-1.22-.71l-1.66,3.6c-.38.82.84,1.54,1.22.71Z"/><path class="cls-3" d="M110.73,240.44a14.84,14.84,0,0,0,2.35-4.14c.32-.85-1-1.22-1.36-.37a12.73,12.73,0,0,1-2,3.52c-.56.7.43,1.71,1,1Z"/><path class="cls-3" d="M107.93,238.34a17.55,17.55,0,0,0,2.31-3.45c.41-.81-.8-1.52-1.22-.71a16.07,16.07,0,0,1-2.09,3.16c-.58.69.41,1.69,1,1Z"/><path class="cls-3" d="M104.66,235l2.56-3.17c.57-.7-.42-1.7-1-1L103.67,234c-.57.7.42,1.7,1,1Z"/><path class="cls-3" d="M101.35,231.69a12,12,0,0,0,3.66-3c.56-.7-.43-1.7-1-1a11,11,0,0,1-3.37,2.81c-.8.43-.09,1.65.71,1.22Z"/><path class="cls-2" d="M123.37,79.19h-86c-19.81,0-36-15.75-36-35h0c0-19.25,16.21-35,36-35h86c19.81,0,36,15.75,36,35h0C159.39,63.44,143.18,79.19,123.37,79.19Z"/><circle class="cls-2" cx="42.25" cy="93.72" r="5.05"/><path class="cls-13" d="M36.6,36.31v1.36H32v1.17h3.63v4.24H29.07c-.24.4-.45.77-.64,1.12h8.36v1.41H33.44a5.57,5.57,0,0,1-1.55,2.19c1.52.46,3.09,1,4.69,1.62l-.94,1.25c-1.7-.72-3.41-1.36-5.12-1.92a24.78,24.78,0,0,1-7.4,1.86l-.58-1.34a30,30,0,0,0,6-1.14c-1.23-.37-2.46-.69-3.7-1,.35-.51.7-1,1-1.54h-3.7V44.2h4.56c.22-.38.45-.75.66-1.12h-4V38.84h3.63V37.67H22.35V36.31Zm-9.65,3.83H24.77v1.65h2.18Zm4.91,5.47H27.58l-.62.93c1.07.22,2.16.48,3.28.78A4.23,4.23,0,0,0,31.86,45.61Zm-1.31-7.94H28.4v1.17h2.14Zm0,2.46H28.4v1.65h2.14Zm3.63,0H32v1.65h2.18Z"/><path class="cls-13" d="M39.6,39.75l-1.33-.83a9.1,9.1,0,0,0,2-3.23l1.46.32c-.1.27-.21.54-.3.8h4v1.33H43a9.77,9.77,0,0,1,.74,1.15l-1.39.53a14.26,14.26,0,0,0-.93-1.68h-.7A13.39,13.39,0,0,1,39.6,39.75Zm12.76,3.36H50.87V41.33H40.08v1.78H38.59V40.05h6.2a7.43,7.43,0,0,0-.42-.86L45.71,39l-.27-.18A9.35,9.35,0,0,0,47,35.7L48.5,36c-.1.27-.18.53-.27.78h4.45v1.33H50.07a9.42,9.42,0,0,1,.64,1l-1.34.5a11.48,11.48,0,0,0-.91-1.52h-.82a10.46,10.46,0,0,1-.91,1.47l-.77-.5c.13.29.24.61.37.94h6Zm-2.21,2.3H42.35v.85H50.9v4.27H49.38V50h-7v.56H40.83V42.05h9.32ZM48.66,44.2v-.93H42.35v.93Zm.72,4.42V47.46h-7v1.15Z"/><path class="cls-13" d="M58.19,35.75c-.18,1.06-.35,2-.53,2.95h2.67v.83a17.21,17.21,0,0,1-1.47,6.53A22.32,22.32,0,0,1,61,47.91l-1,1.2c-.51-.53-1.14-1.1-1.84-1.71a12.29,12.29,0,0,1-2.93,3.23l-1-1.28A10.51,10.51,0,0,0,57,46.42c-.74-.59-1.54-1.2-2.4-1.84.48-1.38.9-2.85,1.28-4.43H54.3V38.69h1.86c.19-1,.38-2,.54-3.07Zm.66,4.4H57.36a37.06,37.06,0,0,1-1.14,4c.51.35,1,.7,1.42,1A14.31,14.31,0,0,0,58.85,40.15Zm5.35,2.21V40.52a17.54,17.54,0,0,0,2.32-2.58H61.17V36.47h7.09v1.47a23.9,23.9,0,0,1-2.54,3v1.38h3.12v1.47H65.72v4.75c0,1.18-.46,1.78-1.36,1.78H62l-.4-1.44,2.14,0c.3,0,.46-.27.46-.82V43.83H60.72V42.36Z"/><path class="cls-13" d="M73.58,35.83c-.14,1-.29,2-.42,2.87h2.46v.85a18.89,18.89,0,0,1-1.38,6.77c.58.64,1.07,1.22,1.47,1.73l-1,1.14c-.34-.46-.74-.94-1.18-1.46A12.06,12.06,0,0,1,71.2,50.6l-1-1.2a10.3,10.3,0,0,0,2.29-2.82c-.61-.66-1.26-1.34-2-2,.35-1.36.66-2.82.93-4.39H70.27V38.69H71.7c.14-1,.27-2,.4-3Zm.61,4.32H72.93c-.29,1.57-.59,2.9-.9,4,.42.38.78.75,1.14,1.1A16.56,16.56,0,0,0,74.19,40.15ZM78.82,43A21.83,21.83,0,0,1,77,48.54l-1.28-.82a19.56,19.56,0,0,0,1.68-5Zm-.72,7.46L77.76,49a9.49,9.49,0,0,0,1.31.1c.32,0,.48-.16.48-.45v-9.3H78.43a13.56,13.56,0,0,1-1.71,2.79l-.93-1.2A12.36,12.36,0,0,0,78,35.6l1.55.19A18.92,18.92,0,0,1,79,37.88h5.33v1C84.18,39.91,84,41,83.73,42l-1.5-.43a16.86,16.86,0,0,0,.56-2.24H81.08V49a1.29,1.29,0,0,1-1.47,1.44ZM84.82,48l-1.36.61a47.24,47.24,0,0,0-1.66-5.54l1.33-.45A45.1,45.1,0,0,1,84.82,48Z"/><path class="cls-13" d="M92.08,49.54H90.63v-.83H88.1V50H86.64V38.4h1.52a14.77,14.77,0,0,0,.64-2.67l1.52.21a13,13,0,0,1-.7,2.46h2.46Zm-1.46-6.75V39.84H88.1v2.95Zm0,4.51V44.15H88.1V47.3Zm9.48,1.33c-.16,1.15-.93,1.73-2.29,1.73-.32,0-.9,0-1.7-.08l-.37-1.39c.7,0,1.31.06,1.82.06a1,1,0,0,0,1.1-1c.1-.8.14-3.49.18-8.05h-4a14.38,14.38,0,0,1-1.57,2.64l-.91-1.2a14,14,0,0,0,2.18-5.62l1.5.19a18.65,18.65,0,0,1-.64,2.51h4.95Q100.34,46.7,100.1,48.63ZM97.4,45.69l-1.2.85A30.12,30.12,0,0,0,93.73,43L95,42.25A26.78,26.78,0,0,1,97.4,45.69Z"/><path class="cls-13" d="M115.52,37.16a32.24,32.24,0,0,1-5,.86v2.32h5v1.47h-5v2.27h6.16v1.46h-6.16v3.28c0,1.06-.56,1.59-1.67,1.59h-2.48L106,48.94c.8,0,1.57.08,2.31.08.45,0,.67-.19.67-.56V45.54h-6.74V44.09H109V41.81H103.6V40.34H109V38.15c-1.63.11-3.38.18-5.27.18l-.48-1.38a52.92,52.92,0,0,0,11.51-1.07Z"/><path class="cls-13" d="M122.11,48.65h-1.26v-1h-1V49h-1.26V36.8h3.54Zm-1.26-2.19V38h-1v8.42Zm5.89-10.15v1c-.29,1.42-.61,2.93-1,4.53a11.74,11.74,0,0,1,1,3.68,3.2,3.2,0,0,1-.32,1.65,2.24,2.24,0,0,1-1.76.66l-.42-1.38a3.42,3.42,0,0,0,.72.1.59.59,0,0,0,.4-.27,2.06,2.06,0,0,0,.1-.75,8,8,0,0,0-1-3.49c.42-1.66.74-3.19,1-4.53h-1.25v13h-1.26V36.31Zm3.54,3V46.5h-3.12V39.35Zm2.66-3v1.41h-.61V48.89c0,1-.54,1.54-1.62,1.54H129l-.29-1.26c.53,0,1,.08,1.5.08s.77-.22.77-.67V37.78h-3.7V36.37Zm-3.75,4h-.94v5.07h.94Z"/><path class="cls-13" d="M137,46.92a1.06,1.06,0,0,1,.34.82,1.12,1.12,0,0,1-.34.83,1.27,1.27,0,0,1-.85.32,1.11,1.11,0,0,1-.82-.34,1.07,1.07,0,0,1-.35-.82,1,1,0,0,1,.35-.82,1.09,1.09,0,0,1,.82-.32A1.15,1.15,0,0,1,137,46.92Zm.16-9.46-.37,8.2H135.5l-.37-8.2Z"/></g></g></svg>