<?xml version="1.0" encoding="UTF-8"?>
<svg width="126px" height="103px" viewBox="0 0 126 103" version="1.1" xmlns="http://www.w3.org/2000/svg" xmlns:xlink="http://www.w3.org/1999/xlink">
    <!-- Generator: Sketch 43.2 (39069) - http://www.bohemiancoding.com/sketch -->
    <title>Page 1</title>
    <desc>Created with Sketch.</desc>
    <defs>
        <polygon id="path-1" points="0 2.20924614 0 57.36816 92.2195176 57.36816 92.2195176 2.20924614 9.75781955e-20 2.20924614"></polygon>
        <polygon id="path-3" points="3.16224 68.4 38.658081 68.4 38.658081 0.659314051 3.16224 0.659314051 3.16224 68.4"></polygon>
        <polygon id="path-5" points="96.4152 51.4584 96.4152 2.628 2.44055003 2.628 2.44055003 51.4584 96.4152 51.4584"></polygon>
    </defs>
    <g id="webite-&amp;-mobile-size-" stroke="none" stroke-width="1" fill="none" fill-rule="evenodd">
        <g id="iPhone-6-06-tap" transform="translate(-127.000000, -239.000000)">
            <g id="Page-1" transform="translate(127.000000, 236.000000)">
                <polygon id="Fill-1" fill="#FF8D9F" points="1.3284 66.97224 90.6156 103.81104 90.8928 88.28064 1.3284 51.30504"></polygon>
                <g id="Group-51" transform="translate(0.000000, 0.972720)">
                    <g id="Group-4" transform="translate(0.000000, 46.800000)">
                        <mask id="mask-2" fill="white">
                            <use xlink:href="#path-1"></use>
                        </mask>
                        <g id="Clip-3"></g>
                        <path d="M2.655,18.31176 L89.325,54.07056 L89.5482,41.39136 L2.655,5.52096 L2.655,18.31176 Z M90.6174,57.36816 C90.4482,57.36816 90.2754,57.33576 90.1098,57.26736 L0.819,20.42856 C0.3222,20.22336 -0.0018,19.73736 -0.0018,19.20096 L-0.0018,3.53736 C-0.0018,3.09096 0.2214,2.68056 0.5886,2.43216 C0.9558,2.18736 1.4238,2.14056 1.8342,2.30976 L91.3986,39.28176 C91.9026,39.49056 92.2266,39.98736 92.2194,40.53456 L91.9458,56.06496 C91.9386,56.50416 91.7118,56.90736 91.3482,57.14856 C91.1286,57.29256 90.873,57.36816 90.6174,57.36816 L90.6174,57.36816 Z" id="Fill-2" fill="#534741" mask="url(#mask-2)"></path>
                    </g>
                    <path d="M80.2962,94.1832 L10.233,65.0556 C9.729,64.8432 9.4014,64.35 9.4014,63.8028 L9.4014,60.606 C9.4014,59.6376 10.3806,58.9824 11.2734,59.3532 L81.3942,88.5132 C81.9054,88.7292 82.2366,89.2332 82.2258,89.7876 L82.1718,92.9556 C82.1538,93.9132 81.1782,94.5504 80.2962,94.1832" id="Fill-5" fill="#534741"></path>
                    <polygon id="Fill-7" fill="#FF8D9F" points="123.73128 37.98432 90.89208 87.40872 90.89208 103.07232 122.64408 53.61912"></polygon>
                    <g id="Group-11" transform="translate(86.400000, 36.000000)">
                        <mask id="mask-4" fill="white">
                            <use xlink:href="#path-3"></use>
                        </mask>
                        <g id="Clip-10"></g>
                        <path d="M5.81904,51.80904 L5.81904,62.54784 L34.94664,17.18784 L35.65944,6.89904 L5.81904,51.80904 Z M4.49064,68.40144 C4.36824,68.40144 4.24224,68.38344 4.11984,68.34744 C3.55464,68.18184 3.16224,67.66344 3.16224,67.07304 L3.16224,51.40944 C3.16224,51.14664 3.24144,50.89104 3.38544,50.67144 L36.22464,1.25064 C36.55944,0.75024 37.18944,0.53784 37.75824,0.72864 C38.33064,0.92304 38.69784,1.47384 38.65464,2.07504 L37.57104,17.71344 C37.55664,17.93304 37.48464,18.14904 37.36224,18.33624 L5.61024,67.78944 C5.36184,68.17824 4.93344,68.40144 4.49064,68.40144 L4.49064,68.40144 Z" id="Fill-9" fill="#534741" mask="url(#mask-4)"></path>
                    </g>
                    <polygon id="Fill-12" fill="#FF4A46" points="31.5972 48.09708 74.5596 66.48588 93.4632 40.59108 52.9236 23.24268"></polygon>
                    <path d="M33.78312,47.58876 L74.11032,64.84716 L91.40472,41.15556 L53.29512,24.84756 L33.78312,47.58876 Z M74.56032,67.81356 C74.38392,67.81356 74.20752,67.77756 74.03832,67.70556 L31.07592,49.31676 C30.68712,49.15116 30.39912,48.80916 30.30552,48.39876 C30.20832,47.98836 30.31632,47.55276 30.58992,47.23236 L51.91272,22.37796 C52.29072,21.93516 52.91352,21.79476 53.44272,22.02156 L93.98592,39.37356 C94.35672,39.53196 94.63392,39.85236 94.74192,40.24116 C94.84992,40.63356 94.77432,41.05116 94.53312,41.37516 L75.63312,67.26636 C75.37392,67.61916 74.97432,67.81356 74.56032,67.81356 L74.56032,67.81356 Z" id="Fill-14" fill="#534741"></path>
                    <polygon id="Fill-16" fill="#FF8D9F" points="93.46248 40.59288 74.55888 66.48408 98.18208 76.59288 115.75008 50.12928"></polygon>
                    <path d="M76.61592,65.92068 L97.68672,74.93868 L113.76072,50.72508 L93.91032,42.22908 L76.61592,65.92068 Z M98.17992,77.92308 C98.00352,77.92308 97.82712,77.88708 97.65792,77.81508 L74.03832,67.70268 C73.66392,67.54788 73.38672,67.22748 73.27872,66.83508 C73.17432,66.44628 73.24992,66.02868 73.48752,65.70108 L92.39112,39.80988 C92.75472,39.30948 93.41352,39.12948 93.98592,39.37428 L116.26992,48.91068 C116.63352,49.06548 116.90712,49.37508 117.01872,49.74948 C117.13392,50.12748 117.07272,50.53788 116.85312,50.86548 L99.28512,77.32908 C99.03312,77.71068 98.61192,77.92308 98.17992,77.92308 L98.17992,77.92308 Z" id="Fill-18" fill="#534741"></path>
                    <polygon id="Fill-20" fill="#FF8D9F" points="52.92216 23.24232 32.56776 14.53032 11.09016 39.31992 31.59576 48.09672"></polygon>
                    <path d="M13.28472,38.81556 L31.22352,46.49436 L50.73552,23.74956 L32.93712,16.13196 L13.28472,38.81556 Z M31.59792,49.42476 C31.42152,49.42476 31.24152,49.38876 31.07592,49.31676 L10.56672,40.53996 C10.17792,40.37436 9.89352,40.03236 9.79632,39.61836 C9.70272,39.20436 9.81072,38.77236 10.08792,38.45196 L31.56552,13.66236 C31.94352,13.22676 32.56272,13.08636 33.09192,13.30956 L53.44272,22.02156 C53.83152,22.18716 54.11952,22.52916 54.21312,22.93956 C54.31032,23.35356 54.20232,23.78556 53.92872,24.10596 L32.60592,48.96036 C32.34672,49.26276 31.97592,49.42476 31.59792,49.42476 L31.59792,49.42476 Z" id="Fill-22" fill="#534741"></path>
                    <polygon id="Fill-24" fill="#FF8D9F" points="102.03588 28.84968 62.21628 12.41208 41.73228 3.95568 32.56668 14.53248 52.92108 23.24088 93.46068 40.59288 115.74828 50.12928 123.88788 37.87128"></polygon>
                    <g id="Group-28" transform="translate(28.800000, 0.000000)">
                        <mask id="mask-6" fill="white">
                            <use xlink:href="#path-5"></use>
                        </mask>
                        <g id="Clip-27"></g>
                        <path d="M5.96196,14.0256 L86.45436,48.474 L93.08916,38.484 L13.30956,5.5476 L5.96196,14.0256 Z M86.94756,51.4584 C86.77476,51.4584 86.59476,51.4224 86.42556,51.3504 L3.24756,15.75 C2.85516,15.5844 2.57076,15.2424 2.47356,14.8284 C2.37996,14.4144 2.48796,13.9824 2.76516,13.662 L11.92716,3.0852 C12.30156,2.6532 12.90996,2.5092 13.43916,2.7252 L73.74276,27.6228 L95.59476,36.6444 C95.96196,36.7956 96.24276,37.1052 96.35796,37.4832 C96.47316,37.8648 96.41556,38.2752 96.19236,38.6064 L88.05276,50.8644 C87.80076,51.246 87.38316,51.4584 86.94756,51.4584 L86.94756,51.4584 Z" id="Fill-26" fill="#534741" mask="url(#mask-6)"></path>
                    </g>
                    <polygon id="Fill-29" fill="#FF8D9F" points="31.5972 48.09708 11.0916 39.32028 1.3464 50.56668 22.1184 59.14188 66.5316 77.48028 90.9108 87.54228 98.1792 76.59468 74.5596 66.48588"></polygon>
                    <path d="M3.5586,50.04432 L90.4086,85.90032 L96.1938,77.18832 L11.4606,40.92192 L3.5586,50.04432 Z M90.9126,88.87032 C90.7398,88.87032 90.567,88.83792 90.405,88.76952 L0.8406,51.79392 C0.4482,51.63192 0.1566,51.28992 0.0558,50.87232 C-0.0414,50.45832 0.0666,50.01912 0.3438,49.69872 L10.089,38.45232 C10.467,38.01672 11.0862,37.87272 11.6154,38.09952 L32.121,46.87632 L98.703,75.37392 C99.063,75.52872 99.3402,75.83832 99.4518,76.21632 C99.5634,76.59072 99.5022,77.00112 99.2862,77.32872 L92.0178,88.27632 C91.7658,88.65792 91.3446,88.87032 90.9126,88.87032 L90.9126,88.87032 Z" id="Fill-31" fill="#534741"></path>
                    <path d="M31.41612,32.51952 C32.42772,29.06352 37.65132,27.55152 43.08372,29.14272 C44.36892,29.51712 45.54252,30.03552 46.57932,30.64752 L52.25652,24.03432 C50.03532,22.65192 47.48292,21.54672 44.68212,20.83752 C33.77412,18.08712 23.29812,22.33512 21.27852,30.33072 C19.62252,36.88992 24.18012,43.92792 31.89492,47.76552 L37.67292,41.02992 C33.24852,39.15432 30.51612,35.59032 31.41612,32.51952" id="Fill-33" fill="#534741"></path>
                    <path d="M38.03436,21.32604 C30.40236,21.32604 24.01236,24.91884 22.56516,30.65724 C21.17556,36.15804 24.85836,42.39324 31.57596,46.10124 L35.55036,41.46804 C31.41756,39.15324 29.18196,35.42364 30.14316,32.14764 C31.37796,27.92484 37.22796,26.04204 43.45956,27.86724 C44.43516,28.15164 45.37836,28.52244 46.27116,28.96884 L50.20956,24.38244 C48.38796,23.40684 46.42596,22.64724 44.35596,22.12524 C42.20676,21.58524 40.07556,21.32604 38.03436,21.32604 M31.89276,49.09284 C31.69476,49.09284 31.48956,49.04964 31.30236,48.95604 C22.74876,44.69724 18.20196,37.08324 19.99116,30.00564 C22.18356,21.31524 33.40476,16.62444 45.00756,19.55124 C47.86236,20.27484 50.54076,21.40164 52.95636,22.90644 C53.28756,23.11164 53.51076,23.45004 53.56836,23.83164 C53.62596,24.21684 53.51796,24.60564 53.26236,24.89724 L47.58876,31.51404 C47.17116,32.00004 46.46196,32.11884 45.90756,31.79124 C44.91756,31.21164 43.84476,30.74724 42.71436,30.41604 C38.07396,29.06244 33.48036,30.18924 32.69196,32.89284 C32.01156,35.21844 34.37316,38.19204 38.19276,39.80844 C38.58156,39.97044 38.86956,40.31244 38.96676,40.72644 C39.06396,41.13684 38.95596,41.57244 38.68236,41.89644 L32.90076,48.63204 C32.64516,48.93084 32.27076,49.09284 31.89276,49.09284" id="Fill-35" fill="#534741"></path>
                    <path d="M31.41612,32.51952 C30.51612,35.59032 33.24852,39.15432 37.67292,41.02992 L46.57932,30.64752 C45.54252,30.03552 44.36892,29.51712 43.08372,29.14272 C37.65132,27.55152 32.42772,29.06352 31.41612,32.51952" id="Fill-37" fill="#FFFFFF"></path>
                    <path d="M32.69016,32.8932 C32.06376,35.0352 34.02216,37.728 37.31976,39.402 L44.48016,31.0608 C43.91136,30.8088 43.32096,30.5964 42.71256,30.4164 C38.07576,29.0628 33.48216,30.1896 32.69016,32.8932 M37.67256,42.3576 C37.49976,42.3576 37.32336,42.3252 37.15776,42.2532 C32.01336,40.0752 29.06496,35.8272 30.14136,32.148 C31.37976,27.9252 37.22616,26.0424 43.45776,27.8676 C44.80056,28.26 46.07856,28.8108 47.25576,29.5056 C47.59416,29.7036 47.82816,30.0456 47.88936,30.4308 C47.95416,30.8196 47.84256,31.2156 47.58696,31.5144 L38.68056,41.8932 C38.42136,42.1956 38.05416,42.3576 37.67256,42.3576" id="Fill-39" fill="#534741"></path>
                    <path d="M92.934,41.31648 L87.7896,48.36528 C93.0636,51.07248 96.0336,55.66968 94.4532,58.84488 C92.8152,62.13888 86.9112,62.65368 81.2664,59.99328 C80.7696,59.76288 80.3016,59.50728 79.848,59.24448 L74.7036,66.28608 C75.6864,66.83328 76.698,67.35168 77.7708,67.81248 C89.172,72.70848 101.2068,70.44408 104.6484,62.76168 C107.802,55.71288 102.6144,46.56168 92.934,41.31648" id="Fill-41" fill="#534741"></path>
                    <path d="M76.6782,65.83392 C77.2398,66.11832 77.769,66.36672 78.2946,66.59352 C89.0154,71.19432 100.2942,69.23232 103.4334,62.21952 C106.1478,56.16432 101.8134,48.07872 93.3102,43.05312 L89.7426,47.93832 C94.905,51.09912 97.4214,55.86192 95.643,59.43672 C93.6522,63.43632 87.093,64.20672 80.6994,61.19352 C80.541,61.12152 80.3862,61.04592 80.2314,60.96672 L76.6782,65.83392 Z M89.7498,71.70192 C85.7682,71.70192 81.459,70.84152 77.247,69.03432 C76.2426,68.60232 75.231,68.09832 74.0574,67.44312 C73.7262,67.25952 73.4886,66.93912 73.4094,66.56832 C73.3266,66.19752 73.4094,65.80872 73.6326,65.50272 L78.7734,58.46112 C79.1766,57.91032 79.9218,57.75192 80.5158,58.09392 C80.937,58.33872 81.3726,58.57632 81.8334,58.79232 C86.7366,61.10352 91.971,60.85512 93.2634,58.25592 C94.4874,55.80072 91.7586,51.89472 87.183,49.54752 C86.8374,49.36752 86.589,49.05072 86.499,48.67272 C86.409,48.29472 86.4882,47.89512 86.715,47.58192 L91.863,40.53312 C92.2554,39.99672 92.979,39.83112 93.5658,40.14792 C103.9626,45.78192 109.2474,55.73592 105.8598,63.30672 C103.4334,68.72112 97.155,71.70192 89.7498,71.70192 L89.7498,71.70192 Z" id="Fill-43" fill="#534741"></path>
                    <path d="M81.26532,59.994 C86.91012,62.6544 92.81412,62.1396 94.45212,58.8456 C96.03612,55.6704 93.06252,51.0732 87.78852,48.366 L79.84692,59.2416 C80.30052,59.508 80.77212,59.76 81.26532,59.994" id="Fill-45" fill="#FFFFFF"></path>
                    <path d="M81.8316,58.79412 C86.7384,61.10172 91.9728,60.85692 93.2652,58.25412 C94.3956,55.98252 92.142,52.46892 88.1712,50.09292 L81.8208,58.79052 L81.8316,58.79412 Z M88.326,63.02772 C85.9716,63.02772 83.322,62.43012 80.7012,61.19532 L80.6976,61.19532 C80.1684,60.94332 79.668,60.67332 79.1784,60.38892 C78.8544,60.20172 78.624,59.88492 78.5484,59.51412 C78.4692,59.14692 78.552,58.76172 78.7752,58.45932 L86.7168,47.58372 C87.102,47.05452 87.8112,46.88892 88.3944,47.18412 C94.4568,50.29452 97.5708,55.56492 95.6448,59.43852 C94.4676,61.79292 91.7064,63.02772 88.326,63.02772 L88.326,63.02772 Z" id="Fill-47" fill="#534741"></path>
                    <path d="M61.78824,33.3144 L70.34184,37.6524 C71.02224,37.998 71.38224,38.5884 71.42184,39.4272 C71.46144,40.266 71.17704,41.1084 70.57224,41.9544 L67.78224,45.846 C67.17744,46.692 66.42144,47.2968 65.52144,47.6568 C64.62504,48.0204 63.83304,48.0276 63.15264,47.682 L58.82184,45.4896 C58.75344,45.4536 58.68504,45.4788 58.62384,45.5652 L57.55464,47.0556 L55.22904,45.8784 L56.29824,44.388 C56.90304,43.5456 57.65904,42.9408 58.56624,42.5808 C59.46984,42.2244 60.25824,42.2136 60.92784,42.552 L65.25864,44.748 C65.33784,44.7912 65.41344,44.766 65.47464,44.676 L68.26464,40.7844 C68.34024,40.68 68.33664,40.608 68.25384,40.5684 L59.70024,36.2268 L61.78824,33.3144 Z M54.42624,51.4152 L52.10424,50.238 L54.19584,47.3256 L56.51784,48.5028 L54.42624,51.4152 Z" id="Fill-49" fill="#FFFFFF"></path>
                </g>
            </g>
        </g>
    </g>
</svg>